%TF.GenerationSoftware,KiCad,Pcbnew,8.0.5*%
%TF.CreationDate,2025-02-09T21:06:14+01:00*%
%TF.ProjectId,eeg_diy,6565675f-6469-4792-9e6b-696361645f70,rev?*%
%TF.SameCoordinates,Original*%
%TF.FileFunction,Soldermask,Bot*%
%TF.FilePolarity,Negative*%
%FSLAX46Y46*%
G04 Gerber Fmt 4.6, Leading zero omitted, Abs format (unit mm)*
G04 Created by KiCad (PCBNEW 8.0.5) date 2025-02-09 21:06:14*
%MOMM*%
%LPD*%
G01*
G04 APERTURE LIST*
G04 Aperture macros list*
%AMRoundRect*
0 Rectangle with rounded corners*
0 $1 Rounding radius*
0 $2 $3 $4 $5 $6 $7 $8 $9 X,Y pos of 4 corners*
0 Add a 4 corners polygon primitive as box body*
4,1,4,$2,$3,$4,$5,$6,$7,$8,$9,$2,$3,0*
0 Add four circle primitives for the rounded corners*
1,1,$1+$1,$2,$3*
1,1,$1+$1,$4,$5*
1,1,$1+$1,$6,$7*
1,1,$1+$1,$8,$9*
0 Add four rect primitives between the rounded corners*
20,1,$1+$1,$2,$3,$4,$5,0*
20,1,$1+$1,$4,$5,$6,$7,0*
20,1,$1+$1,$6,$7,$8,$9,0*
20,1,$1+$1,$8,$9,$2,$3,0*%
G04 Aperture macros list end*
%ADD10C,0.499999*%
%ADD11R,1.700000X1.700000*%
%ADD12O,1.700000X1.700000*%
%ADD13C,1.000000*%
%ADD14RoundRect,0.102000X0.611000X0.611000X-0.611000X0.611000X-0.611000X-0.611000X0.611000X-0.611000X0*%
%ADD15C,1.426000*%
%ADD16RoundRect,0.250000X0.625000X-0.350000X0.625000X0.350000X-0.625000X0.350000X-0.625000X-0.350000X0*%
%ADD17O,1.750000X1.200000*%
G04 APERTURE END LIST*
D10*
%TO.C,U5*%
X83610125Y-49763992D03*
%TD*%
D11*
%TO.C,J4*%
X156000000Y-83800000D03*
D12*
X153460000Y-83800000D03*
X150920000Y-83800000D03*
X148380000Y-83800000D03*
X145840000Y-83800000D03*
X143300000Y-83800000D03*
X140760000Y-83800000D03*
X138220000Y-83800000D03*
X135680000Y-83800000D03*
X133140000Y-83800000D03*
X130600000Y-83800000D03*
X128060000Y-83800000D03*
X125520000Y-83800000D03*
X122980000Y-83800000D03*
X120440000Y-83800000D03*
X117900000Y-83800000D03*
X115360000Y-83800000D03*
X112820000Y-83800000D03*
X110280000Y-83800000D03*
X107740000Y-83800000D03*
%TD*%
D13*
%TO.C,S1*%
X75500000Y-75000000D03*
X75500000Y-81800000D03*
%TD*%
%TO.C,S3*%
X76450000Y-26300000D03*
X76450000Y-33100000D03*
%TD*%
%TO.C,S2*%
X75650000Y-64300000D03*
X75650000Y-71100000D03*
%TD*%
D11*
%TO.C,J7*%
X165640000Y-25000000D03*
D12*
X163100000Y-25000000D03*
X160560000Y-25000000D03*
X158020000Y-25000000D03*
X155480000Y-25000000D03*
X152940000Y-25000000D03*
X150400000Y-25000000D03*
X147860000Y-25000000D03*
X145320000Y-25000000D03*
X142780000Y-25000000D03*
X140240000Y-25000000D03*
X137700000Y-25000000D03*
X135160000Y-25000000D03*
X132620000Y-25000000D03*
X130080000Y-25000000D03*
X127540000Y-25000000D03*
X125000000Y-25000000D03*
X122460000Y-25000000D03*
X119920000Y-25000000D03*
X117380000Y-25000000D03*
%TD*%
D14*
%TO.C,VR1*%
X132340000Y-45600000D03*
D15*
X129800000Y-48140000D03*
X127260000Y-45600000D03*
%TD*%
D13*
%TO.C,S15*%
X127740000Y-77200000D03*
X134540000Y-77200000D03*
%TD*%
D16*
%TO.C,J1*%
X73800000Y-41325000D03*
D17*
X73800000Y-39325000D03*
%TD*%
D13*
%TO.C,S5*%
X84450000Y-64300000D03*
X84450000Y-71100000D03*
%TD*%
%TO.C,S14*%
X141000000Y-77400000D03*
X147800000Y-77400000D03*
%TD*%
%TO.C,S8*%
X133800000Y-32600000D03*
X127000000Y-32600000D03*
%TD*%
%TO.C,S4*%
X84300000Y-75000000D03*
X84300000Y-81800000D03*
%TD*%
D14*
%TO.C,VR2*%
X132735500Y-64165000D03*
D15*
X130195500Y-66705000D03*
X127655500Y-64165000D03*
%TD*%
D13*
%TO.C,S6*%
X86050000Y-33100000D03*
X86050000Y-26300000D03*
%TD*%
%TO.C,S13*%
X97400000Y-83200000D03*
X104200000Y-83200000D03*
%TD*%
%TO.C,S9*%
X148600000Y-32600000D03*
X141800000Y-32600000D03*
%TD*%
M02*
