M48
; DRILL file {KiCad 8.0.5} date 2025-02-09T21:06:14+0100
; FORMAT={-:-/ absolute / inch / decimal}
; #@! TF.CreationDate,2025-02-09T21:06:14+01:00
; #@! TF.GenerationSoftware,Kicad,Pcbnew,8.0.5
; #@! TF.FileFunction,NonPlated,1,2,NPTH
FMAT,2
INCH
; #@! TA.AperFunction,NonPlated,NPTH,ComponentDrill
T1C0.0394
%
G90
G05
T1
X2.9724Y-2.9528
X2.9724Y-3.2205
X2.9783Y-2.5315
X2.9783Y-2.7992
X3.0098Y-1.0354
X3.0098Y-1.3031
X3.3189Y-2.9528
X3.3189Y-3.2205
X3.3248Y-2.5315
X3.3248Y-2.7992
X3.3878Y-1.0354
X3.3878Y-1.3031
X3.8346Y-3.2756
X4.1024Y-3.2756
X5.0Y-1.2835
X5.0291Y-3.0394
X5.2677Y-1.2835
X5.2969Y-3.0394
X5.5512Y-3.0472
X5.5827Y-1.2835
X5.8189Y-3.0472
X5.8504Y-1.2835
M30
