M48
; DRILL file {KiCad 8.0.5} date 2025-02-09T21:06:14+0100
; FORMAT={-:-/ absolute / inch / decimal}
; #@! TF.CreationDate,2025-02-09T21:06:14+01:00
; #@! TF.GenerationSoftware,Kicad,Pcbnew,8.0.5
; #@! TF.FileFunction,Plated,1,2,PTH
FMAT,2
INCH
; #@! TA.AperFunction,Plated,PTH,ComponentDrill
T1C0.0080
; #@! TA.AperFunction,Plated,PTH,ViaDrill
T2C0.0118
; #@! TA.AperFunction,Plated,PTH,ComponentDrill
T3C0.0281
; #@! TA.AperFunction,Plated,PTH,ComponentDrill
T4C0.0295
; #@! TA.AperFunction,Plated,PTH,ComponentDrill
T5C0.0394
%
G90
G05
T1
X3.2917Y-1.9592
T2
X2.7953Y-2.8898
X2.8268Y-2.7559
X2.9134Y-0.937
X2.9134Y-2.8819
X2.9528Y-2.7323
X3.0551Y-3.378
X3.0787Y-1.9449
X3.1811Y-2.6063
X3.1969Y-2.8976
X3.2126Y-1.7008
X3.2283Y-3.3228
X3.252Y-2.0866
X3.2913Y-0.9291
X3.3465Y-1.8898
X3.4173Y-1.5984
X3.4173Y-2.0551
X3.5354Y-1.937
X3.7559Y-2.874
X3.7795Y-2.1496
X3.7795Y-2.2441
X3.8268Y-1.0866
X3.8268Y-1.4173
X3.8425Y-1.8583
X3.8976Y-2.3701
X3.9055Y-1.0866
X3.937Y-2.748
X3.9528Y-1.2047
X3.9528Y-2.0394
X3.9528Y-3.0472
X3.9606Y-1.5276
X4.0472Y-3.0472
X4.0551Y-1.2205
X4.063Y-2.6142
X4.063Y-3.0
X4.1575Y-2.2441
X4.1654Y-1.4173
X4.189Y-1.7008
X4.2126Y-2.3543
X4.2913Y-2.4173
X4.2913Y-2.4654
X4.3071Y-1.2441
X4.315Y-1.2913
X4.3228Y-2.2047
X4.3465Y-2.4724
X4.3583Y-1.122
X4.3937Y-3.0709
X4.4173Y-1.2362
X4.4409Y-3.0315
X4.4803Y-2.6929
X4.5512Y-1.8898
X4.7008Y-2.1969
X4.7244Y-2.6929
X4.7323Y-1.9134
X4.7402Y-1.4961
X4.7559Y-3.1496
X4.7638Y-2.2677
X4.7953Y-1.9291
X4.8346Y-1.8819
X4.874Y-1.4961
X4.8819Y-1.3386
X4.8819Y-1.5984
X4.9055Y-3.1496
X4.9134Y-2.7402
X4.9213Y-2.937
X4.9291Y-2.3307
X4.937Y-2.5197
X4.9606Y-2.5984
X4.9606Y-2.6614
X4.9685Y-2.8661
X5.0394Y-3.2126
X5.4724Y-2.5748
X5.4803Y-1.8976
X5.5502Y-2.2119
X5.6299Y-2.2677
X5.6378Y-2.5669
X5.6457Y-2.622
X5.6535Y-1.5276
X5.6535Y-1.8661
X5.7244Y-1.8976
X5.7559Y-1.5039
X5.7953Y-2.2756
X6.0Y-2.378
X6.0157Y-1.6614
X6.1024Y-1.2598
X6.126Y-1.1654
X6.1575Y-1.4094
X6.2205Y-1.1491
X6.2283Y-2.5512
X6.3465Y-1.4724
X6.378Y-2.2047
X6.4094Y-1.5039
X6.4449Y-1.0787
X6.4724Y-1.4567
X6.4961Y-1.874
X6.4961Y-2.5039
X6.5118Y-2.7087
X6.5512Y-1.0945
T3
X5.0102Y-1.7953
X5.0258Y-2.5262
X5.1102Y-1.8953
X5.1258Y-2.6262
X5.2102Y-1.7953
X5.2258Y-2.5262
T4
X2.9055Y-1.5482
X2.9055Y-1.627
T5
X4.2417Y-3.2992
X4.3417Y-3.2992
X4.4417Y-3.2992
X4.5417Y-3.2992
X4.6213Y-0.9843
X4.6417Y-3.2992
X4.7213Y-0.9843
X4.7417Y-3.2992
X4.8213Y-0.9843
X4.8417Y-3.2992
X4.9213Y-0.9843
X4.9417Y-3.2992
X5.0213Y-0.9843
X5.0417Y-3.2992
X5.1213Y-0.9843
X5.1417Y-3.2992
X5.2213Y-0.9843
X5.2417Y-3.2992
X5.3213Y-0.9843
X5.3417Y-3.2992
X5.4213Y-0.9843
X5.4417Y-3.2992
X5.5213Y-0.9843
X5.5417Y-3.2992
X5.6213Y-0.9843
X5.6417Y-3.2992
X5.7213Y-0.9843
X5.7417Y-3.2992
X5.8213Y-0.9843
X5.8417Y-3.2992
X5.9213Y-0.9843
X5.9417Y-3.2992
X6.0213Y-0.9843
X6.0417Y-3.2992
X6.1213Y-0.9843
X6.1417Y-3.2992
X6.2213Y-0.9843
X6.3213Y-0.9843
X6.4213Y-0.9843
X6.5213Y-0.9843
M30
