%TF.GenerationSoftware,KiCad,Pcbnew,8.0.5*%
%TF.CreationDate,2025-02-09T21:06:14+01:00*%
%TF.ProjectId,eeg_diy,6565675f-6469-4792-9e6b-696361645f70,rev?*%
%TF.SameCoordinates,Original*%
%TF.FileFunction,Copper,L2,Bot*%
%TF.FilePolarity,Positive*%
%FSLAX46Y46*%
G04 Gerber Fmt 4.6, Leading zero omitted, Abs format (unit mm)*
G04 Created by KiCad (PCBNEW 8.0.5) date 2025-02-09 21:06:14*
%MOMM*%
%LPD*%
G01*
G04 APERTURE LIST*
G04 Aperture macros list*
%AMRoundRect*
0 Rectangle with rounded corners*
0 $1 Rounding radius*
0 $2 $3 $4 $5 $6 $7 $8 $9 X,Y pos of 4 corners*
0 Add a 4 corners polygon primitive as box body*
4,1,4,$2,$3,$4,$5,$6,$7,$8,$9,$2,$3,0*
0 Add four circle primitives for the rounded corners*
1,1,$1+$1,$2,$3*
1,1,$1+$1,$4,$5*
1,1,$1+$1,$6,$7*
1,1,$1+$1,$8,$9*
0 Add four rect primitives between the rounded corners*
20,1,$1+$1,$2,$3,$4,$5,0*
20,1,$1+$1,$4,$5,$6,$7,0*
20,1,$1+$1,$6,$7,$8,$9,0*
20,1,$1+$1,$8,$9,$2,$3,0*%
G04 Aperture macros list end*
%TA.AperFunction,ComponentPad*%
%ADD10C,0.499999*%
%TD*%
%TA.AperFunction,ComponentPad*%
%ADD11R,1.700000X1.700000*%
%TD*%
%TA.AperFunction,ComponentPad*%
%ADD12O,1.700000X1.700000*%
%TD*%
%TA.AperFunction,ComponentPad*%
%ADD13R,1.222000X1.222000*%
%TD*%
%TA.AperFunction,ComponentPad*%
%ADD14C,1.222000*%
%TD*%
%TA.AperFunction,ComponentPad*%
%ADD15RoundRect,0.250000X0.625000X-0.350000X0.625000X0.350000X-0.625000X0.350000X-0.625000X-0.350000X0*%
%TD*%
%TA.AperFunction,ComponentPad*%
%ADD16O,1.750000X1.200000*%
%TD*%
%TA.AperFunction,ViaPad*%
%ADD17C,0.600000*%
%TD*%
%TA.AperFunction,Conductor*%
%ADD18C,0.200000*%
%TD*%
%TA.AperFunction,Conductor*%
%ADD19C,0.300000*%
%TD*%
%TA.AperFunction,Conductor*%
%ADD20C,0.600000*%
%TD*%
G04 APERTURE END LIST*
D10*
%TO.P,U5,V*%
%TO.N,N/C*%
X83610125Y-49763992D03*
%TD*%
D11*
%TO.P,J4,1,Pin_1*%
%TO.N,unconnected-(J4-Pin_1-Pad1)*%
X156000000Y-83800000D03*
D12*
%TO.P,J4,2,Pin_2*%
%TO.N,unconnected-(J4-Pin_2-Pad2)*%
X153460000Y-83800000D03*
%TO.P,J4,3,Pin_3*%
%TO.N,unconnected-(J4-Pin_3-Pad3)*%
X150920000Y-83800000D03*
%TO.P,J4,4,Pin_4*%
%TO.N,GND2*%
X148380000Y-83800000D03*
%TO.P,J4,5,Pin_5*%
%TO.N,+5V*%
X145840000Y-83800000D03*
%TO.P,J4,6,Pin_6*%
%TO.N,V_shift2*%
X143300000Y-83800000D03*
%TO.P,J4,7,Pin_7*%
%TO.N,V_notch2*%
X140760000Y-83800000D03*
%TO.P,J4,8,Pin_8*%
%TO.N,V_gain2*%
X138220000Y-83800000D03*
%TO.P,J4,9,Pin_9*%
%TO.N,DRL*%
X135680000Y-83800000D03*
%TO.P,J4,10,Pin_10*%
%TO.N,V_in22*%
X133140000Y-83800000D03*
%TO.P,J4,11,Pin_11*%
%TO.N,V_in12*%
X130600000Y-83800000D03*
%TO.P,J4,12,Pin_12*%
%TO.N,Ref2*%
X128060000Y-83800000D03*
%TO.P,J4,13,Pin_13*%
%TO.N,-2V*%
X125520000Y-83800000D03*
%TO.P,J4,14,Pin_14*%
%TO.N,+2V*%
X122980000Y-83800000D03*
%TO.P,J4,15,Pin_15*%
%TO.N,GND*%
X120440000Y-83800000D03*
%TO.P,J4,16,Pin_16*%
%TO.N,3.7V*%
X117900000Y-83800000D03*
%TO.P,J4,17,Pin_17*%
%TO.N,+1.5V*%
X115360000Y-83800000D03*
%TO.P,J4,18,Pin_18*%
%TO.N,GND*%
X112820000Y-83800000D03*
%TO.P,J4,19,Pin_19*%
X110280000Y-83800000D03*
%TO.P,J4,20,Pin_20*%
%TO.N,-1.5V*%
X107740000Y-83800000D03*
%TD*%
D11*
%TO.P,J7,1,Pin_1*%
%TO.N,AIN3*%
X165640000Y-25000000D03*
D12*
%TO.P,J7,2,Pin_2*%
%TO.N,AIN1*%
X163100000Y-25000000D03*
%TO.P,J7,3,Pin_3*%
%TO.N,ALERT*%
X160560000Y-25000000D03*
%TO.P,J7,4,Pin_4*%
%TO.N,ADDR*%
X158020000Y-25000000D03*
%TO.P,J7,5,Pin_5*%
%TO.N,SDA*%
X155480000Y-25000000D03*
%TO.P,J7,6,Pin_6*%
%TO.N,SCL*%
X152940000Y-25000000D03*
%TO.P,J7,7,Pin_7*%
%TO.N,GND2*%
X150400000Y-25000000D03*
%TO.P,J7,8,Pin_8*%
%TO.N,+5V*%
X147860000Y-25000000D03*
%TO.P,J7,9,Pin_9*%
%TO.N,V_shift*%
X145320000Y-25000000D03*
%TO.P,J7,10,Pin_10*%
%TO.N,V_notch*%
X142780000Y-25000000D03*
%TO.P,J7,11,Pin_11*%
%TO.N,V_gain*%
X140240000Y-25000000D03*
%TO.P,J7,12,Pin_12*%
%TO.N,unconnected-(J7-Pin_12-Pad12)*%
X137700000Y-25000000D03*
%TO.P,J7,13,Pin_13*%
%TO.N,V_in2*%
X135160000Y-25000000D03*
%TO.P,J7,14,Pin_14*%
%TO.N,V_in1*%
X132620000Y-25000000D03*
%TO.P,J7,15,Pin_15*%
%TO.N,Ref*%
X130080000Y-25000000D03*
%TO.P,J7,16,Pin_16*%
%TO.N,GND*%
X127540000Y-25000000D03*
%TO.P,J7,17,Pin_17*%
%TO.N,IN2-*%
X125000000Y-25000000D03*
%TO.P,J7,18,Pin_18*%
%TO.N,GND*%
X122460000Y-25000000D03*
%TO.P,J7,19,Pin_19*%
X119920000Y-25000000D03*
%TO.P,J7,20,Pin_20*%
%TO.N,IN1+*%
X117380000Y-25000000D03*
%TD*%
D13*
%TO.P,VR1,1*%
%TO.N,GND*%
X132340000Y-45600000D03*
D14*
%TO.P,VR1,2*%
%TO.N,Net-(R14-Pad2)*%
X129800000Y-48140000D03*
%TO.P,VR1,3*%
%TO.N,unconnected-(VR1-Pad3)*%
X127260000Y-45600000D03*
%TD*%
D15*
%TO.P,J1,1,Pin_1*%
%TO.N,GND*%
X73800000Y-41325000D03*
D16*
%TO.P,J1,2,Pin_2*%
%TO.N,3.7V*%
X73800000Y-39325000D03*
%TD*%
D13*
%TO.P,VR2,1*%
%TO.N,GND*%
X132735500Y-64165000D03*
D14*
%TO.P,VR2,2*%
%TO.N,Net-(R32-Pad1)*%
X130195500Y-66705000D03*
%TO.P,VR2,3*%
%TO.N,unconnected-(VR2-Pad3)*%
X127655500Y-64165000D03*
%TD*%
D17*
%TO.N,GND*%
X100600000Y-38800000D03*
X103000000Y-31000000D03*
X124600000Y-80000000D03*
X143600000Y-47400000D03*
X109400000Y-31600000D03*
X122800000Y-47800000D03*
X147200000Y-57800000D03*
X120000000Y-68400000D03*
X143600000Y-38800000D03*
X74000000Y-23800000D03*
X112800000Y-77000000D03*
X96000000Y-54600000D03*
X96000000Y-57000000D03*
X100400000Y-51800000D03*
X77600000Y-85800000D03*
X100000000Y-69800000D03*
X109600000Y-32800000D03*
X83600000Y-23600000D03*
X124000000Y-40600000D03*
X143400000Y-66600000D03*
X97600000Y-47200000D03*
X103200000Y-76200000D03*
X106400000Y-43200000D03*
X78200000Y-49400000D03*
X82000000Y-84400000D03*
X112200000Y-31400000D03*
X100400000Y-77400000D03*
X99000000Y-60200000D03*
X125200000Y-59200000D03*
X125400000Y-64000000D03*
X113800000Y-68400000D03*
X81600000Y-43200000D03*
X124000000Y-34000000D03*
X100400000Y-30600000D03*
X143200000Y-65200000D03*
X105600000Y-57000000D03*
X89800000Y-49200000D03*
X120200000Y-48600000D03*
X85000000Y-48000000D03*
X145400000Y-48200000D03*
%TO.N,GND2*%
X166400000Y-27800000D03*
X152800000Y-42200000D03*
X161200000Y-37400000D03*
X165000000Y-47600000D03*
X158200000Y-64800000D03*
X155600000Y-29600000D03*
X152400000Y-60400000D03*
X162000000Y-56000000D03*
X165400000Y-68800000D03*
X165000000Y-63600000D03*
%TO.N,POWER+A*%
X105800000Y-36000000D03*
X120400000Y-38000000D03*
X97200000Y-36000000D03*
X123800000Y-38000000D03*
X146200000Y-38200000D03*
%TO.N,POWER-A*%
X121800000Y-49000000D03*
X115600000Y-48000000D03*
X110700000Y-28500000D03*
X99200000Y-27600000D03*
X139200000Y-48200000D03*
X97200000Y-27600000D03*
%TO.N,+5V*%
X162800000Y-38200000D03*
X164400000Y-37000000D03*
%TO.N,3.7V*%
X86800000Y-40600000D03*
X82600000Y-53000000D03*
X86800000Y-52200000D03*
%TO.N,+2V*%
X75000000Y-69400000D03*
X71800000Y-70000000D03*
%TO.N,-2V*%
X74000000Y-73200000D03*
X71000000Y-73400000D03*
%TO.N,Net-(U8--IN_A)*%
X109000000Y-62620000D03*
X109000000Y-61400000D03*
%TO.N,POWER+*%
X119400000Y-55800000D03*
X109800000Y-56000000D03*
X80800000Y-66200000D03*
X140975676Y-56181050D03*
X121000000Y-57600000D03*
X126000000Y-67600000D03*
X143000000Y-57600000D03*
X126000000Y-66000000D03*
X110400000Y-62800000D03*
X125000000Y-74600000D03*
X103200000Y-66400000D03*
X107000000Y-59800000D03*
X126200000Y-72800000D03*
X81200000Y-73600000D03*
%TO.N,POWER-*%
X111600000Y-78000000D03*
X95400000Y-73000000D03*
X139000000Y-65400000D03*
X124800000Y-69600000D03*
%TO.N,V_shift2*%
X156400000Y-35800000D03*
X155000000Y-32000000D03*
%TO.N,Ref2*%
X128000000Y-81600000D03*
%TO.N,Net-(U7-VOUT)*%
X102800000Y-77400000D03*
X120800000Y-80000000D03*
%TO.N,AIN3*%
X163700000Y-27400000D03*
X158000000Y-29187500D03*
%TD*%
D18*
%TO.N,POWER+A*%
X123800000Y-38000000D02*
X120400000Y-38000000D01*
D19*
X105727591Y-35927591D02*
X97272409Y-35927591D01*
X97272409Y-35927591D02*
X97200000Y-36000000D01*
X145550000Y-37550000D02*
X124250000Y-37550000D01*
X105800000Y-36000000D02*
X105727591Y-35927591D01*
X124250000Y-37550000D02*
X123800000Y-38000000D01*
X146200000Y-38200000D02*
X145550000Y-37550000D01*
%TO.N,POWER-A*%
X110700000Y-43100000D02*
X110700000Y-28500000D01*
X138150000Y-49250000D02*
X122050000Y-49250000D01*
X99200000Y-27600000D02*
X97200000Y-27600000D01*
X122050000Y-49250000D02*
X121800000Y-49000000D01*
X108950000Y-26750000D02*
X100050000Y-26750000D01*
X100050000Y-26750000D02*
X99200000Y-27600000D01*
X110700000Y-28500000D02*
X108950000Y-26750000D01*
X115600000Y-48000000D02*
X110700000Y-43100000D01*
X139200000Y-48200000D02*
X138150000Y-49250000D01*
%TO.N,+5V*%
X163200000Y-38200000D02*
X164400000Y-37000000D01*
X162800000Y-38200000D02*
X163200000Y-38200000D01*
%TO.N,3.7V*%
X86800000Y-40600000D02*
X87000000Y-40800000D01*
X87000000Y-40800000D02*
X87000000Y-52000000D01*
X87000000Y-52000000D02*
X86800000Y-52200000D01*
X86800000Y-52200000D02*
X86000000Y-53000000D01*
X86000000Y-53000000D02*
X82600000Y-53000000D01*
%TO.N,+2V*%
X72400000Y-69400000D02*
X71800000Y-70000000D01*
X75000000Y-69400000D02*
X72400000Y-69400000D01*
%TO.N,-2V*%
X71000000Y-73400000D02*
X73800000Y-73400000D01*
X73800000Y-73400000D02*
X74000000Y-73200000D01*
D18*
%TO.N,Net-(U8--IN_A)*%
X109000000Y-62620000D02*
X109000000Y-61400000D01*
D19*
%TO.N,POWER+*%
X110400000Y-61880761D02*
X109800000Y-61280761D01*
X142394626Y-57600000D02*
X140975676Y-56181050D01*
X110400000Y-62800000D02*
X110400000Y-61880761D01*
D20*
X81200000Y-66600000D02*
X81200000Y-73600000D01*
D19*
X121000000Y-56800000D02*
X121000000Y-57600000D01*
X107000000Y-59800000D02*
X109800000Y-57000000D01*
X126000000Y-66000000D02*
X126000000Y-67600000D01*
X143000000Y-57600000D02*
X142394626Y-57600000D01*
X109800000Y-57000000D02*
X109800000Y-56000000D01*
X126200000Y-72800000D02*
X126200000Y-73400000D01*
X109800000Y-61280761D02*
X109800000Y-56000000D01*
X119400000Y-55800000D02*
X120000000Y-55800000D01*
X103200000Y-66400000D02*
X81400000Y-66400000D01*
X120000000Y-55800000D02*
X121000000Y-56800000D01*
X126200000Y-73400000D02*
X125000000Y-74600000D01*
D20*
X80800000Y-66200000D02*
X81200000Y-66600000D01*
D19*
X81400000Y-66400000D02*
X81200000Y-66600000D01*
%TO.N,POWER-*%
X139000000Y-65400000D02*
X134800000Y-69600000D01*
X124800000Y-69600000D02*
X121400000Y-73000000D01*
X134800000Y-69600000D02*
X124800000Y-69600000D01*
D18*
X111600000Y-77400000D02*
X107200000Y-73000000D01*
X111600000Y-78000000D02*
X111600000Y-77400000D01*
X107200000Y-73000000D02*
X95400000Y-73000000D01*
D19*
X121400000Y-73000000D02*
X107200000Y-73000000D01*
D18*
%TO.N,V_shift2*%
X156400000Y-35800000D02*
X155800000Y-35800000D01*
X155800000Y-35800000D02*
X155000000Y-35000000D01*
X155000000Y-35000000D02*
X155000000Y-32000000D01*
%TO.N,Ref2*%
X128060000Y-81660000D02*
X128060000Y-83800000D01*
X128000000Y-81600000D02*
X128060000Y-81660000D01*
%TO.N,Net-(U7-VOUT)*%
X120800000Y-80000000D02*
X105400000Y-80000000D01*
X105400000Y-80000000D02*
X102800000Y-77400000D01*
%TO.N,AIN3*%
X158000000Y-29187500D02*
X159787500Y-27400000D01*
X159787500Y-27400000D02*
X163700000Y-27400000D01*
%TD*%
%TA.AperFunction,Conductor*%
%TO.N,GND2*%
G36*
X166815677Y-23219685D02*
G01*
X166836319Y-23236319D01*
X168963681Y-25363681D01*
X168997166Y-25425004D01*
X169000000Y-25451362D01*
X169000000Y-67552416D01*
X168980315Y-67619455D01*
X168968168Y-67635368D01*
X167236943Y-69558952D01*
X167177465Y-69595613D01*
X167144775Y-69600000D01*
X153851362Y-69600000D01*
X153784323Y-69580315D01*
X153763681Y-69563681D01*
X152036067Y-67836067D01*
X152002582Y-67774744D01*
X151999750Y-67749003D01*
X151854902Y-38199996D01*
X161994435Y-38199996D01*
X161994435Y-38200003D01*
X162014630Y-38379249D01*
X162014631Y-38379254D01*
X162074211Y-38549523D01*
X162170184Y-38702262D01*
X162297738Y-38829816D01*
X162450478Y-38925789D01*
X162620739Y-38985366D01*
X162620745Y-38985368D01*
X162620750Y-38985369D01*
X162799996Y-39005565D01*
X162800000Y-39005565D01*
X162800004Y-39005565D01*
X162979249Y-38985369D01*
X162979251Y-38985368D01*
X162979255Y-38985368D01*
X162979258Y-38985366D01*
X162979262Y-38985366D01*
X163045840Y-38962068D01*
X163149522Y-38925789D01*
X163252432Y-38861124D01*
X163294203Y-38844504D01*
X163389744Y-38825501D01*
X163508127Y-38776465D01*
X163614669Y-38705277D01*
X164498224Y-37821720D01*
X164559545Y-37788237D01*
X164572019Y-37786183D01*
X164579255Y-37785368D01*
X164749522Y-37725789D01*
X164902262Y-37629816D01*
X165029816Y-37502262D01*
X165125789Y-37349522D01*
X165185368Y-37179255D01*
X165205565Y-37000000D01*
X165202583Y-36973535D01*
X165185369Y-36820750D01*
X165185368Y-36820745D01*
X165125788Y-36650476D01*
X165084878Y-36585368D01*
X165029816Y-36497738D01*
X164902262Y-36370184D01*
X164839327Y-36330639D01*
X164749523Y-36274211D01*
X164579254Y-36214631D01*
X164579249Y-36214630D01*
X164400004Y-36194435D01*
X164399996Y-36194435D01*
X164220750Y-36214630D01*
X164220745Y-36214631D01*
X164050476Y-36274211D01*
X163897737Y-36370184D01*
X163770184Y-36497737D01*
X163674210Y-36650478D01*
X163614632Y-36820744D01*
X163614630Y-36820752D01*
X163613815Y-36827988D01*
X163586743Y-36892400D01*
X163578277Y-36901775D01*
X163097868Y-37382184D01*
X163036545Y-37415669D01*
X162982593Y-37415394D01*
X162979248Y-37414630D01*
X162800004Y-37394435D01*
X162799996Y-37394435D01*
X162620750Y-37414630D01*
X162620745Y-37414631D01*
X162450476Y-37474211D01*
X162297737Y-37570184D01*
X162170184Y-37697737D01*
X162074211Y-37850476D01*
X162014631Y-38020745D01*
X162014630Y-38020750D01*
X161994435Y-38199996D01*
X151854902Y-38199996D01*
X151824510Y-31999996D01*
X154194435Y-31999996D01*
X154194435Y-32000003D01*
X154214630Y-32179249D01*
X154214631Y-32179254D01*
X154274211Y-32349523D01*
X154370185Y-32502263D01*
X154372445Y-32505097D01*
X154373334Y-32507275D01*
X154373889Y-32508158D01*
X154373734Y-32508255D01*
X154398855Y-32569783D01*
X154399500Y-32582412D01*
X154399500Y-34913330D01*
X154399499Y-34913348D01*
X154399499Y-35079054D01*
X154399498Y-35079054D01*
X154440424Y-35231787D01*
X154457126Y-35260715D01*
X154457127Y-35260717D01*
X154519477Y-35368712D01*
X154519481Y-35368717D01*
X154638349Y-35487585D01*
X154638355Y-35487590D01*
X155315139Y-36164374D01*
X155315149Y-36164385D01*
X155319479Y-36168715D01*
X155319480Y-36168716D01*
X155431284Y-36280520D01*
X155518095Y-36330639D01*
X155518097Y-36330641D01*
X155556151Y-36352611D01*
X155568215Y-36359577D01*
X155720943Y-36400501D01*
X155817589Y-36400501D01*
X155884628Y-36420186D01*
X155894903Y-36427555D01*
X155897737Y-36429815D01*
X155897738Y-36429816D01*
X155988080Y-36486582D01*
X156005833Y-36497737D01*
X156050478Y-36525789D01*
X156220745Y-36585368D01*
X156220750Y-36585369D01*
X156399996Y-36605565D01*
X156400000Y-36605565D01*
X156400004Y-36605565D01*
X156579249Y-36585369D01*
X156579252Y-36585368D01*
X156579255Y-36585368D01*
X156749522Y-36525789D01*
X156902262Y-36429816D01*
X157029816Y-36302262D01*
X157125789Y-36149522D01*
X157185368Y-35979255D01*
X157205565Y-35800000D01*
X157185368Y-35620745D01*
X157125789Y-35450478D01*
X157029816Y-35297738D01*
X156902262Y-35170184D01*
X156827534Y-35123229D01*
X156749523Y-35074211D01*
X156579254Y-35014631D01*
X156579249Y-35014630D01*
X156400004Y-34994435D01*
X156399996Y-34994435D01*
X156220750Y-35014630D01*
X156220737Y-35014633D01*
X156050478Y-35074210D01*
X156044206Y-35077231D01*
X156042866Y-35074448D01*
X155988598Y-35089614D01*
X155921822Y-35069054D01*
X155902541Y-35053306D01*
X155636819Y-34787584D01*
X155603334Y-34726261D01*
X155600500Y-34699903D01*
X155600500Y-32582412D01*
X155620185Y-32515373D01*
X155627555Y-32505097D01*
X155629810Y-32502267D01*
X155629816Y-32502262D01*
X155725789Y-32349522D01*
X155785368Y-32179255D01*
X155805565Y-32000000D01*
X155785368Y-31820745D01*
X155725789Y-31650478D01*
X155629816Y-31497738D01*
X155502262Y-31370184D01*
X155349523Y-31274211D01*
X155179254Y-31214631D01*
X155179249Y-31214630D01*
X155000004Y-31194435D01*
X154999996Y-31194435D01*
X154820750Y-31214630D01*
X154820745Y-31214631D01*
X154650476Y-31274211D01*
X154497737Y-31370184D01*
X154370184Y-31497737D01*
X154274211Y-31650476D01*
X154214631Y-31820745D01*
X154214630Y-31820750D01*
X154194435Y-31999996D01*
X151824510Y-31999996D01*
X151810723Y-29187496D01*
X157194435Y-29187496D01*
X157194435Y-29187503D01*
X157214630Y-29366749D01*
X157214631Y-29366754D01*
X157274211Y-29537023D01*
X157370184Y-29689762D01*
X157497738Y-29817316D01*
X157650478Y-29913289D01*
X157820745Y-29972868D01*
X157820750Y-29972869D01*
X157999996Y-29993065D01*
X158000000Y-29993065D01*
X158000004Y-29993065D01*
X158179249Y-29972869D01*
X158179252Y-29972868D01*
X158179255Y-29972868D01*
X158349522Y-29913289D01*
X158502262Y-29817316D01*
X158629816Y-29689762D01*
X158725789Y-29537022D01*
X158785368Y-29366755D01*
X158795161Y-29279829D01*
X158822226Y-29215418D01*
X158830690Y-29206043D01*
X159999917Y-28036819D01*
X160061240Y-28003334D01*
X160087598Y-28000500D01*
X163117588Y-28000500D01*
X163184627Y-28020185D01*
X163194903Y-28027555D01*
X163197736Y-28029814D01*
X163197738Y-28029816D01*
X163350478Y-28125789D01*
X163520745Y-28185368D01*
X163520750Y-28185369D01*
X163699996Y-28205565D01*
X163700000Y-28205565D01*
X163700004Y-28205565D01*
X163879249Y-28185369D01*
X163879252Y-28185368D01*
X163879255Y-28185368D01*
X164049522Y-28125789D01*
X164202262Y-28029816D01*
X164329816Y-27902262D01*
X164425789Y-27749522D01*
X164485368Y-27579255D01*
X164505565Y-27400000D01*
X164485368Y-27220745D01*
X164425789Y-27050478D01*
X164329816Y-26897738D01*
X164202262Y-26770184D01*
X164049523Y-26674211D01*
X163879254Y-26614631D01*
X163879249Y-26614630D01*
X163700004Y-26594435D01*
X163699996Y-26594435D01*
X163520750Y-26614630D01*
X163520745Y-26614631D01*
X163350476Y-26674211D01*
X163197736Y-26770185D01*
X163194903Y-26772445D01*
X163192724Y-26773334D01*
X163191842Y-26773889D01*
X163191744Y-26773734D01*
X163130217Y-26798855D01*
X163117588Y-26799500D01*
X159874170Y-26799500D01*
X159874154Y-26799499D01*
X159866558Y-26799499D01*
X159708443Y-26799499D01*
X159632079Y-26819961D01*
X159555714Y-26840423D01*
X159555709Y-26840426D01*
X159418790Y-26919475D01*
X159418782Y-26919481D01*
X157981465Y-28356798D01*
X157920142Y-28390283D01*
X157907668Y-28392337D01*
X157820750Y-28402130D01*
X157650478Y-28461710D01*
X157497737Y-28557684D01*
X157370184Y-28685237D01*
X157274211Y-28837976D01*
X157214631Y-29008245D01*
X157214630Y-29008250D01*
X157194435Y-29187496D01*
X151810723Y-29187496D01*
X151800000Y-27000000D01*
X146924000Y-27000000D01*
X146856961Y-26980315D01*
X146811206Y-26927511D01*
X146800000Y-26876000D01*
X146800000Y-26144638D01*
X146819685Y-26077599D01*
X146872489Y-26031844D01*
X146941647Y-26021900D01*
X146995121Y-26043061D01*
X147182170Y-26174035D01*
X147396337Y-26273903D01*
X147624592Y-26335063D01*
X147801034Y-26350500D01*
X147859999Y-26355659D01*
X147860000Y-26355659D01*
X147860001Y-26355659D01*
X147918966Y-26350500D01*
X148095408Y-26335063D01*
X148323663Y-26273903D01*
X148537830Y-26174035D01*
X148731401Y-26038495D01*
X148898495Y-25871401D01*
X149034035Y-25677830D01*
X149133903Y-25463663D01*
X149195063Y-25235408D01*
X149215659Y-25000000D01*
X149215659Y-24999999D01*
X151584341Y-24999999D01*
X151584341Y-25000000D01*
X151604936Y-25235403D01*
X151604938Y-25235413D01*
X151666094Y-25463655D01*
X151666096Y-25463659D01*
X151666097Y-25463663D01*
X151670000Y-25472032D01*
X151765965Y-25677830D01*
X151765967Y-25677834D01*
X151874281Y-25832521D01*
X151901505Y-25871401D01*
X152068599Y-26038495D01*
X152165384Y-26106265D01*
X152262165Y-26174032D01*
X152262167Y-26174033D01*
X152262170Y-26174035D01*
X152476337Y-26273903D01*
X152704592Y-26335063D01*
X152881034Y-26350500D01*
X152939999Y-26355659D01*
X152940000Y-26355659D01*
X152940001Y-26355659D01*
X152998966Y-26350500D01*
X153175408Y-26335063D01*
X153403663Y-26273903D01*
X153617830Y-26174035D01*
X153811401Y-26038495D01*
X153978495Y-25871401D01*
X154108425Y-25685842D01*
X154163002Y-25642217D01*
X154232500Y-25635023D01*
X154294855Y-25666546D01*
X154311575Y-25685842D01*
X154441500Y-25871395D01*
X154441505Y-25871401D01*
X154608599Y-26038495D01*
X154705384Y-26106265D01*
X154802165Y-26174032D01*
X154802167Y-26174033D01*
X154802170Y-26174035D01*
X155016337Y-26273903D01*
X155244592Y-26335063D01*
X155421034Y-26350500D01*
X155479999Y-26355659D01*
X155480000Y-26355659D01*
X155480001Y-26355659D01*
X155538966Y-26350500D01*
X155715408Y-26335063D01*
X155943663Y-26273903D01*
X156157830Y-26174035D01*
X156351401Y-26038495D01*
X156518495Y-25871401D01*
X156648425Y-25685842D01*
X156703002Y-25642217D01*
X156772500Y-25635023D01*
X156834855Y-25666546D01*
X156851575Y-25685842D01*
X156981500Y-25871395D01*
X156981505Y-25871401D01*
X157148599Y-26038495D01*
X157245384Y-26106265D01*
X157342165Y-26174032D01*
X157342167Y-26174033D01*
X157342170Y-26174035D01*
X157556337Y-26273903D01*
X157784592Y-26335063D01*
X157961034Y-26350500D01*
X158019999Y-26355659D01*
X158020000Y-26355659D01*
X158020001Y-26355659D01*
X158078966Y-26350500D01*
X158255408Y-26335063D01*
X158483663Y-26273903D01*
X158697830Y-26174035D01*
X158891401Y-26038495D01*
X159058495Y-25871401D01*
X159188425Y-25685842D01*
X159243002Y-25642217D01*
X159312500Y-25635023D01*
X159374855Y-25666546D01*
X159391575Y-25685842D01*
X159521500Y-25871395D01*
X159521505Y-25871401D01*
X159688599Y-26038495D01*
X159785384Y-26106265D01*
X159882165Y-26174032D01*
X159882167Y-26174033D01*
X159882170Y-26174035D01*
X160096337Y-26273903D01*
X160324592Y-26335063D01*
X160501034Y-26350500D01*
X160559999Y-26355659D01*
X160560000Y-26355659D01*
X160560001Y-26355659D01*
X160618966Y-26350500D01*
X160795408Y-26335063D01*
X161023663Y-26273903D01*
X161237830Y-26174035D01*
X161431401Y-26038495D01*
X161598495Y-25871401D01*
X161728425Y-25685842D01*
X161783002Y-25642217D01*
X161852500Y-25635023D01*
X161914855Y-25666546D01*
X161931575Y-25685842D01*
X162061500Y-25871395D01*
X162061505Y-25871401D01*
X162228599Y-26038495D01*
X162325384Y-26106265D01*
X162422165Y-26174032D01*
X162422167Y-26174033D01*
X162422170Y-26174035D01*
X162636337Y-26273903D01*
X162864592Y-26335063D01*
X163041034Y-26350500D01*
X163099999Y-26355659D01*
X163100000Y-26355659D01*
X163100001Y-26355659D01*
X163158966Y-26350500D01*
X163335408Y-26335063D01*
X163563663Y-26273903D01*
X163777830Y-26174035D01*
X163971401Y-26038495D01*
X164093329Y-25916566D01*
X164154648Y-25883084D01*
X164224340Y-25888068D01*
X164280274Y-25929939D01*
X164297189Y-25960917D01*
X164346202Y-26092328D01*
X164346206Y-26092335D01*
X164432452Y-26207544D01*
X164432455Y-26207547D01*
X164547664Y-26293793D01*
X164547671Y-26293797D01*
X164682517Y-26344091D01*
X164682516Y-26344091D01*
X164689444Y-26344835D01*
X164742127Y-26350500D01*
X166537872Y-26350499D01*
X166597483Y-26344091D01*
X166732331Y-26293796D01*
X166847546Y-26207546D01*
X166933796Y-26092331D01*
X166984091Y-25957483D01*
X166990500Y-25897873D01*
X166990499Y-24102128D01*
X166984091Y-24042517D01*
X166982810Y-24039083D01*
X166933797Y-23907671D01*
X166933793Y-23907664D01*
X166847547Y-23792455D01*
X166847544Y-23792452D01*
X166732335Y-23706206D01*
X166732328Y-23706202D01*
X166597482Y-23655908D01*
X166597483Y-23655908D01*
X166537883Y-23649501D01*
X166537881Y-23649500D01*
X166537873Y-23649500D01*
X166537864Y-23649500D01*
X164742129Y-23649500D01*
X164742123Y-23649501D01*
X164682516Y-23655908D01*
X164547671Y-23706202D01*
X164547664Y-23706206D01*
X164432455Y-23792452D01*
X164432452Y-23792455D01*
X164346206Y-23907664D01*
X164346203Y-23907669D01*
X164297189Y-24039083D01*
X164255317Y-24095016D01*
X164189853Y-24119433D01*
X164121580Y-24104581D01*
X164093326Y-24083430D01*
X163971402Y-23961506D01*
X163971395Y-23961501D01*
X163777834Y-23825967D01*
X163777830Y-23825965D01*
X163777828Y-23825964D01*
X163563663Y-23726097D01*
X163563659Y-23726096D01*
X163563655Y-23726094D01*
X163335413Y-23664938D01*
X163335403Y-23664936D01*
X163100001Y-23644341D01*
X163099999Y-23644341D01*
X162864596Y-23664936D01*
X162864586Y-23664938D01*
X162636344Y-23726094D01*
X162636335Y-23726098D01*
X162422171Y-23825964D01*
X162422169Y-23825965D01*
X162228597Y-23961505D01*
X162061505Y-24128597D01*
X161931575Y-24314158D01*
X161876998Y-24357783D01*
X161807500Y-24364977D01*
X161745145Y-24333454D01*
X161728425Y-24314158D01*
X161598494Y-24128597D01*
X161431402Y-23961506D01*
X161431395Y-23961501D01*
X161237834Y-23825967D01*
X161237830Y-23825965D01*
X161237828Y-23825964D01*
X161023663Y-23726097D01*
X161023659Y-23726096D01*
X161023655Y-23726094D01*
X160795413Y-23664938D01*
X160795403Y-23664936D01*
X160560001Y-23644341D01*
X160559999Y-23644341D01*
X160324596Y-23664936D01*
X160324586Y-23664938D01*
X160096344Y-23726094D01*
X160096335Y-23726098D01*
X159882171Y-23825964D01*
X159882169Y-23825965D01*
X159688597Y-23961505D01*
X159521505Y-24128597D01*
X159391575Y-24314158D01*
X159336998Y-24357783D01*
X159267500Y-24364977D01*
X159205145Y-24333454D01*
X159188425Y-24314158D01*
X159058494Y-24128597D01*
X158891402Y-23961506D01*
X158891395Y-23961501D01*
X158697834Y-23825967D01*
X158697830Y-23825965D01*
X158697828Y-23825964D01*
X158483663Y-23726097D01*
X158483659Y-23726096D01*
X158483655Y-23726094D01*
X158255413Y-23664938D01*
X158255403Y-23664936D01*
X158020001Y-23644341D01*
X158019999Y-23644341D01*
X157784596Y-23664936D01*
X157784586Y-23664938D01*
X157556344Y-23726094D01*
X157556335Y-23726098D01*
X157342171Y-23825964D01*
X157342169Y-23825965D01*
X157148597Y-23961505D01*
X156981505Y-24128597D01*
X156851575Y-24314158D01*
X156796998Y-24357783D01*
X156727500Y-24364977D01*
X156665145Y-24333454D01*
X156648425Y-24314158D01*
X156518494Y-24128597D01*
X156351402Y-23961506D01*
X156351395Y-23961501D01*
X156157834Y-23825967D01*
X156157830Y-23825965D01*
X156157828Y-23825964D01*
X155943663Y-23726097D01*
X155943659Y-23726096D01*
X155943655Y-23726094D01*
X155715413Y-23664938D01*
X155715403Y-23664936D01*
X155480001Y-23644341D01*
X155479999Y-23644341D01*
X155244596Y-23664936D01*
X155244586Y-23664938D01*
X155016344Y-23726094D01*
X155016335Y-23726098D01*
X154802171Y-23825964D01*
X154802169Y-23825965D01*
X154608597Y-23961505D01*
X154441505Y-24128597D01*
X154311575Y-24314158D01*
X154256998Y-24357783D01*
X154187500Y-24364977D01*
X154125145Y-24333454D01*
X154108425Y-24314158D01*
X153978494Y-24128597D01*
X153811402Y-23961506D01*
X153811395Y-23961501D01*
X153617834Y-23825967D01*
X153617830Y-23825965D01*
X153617828Y-23825964D01*
X153403663Y-23726097D01*
X153403659Y-23726096D01*
X153403655Y-23726094D01*
X153175413Y-23664938D01*
X153175403Y-23664936D01*
X152940001Y-23644341D01*
X152939999Y-23644341D01*
X152704596Y-23664936D01*
X152704586Y-23664938D01*
X152476344Y-23726094D01*
X152476335Y-23726098D01*
X152262171Y-23825964D01*
X152262169Y-23825965D01*
X152068597Y-23961505D01*
X151901505Y-24128597D01*
X151765965Y-24322169D01*
X151765964Y-24322171D01*
X151666098Y-24536335D01*
X151666094Y-24536344D01*
X151604938Y-24764586D01*
X151604936Y-24764596D01*
X151584341Y-24999999D01*
X149215659Y-24999999D01*
X149195063Y-24764592D01*
X149133903Y-24536337D01*
X149034035Y-24322171D01*
X149028425Y-24314158D01*
X148898494Y-24128597D01*
X148731402Y-23961506D01*
X148731395Y-23961501D01*
X148537834Y-23825967D01*
X148537830Y-23825965D01*
X148537828Y-23825964D01*
X148323663Y-23726097D01*
X148323659Y-23726096D01*
X148323655Y-23726094D01*
X148146190Y-23678543D01*
X148086529Y-23642178D01*
X148056000Y-23579331D01*
X148064295Y-23509955D01*
X148096625Y-23465452D01*
X148364937Y-23230679D01*
X148428352Y-23201349D01*
X148446591Y-23200000D01*
X166748638Y-23200000D01*
X166815677Y-23219685D01*
G37*
%TD.AperFunction*%
%TD*%
%TA.AperFunction,Conductor*%
%TO.N,GND*%
G36*
X127148899Y-22199816D02*
G01*
X127215866Y-22219741D01*
X127236134Y-22236134D01*
X128763681Y-23763681D01*
X128797166Y-23825004D01*
X128800000Y-23851362D01*
X128800000Y-24052672D01*
X128780315Y-24119711D01*
X128727511Y-24165466D01*
X128658353Y-24175410D01*
X128594797Y-24146385D01*
X128581019Y-24132387D01*
X128578115Y-24128927D01*
X128411082Y-23961894D01*
X128217578Y-23826399D01*
X128003492Y-23726570D01*
X128003486Y-23726567D01*
X127790000Y-23669364D01*
X127790000Y-24566988D01*
X127732993Y-24534075D01*
X127605826Y-24500000D01*
X127474174Y-24500000D01*
X127347007Y-24534075D01*
X127290000Y-24566988D01*
X127290000Y-23669364D01*
X127289999Y-23669364D01*
X127076513Y-23726567D01*
X127076507Y-23726570D01*
X126862422Y-23826399D01*
X126862420Y-23826400D01*
X126668926Y-23961886D01*
X126668920Y-23961891D01*
X126501891Y-24128920D01*
X126501890Y-24128922D01*
X126371880Y-24314595D01*
X126317303Y-24358219D01*
X126247804Y-24365412D01*
X126185450Y-24333890D01*
X126168730Y-24314594D01*
X126038494Y-24128597D01*
X125871402Y-23961506D01*
X125871395Y-23961501D01*
X125677834Y-23825967D01*
X125677830Y-23825965D01*
X125675769Y-23825004D01*
X125463663Y-23726097D01*
X125463659Y-23726096D01*
X125463655Y-23726094D01*
X125235413Y-23664938D01*
X125235403Y-23664936D01*
X125000001Y-23644341D01*
X124999999Y-23644341D01*
X124764596Y-23664936D01*
X124764586Y-23664938D01*
X124536344Y-23726094D01*
X124536335Y-23726098D01*
X124322171Y-23825964D01*
X124322169Y-23825965D01*
X124128597Y-23961505D01*
X123961508Y-24128594D01*
X123831269Y-24314595D01*
X123776692Y-24358219D01*
X123707193Y-24365412D01*
X123644839Y-24333890D01*
X123628119Y-24314594D01*
X123498113Y-24128926D01*
X123498108Y-24128920D01*
X123331082Y-23961894D01*
X123137578Y-23826399D01*
X122923492Y-23726570D01*
X122923486Y-23726567D01*
X122710000Y-23669364D01*
X122710000Y-24566988D01*
X122652993Y-24534075D01*
X122525826Y-24500000D01*
X122394174Y-24500000D01*
X122267007Y-24534075D01*
X122210000Y-24566988D01*
X122210000Y-23669364D01*
X122209999Y-23669364D01*
X121996513Y-23726567D01*
X121996507Y-23726570D01*
X121782422Y-23826399D01*
X121782420Y-23826400D01*
X121588926Y-23961886D01*
X121588920Y-23961891D01*
X121421891Y-24128920D01*
X121421890Y-24128922D01*
X121291575Y-24315031D01*
X121236998Y-24358655D01*
X121167499Y-24365848D01*
X121105145Y-24334326D01*
X121088425Y-24315031D01*
X120958109Y-24128922D01*
X120958108Y-24128920D01*
X120791082Y-23961894D01*
X120597578Y-23826399D01*
X120383492Y-23726570D01*
X120383486Y-23726567D01*
X120170000Y-23669364D01*
X120170000Y-24566988D01*
X120112993Y-24534075D01*
X119985826Y-24500000D01*
X119854174Y-24500000D01*
X119727007Y-24534075D01*
X119670000Y-24566988D01*
X119670000Y-23669364D01*
X119669999Y-23669364D01*
X119456513Y-23726567D01*
X119456507Y-23726570D01*
X119242422Y-23826399D01*
X119242420Y-23826400D01*
X119048926Y-23961886D01*
X119048920Y-23961891D01*
X118881891Y-24128920D01*
X118881890Y-24128922D01*
X118751880Y-24314595D01*
X118697303Y-24358219D01*
X118627804Y-24365412D01*
X118565450Y-24333890D01*
X118548730Y-24314594D01*
X118418494Y-24128597D01*
X118251402Y-23961506D01*
X118251395Y-23961501D01*
X118057834Y-23825967D01*
X118057830Y-23825965D01*
X118055769Y-23825004D01*
X117843663Y-23726097D01*
X117843659Y-23726096D01*
X117843655Y-23726094D01*
X117615413Y-23664938D01*
X117615403Y-23664936D01*
X117380001Y-23644341D01*
X117379999Y-23644341D01*
X117144596Y-23664936D01*
X117144586Y-23664938D01*
X116916344Y-23726094D01*
X116916335Y-23726098D01*
X116702171Y-23825964D01*
X116702169Y-23825965D01*
X116508597Y-23961505D01*
X116341505Y-24128597D01*
X116205965Y-24322169D01*
X116205964Y-24322171D01*
X116106098Y-24536335D01*
X116106094Y-24536344D01*
X116044938Y-24764586D01*
X116044936Y-24764596D01*
X116024341Y-24999999D01*
X116024341Y-25000000D01*
X116044936Y-25235403D01*
X116044938Y-25235413D01*
X116106094Y-25463655D01*
X116106096Y-25463659D01*
X116106097Y-25463663D01*
X116185801Y-25634588D01*
X116205965Y-25677830D01*
X116205967Y-25677834D01*
X116289459Y-25797072D01*
X116341505Y-25871401D01*
X116508599Y-26038495D01*
X116569427Y-26081087D01*
X116702165Y-26174032D01*
X116702167Y-26174033D01*
X116702170Y-26174035D01*
X116916337Y-26273903D01*
X117144592Y-26335063D01*
X117332918Y-26351539D01*
X117379999Y-26355659D01*
X117380000Y-26355659D01*
X117380001Y-26355659D01*
X117419234Y-26352226D01*
X117615408Y-26335063D01*
X117843663Y-26273903D01*
X118057830Y-26174035D01*
X118251401Y-26038495D01*
X118418495Y-25871401D01*
X118548730Y-25685405D01*
X118603307Y-25641781D01*
X118672805Y-25634587D01*
X118735160Y-25666110D01*
X118751879Y-25685405D01*
X118881890Y-25871078D01*
X119048917Y-26038105D01*
X119242421Y-26173600D01*
X119456507Y-26273429D01*
X119456516Y-26273433D01*
X119670000Y-26330634D01*
X119670000Y-25433012D01*
X119727007Y-25465925D01*
X119854174Y-25500000D01*
X119985826Y-25500000D01*
X120112993Y-25465925D01*
X120170000Y-25433012D01*
X120170000Y-26330633D01*
X120383483Y-26273433D01*
X120383492Y-26273429D01*
X120597578Y-26173600D01*
X120791082Y-26038105D01*
X120958105Y-25871082D01*
X121088425Y-25684968D01*
X121143002Y-25641344D01*
X121212501Y-25634151D01*
X121274855Y-25665673D01*
X121291575Y-25684968D01*
X121421894Y-25871082D01*
X121588917Y-26038105D01*
X121782421Y-26173600D01*
X121996507Y-26273429D01*
X121996516Y-26273433D01*
X122210000Y-26330634D01*
X122210000Y-25433012D01*
X122267007Y-25465925D01*
X122394174Y-25500000D01*
X122525826Y-25500000D01*
X122652993Y-25465925D01*
X122710000Y-25433012D01*
X122710000Y-26330633D01*
X122923483Y-26273433D01*
X122923492Y-26273429D01*
X123137578Y-26173600D01*
X123331082Y-26038105D01*
X123498105Y-25871082D01*
X123628119Y-25685405D01*
X123682696Y-25641781D01*
X123752195Y-25634588D01*
X123814549Y-25666110D01*
X123831269Y-25685405D01*
X123961505Y-25871401D01*
X124128599Y-26038495D01*
X124189427Y-26081087D01*
X124322165Y-26174032D01*
X124322167Y-26174033D01*
X124322170Y-26174035D01*
X124536337Y-26273903D01*
X124764592Y-26335063D01*
X124952918Y-26351539D01*
X124999999Y-26355659D01*
X125000000Y-26355659D01*
X125000001Y-26355659D01*
X125039234Y-26352226D01*
X125235408Y-26335063D01*
X125463663Y-26273903D01*
X125677830Y-26174035D01*
X125871401Y-26038495D01*
X126038495Y-25871401D01*
X126168730Y-25685405D01*
X126223307Y-25641781D01*
X126292805Y-25634587D01*
X126355160Y-25666110D01*
X126371879Y-25685405D01*
X126501890Y-25871078D01*
X126668917Y-26038105D01*
X126862421Y-26173600D01*
X127076507Y-26273429D01*
X127076516Y-26273433D01*
X127290000Y-26330634D01*
X127290000Y-25433012D01*
X127347007Y-25465925D01*
X127474174Y-25500000D01*
X127605826Y-25500000D01*
X127732993Y-25465925D01*
X127790000Y-25433012D01*
X127790000Y-26330633D01*
X128003483Y-26273433D01*
X128003492Y-26273429D01*
X128217578Y-26173600D01*
X128411082Y-26038105D01*
X128578104Y-25871083D01*
X128581008Y-25867623D01*
X128639179Y-25828919D01*
X128709040Y-25827809D01*
X128768411Y-25864644D01*
X128798442Y-25927730D01*
X128800000Y-25947326D01*
X128800000Y-26800000D01*
X130200000Y-28200000D01*
X149148638Y-28200000D01*
X149215677Y-28219685D01*
X149236319Y-28236319D01*
X150963681Y-29963681D01*
X150997166Y-30025004D01*
X151000000Y-30051362D01*
X151000000Y-51476000D01*
X150980315Y-51543039D01*
X150927511Y-51588794D01*
X150876000Y-51600000D01*
X115251362Y-51600000D01*
X115184323Y-51580315D01*
X115163681Y-51563681D01*
X112599996Y-48999996D01*
X120994435Y-48999996D01*
X120994435Y-49000003D01*
X121014630Y-49179249D01*
X121014631Y-49179254D01*
X121074211Y-49349523D01*
X121170184Y-49502262D01*
X121297738Y-49629816D01*
X121450478Y-49725789D01*
X121620745Y-49785368D01*
X121662512Y-49790073D01*
X121717519Y-49810192D01*
X121731786Y-49819725D01*
X121741868Y-49826462D01*
X121741871Y-49826464D01*
X121741873Y-49826465D01*
X121860256Y-49875501D01*
X121860260Y-49875501D01*
X121860261Y-49875502D01*
X121985928Y-49900500D01*
X121985931Y-49900500D01*
X138214071Y-49900500D01*
X138298615Y-49883682D01*
X138339744Y-49875501D01*
X138458127Y-49826465D01*
X138564669Y-49755277D01*
X139298224Y-49021720D01*
X139359545Y-48988237D01*
X139372019Y-48986183D01*
X139379255Y-48985368D01*
X139549522Y-48925789D01*
X139702262Y-48829816D01*
X139829816Y-48702262D01*
X139925789Y-48549522D01*
X139985368Y-48379255D01*
X139988718Y-48349522D01*
X140005565Y-48200003D01*
X140005565Y-48199996D01*
X139985369Y-48020750D01*
X139985368Y-48020745D01*
X139955325Y-47934887D01*
X139925789Y-47850478D01*
X139907106Y-47820745D01*
X139854335Y-47736760D01*
X139829816Y-47697738D01*
X139702262Y-47570184D01*
X139673889Y-47552356D01*
X139549523Y-47474211D01*
X139379254Y-47414631D01*
X139379249Y-47414630D01*
X139200004Y-47394435D01*
X139199996Y-47394435D01*
X139020750Y-47414630D01*
X139020745Y-47414631D01*
X138850476Y-47474211D01*
X138697737Y-47570184D01*
X138570184Y-47697737D01*
X138474210Y-47850478D01*
X138414632Y-48020744D01*
X138414630Y-48020752D01*
X138413815Y-48027988D01*
X138386743Y-48092400D01*
X138378277Y-48101775D01*
X137916873Y-48563181D01*
X137855550Y-48596666D01*
X137829192Y-48599500D01*
X130989079Y-48599500D01*
X130922040Y-48579815D01*
X130876285Y-48527011D01*
X130866341Y-48457853D01*
X130869813Y-48441566D01*
X130887543Y-48379249D01*
X130897256Y-48345113D01*
X130916262Y-48140000D01*
X130897256Y-47934887D01*
X130840883Y-47736760D01*
X130840882Y-47736756D01*
X130749068Y-47552370D01*
X130749067Y-47552369D01*
X130749065Y-47552364D01*
X130624928Y-47387979D01*
X130472698Y-47249204D01*
X130297561Y-47140763D01*
X130297560Y-47140762D01*
X130157112Y-47086353D01*
X130105480Y-47066351D01*
X129902996Y-47028500D01*
X129697004Y-47028500D01*
X129494520Y-47066351D01*
X129494517Y-47066351D01*
X129494517Y-47066352D01*
X129302439Y-47140762D01*
X129302438Y-47140763D01*
X129127306Y-47249201D01*
X129127304Y-47249202D01*
X129127302Y-47249204D01*
X128994592Y-47370184D01*
X128975072Y-47387979D01*
X128975070Y-47387981D01*
X128850940Y-47552356D01*
X128850931Y-47552370D01*
X128759117Y-47736756D01*
X128702744Y-47934886D01*
X128683738Y-48139999D01*
X128683738Y-48140000D01*
X128702744Y-48345115D01*
X128730187Y-48441566D01*
X128729601Y-48511433D01*
X128691334Y-48569892D01*
X128627537Y-48598382D01*
X128610921Y-48599500D01*
X122562290Y-48599500D01*
X122495251Y-48579815D01*
X122457297Y-48541473D01*
X122429817Y-48497739D01*
X122302262Y-48370184D01*
X122149523Y-48274211D01*
X121979254Y-48214631D01*
X121979249Y-48214630D01*
X121800004Y-48194435D01*
X121799996Y-48194435D01*
X121620750Y-48214630D01*
X121620745Y-48214631D01*
X121450476Y-48274211D01*
X121297737Y-48370184D01*
X121170184Y-48497737D01*
X121074211Y-48650476D01*
X121014631Y-48820745D01*
X121014630Y-48820750D01*
X120994435Y-48999996D01*
X112599996Y-48999996D01*
X108600000Y-45000000D01*
X97451362Y-45000000D01*
X97384323Y-44980315D01*
X97363681Y-44963681D01*
X94636319Y-42236319D01*
X94602834Y-42174996D01*
X94600000Y-42148638D01*
X94600000Y-36800000D01*
X93799996Y-35999996D01*
X96394435Y-35999996D01*
X96394435Y-36000003D01*
X96414630Y-36179249D01*
X96414631Y-36179254D01*
X96474211Y-36349523D01*
X96570184Y-36502262D01*
X96697738Y-36629816D01*
X96788080Y-36686582D01*
X96814419Y-36703132D01*
X96850478Y-36725789D01*
X96970827Y-36767901D01*
X97020745Y-36785368D01*
X97020750Y-36785369D01*
X97199996Y-36805565D01*
X97200000Y-36805565D01*
X97200004Y-36805565D01*
X97379249Y-36785369D01*
X97379252Y-36785368D01*
X97379255Y-36785368D01*
X97549522Y-36725789D01*
X97702262Y-36629816D01*
X97717668Y-36614410D01*
X97778991Y-36580925D01*
X97805349Y-36578091D01*
X105194651Y-36578091D01*
X105261690Y-36597776D01*
X105282332Y-36614410D01*
X105297738Y-36629816D01*
X105388080Y-36686582D01*
X105414419Y-36703132D01*
X105450478Y-36725789D01*
X105570827Y-36767901D01*
X105620745Y-36785368D01*
X105620750Y-36785369D01*
X105799996Y-36805565D01*
X105800000Y-36805565D01*
X105800004Y-36805565D01*
X105979249Y-36785369D01*
X105979252Y-36785368D01*
X105979255Y-36785368D01*
X106149522Y-36725789D01*
X106302262Y-36629816D01*
X106429816Y-36502262D01*
X106525789Y-36349522D01*
X106585368Y-36179255D01*
X106595490Y-36089423D01*
X106605565Y-36000003D01*
X106605565Y-35999996D01*
X106585369Y-35820750D01*
X106585368Y-35820745D01*
X106525788Y-35650476D01*
X106478840Y-35575759D01*
X106429816Y-35497738D01*
X106302262Y-35370184D01*
X106291913Y-35363681D01*
X106149523Y-35274211D01*
X105979254Y-35214631D01*
X105979249Y-35214630D01*
X105800004Y-35194435D01*
X105799996Y-35194435D01*
X105620750Y-35214630D01*
X105620737Y-35214633D01*
X105462134Y-35270132D01*
X105421179Y-35277091D01*
X97578821Y-35277091D01*
X97537866Y-35270132D01*
X97379262Y-35214633D01*
X97379249Y-35214630D01*
X97200004Y-35194435D01*
X97199996Y-35194435D01*
X97020750Y-35214630D01*
X97020745Y-35214631D01*
X96850476Y-35274211D01*
X96697737Y-35370184D01*
X96570184Y-35497737D01*
X96474211Y-35650476D01*
X96414631Y-35820745D01*
X96414630Y-35820750D01*
X96394435Y-35999996D01*
X93799996Y-35999996D01*
X93200000Y-35400000D01*
X73851362Y-35400000D01*
X73784323Y-35380315D01*
X73763681Y-35363681D01*
X71573920Y-33173920D01*
X75699499Y-33173920D01*
X75728340Y-33318907D01*
X75728343Y-33318917D01*
X75784912Y-33455488D01*
X75784919Y-33455501D01*
X75867048Y-33578415D01*
X75867051Y-33578419D01*
X75971580Y-33682948D01*
X75971584Y-33682951D01*
X76094498Y-33765080D01*
X76094511Y-33765087D01*
X76231082Y-33821656D01*
X76231087Y-33821658D01*
X76231091Y-33821658D01*
X76231092Y-33821659D01*
X76376079Y-33850500D01*
X76376082Y-33850500D01*
X76523920Y-33850500D01*
X76621462Y-33831096D01*
X76668913Y-33821658D01*
X76805495Y-33765084D01*
X76928416Y-33682951D01*
X77032951Y-33578416D01*
X77115084Y-33455495D01*
X77171658Y-33318913D01*
X77182366Y-33265080D01*
X77200500Y-33173920D01*
X85299499Y-33173920D01*
X85328340Y-33318907D01*
X85328343Y-33318917D01*
X85384912Y-33455488D01*
X85384919Y-33455501D01*
X85467048Y-33578415D01*
X85467051Y-33578419D01*
X85571580Y-33682948D01*
X85571584Y-33682951D01*
X85694498Y-33765080D01*
X85694511Y-33765087D01*
X85831082Y-33821656D01*
X85831087Y-33821658D01*
X85831091Y-33821658D01*
X85831092Y-33821659D01*
X85976079Y-33850500D01*
X85976082Y-33850500D01*
X86123920Y-33850500D01*
X86221462Y-33831096D01*
X86268913Y-33821658D01*
X86405495Y-33765084D01*
X86528416Y-33682951D01*
X86632951Y-33578416D01*
X86715084Y-33455495D01*
X86771658Y-33318913D01*
X86782366Y-33265080D01*
X86800500Y-33173920D01*
X86800500Y-33026079D01*
X86771659Y-32881092D01*
X86771658Y-32881091D01*
X86771658Y-32881087D01*
X86771656Y-32881082D01*
X86715087Y-32744511D01*
X86715080Y-32744498D01*
X86632951Y-32621584D01*
X86632948Y-32621580D01*
X86528419Y-32517051D01*
X86528415Y-32517048D01*
X86405501Y-32434919D01*
X86405488Y-32434912D01*
X86268917Y-32378343D01*
X86268907Y-32378340D01*
X86123920Y-32349500D01*
X86123918Y-32349500D01*
X85976082Y-32349500D01*
X85976080Y-32349500D01*
X85831092Y-32378340D01*
X85831082Y-32378343D01*
X85694511Y-32434912D01*
X85694498Y-32434919D01*
X85571584Y-32517048D01*
X85571580Y-32517051D01*
X85467051Y-32621580D01*
X85467048Y-32621584D01*
X85384919Y-32744498D01*
X85384912Y-32744511D01*
X85328343Y-32881082D01*
X85328340Y-32881092D01*
X85299500Y-33026079D01*
X85299500Y-33026082D01*
X85299500Y-33173918D01*
X85299500Y-33173920D01*
X85299499Y-33173920D01*
X77200500Y-33173920D01*
X77200500Y-33026079D01*
X77171659Y-32881092D01*
X77171658Y-32881091D01*
X77171658Y-32881087D01*
X77171656Y-32881082D01*
X77115087Y-32744511D01*
X77115080Y-32744498D01*
X77032951Y-32621584D01*
X77032948Y-32621580D01*
X76928419Y-32517051D01*
X76928415Y-32517048D01*
X76805501Y-32434919D01*
X76805488Y-32434912D01*
X76668917Y-32378343D01*
X76668907Y-32378340D01*
X76523920Y-32349500D01*
X76523918Y-32349500D01*
X76376082Y-32349500D01*
X76376080Y-32349500D01*
X76231092Y-32378340D01*
X76231082Y-32378343D01*
X76094511Y-32434912D01*
X76094498Y-32434919D01*
X75971584Y-32517048D01*
X75971580Y-32517051D01*
X75867051Y-32621580D01*
X75867048Y-32621584D01*
X75784919Y-32744498D01*
X75784912Y-32744511D01*
X75728343Y-32881082D01*
X75728340Y-32881092D01*
X75699500Y-33026079D01*
X75699500Y-33026082D01*
X75699500Y-33173918D01*
X75699500Y-33173920D01*
X75699499Y-33173920D01*
X71573920Y-33173920D01*
X71436319Y-33036319D01*
X71402834Y-32974996D01*
X71400000Y-32948638D01*
X71400000Y-27599996D01*
X96394435Y-27599996D01*
X96394435Y-27600003D01*
X96414630Y-27779249D01*
X96414631Y-27779254D01*
X96474211Y-27949523D01*
X96504507Y-27997738D01*
X96570184Y-28102262D01*
X96697738Y-28229816D01*
X96760904Y-28269506D01*
X96842450Y-28320745D01*
X96850478Y-28325789D01*
X97020739Y-28385366D01*
X97020745Y-28385368D01*
X97020750Y-28385369D01*
X97199996Y-28405565D01*
X97200000Y-28405565D01*
X97200004Y-28405565D01*
X97379249Y-28385369D01*
X97379251Y-28385368D01*
X97379255Y-28385368D01*
X97379258Y-28385366D01*
X97379262Y-28385366D01*
X97469377Y-28353832D01*
X97549522Y-28325789D01*
X97639096Y-28269505D01*
X97705068Y-28250500D01*
X98694932Y-28250500D01*
X98760904Y-28269506D01*
X98850477Y-28325789D01*
X98850481Y-28325790D01*
X99020737Y-28385366D01*
X99020743Y-28385367D01*
X99020745Y-28385368D01*
X99020746Y-28385368D01*
X99020750Y-28385369D01*
X99199996Y-28405565D01*
X99200000Y-28405565D01*
X99200004Y-28405565D01*
X99379249Y-28385369D01*
X99379252Y-28385368D01*
X99379255Y-28385368D01*
X99549522Y-28325789D01*
X99702262Y-28229816D01*
X99829816Y-28102262D01*
X99925789Y-27949522D01*
X99985368Y-27779255D01*
X99986182Y-27772025D01*
X100013245Y-27707611D01*
X100021702Y-27698242D01*
X100283128Y-27436816D01*
X100344450Y-27403334D01*
X100370808Y-27400500D01*
X108629192Y-27400500D01*
X108696231Y-27420185D01*
X108716873Y-27436819D01*
X109878277Y-28598223D01*
X109911762Y-28659546D01*
X109913815Y-28672012D01*
X109914630Y-28679246D01*
X109914632Y-28679255D01*
X109974211Y-28849523D01*
X110030493Y-28939094D01*
X110049500Y-29005067D01*
X110049500Y-43164069D01*
X110049500Y-43164071D01*
X110049499Y-43164071D01*
X110074497Y-43289738D01*
X110074499Y-43289744D01*
X110123534Y-43408125D01*
X110194726Y-43514673D01*
X110194727Y-43514674D01*
X114778277Y-48098223D01*
X114811762Y-48159546D01*
X114813815Y-48172012D01*
X114814630Y-48179246D01*
X114814632Y-48179255D01*
X114874210Y-48349521D01*
X114932046Y-48441566D01*
X114970184Y-48502262D01*
X115097738Y-48629816D01*
X115250478Y-48725789D01*
X115420745Y-48785368D01*
X115420750Y-48785369D01*
X115599996Y-48805565D01*
X115600000Y-48805565D01*
X115600004Y-48805565D01*
X115779249Y-48785369D01*
X115779252Y-48785368D01*
X115779255Y-48785368D01*
X115949522Y-48725789D01*
X116102262Y-48629816D01*
X116229816Y-48502262D01*
X116325789Y-48349522D01*
X116385368Y-48179255D01*
X116405565Y-48000000D01*
X116398228Y-47934886D01*
X116385369Y-47820750D01*
X116385368Y-47820745D01*
X116342326Y-47697738D01*
X116325789Y-47650478D01*
X116229816Y-47497738D01*
X116102262Y-47370184D01*
X115949521Y-47274210D01*
X115779255Y-47214632D01*
X115779246Y-47214630D01*
X115772012Y-47213815D01*
X115707600Y-47186744D01*
X115698223Y-47178277D01*
X114119945Y-45599999D01*
X126143738Y-45599999D01*
X126143738Y-45600000D01*
X126162744Y-45805113D01*
X126219117Y-46003243D01*
X126310931Y-46187629D01*
X126310933Y-46187632D01*
X126310935Y-46187636D01*
X126435072Y-46352021D01*
X126587302Y-46490796D01*
X126762439Y-46599237D01*
X126954520Y-46673649D01*
X127157004Y-46711500D01*
X127157006Y-46711500D01*
X127362994Y-46711500D01*
X127362996Y-46711500D01*
X127565480Y-46673649D01*
X127757561Y-46599237D01*
X127932698Y-46490796D01*
X128084928Y-46352021D01*
X128209065Y-46187636D01*
X128300883Y-46003240D01*
X128357256Y-45805113D01*
X128376262Y-45600000D01*
X128357256Y-45394887D01*
X128300883Y-45196760D01*
X128300882Y-45196756D01*
X128209068Y-45012370D01*
X128209067Y-45012369D01*
X128209065Y-45012364D01*
X128155291Y-44941155D01*
X131229000Y-44941155D01*
X131229000Y-45350000D01*
X132085126Y-45350000D01*
X132054329Y-45380797D01*
X132007329Y-45462203D01*
X131983000Y-45553000D01*
X131983000Y-45647000D01*
X132007329Y-45737797D01*
X132054329Y-45819203D01*
X132085126Y-45850000D01*
X131229000Y-45850000D01*
X131229000Y-46258844D01*
X131235401Y-46318372D01*
X131235403Y-46318379D01*
X131285645Y-46453086D01*
X131285649Y-46453093D01*
X131371809Y-46568187D01*
X131371812Y-46568190D01*
X131486906Y-46654350D01*
X131486913Y-46654354D01*
X131621620Y-46704596D01*
X131621627Y-46704598D01*
X131681155Y-46710999D01*
X131681172Y-46711000D01*
X132090000Y-46711000D01*
X132090000Y-45854874D01*
X132120797Y-45885671D01*
X132202203Y-45932671D01*
X132293000Y-45957000D01*
X132387000Y-45957000D01*
X132477797Y-45932671D01*
X132559203Y-45885671D01*
X132590000Y-45854874D01*
X132590000Y-46711000D01*
X132998828Y-46711000D01*
X132998844Y-46710999D01*
X133058372Y-46704598D01*
X133058379Y-46704596D01*
X133193086Y-46654354D01*
X133193093Y-46654350D01*
X133308187Y-46568190D01*
X133308190Y-46568187D01*
X133394350Y-46453093D01*
X133394354Y-46453086D01*
X133444596Y-46318379D01*
X133444598Y-46318372D01*
X133450999Y-46258844D01*
X133451000Y-46258827D01*
X133451000Y-45850000D01*
X132594874Y-45850000D01*
X132625671Y-45819203D01*
X132672671Y-45737797D01*
X132697000Y-45647000D01*
X132697000Y-45553000D01*
X132672671Y-45462203D01*
X132625671Y-45380797D01*
X132594874Y-45350000D01*
X133451000Y-45350000D01*
X133451000Y-44941172D01*
X133450999Y-44941155D01*
X133444598Y-44881627D01*
X133444596Y-44881620D01*
X133394354Y-44746913D01*
X133394350Y-44746906D01*
X133308190Y-44631812D01*
X133308187Y-44631809D01*
X133193093Y-44545649D01*
X133193086Y-44545645D01*
X133058379Y-44495403D01*
X133058372Y-44495401D01*
X132998844Y-44489000D01*
X132590000Y-44489000D01*
X132590000Y-45345126D01*
X132559203Y-45314329D01*
X132477797Y-45267329D01*
X132387000Y-45243000D01*
X132293000Y-45243000D01*
X132202203Y-45267329D01*
X132120797Y-45314329D01*
X132090000Y-45345126D01*
X132090000Y-44489000D01*
X131681155Y-44489000D01*
X131621627Y-44495401D01*
X131621620Y-44495403D01*
X131486913Y-44545645D01*
X131486906Y-44545649D01*
X131371812Y-44631809D01*
X131371809Y-44631812D01*
X131285649Y-44746906D01*
X131285645Y-44746913D01*
X131235403Y-44881620D01*
X131235401Y-44881627D01*
X131229000Y-44941155D01*
X128155291Y-44941155D01*
X128084928Y-44847979D01*
X127932698Y-44709204D01*
X127757561Y-44600763D01*
X127757560Y-44600762D01*
X127615284Y-44545645D01*
X127565480Y-44526351D01*
X127362996Y-44488500D01*
X127157004Y-44488500D01*
X126954520Y-44526351D01*
X126954517Y-44526351D01*
X126954517Y-44526352D01*
X126762439Y-44600762D01*
X126762438Y-44600763D01*
X126587306Y-44709201D01*
X126587304Y-44709202D01*
X126587302Y-44709204D01*
X126545945Y-44746906D01*
X126435072Y-44847979D01*
X126435070Y-44847981D01*
X126310940Y-45012356D01*
X126310931Y-45012370D01*
X126219117Y-45196756D01*
X126162744Y-45394886D01*
X126143738Y-45599999D01*
X114119945Y-45599999D01*
X111386819Y-42866873D01*
X111353334Y-42805550D01*
X111350500Y-42779192D01*
X111350500Y-37999996D01*
X119594435Y-37999996D01*
X119594435Y-38000003D01*
X119614630Y-38179249D01*
X119614631Y-38179254D01*
X119674211Y-38349523D01*
X119695729Y-38383768D01*
X119770184Y-38502262D01*
X119897738Y-38629816D01*
X120050478Y-38725789D01*
X120220745Y-38785368D01*
X120220750Y-38785369D01*
X120399996Y-38805565D01*
X120400000Y-38805565D01*
X120400004Y-38805565D01*
X120579249Y-38785369D01*
X120579252Y-38785368D01*
X120579255Y-38785368D01*
X120749522Y-38725789D01*
X120902262Y-38629816D01*
X120902267Y-38629810D01*
X120905097Y-38627555D01*
X120907275Y-38626665D01*
X120908158Y-38626111D01*
X120908255Y-38626265D01*
X120969783Y-38601145D01*
X120982412Y-38600500D01*
X123217588Y-38600500D01*
X123284627Y-38620185D01*
X123294903Y-38627555D01*
X123297736Y-38629814D01*
X123297738Y-38629816D01*
X123450478Y-38725789D01*
X123620745Y-38785368D01*
X123620750Y-38785369D01*
X123799996Y-38805565D01*
X123800000Y-38805565D01*
X123800004Y-38805565D01*
X123979249Y-38785369D01*
X123979252Y-38785368D01*
X123979255Y-38785368D01*
X124149522Y-38725789D01*
X124302262Y-38629816D01*
X124429816Y-38502262D01*
X124525789Y-38349522D01*
X124548875Y-38283546D01*
X124589597Y-38226770D01*
X124654549Y-38201022D01*
X124665917Y-38200500D01*
X145229192Y-38200500D01*
X145296231Y-38220185D01*
X145316873Y-38236819D01*
X145378277Y-38298223D01*
X145411762Y-38359546D01*
X145413815Y-38372012D01*
X145414630Y-38379246D01*
X145414632Y-38379255D01*
X145474210Y-38549521D01*
X145522335Y-38626111D01*
X145570184Y-38702262D01*
X145697738Y-38829816D01*
X145850478Y-38925789D01*
X146020745Y-38985368D01*
X146020750Y-38985369D01*
X146199996Y-39005565D01*
X146200000Y-39005565D01*
X146200004Y-39005565D01*
X146379249Y-38985369D01*
X146379252Y-38985368D01*
X146379255Y-38985368D01*
X146549522Y-38925789D01*
X146702262Y-38829816D01*
X146829816Y-38702262D01*
X146925789Y-38549522D01*
X146985368Y-38379255D01*
X146988718Y-38349522D01*
X147005565Y-38200003D01*
X147005565Y-38199996D01*
X146985369Y-38020750D01*
X146985368Y-38020745D01*
X146946818Y-37910575D01*
X146925789Y-37850478D01*
X146907106Y-37820745D01*
X146829815Y-37697737D01*
X146702262Y-37570184D01*
X146549521Y-37474210D01*
X146379255Y-37414632D01*
X146379246Y-37414630D01*
X146372012Y-37413815D01*
X146307600Y-37386744D01*
X146298223Y-37378277D01*
X145964674Y-37044727D01*
X145964673Y-37044726D01*
X145933431Y-37023851D01*
X145858127Y-36973535D01*
X145739744Y-36924499D01*
X145739738Y-36924497D01*
X145614071Y-36899500D01*
X145614069Y-36899500D01*
X124185931Y-36899500D01*
X124185929Y-36899500D01*
X124060261Y-36924497D01*
X124060255Y-36924499D01*
X123941874Y-36973534D01*
X123835329Y-37044724D01*
X123835327Y-37044726D01*
X123701773Y-37178278D01*
X123640450Y-37211762D01*
X123627988Y-37213815D01*
X123620752Y-37214630D01*
X123620744Y-37214632D01*
X123450478Y-37274210D01*
X123297736Y-37370185D01*
X123294903Y-37372445D01*
X123292724Y-37373334D01*
X123291842Y-37373889D01*
X123291744Y-37373734D01*
X123230217Y-37398855D01*
X123217588Y-37399500D01*
X120982412Y-37399500D01*
X120915373Y-37379815D01*
X120905097Y-37372445D01*
X120902263Y-37370185D01*
X120902262Y-37370184D01*
X120803671Y-37308235D01*
X120749523Y-37274211D01*
X120579254Y-37214631D01*
X120579249Y-37214630D01*
X120400004Y-37194435D01*
X120399996Y-37194435D01*
X120220750Y-37214630D01*
X120220745Y-37214631D01*
X120050476Y-37274211D01*
X119897737Y-37370184D01*
X119770184Y-37497737D01*
X119674211Y-37650476D01*
X119614631Y-37820745D01*
X119614630Y-37820750D01*
X119594435Y-37999996D01*
X111350500Y-37999996D01*
X111350500Y-32673920D01*
X126249499Y-32673920D01*
X126278340Y-32818907D01*
X126278343Y-32818917D01*
X126334912Y-32955488D01*
X126334919Y-32955501D01*
X126417048Y-33078415D01*
X126417051Y-33078419D01*
X126521580Y-33182948D01*
X126521584Y-33182951D01*
X126644498Y-33265080D01*
X126644511Y-33265087D01*
X126781082Y-33321656D01*
X126781087Y-33321658D01*
X126781091Y-33321658D01*
X126781092Y-33321659D01*
X126926079Y-33350500D01*
X126926082Y-33350500D01*
X127073920Y-33350500D01*
X127171462Y-33331096D01*
X127218913Y-33321658D01*
X127355495Y-33265084D01*
X127478416Y-33182951D01*
X127582951Y-33078416D01*
X127665084Y-32955495D01*
X127721658Y-32818913D01*
X127736459Y-32744505D01*
X127750500Y-32673920D01*
X133049499Y-32673920D01*
X133078340Y-32818907D01*
X133078343Y-32818917D01*
X133134912Y-32955488D01*
X133134919Y-32955501D01*
X133217048Y-33078415D01*
X133217051Y-33078419D01*
X133321580Y-33182948D01*
X133321584Y-33182951D01*
X133444498Y-33265080D01*
X133444511Y-33265087D01*
X133581082Y-33321656D01*
X133581087Y-33321658D01*
X133581091Y-33321658D01*
X133581092Y-33321659D01*
X133726079Y-33350500D01*
X133726082Y-33350500D01*
X133873920Y-33350500D01*
X133971462Y-33331096D01*
X134018913Y-33321658D01*
X134155495Y-33265084D01*
X134278416Y-33182951D01*
X134382951Y-33078416D01*
X134465084Y-32955495D01*
X134521658Y-32818913D01*
X134536459Y-32744505D01*
X134550500Y-32673920D01*
X141049499Y-32673920D01*
X141078340Y-32818907D01*
X141078343Y-32818917D01*
X141134912Y-32955488D01*
X141134919Y-32955501D01*
X141217048Y-33078415D01*
X141217051Y-33078419D01*
X141321580Y-33182948D01*
X141321584Y-33182951D01*
X141444498Y-33265080D01*
X141444511Y-33265087D01*
X141581082Y-33321656D01*
X141581087Y-33321658D01*
X141581091Y-33321658D01*
X141581092Y-33321659D01*
X141726079Y-33350500D01*
X141726082Y-33350500D01*
X141873920Y-33350500D01*
X141971462Y-33331096D01*
X142018913Y-33321658D01*
X142155495Y-33265084D01*
X142278416Y-33182951D01*
X142382951Y-33078416D01*
X142465084Y-32955495D01*
X142521658Y-32818913D01*
X142536459Y-32744505D01*
X142550500Y-32673920D01*
X147849499Y-32673920D01*
X147878340Y-32818907D01*
X147878343Y-32818917D01*
X147934912Y-32955488D01*
X147934919Y-32955501D01*
X148017048Y-33078415D01*
X148017051Y-33078419D01*
X148121580Y-33182948D01*
X148121584Y-33182951D01*
X148244498Y-33265080D01*
X148244511Y-33265087D01*
X148381082Y-33321656D01*
X148381087Y-33321658D01*
X148381091Y-33321658D01*
X148381092Y-33321659D01*
X148526079Y-33350500D01*
X148526082Y-33350500D01*
X148673920Y-33350500D01*
X148771462Y-33331096D01*
X148818913Y-33321658D01*
X148955495Y-33265084D01*
X149078416Y-33182951D01*
X149182951Y-33078416D01*
X149265084Y-32955495D01*
X149321658Y-32818913D01*
X149336459Y-32744505D01*
X149350500Y-32673920D01*
X149350500Y-32526079D01*
X149321659Y-32381092D01*
X149321658Y-32381091D01*
X149321658Y-32381087D01*
X149295544Y-32318042D01*
X149265087Y-32244511D01*
X149265080Y-32244498D01*
X149182951Y-32121584D01*
X149182948Y-32121580D01*
X149078419Y-32017051D01*
X149078415Y-32017048D01*
X148955501Y-31934919D01*
X148955488Y-31934912D01*
X148818917Y-31878343D01*
X148818907Y-31878340D01*
X148673920Y-31849500D01*
X148673918Y-31849500D01*
X148526082Y-31849500D01*
X148526080Y-31849500D01*
X148381092Y-31878340D01*
X148381082Y-31878343D01*
X148244511Y-31934912D01*
X148244498Y-31934919D01*
X148121584Y-32017048D01*
X148121580Y-32017051D01*
X148017051Y-32121580D01*
X148017048Y-32121584D01*
X147934919Y-32244498D01*
X147934912Y-32244511D01*
X147878343Y-32381082D01*
X147878340Y-32381092D01*
X147849500Y-32526079D01*
X147849500Y-32526082D01*
X147849500Y-32673918D01*
X147849500Y-32673920D01*
X147849499Y-32673920D01*
X142550500Y-32673920D01*
X142550500Y-32526079D01*
X142521659Y-32381092D01*
X142521658Y-32381091D01*
X142521658Y-32381087D01*
X142495544Y-32318042D01*
X142465087Y-32244511D01*
X142465080Y-32244498D01*
X142382951Y-32121584D01*
X142382948Y-32121580D01*
X142278419Y-32017051D01*
X142278415Y-32017048D01*
X142155501Y-31934919D01*
X142155488Y-31934912D01*
X142018917Y-31878343D01*
X142018907Y-31878340D01*
X141873920Y-31849500D01*
X141873918Y-31849500D01*
X141726082Y-31849500D01*
X141726080Y-31849500D01*
X141581092Y-31878340D01*
X141581082Y-31878343D01*
X141444511Y-31934912D01*
X141444498Y-31934919D01*
X141321584Y-32017048D01*
X141321580Y-32017051D01*
X141217051Y-32121580D01*
X141217048Y-32121584D01*
X141134919Y-32244498D01*
X141134912Y-32244511D01*
X141078343Y-32381082D01*
X141078340Y-32381092D01*
X141049500Y-32526079D01*
X141049500Y-32526082D01*
X141049500Y-32673918D01*
X141049500Y-32673920D01*
X141049499Y-32673920D01*
X134550500Y-32673920D01*
X134550500Y-32526079D01*
X134521659Y-32381092D01*
X134521658Y-32381091D01*
X134521658Y-32381087D01*
X134495544Y-32318042D01*
X134465087Y-32244511D01*
X134465080Y-32244498D01*
X134382951Y-32121584D01*
X134382948Y-32121580D01*
X134278419Y-32017051D01*
X134278415Y-32017048D01*
X134155501Y-31934919D01*
X134155488Y-31934912D01*
X134018917Y-31878343D01*
X134018907Y-31878340D01*
X133873920Y-31849500D01*
X133873918Y-31849500D01*
X133726082Y-31849500D01*
X133726080Y-31849500D01*
X133581092Y-31878340D01*
X133581082Y-31878343D01*
X133444511Y-31934912D01*
X133444498Y-31934919D01*
X133321584Y-32017048D01*
X133321580Y-32017051D01*
X133217051Y-32121580D01*
X133217048Y-32121584D01*
X133134919Y-32244498D01*
X133134912Y-32244511D01*
X133078343Y-32381082D01*
X133078340Y-32381092D01*
X133049500Y-32526079D01*
X133049500Y-32526082D01*
X133049500Y-32673918D01*
X133049500Y-32673920D01*
X133049499Y-32673920D01*
X127750500Y-32673920D01*
X127750500Y-32526079D01*
X127721659Y-32381092D01*
X127721658Y-32381091D01*
X127721658Y-32381087D01*
X127695544Y-32318042D01*
X127665087Y-32244511D01*
X127665080Y-32244498D01*
X127582951Y-32121584D01*
X127582948Y-32121580D01*
X127478419Y-32017051D01*
X127478415Y-32017048D01*
X127355501Y-31934919D01*
X127355488Y-31934912D01*
X127218917Y-31878343D01*
X127218907Y-31878340D01*
X127073920Y-31849500D01*
X127073918Y-31849500D01*
X126926082Y-31849500D01*
X126926080Y-31849500D01*
X126781092Y-31878340D01*
X126781082Y-31878343D01*
X126644511Y-31934912D01*
X126644498Y-31934919D01*
X126521584Y-32017048D01*
X126521580Y-32017051D01*
X126417051Y-32121580D01*
X126417048Y-32121584D01*
X126334919Y-32244498D01*
X126334912Y-32244511D01*
X126278343Y-32381082D01*
X126278340Y-32381092D01*
X126249500Y-32526079D01*
X126249500Y-32526082D01*
X126249500Y-32673918D01*
X126249500Y-32673920D01*
X126249499Y-32673920D01*
X111350500Y-32673920D01*
X111350500Y-29005067D01*
X111369507Y-28939094D01*
X111425788Y-28849524D01*
X111425789Y-28849522D01*
X111485368Y-28679255D01*
X111505565Y-28500000D01*
X111492649Y-28385369D01*
X111485369Y-28320750D01*
X111485368Y-28320745D01*
X111455826Y-28236319D01*
X111425789Y-28150478D01*
X111329816Y-27997738D01*
X111202262Y-27870184D01*
X111049521Y-27774210D01*
X110879255Y-27714632D01*
X110879246Y-27714630D01*
X110872012Y-27713815D01*
X110807600Y-27686744D01*
X110798223Y-27678277D01*
X109364674Y-26244727D01*
X109364673Y-26244726D01*
X109336770Y-26226082D01*
X109258127Y-26173535D01*
X109139744Y-26124499D01*
X109139738Y-26124497D01*
X109014071Y-26099500D01*
X109014069Y-26099500D01*
X99985931Y-26099500D01*
X99985929Y-26099500D01*
X99860261Y-26124497D01*
X99860251Y-26124500D01*
X99811635Y-26144637D01*
X99811636Y-26144638D01*
X99741877Y-26173532D01*
X99741863Y-26173540D01*
X99635332Y-26244721D01*
X99635325Y-26244727D01*
X99101775Y-26778277D01*
X99040452Y-26811762D01*
X99027988Y-26813815D01*
X99020752Y-26814630D01*
X99020745Y-26814632D01*
X98850476Y-26874211D01*
X98760904Y-26930494D01*
X98694932Y-26949500D01*
X97705068Y-26949500D01*
X97639096Y-26930494D01*
X97549522Y-26874210D01*
X97549518Y-26874209D01*
X97379262Y-26814633D01*
X97379249Y-26814630D01*
X97200004Y-26794435D01*
X97199996Y-26794435D01*
X97020750Y-26814630D01*
X97020745Y-26814631D01*
X96850476Y-26874211D01*
X96697737Y-26970184D01*
X96570184Y-27097737D01*
X96474211Y-27250476D01*
X96414631Y-27420745D01*
X96414630Y-27420750D01*
X96394435Y-27599996D01*
X71400000Y-27599996D01*
X71400000Y-26373920D01*
X75699499Y-26373920D01*
X75728340Y-26518907D01*
X75728343Y-26518917D01*
X75784912Y-26655488D01*
X75784919Y-26655501D01*
X75867048Y-26778415D01*
X75867051Y-26778419D01*
X75971580Y-26882948D01*
X75971584Y-26882951D01*
X76094498Y-26965080D01*
X76094511Y-26965087D01*
X76231082Y-27021656D01*
X76231087Y-27021658D01*
X76231091Y-27021658D01*
X76231092Y-27021659D01*
X76376079Y-27050500D01*
X76376082Y-27050500D01*
X76523920Y-27050500D01*
X76621462Y-27031096D01*
X76668913Y-27021658D01*
X76774547Y-26977902D01*
X76805488Y-26965087D01*
X76805488Y-26965086D01*
X76805495Y-26965084D01*
X76928416Y-26882951D01*
X77032951Y-26778416D01*
X77115084Y-26655495D01*
X77171658Y-26518913D01*
X77200500Y-26373920D01*
X85299499Y-26373920D01*
X85328340Y-26518907D01*
X85328343Y-26518917D01*
X85384912Y-26655488D01*
X85384919Y-26655501D01*
X85467048Y-26778415D01*
X85467051Y-26778419D01*
X85571580Y-26882948D01*
X85571584Y-26882951D01*
X85694498Y-26965080D01*
X85694511Y-26965087D01*
X85831082Y-27021656D01*
X85831087Y-27021658D01*
X85831091Y-27021658D01*
X85831092Y-27021659D01*
X85976079Y-27050500D01*
X85976082Y-27050500D01*
X86123920Y-27050500D01*
X86221462Y-27031096D01*
X86268913Y-27021658D01*
X86374547Y-26977902D01*
X86405488Y-26965087D01*
X86405488Y-26965086D01*
X86405495Y-26965084D01*
X86528416Y-26882951D01*
X86632951Y-26778416D01*
X86715084Y-26655495D01*
X86771658Y-26518913D01*
X86800500Y-26373918D01*
X86800500Y-26226082D01*
X86800500Y-26226079D01*
X86771659Y-26081092D01*
X86771658Y-26081091D01*
X86771658Y-26081087D01*
X86754015Y-26038493D01*
X86715087Y-25944511D01*
X86715080Y-25944498D01*
X86632951Y-25821584D01*
X86632948Y-25821580D01*
X86528419Y-25717051D01*
X86528415Y-25717048D01*
X86405501Y-25634919D01*
X86405488Y-25634912D01*
X86268917Y-25578343D01*
X86268907Y-25578340D01*
X86123920Y-25549500D01*
X86123918Y-25549500D01*
X85976082Y-25549500D01*
X85976080Y-25549500D01*
X85831092Y-25578340D01*
X85831082Y-25578343D01*
X85694511Y-25634912D01*
X85694498Y-25634919D01*
X85571584Y-25717048D01*
X85571580Y-25717051D01*
X85467051Y-25821580D01*
X85467048Y-25821584D01*
X85384919Y-25944498D01*
X85384912Y-25944511D01*
X85328343Y-26081082D01*
X85328340Y-26081092D01*
X85299500Y-26226079D01*
X85299500Y-26226082D01*
X85299500Y-26373918D01*
X85299500Y-26373920D01*
X85299499Y-26373920D01*
X77200500Y-26373920D01*
X77200500Y-26373918D01*
X77200500Y-26226082D01*
X77200500Y-26226079D01*
X77171659Y-26081092D01*
X77171658Y-26081091D01*
X77171658Y-26081087D01*
X77154015Y-26038493D01*
X77115087Y-25944511D01*
X77115080Y-25944498D01*
X77032951Y-25821584D01*
X77032948Y-25821580D01*
X76928419Y-25717051D01*
X76928415Y-25717048D01*
X76805501Y-25634919D01*
X76805488Y-25634912D01*
X76668917Y-25578343D01*
X76668907Y-25578340D01*
X76523920Y-25549500D01*
X76523918Y-25549500D01*
X76376082Y-25549500D01*
X76376080Y-25549500D01*
X76231092Y-25578340D01*
X76231082Y-25578343D01*
X76094511Y-25634912D01*
X76094498Y-25634919D01*
X75971584Y-25717048D01*
X75971580Y-25717051D01*
X75867051Y-25821580D01*
X75867048Y-25821584D01*
X75784919Y-25944498D01*
X75784912Y-25944511D01*
X75728343Y-26081082D01*
X75728340Y-26081092D01*
X75699500Y-26226079D01*
X75699500Y-26226082D01*
X75699500Y-26373918D01*
X75699500Y-26373920D01*
X75699499Y-26373920D01*
X71400000Y-26373920D01*
X71400000Y-22124445D01*
X71419685Y-22057406D01*
X71472489Y-22011651D01*
X71524443Y-22000446D01*
X127148899Y-22199816D01*
G37*
%TD.AperFunction*%
%TA.AperFunction,Conductor*%
G36*
X121994075Y-24807007D02*
G01*
X121960000Y-24934174D01*
X121960000Y-25065826D01*
X121994075Y-25192993D01*
X122026988Y-25250000D01*
X120353012Y-25250000D01*
X120385925Y-25192993D01*
X120420000Y-25065826D01*
X120420000Y-24934174D01*
X120385925Y-24807007D01*
X120353012Y-24750000D01*
X122026988Y-24750000D01*
X121994075Y-24807007D01*
G37*
%TD.AperFunction*%
%TD*%
%TA.AperFunction,Conductor*%
%TO.N,GND*%
G36*
X89415677Y-36419685D02*
G01*
X89436319Y-36436319D01*
X91963681Y-38963681D01*
X91997166Y-39025004D01*
X92000000Y-39051362D01*
X92000000Y-43400000D01*
X95000000Y-46400000D01*
X106748638Y-46400000D01*
X106815677Y-46419685D01*
X106836319Y-46436319D01*
X115000000Y-54600000D01*
X149148638Y-54600000D01*
X149215677Y-54619685D01*
X149236319Y-54636319D01*
X150564088Y-55964088D01*
X150597573Y-56025411D01*
X150600403Y-56050785D01*
X150799587Y-81148062D01*
X150780435Y-81215255D01*
X150763272Y-81236727D01*
X149636319Y-82363681D01*
X149574996Y-82397166D01*
X149548638Y-82400000D01*
X128784500Y-82400000D01*
X128717461Y-82380315D01*
X128671706Y-82327511D01*
X128660500Y-82276000D01*
X128660500Y-82089152D01*
X128679507Y-82023179D01*
X128725788Y-81949524D01*
X128785368Y-81779254D01*
X128785369Y-81779249D01*
X128805565Y-81600003D01*
X128805565Y-81599996D01*
X128785369Y-81420750D01*
X128785368Y-81420745D01*
X128750670Y-81321584D01*
X128725789Y-81250478D01*
X128704785Y-81217051D01*
X128653178Y-81134919D01*
X128629816Y-81097738D01*
X128502262Y-80970184D01*
X128349523Y-80874211D01*
X128179254Y-80814631D01*
X128179249Y-80814630D01*
X128000004Y-80794435D01*
X127999996Y-80794435D01*
X127820750Y-80814630D01*
X127820745Y-80814631D01*
X127650476Y-80874211D01*
X127497737Y-80970184D01*
X127370184Y-81097737D01*
X127274211Y-81250476D01*
X127214631Y-81420745D01*
X127214630Y-81420750D01*
X127194435Y-81599996D01*
X127194435Y-81600003D01*
X127214630Y-81779249D01*
X127214631Y-81779254D01*
X127274211Y-81949523D01*
X127370184Y-82102262D01*
X127423181Y-82155259D01*
X127456666Y-82216582D01*
X127459500Y-82242940D01*
X127459500Y-82276000D01*
X127439815Y-82343039D01*
X127387011Y-82388794D01*
X127335500Y-82400000D01*
X122399999Y-82400000D01*
X121800000Y-82999999D01*
X121795309Y-83011325D01*
X121780315Y-83062389D01*
X121727511Y-83108144D01*
X121658353Y-83118088D01*
X121594797Y-83089063D01*
X121574425Y-83066474D01*
X121478109Y-82928922D01*
X121478108Y-82928920D01*
X121311082Y-82761894D01*
X121117578Y-82626399D01*
X120903492Y-82526570D01*
X120903486Y-82526567D01*
X120690000Y-82469364D01*
X120690000Y-83366988D01*
X120632993Y-83334075D01*
X120505826Y-83300000D01*
X120374174Y-83300000D01*
X120247007Y-83334075D01*
X120190000Y-83366988D01*
X120190000Y-82469364D01*
X120189999Y-82469364D01*
X119976513Y-82526567D01*
X119976507Y-82526570D01*
X119762422Y-82626399D01*
X119762420Y-82626400D01*
X119568926Y-82761886D01*
X119568920Y-82761891D01*
X119401891Y-82928920D01*
X119401890Y-82928922D01*
X119271880Y-83114595D01*
X119217303Y-83158219D01*
X119147804Y-83165412D01*
X119085450Y-83133890D01*
X119068730Y-83114594D01*
X118938494Y-82928597D01*
X118771402Y-82761506D01*
X118771395Y-82761501D01*
X118577834Y-82625967D01*
X118577830Y-82625965D01*
X118500499Y-82589905D01*
X118363663Y-82526097D01*
X118363659Y-82526096D01*
X118363655Y-82526094D01*
X118135413Y-82464938D01*
X118135403Y-82464936D01*
X117900001Y-82444341D01*
X117899999Y-82444341D01*
X117664596Y-82464936D01*
X117664586Y-82464938D01*
X117436344Y-82526094D01*
X117436335Y-82526098D01*
X117222171Y-82625964D01*
X117222169Y-82625965D01*
X117028597Y-82761505D01*
X116861505Y-82928597D01*
X116731575Y-83114158D01*
X116676998Y-83157783D01*
X116607500Y-83164977D01*
X116545145Y-83133454D01*
X116528425Y-83114158D01*
X116398494Y-82928597D01*
X116231402Y-82761506D01*
X116231395Y-82761501D01*
X116037834Y-82625967D01*
X116037830Y-82625965D01*
X115960499Y-82589905D01*
X115823663Y-82526097D01*
X115823659Y-82526096D01*
X115823655Y-82526094D01*
X115595413Y-82464938D01*
X115595403Y-82464936D01*
X115360001Y-82444341D01*
X115359999Y-82444341D01*
X115124596Y-82464936D01*
X115124586Y-82464938D01*
X114896344Y-82526094D01*
X114896335Y-82526098D01*
X114682171Y-82625964D01*
X114682169Y-82625965D01*
X114488597Y-82761505D01*
X114321508Y-82928594D01*
X114191269Y-83114595D01*
X114136692Y-83158219D01*
X114067193Y-83165412D01*
X114004839Y-83133890D01*
X113988119Y-83114594D01*
X113858113Y-82928926D01*
X113858108Y-82928920D01*
X113691082Y-82761894D01*
X113497578Y-82626399D01*
X113283492Y-82526570D01*
X113283486Y-82526567D01*
X113070000Y-82469364D01*
X113070000Y-83366988D01*
X113012993Y-83334075D01*
X112885826Y-83300000D01*
X112754174Y-83300000D01*
X112627007Y-83334075D01*
X112570000Y-83366988D01*
X112570000Y-82469364D01*
X112569999Y-82469364D01*
X112356513Y-82526567D01*
X112356507Y-82526570D01*
X112142422Y-82626399D01*
X112142420Y-82626400D01*
X111948926Y-82761886D01*
X111948920Y-82761891D01*
X111781891Y-82928920D01*
X111781890Y-82928922D01*
X111651575Y-83115031D01*
X111596998Y-83158655D01*
X111527499Y-83165848D01*
X111465145Y-83134326D01*
X111448425Y-83115031D01*
X111318109Y-82928922D01*
X111318108Y-82928920D01*
X111151082Y-82761894D01*
X110957578Y-82626399D01*
X110743492Y-82526570D01*
X110743486Y-82526567D01*
X110530000Y-82469364D01*
X110530000Y-83366988D01*
X110472993Y-83334075D01*
X110345826Y-83300000D01*
X110214174Y-83300000D01*
X110087007Y-83334075D01*
X110030000Y-83366988D01*
X110030000Y-82469364D01*
X110029999Y-82469364D01*
X109816513Y-82526567D01*
X109816507Y-82526570D01*
X109602422Y-82626399D01*
X109602420Y-82626400D01*
X109408926Y-82761886D01*
X109408920Y-82761891D01*
X109241891Y-82928920D01*
X109241890Y-82928922D01*
X109111880Y-83114595D01*
X109057303Y-83158219D01*
X108987804Y-83165412D01*
X108925450Y-83133890D01*
X108908730Y-83114594D01*
X108778494Y-82928597D01*
X108611402Y-82761506D01*
X108611395Y-82761501D01*
X108417834Y-82625967D01*
X108417830Y-82625965D01*
X108340499Y-82589905D01*
X108203663Y-82526097D01*
X108203659Y-82526096D01*
X108203655Y-82526094D01*
X107975413Y-82464938D01*
X107975403Y-82464936D01*
X107740001Y-82444341D01*
X107739999Y-82444341D01*
X107504596Y-82464936D01*
X107504586Y-82464938D01*
X107276344Y-82526094D01*
X107276335Y-82526098D01*
X107062171Y-82625964D01*
X107062169Y-82625965D01*
X106868597Y-82761505D01*
X106701505Y-82928597D01*
X106565965Y-83122169D01*
X106565964Y-83122171D01*
X106466098Y-83336335D01*
X106466094Y-83336344D01*
X106404938Y-83564586D01*
X106404936Y-83564596D01*
X106384341Y-83799999D01*
X106384341Y-83800000D01*
X106404936Y-84035403D01*
X106404938Y-84035413D01*
X106466094Y-84263655D01*
X106466096Y-84263659D01*
X106466097Y-84263663D01*
X106545801Y-84434588D01*
X106565965Y-84477830D01*
X106565967Y-84477834D01*
X106604963Y-84533525D01*
X106701505Y-84671401D01*
X106868599Y-84838495D01*
X106965384Y-84906265D01*
X107062165Y-84974032D01*
X107062167Y-84974033D01*
X107062170Y-84974035D01*
X107276337Y-85073903D01*
X107504592Y-85135063D01*
X107692918Y-85151539D01*
X107739999Y-85155659D01*
X107740000Y-85155659D01*
X107740001Y-85155659D01*
X107779234Y-85152226D01*
X107975408Y-85135063D01*
X108203663Y-85073903D01*
X108417830Y-84974035D01*
X108611401Y-84838495D01*
X108778495Y-84671401D01*
X108908730Y-84485405D01*
X108963307Y-84441781D01*
X109032805Y-84434587D01*
X109095160Y-84466110D01*
X109111879Y-84485405D01*
X109241890Y-84671078D01*
X109408917Y-84838105D01*
X109602421Y-84973600D01*
X109816507Y-85073429D01*
X109816516Y-85073433D01*
X110030000Y-85130634D01*
X110030000Y-84233012D01*
X110087007Y-84265925D01*
X110214174Y-84300000D01*
X110345826Y-84300000D01*
X110472993Y-84265925D01*
X110530000Y-84233012D01*
X110530000Y-85130633D01*
X110743483Y-85073433D01*
X110743492Y-85073429D01*
X110957578Y-84973600D01*
X111151082Y-84838105D01*
X111318105Y-84671082D01*
X111448425Y-84484968D01*
X111503002Y-84441344D01*
X111572501Y-84434151D01*
X111634855Y-84465673D01*
X111651575Y-84484968D01*
X111781894Y-84671082D01*
X111948917Y-84838105D01*
X112142421Y-84973600D01*
X112356507Y-85073429D01*
X112356516Y-85073433D01*
X112570000Y-85130634D01*
X112570000Y-84233012D01*
X112627007Y-84265925D01*
X112754174Y-84300000D01*
X112885826Y-84300000D01*
X113012993Y-84265925D01*
X113070000Y-84233012D01*
X113070000Y-85130633D01*
X113283483Y-85073433D01*
X113283492Y-85073429D01*
X113497578Y-84973600D01*
X113691082Y-84838105D01*
X113858105Y-84671082D01*
X113988119Y-84485405D01*
X114042696Y-84441781D01*
X114112195Y-84434588D01*
X114174549Y-84466110D01*
X114191269Y-84485405D01*
X114204180Y-84503844D01*
X114321505Y-84671401D01*
X114488599Y-84838495D01*
X114585384Y-84906265D01*
X114682165Y-84974032D01*
X114682167Y-84974033D01*
X114682170Y-84974035D01*
X114896337Y-85073903D01*
X115124592Y-85135063D01*
X115312918Y-85151539D01*
X115359999Y-85155659D01*
X115360000Y-85155659D01*
X115360001Y-85155659D01*
X115399234Y-85152226D01*
X115595408Y-85135063D01*
X115823663Y-85073903D01*
X116037830Y-84974035D01*
X116231401Y-84838495D01*
X116398495Y-84671401D01*
X116512891Y-84508026D01*
X116528425Y-84485842D01*
X116583002Y-84442217D01*
X116652500Y-84435023D01*
X116714855Y-84466546D01*
X116731575Y-84485842D01*
X116861500Y-84671395D01*
X116861505Y-84671401D01*
X117028599Y-84838495D01*
X117125384Y-84906265D01*
X117222165Y-84974032D01*
X117222167Y-84974033D01*
X117222170Y-84974035D01*
X117436337Y-85073903D01*
X117664592Y-85135063D01*
X117852918Y-85151539D01*
X117899999Y-85155659D01*
X117900000Y-85155659D01*
X117900001Y-85155659D01*
X117939234Y-85152226D01*
X118135408Y-85135063D01*
X118363663Y-85073903D01*
X118577830Y-84974035D01*
X118771401Y-84838495D01*
X118938495Y-84671401D01*
X119068730Y-84485405D01*
X119123307Y-84441781D01*
X119192805Y-84434587D01*
X119255160Y-84466110D01*
X119271879Y-84485405D01*
X119401890Y-84671078D01*
X119568917Y-84838105D01*
X119762421Y-84973600D01*
X119976507Y-85073429D01*
X119976516Y-85073433D01*
X120190000Y-85130634D01*
X120190000Y-84233012D01*
X120247007Y-84265925D01*
X120374174Y-84300000D01*
X120505826Y-84300000D01*
X120632993Y-84265925D01*
X120690000Y-84233012D01*
X120690000Y-85130633D01*
X120903483Y-85073433D01*
X120903492Y-85073429D01*
X121117578Y-84973600D01*
X121311082Y-84838105D01*
X121478105Y-84671082D01*
X121574425Y-84533525D01*
X121629002Y-84489900D01*
X121698501Y-84482708D01*
X121760855Y-84514230D01*
X121796269Y-84574460D01*
X121800000Y-84604649D01*
X121800000Y-85354129D01*
X121780315Y-85421168D01*
X121770148Y-85434827D01*
X120637116Y-86756698D01*
X120578541Y-86794788D01*
X120542968Y-86800000D01*
X72851362Y-86800000D01*
X72784323Y-86780315D01*
X72763681Y-86763681D01*
X71436319Y-85436319D01*
X71402834Y-85374996D01*
X71400000Y-85348638D01*
X71400000Y-83273920D01*
X96649499Y-83273920D01*
X96678340Y-83418907D01*
X96678343Y-83418917D01*
X96734912Y-83555488D01*
X96734919Y-83555501D01*
X96817048Y-83678415D01*
X96817051Y-83678419D01*
X96921580Y-83782948D01*
X96921584Y-83782951D01*
X97044498Y-83865080D01*
X97044511Y-83865087D01*
X97181082Y-83921656D01*
X97181087Y-83921658D01*
X97181091Y-83921658D01*
X97181092Y-83921659D01*
X97326079Y-83950500D01*
X97326082Y-83950500D01*
X97473920Y-83950500D01*
X97571462Y-83931096D01*
X97618913Y-83921658D01*
X97755495Y-83865084D01*
X97878416Y-83782951D01*
X97982951Y-83678416D01*
X98065084Y-83555495D01*
X98121658Y-83418913D01*
X98131096Y-83371462D01*
X98150500Y-83273920D01*
X103449499Y-83273920D01*
X103478340Y-83418907D01*
X103478343Y-83418917D01*
X103534912Y-83555488D01*
X103534919Y-83555501D01*
X103617048Y-83678415D01*
X103617051Y-83678419D01*
X103721580Y-83782948D01*
X103721584Y-83782951D01*
X103844498Y-83865080D01*
X103844511Y-83865087D01*
X103981082Y-83921656D01*
X103981087Y-83921658D01*
X103981091Y-83921658D01*
X103981092Y-83921659D01*
X104126079Y-83950500D01*
X104126082Y-83950500D01*
X104273920Y-83950500D01*
X104371462Y-83931096D01*
X104418913Y-83921658D01*
X104555495Y-83865084D01*
X104678416Y-83782951D01*
X104782951Y-83678416D01*
X104865084Y-83555495D01*
X104921658Y-83418913D01*
X104931096Y-83371462D01*
X104950500Y-83273920D01*
X104950500Y-83126079D01*
X104921659Y-82981092D01*
X104921658Y-82981091D01*
X104921658Y-82981087D01*
X104899915Y-82928594D01*
X104865087Y-82844511D01*
X104865080Y-82844498D01*
X104782951Y-82721584D01*
X104782948Y-82721580D01*
X104678419Y-82617051D01*
X104678415Y-82617048D01*
X104555501Y-82534919D01*
X104555488Y-82534912D01*
X104418917Y-82478343D01*
X104418907Y-82478340D01*
X104273920Y-82449500D01*
X104273918Y-82449500D01*
X104126082Y-82449500D01*
X104126080Y-82449500D01*
X103981092Y-82478340D01*
X103981082Y-82478343D01*
X103844511Y-82534912D01*
X103844498Y-82534919D01*
X103721584Y-82617048D01*
X103721580Y-82617051D01*
X103617051Y-82721580D01*
X103617048Y-82721584D01*
X103534919Y-82844498D01*
X103534912Y-82844511D01*
X103478343Y-82981082D01*
X103478340Y-82981092D01*
X103449500Y-83126079D01*
X103449500Y-83126082D01*
X103449500Y-83273918D01*
X103449500Y-83273920D01*
X103449499Y-83273920D01*
X98150500Y-83273920D01*
X98150500Y-83126079D01*
X98121659Y-82981092D01*
X98121658Y-82981091D01*
X98121658Y-82981087D01*
X98099915Y-82928594D01*
X98065087Y-82844511D01*
X98065080Y-82844498D01*
X97982951Y-82721584D01*
X97982948Y-82721580D01*
X97878419Y-82617051D01*
X97878415Y-82617048D01*
X97755501Y-82534919D01*
X97755488Y-82534912D01*
X97618917Y-82478343D01*
X97618907Y-82478340D01*
X97473920Y-82449500D01*
X97473918Y-82449500D01*
X97326082Y-82449500D01*
X97326080Y-82449500D01*
X97181092Y-82478340D01*
X97181082Y-82478343D01*
X97044511Y-82534912D01*
X97044498Y-82534919D01*
X96921584Y-82617048D01*
X96921580Y-82617051D01*
X96817051Y-82721580D01*
X96817048Y-82721584D01*
X96734919Y-82844498D01*
X96734912Y-82844511D01*
X96678343Y-82981082D01*
X96678340Y-82981092D01*
X96649500Y-83126079D01*
X96649500Y-83126082D01*
X96649500Y-83273918D01*
X96649500Y-83273920D01*
X96649499Y-83273920D01*
X71400000Y-83273920D01*
X71400000Y-81873920D01*
X74749499Y-81873920D01*
X74778340Y-82018907D01*
X74778343Y-82018917D01*
X74834912Y-82155488D01*
X74834919Y-82155501D01*
X74917048Y-82278415D01*
X74917051Y-82278419D01*
X75021580Y-82382948D01*
X75021584Y-82382951D01*
X75144498Y-82465080D01*
X75144511Y-82465087D01*
X75281082Y-82521656D01*
X75281087Y-82521658D01*
X75281091Y-82521658D01*
X75281092Y-82521659D01*
X75426079Y-82550500D01*
X75426082Y-82550500D01*
X75573920Y-82550500D01*
X75696612Y-82526094D01*
X75718913Y-82521658D01*
X75855495Y-82465084D01*
X75855717Y-82464936D01*
X75952900Y-82400000D01*
X75978416Y-82382951D01*
X76082951Y-82278416D01*
X76165084Y-82155495D01*
X76221658Y-82018913D01*
X76250500Y-81873920D01*
X83549499Y-81873920D01*
X83578340Y-82018907D01*
X83578343Y-82018917D01*
X83634912Y-82155488D01*
X83634919Y-82155501D01*
X83717048Y-82278415D01*
X83717051Y-82278419D01*
X83821580Y-82382948D01*
X83821584Y-82382951D01*
X83944498Y-82465080D01*
X83944511Y-82465087D01*
X84081082Y-82521656D01*
X84081087Y-82521658D01*
X84081091Y-82521658D01*
X84081092Y-82521659D01*
X84226079Y-82550500D01*
X84226082Y-82550500D01*
X84373920Y-82550500D01*
X84496612Y-82526094D01*
X84518913Y-82521658D01*
X84655495Y-82465084D01*
X84655717Y-82464936D01*
X84752900Y-82400000D01*
X84778416Y-82382951D01*
X84882951Y-82278416D01*
X84965084Y-82155495D01*
X85021658Y-82018913D01*
X85050500Y-81873918D01*
X85050500Y-81726082D01*
X85050500Y-81726079D01*
X85021659Y-81581092D01*
X85021658Y-81581091D01*
X85021658Y-81581087D01*
X85021656Y-81581082D01*
X84965087Y-81444511D01*
X84965080Y-81444498D01*
X84882951Y-81321584D01*
X84882948Y-81321580D01*
X84778419Y-81217051D01*
X84778415Y-81217048D01*
X84655501Y-81134919D01*
X84655488Y-81134912D01*
X84518917Y-81078343D01*
X84518907Y-81078340D01*
X84373920Y-81049500D01*
X84373918Y-81049500D01*
X84226082Y-81049500D01*
X84226080Y-81049500D01*
X84081092Y-81078340D01*
X84081082Y-81078343D01*
X83944511Y-81134912D01*
X83944498Y-81134919D01*
X83821584Y-81217048D01*
X83821580Y-81217051D01*
X83717051Y-81321580D01*
X83717048Y-81321584D01*
X83634919Y-81444498D01*
X83634912Y-81444511D01*
X83578343Y-81581082D01*
X83578340Y-81581092D01*
X83549500Y-81726079D01*
X83549500Y-81726082D01*
X83549500Y-81873918D01*
X83549500Y-81873920D01*
X83549499Y-81873920D01*
X76250500Y-81873920D01*
X76250500Y-81873918D01*
X76250500Y-81726082D01*
X76250500Y-81726079D01*
X76221659Y-81581092D01*
X76221658Y-81581091D01*
X76221658Y-81581087D01*
X76221656Y-81581082D01*
X76165087Y-81444511D01*
X76165080Y-81444498D01*
X76082951Y-81321584D01*
X76082948Y-81321580D01*
X75978419Y-81217051D01*
X75978415Y-81217048D01*
X75855501Y-81134919D01*
X75855488Y-81134912D01*
X75718917Y-81078343D01*
X75718907Y-81078340D01*
X75573920Y-81049500D01*
X75573918Y-81049500D01*
X75426082Y-81049500D01*
X75426080Y-81049500D01*
X75281092Y-81078340D01*
X75281082Y-81078343D01*
X75144511Y-81134912D01*
X75144498Y-81134919D01*
X75021584Y-81217048D01*
X75021580Y-81217051D01*
X74917051Y-81321580D01*
X74917048Y-81321584D01*
X74834919Y-81444498D01*
X74834912Y-81444511D01*
X74778343Y-81581082D01*
X74778340Y-81581092D01*
X74749500Y-81726079D01*
X74749500Y-81726082D01*
X74749500Y-81873918D01*
X74749500Y-81873920D01*
X74749499Y-81873920D01*
X71400000Y-81873920D01*
X71400000Y-77399996D01*
X101994435Y-77399996D01*
X101994435Y-77400003D01*
X102014630Y-77579249D01*
X102014631Y-77579254D01*
X102074211Y-77749523D01*
X102155202Y-77878419D01*
X102170184Y-77902262D01*
X102297738Y-78029816D01*
X102450478Y-78125789D01*
X102620745Y-78185368D01*
X102707669Y-78195161D01*
X102772080Y-78222226D01*
X102781465Y-78230700D01*
X104915139Y-80364374D01*
X104915149Y-80364385D01*
X104919479Y-80368715D01*
X104919480Y-80368716D01*
X105031284Y-80480520D01*
X105118095Y-80530639D01*
X105118097Y-80530641D01*
X105168213Y-80559576D01*
X105168215Y-80559577D01*
X105320942Y-80600500D01*
X105320943Y-80600500D01*
X120217588Y-80600500D01*
X120284627Y-80620185D01*
X120294903Y-80627555D01*
X120297736Y-80629814D01*
X120297738Y-80629816D01*
X120450478Y-80725789D01*
X120620745Y-80785368D01*
X120620750Y-80785369D01*
X120799996Y-80805565D01*
X120800000Y-80805565D01*
X120800004Y-80805565D01*
X120979249Y-80785369D01*
X120979252Y-80785368D01*
X120979255Y-80785368D01*
X121149522Y-80725789D01*
X121302262Y-80629816D01*
X121429816Y-80502262D01*
X121525789Y-80349522D01*
X121585368Y-80179255D01*
X121605565Y-80000000D01*
X121585368Y-79820745D01*
X121525789Y-79650478D01*
X121429816Y-79497738D01*
X121302262Y-79370184D01*
X121291117Y-79363181D01*
X121149523Y-79274211D01*
X120979254Y-79214631D01*
X120979249Y-79214630D01*
X120800004Y-79194435D01*
X120799996Y-79194435D01*
X120620750Y-79214630D01*
X120620745Y-79214631D01*
X120450476Y-79274211D01*
X120297736Y-79370185D01*
X120294903Y-79372445D01*
X120292724Y-79373334D01*
X120291842Y-79373889D01*
X120291744Y-79373734D01*
X120230217Y-79398855D01*
X120217588Y-79399500D01*
X105700097Y-79399500D01*
X105633058Y-79379815D01*
X105612416Y-79363181D01*
X103630700Y-77381465D01*
X103597215Y-77320142D01*
X103595163Y-77307686D01*
X103585368Y-77220745D01*
X103525789Y-77050478D01*
X103429816Y-76897738D01*
X103302262Y-76770184D01*
X103246138Y-76734919D01*
X103149523Y-76674211D01*
X102979254Y-76614631D01*
X102979249Y-76614630D01*
X102800004Y-76594435D01*
X102799996Y-76594435D01*
X102620750Y-76614630D01*
X102620745Y-76614631D01*
X102450476Y-76674211D01*
X102297737Y-76770184D01*
X102170184Y-76897737D01*
X102074211Y-77050476D01*
X102014631Y-77220745D01*
X102014630Y-77220750D01*
X101994435Y-77399996D01*
X71400000Y-77399996D01*
X71400000Y-75073920D01*
X74749499Y-75073920D01*
X74778340Y-75218907D01*
X74778343Y-75218917D01*
X74834912Y-75355488D01*
X74834919Y-75355501D01*
X74917048Y-75478415D01*
X74917051Y-75478419D01*
X75021580Y-75582948D01*
X75021584Y-75582951D01*
X75144498Y-75665080D01*
X75144511Y-75665087D01*
X75281082Y-75721656D01*
X75281087Y-75721658D01*
X75281091Y-75721658D01*
X75281092Y-75721659D01*
X75426079Y-75750500D01*
X75426082Y-75750500D01*
X75573920Y-75750500D01*
X75671462Y-75731096D01*
X75718913Y-75721658D01*
X75855495Y-75665084D01*
X75978416Y-75582951D01*
X76082951Y-75478416D01*
X76165084Y-75355495D01*
X76221658Y-75218913D01*
X76250500Y-75073920D01*
X83549499Y-75073920D01*
X83578340Y-75218907D01*
X83578343Y-75218917D01*
X83634912Y-75355488D01*
X83634919Y-75355501D01*
X83717048Y-75478415D01*
X83717051Y-75478419D01*
X83821580Y-75582948D01*
X83821584Y-75582951D01*
X83944498Y-75665080D01*
X83944511Y-75665087D01*
X84081082Y-75721656D01*
X84081087Y-75721658D01*
X84081091Y-75721658D01*
X84081092Y-75721659D01*
X84226079Y-75750500D01*
X84226082Y-75750500D01*
X84373920Y-75750500D01*
X84471462Y-75731096D01*
X84518913Y-75721658D01*
X84655495Y-75665084D01*
X84778416Y-75582951D01*
X84882951Y-75478416D01*
X84965084Y-75355495D01*
X85021658Y-75218913D01*
X85050500Y-75073918D01*
X85050500Y-74926082D01*
X85050500Y-74926079D01*
X85021659Y-74781092D01*
X85021658Y-74781091D01*
X85021658Y-74781087D01*
X85000043Y-74728904D01*
X84965087Y-74644511D01*
X84965080Y-74644498D01*
X84882951Y-74521584D01*
X84882948Y-74521580D01*
X84778419Y-74417051D01*
X84778415Y-74417048D01*
X84655501Y-74334919D01*
X84655488Y-74334912D01*
X84518917Y-74278343D01*
X84518907Y-74278340D01*
X84373920Y-74249500D01*
X84373918Y-74249500D01*
X84226082Y-74249500D01*
X84226080Y-74249500D01*
X84081092Y-74278340D01*
X84081082Y-74278343D01*
X83944511Y-74334912D01*
X83944498Y-74334919D01*
X83821584Y-74417048D01*
X83821580Y-74417051D01*
X83717051Y-74521580D01*
X83717048Y-74521584D01*
X83634919Y-74644498D01*
X83634912Y-74644511D01*
X83578343Y-74781082D01*
X83578340Y-74781092D01*
X83549500Y-74926079D01*
X83549500Y-74926082D01*
X83549500Y-75073918D01*
X83549500Y-75073920D01*
X83549499Y-75073920D01*
X76250500Y-75073920D01*
X76250500Y-75073918D01*
X76250500Y-74926082D01*
X76250500Y-74926079D01*
X76221659Y-74781092D01*
X76221658Y-74781091D01*
X76221658Y-74781087D01*
X76200043Y-74728904D01*
X76165087Y-74644511D01*
X76165080Y-74644498D01*
X76082951Y-74521584D01*
X76082948Y-74521580D01*
X75978419Y-74417051D01*
X75978415Y-74417048D01*
X75855501Y-74334919D01*
X75855488Y-74334912D01*
X75718917Y-74278343D01*
X75718907Y-74278340D01*
X75573920Y-74249500D01*
X75573918Y-74249500D01*
X75426082Y-74249500D01*
X75426080Y-74249500D01*
X75281092Y-74278340D01*
X75281082Y-74278343D01*
X75144511Y-74334912D01*
X75144498Y-74334919D01*
X75021584Y-74417048D01*
X75021580Y-74417051D01*
X74917051Y-74521580D01*
X74917048Y-74521584D01*
X74834919Y-74644498D01*
X74834912Y-74644511D01*
X74778343Y-74781082D01*
X74778340Y-74781092D01*
X74749500Y-74926079D01*
X74749500Y-74926082D01*
X74749500Y-75073918D01*
X74749500Y-75073920D01*
X74749499Y-75073920D01*
X71400000Y-75073920D01*
X71400000Y-74174500D01*
X71419685Y-74107461D01*
X71472489Y-74061706D01*
X71524000Y-74050500D01*
X73864071Y-74050500D01*
X73948615Y-74033682D01*
X73989744Y-74025501D01*
X74035856Y-74006400D01*
X74069410Y-73997744D01*
X74179255Y-73985368D01*
X74349522Y-73925789D01*
X74502262Y-73829816D01*
X74629816Y-73702262D01*
X74725789Y-73549522D01*
X74785368Y-73379255D01*
X74797752Y-73269343D01*
X74805565Y-73200003D01*
X74805565Y-73199996D01*
X74785369Y-73020750D01*
X74785368Y-73020745D01*
X74725788Y-72850476D01*
X74629815Y-72697737D01*
X74502262Y-72570184D01*
X74349523Y-72474211D01*
X74179254Y-72414631D01*
X74179249Y-72414630D01*
X74000004Y-72394435D01*
X73999996Y-72394435D01*
X73820750Y-72414630D01*
X73820745Y-72414631D01*
X73650476Y-72474211D01*
X73497737Y-72570184D01*
X73370183Y-72697738D01*
X73366135Y-72702815D01*
X73308946Y-72742954D01*
X73269190Y-72749500D01*
X71524000Y-72749500D01*
X71456961Y-72729815D01*
X71411206Y-72677011D01*
X71400000Y-72625500D01*
X71400000Y-71173920D01*
X74899499Y-71173920D01*
X74928340Y-71318907D01*
X74928343Y-71318917D01*
X74984912Y-71455488D01*
X74984919Y-71455501D01*
X75067048Y-71578415D01*
X75067051Y-71578419D01*
X75171580Y-71682948D01*
X75171584Y-71682951D01*
X75294498Y-71765080D01*
X75294511Y-71765087D01*
X75431082Y-71821656D01*
X75431087Y-71821658D01*
X75431091Y-71821658D01*
X75431092Y-71821659D01*
X75576079Y-71850500D01*
X75576082Y-71850500D01*
X75723920Y-71850500D01*
X75821462Y-71831096D01*
X75868913Y-71821658D01*
X76005495Y-71765084D01*
X76128416Y-71682951D01*
X76232951Y-71578416D01*
X76315084Y-71455495D01*
X76371658Y-71318913D01*
X76400500Y-71173918D01*
X76400500Y-71026082D01*
X76400500Y-71026079D01*
X76371659Y-70881092D01*
X76371658Y-70881091D01*
X76371658Y-70881087D01*
X76340376Y-70805565D01*
X76315087Y-70744511D01*
X76315080Y-70744498D01*
X76232951Y-70621584D01*
X76232948Y-70621580D01*
X76128419Y-70517051D01*
X76128415Y-70517048D01*
X76005501Y-70434919D01*
X76005488Y-70434912D01*
X75868917Y-70378343D01*
X75868907Y-70378340D01*
X75723920Y-70349500D01*
X75723918Y-70349500D01*
X75576082Y-70349500D01*
X75576080Y-70349500D01*
X75431092Y-70378340D01*
X75431082Y-70378343D01*
X75294511Y-70434912D01*
X75294498Y-70434919D01*
X75171584Y-70517048D01*
X75171580Y-70517051D01*
X75067051Y-70621580D01*
X75067048Y-70621584D01*
X74984919Y-70744498D01*
X74984912Y-70744511D01*
X74928343Y-70881082D01*
X74928340Y-70881092D01*
X74899500Y-71026079D01*
X74899500Y-71026082D01*
X74899500Y-71173918D01*
X74899500Y-71173920D01*
X74899499Y-71173920D01*
X71400000Y-71173920D01*
X71400000Y-70882887D01*
X71419685Y-70815848D01*
X71472489Y-70770093D01*
X71541647Y-70760149D01*
X71564948Y-70765843D01*
X71620745Y-70785368D01*
X71620748Y-70785368D01*
X71620750Y-70785369D01*
X71799996Y-70805565D01*
X71800000Y-70805565D01*
X71800004Y-70805565D01*
X71979249Y-70785369D01*
X71979252Y-70785368D01*
X71979255Y-70785368D01*
X72149522Y-70725789D01*
X72302262Y-70629816D01*
X72429816Y-70502262D01*
X72525789Y-70349522D01*
X72585368Y-70179255D01*
X72586182Y-70172025D01*
X72613245Y-70107611D01*
X72621716Y-70098228D01*
X72633130Y-70086815D01*
X72694454Y-70053333D01*
X72720807Y-70050500D01*
X74494932Y-70050500D01*
X74560904Y-70069506D01*
X74650477Y-70125789D01*
X74650481Y-70125790D01*
X74820737Y-70185366D01*
X74820743Y-70185367D01*
X74820745Y-70185368D01*
X74820746Y-70185368D01*
X74820750Y-70185369D01*
X74999996Y-70205565D01*
X75000000Y-70205565D01*
X75000004Y-70205565D01*
X75179249Y-70185369D01*
X75179252Y-70185368D01*
X75179255Y-70185368D01*
X75349522Y-70125789D01*
X75502262Y-70029816D01*
X75629816Y-69902262D01*
X75725789Y-69749522D01*
X75785368Y-69579255D01*
X75805565Y-69400000D01*
X75791392Y-69274211D01*
X75785369Y-69220750D01*
X75785368Y-69220745D01*
X75781244Y-69208958D01*
X75725789Y-69050478D01*
X75629816Y-68897738D01*
X75502262Y-68770184D01*
X75439096Y-68730494D01*
X75349523Y-68674211D01*
X75179254Y-68614631D01*
X75179249Y-68614630D01*
X75000004Y-68594435D01*
X74999996Y-68594435D01*
X74820750Y-68614630D01*
X74820737Y-68614633D01*
X74650481Y-68674209D01*
X74650477Y-68674210D01*
X74560904Y-68730494D01*
X74494932Y-68749500D01*
X72335929Y-68749500D01*
X72210261Y-68774497D01*
X72210255Y-68774499D01*
X72091875Y-68823533D01*
X72091866Y-68823538D01*
X71985331Y-68894723D01*
X71701774Y-69178278D01*
X71640450Y-69211762D01*
X71627988Y-69213815D01*
X71620752Y-69214630D01*
X71620741Y-69214633D01*
X71564953Y-69234154D01*
X71495174Y-69237715D01*
X71434548Y-69202985D01*
X71402321Y-69140992D01*
X71400000Y-69117112D01*
X71400000Y-66200000D01*
X79994435Y-66200000D01*
X79996882Y-66221722D01*
X79998720Y-66238029D01*
X79999500Y-66251914D01*
X79999500Y-66278844D01*
X80007288Y-66318003D01*
X80008890Y-66328303D01*
X80014632Y-66379252D01*
X80014633Y-66379260D01*
X80022976Y-66403104D01*
X80027550Y-66419860D01*
X80030262Y-66433496D01*
X80050509Y-66482377D01*
X80052988Y-66488872D01*
X80074212Y-66549524D01*
X80080709Y-66559865D01*
X80090268Y-66578365D01*
X80090603Y-66579173D01*
X80090605Y-66579179D01*
X80127223Y-66633982D01*
X80129114Y-66636900D01*
X80170180Y-66702257D01*
X80170182Y-66702260D01*
X80363181Y-66895259D01*
X80396666Y-66956582D01*
X80399500Y-66982940D01*
X80399500Y-73548085D01*
X80398720Y-73561969D01*
X80395591Y-73589744D01*
X80394435Y-73600000D01*
X80397794Y-73629816D01*
X80398720Y-73638029D01*
X80399500Y-73651914D01*
X80399500Y-73678844D01*
X80407288Y-73718003D01*
X80408890Y-73728303D01*
X80414632Y-73779252D01*
X80414633Y-73779260D01*
X80422976Y-73803104D01*
X80427550Y-73819860D01*
X80430262Y-73833496D01*
X80450509Y-73882377D01*
X80452986Y-73888867D01*
X80457673Y-73902262D01*
X80474212Y-73949524D01*
X80480709Y-73959865D01*
X80490268Y-73978365D01*
X80490603Y-73979173D01*
X80490605Y-73979179D01*
X80527223Y-74033982D01*
X80529114Y-74036900D01*
X80570180Y-74102257D01*
X80570182Y-74102260D01*
X80570184Y-74102262D01*
X80697738Y-74229816D01*
X80763096Y-74270883D01*
X80763131Y-74270905D01*
X80766040Y-74272790D01*
X80820821Y-74309394D01*
X80821606Y-74309719D01*
X80840134Y-74319289D01*
X80850478Y-74325789D01*
X80911175Y-74347028D01*
X80917607Y-74349484D01*
X80946021Y-74361253D01*
X80966497Y-74369735D01*
X80966498Y-74369735D01*
X80966503Y-74369737D01*
X80980139Y-74372449D01*
X80996898Y-74377023D01*
X81020745Y-74385368D01*
X81071714Y-74391110D01*
X81081992Y-74392709D01*
X81109140Y-74398109D01*
X81121157Y-74400500D01*
X81121158Y-74400500D01*
X81148085Y-74400500D01*
X81161969Y-74401280D01*
X81199998Y-74405565D01*
X81200000Y-74405565D01*
X81200002Y-74405565D01*
X81238031Y-74401280D01*
X81251915Y-74400500D01*
X81278841Y-74400500D01*
X81278842Y-74400500D01*
X81318017Y-74392707D01*
X81328283Y-74391110D01*
X81379255Y-74385368D01*
X81403100Y-74377023D01*
X81419862Y-74372448D01*
X81433497Y-74369737D01*
X81482389Y-74349484D01*
X81488837Y-74347023D01*
X81549522Y-74325789D01*
X81559868Y-74319287D01*
X81578390Y-74309720D01*
X81579179Y-74309394D01*
X81633987Y-74272771D01*
X81636825Y-74270931D01*
X81702262Y-74229816D01*
X81829816Y-74102262D01*
X81870931Y-74036825D01*
X81872777Y-74033979D01*
X81896991Y-73997741D01*
X81909394Y-73979179D01*
X81909720Y-73978390D01*
X81919287Y-73959868D01*
X81925789Y-73949522D01*
X81947023Y-73888837D01*
X81949490Y-73882377D01*
X81969737Y-73833497D01*
X81972449Y-73819860D01*
X81977023Y-73803100D01*
X81985368Y-73779255D01*
X81991110Y-73728283D01*
X81992707Y-73718017D01*
X82000500Y-73678842D01*
X82000500Y-73651914D01*
X82001280Y-73638029D01*
X82002206Y-73629816D01*
X82005565Y-73600000D01*
X82004409Y-73589744D01*
X82001280Y-73561969D01*
X82000500Y-73548085D01*
X82000500Y-72999996D01*
X94594435Y-72999996D01*
X94594435Y-73000003D01*
X94614630Y-73179249D01*
X94614631Y-73179254D01*
X94674211Y-73349523D01*
X94705928Y-73400000D01*
X94770184Y-73502262D01*
X94897738Y-73629816D01*
X94932907Y-73651914D01*
X95038086Y-73718003D01*
X95050478Y-73725789D01*
X95203272Y-73779254D01*
X95220745Y-73785368D01*
X95220750Y-73785369D01*
X95399996Y-73805565D01*
X95400000Y-73805565D01*
X95400004Y-73805565D01*
X95579249Y-73785369D01*
X95579252Y-73785368D01*
X95579255Y-73785368D01*
X95749522Y-73725789D01*
X95902262Y-73629816D01*
X95902267Y-73629810D01*
X95905097Y-73627555D01*
X95907275Y-73626665D01*
X95908158Y-73626111D01*
X95908255Y-73626265D01*
X95969783Y-73601145D01*
X95982412Y-73600500D01*
X106899903Y-73600500D01*
X106966942Y-73620185D01*
X106987584Y-73636819D01*
X110853306Y-77502542D01*
X110886791Y-77563865D01*
X110881807Y-77633557D01*
X110876678Y-77643939D01*
X110877231Y-77644206D01*
X110874210Y-77650478D01*
X110814633Y-77820737D01*
X110814630Y-77820750D01*
X110794435Y-77999996D01*
X110794435Y-78000003D01*
X110814630Y-78179249D01*
X110814631Y-78179254D01*
X110874211Y-78349523D01*
X110970184Y-78502262D01*
X111097738Y-78629816D01*
X111250478Y-78725789D01*
X111420745Y-78785368D01*
X111420750Y-78785369D01*
X111599996Y-78805565D01*
X111600000Y-78805565D01*
X111600004Y-78805565D01*
X111779249Y-78785369D01*
X111779252Y-78785368D01*
X111779255Y-78785368D01*
X111949522Y-78725789D01*
X112102262Y-78629816D01*
X112229816Y-78502262D01*
X112325789Y-78349522D01*
X112385368Y-78179255D01*
X112391392Y-78125789D01*
X112405565Y-78000003D01*
X112405565Y-77999996D01*
X112385369Y-77820750D01*
X112385368Y-77820745D01*
X112362536Y-77755495D01*
X112325789Y-77650478D01*
X112305955Y-77618913D01*
X112266103Y-77555488D01*
X112229816Y-77497738D01*
X112229815Y-77497737D01*
X112227555Y-77494903D01*
X112226665Y-77492724D01*
X112226111Y-77491842D01*
X112226265Y-77491744D01*
X112201146Y-77430216D01*
X112200501Y-77417589D01*
X112200501Y-77320944D01*
X112187901Y-77273920D01*
X126989499Y-77273920D01*
X127018340Y-77418907D01*
X127018343Y-77418917D01*
X127074912Y-77555488D01*
X127074919Y-77555501D01*
X127157048Y-77678415D01*
X127157051Y-77678419D01*
X127261580Y-77782948D01*
X127261584Y-77782951D01*
X127384498Y-77865080D01*
X127384511Y-77865087D01*
X127521082Y-77921656D01*
X127521087Y-77921658D01*
X127521091Y-77921658D01*
X127521092Y-77921659D01*
X127666079Y-77950500D01*
X127666082Y-77950500D01*
X127813920Y-77950500D01*
X127911462Y-77931096D01*
X127958913Y-77921658D01*
X128095495Y-77865084D01*
X128218416Y-77782951D01*
X128322951Y-77678416D01*
X128405084Y-77555495D01*
X128461658Y-77418913D01*
X128490500Y-77273920D01*
X133789499Y-77273920D01*
X133818340Y-77418907D01*
X133818343Y-77418917D01*
X133874912Y-77555488D01*
X133874919Y-77555501D01*
X133957048Y-77678415D01*
X133957051Y-77678419D01*
X134061580Y-77782948D01*
X134061584Y-77782951D01*
X134184498Y-77865080D01*
X134184511Y-77865087D01*
X134321082Y-77921656D01*
X134321087Y-77921658D01*
X134321091Y-77921658D01*
X134321092Y-77921659D01*
X134466079Y-77950500D01*
X134466082Y-77950500D01*
X134613920Y-77950500D01*
X134711462Y-77931096D01*
X134758913Y-77921658D01*
X134895495Y-77865084D01*
X135018416Y-77782951D01*
X135122951Y-77678416D01*
X135205084Y-77555495D01*
X135238873Y-77473920D01*
X140249499Y-77473920D01*
X140278340Y-77618907D01*
X140278343Y-77618917D01*
X140334912Y-77755488D01*
X140334919Y-77755501D01*
X140417048Y-77878415D01*
X140417051Y-77878419D01*
X140521580Y-77982948D01*
X140521584Y-77982951D01*
X140644498Y-78065080D01*
X140644511Y-78065087D01*
X140781082Y-78121656D01*
X140781087Y-78121658D01*
X140781091Y-78121658D01*
X140781092Y-78121659D01*
X140926079Y-78150500D01*
X140926082Y-78150500D01*
X141073920Y-78150500D01*
X141171462Y-78131096D01*
X141218913Y-78121658D01*
X141355495Y-78065084D01*
X141478416Y-77982951D01*
X141582951Y-77878416D01*
X141665084Y-77755495D01*
X141721658Y-77618913D01*
X141750500Y-77473920D01*
X147049499Y-77473920D01*
X147078340Y-77618907D01*
X147078343Y-77618917D01*
X147134912Y-77755488D01*
X147134919Y-77755501D01*
X147217048Y-77878415D01*
X147217051Y-77878419D01*
X147321580Y-77982948D01*
X147321584Y-77982951D01*
X147444498Y-78065080D01*
X147444511Y-78065087D01*
X147581082Y-78121656D01*
X147581087Y-78121658D01*
X147581091Y-78121658D01*
X147581092Y-78121659D01*
X147726079Y-78150500D01*
X147726082Y-78150500D01*
X147873920Y-78150500D01*
X147971462Y-78131096D01*
X148018913Y-78121658D01*
X148155495Y-78065084D01*
X148278416Y-77982951D01*
X148382951Y-77878416D01*
X148465084Y-77755495D01*
X148521658Y-77618913D01*
X148550500Y-77473918D01*
X148550500Y-77326082D01*
X148550500Y-77326079D01*
X148521659Y-77181092D01*
X148521658Y-77181091D01*
X148521658Y-77181087D01*
X148498873Y-77126079D01*
X148465087Y-77044511D01*
X148465080Y-77044498D01*
X148382951Y-76921584D01*
X148382948Y-76921580D01*
X148278419Y-76817051D01*
X148278415Y-76817048D01*
X148155501Y-76734919D01*
X148155488Y-76734912D01*
X148018917Y-76678343D01*
X148018907Y-76678340D01*
X147873920Y-76649500D01*
X147873918Y-76649500D01*
X147726082Y-76649500D01*
X147726080Y-76649500D01*
X147581092Y-76678340D01*
X147581082Y-76678343D01*
X147444511Y-76734912D01*
X147444498Y-76734919D01*
X147321584Y-76817048D01*
X147321580Y-76817051D01*
X147217051Y-76921580D01*
X147217048Y-76921584D01*
X147134919Y-77044498D01*
X147134912Y-77044511D01*
X147078343Y-77181082D01*
X147078340Y-77181092D01*
X147049500Y-77326079D01*
X147049500Y-77326082D01*
X147049500Y-77473918D01*
X147049500Y-77473920D01*
X147049499Y-77473920D01*
X141750500Y-77473920D01*
X141750500Y-77473918D01*
X141750500Y-77326082D01*
X141750500Y-77326079D01*
X141721659Y-77181092D01*
X141721658Y-77181091D01*
X141721658Y-77181087D01*
X141698873Y-77126079D01*
X141665087Y-77044511D01*
X141665080Y-77044498D01*
X141582951Y-76921584D01*
X141582948Y-76921580D01*
X141478419Y-76817051D01*
X141478415Y-76817048D01*
X141355501Y-76734919D01*
X141355488Y-76734912D01*
X141218917Y-76678343D01*
X141218907Y-76678340D01*
X141073920Y-76649500D01*
X141073918Y-76649500D01*
X140926082Y-76649500D01*
X140926080Y-76649500D01*
X140781092Y-76678340D01*
X140781082Y-76678343D01*
X140644511Y-76734912D01*
X140644498Y-76734919D01*
X140521584Y-76817048D01*
X140521580Y-76817051D01*
X140417051Y-76921580D01*
X140417048Y-76921584D01*
X140334919Y-77044498D01*
X140334912Y-77044511D01*
X140278343Y-77181082D01*
X140278340Y-77181092D01*
X140249500Y-77326079D01*
X140249500Y-77326082D01*
X140249500Y-77473918D01*
X140249500Y-77473920D01*
X140249499Y-77473920D01*
X135238873Y-77473920D01*
X135261658Y-77418913D01*
X135290500Y-77273918D01*
X135290500Y-77126082D01*
X135290500Y-77126079D01*
X135261659Y-76981092D01*
X135261658Y-76981091D01*
X135261658Y-76981087D01*
X135237011Y-76921584D01*
X135205087Y-76844511D01*
X135205080Y-76844498D01*
X135122951Y-76721584D01*
X135122948Y-76721580D01*
X135018419Y-76617051D01*
X135018415Y-76617048D01*
X134895501Y-76534919D01*
X134895488Y-76534912D01*
X134758917Y-76478343D01*
X134758907Y-76478340D01*
X134613920Y-76449500D01*
X134613918Y-76449500D01*
X134466082Y-76449500D01*
X134466080Y-76449500D01*
X134321092Y-76478340D01*
X134321082Y-76478343D01*
X134184511Y-76534912D01*
X134184498Y-76534919D01*
X134061584Y-76617048D01*
X134061580Y-76617051D01*
X133957051Y-76721580D01*
X133957048Y-76721584D01*
X133874919Y-76844498D01*
X133874912Y-76844511D01*
X133818343Y-76981082D01*
X133818340Y-76981092D01*
X133789500Y-77126079D01*
X133789500Y-77126082D01*
X133789500Y-77273918D01*
X133789500Y-77273920D01*
X133789499Y-77273920D01*
X128490500Y-77273920D01*
X128490500Y-77273918D01*
X128490500Y-77126082D01*
X128490500Y-77126079D01*
X128461659Y-76981092D01*
X128461658Y-76981091D01*
X128461658Y-76981087D01*
X128437011Y-76921584D01*
X128405087Y-76844511D01*
X128405080Y-76844498D01*
X128322951Y-76721584D01*
X128322948Y-76721580D01*
X128218419Y-76617051D01*
X128218415Y-76617048D01*
X128095501Y-76534919D01*
X128095488Y-76534912D01*
X127958917Y-76478343D01*
X127958907Y-76478340D01*
X127813920Y-76449500D01*
X127813918Y-76449500D01*
X127666082Y-76449500D01*
X127666080Y-76449500D01*
X127521092Y-76478340D01*
X127521082Y-76478343D01*
X127384511Y-76534912D01*
X127384498Y-76534919D01*
X127261584Y-76617048D01*
X127261580Y-76617051D01*
X127157051Y-76721580D01*
X127157048Y-76721584D01*
X127074919Y-76844498D01*
X127074912Y-76844511D01*
X127018343Y-76981082D01*
X127018340Y-76981092D01*
X126989500Y-77126079D01*
X126989500Y-77126082D01*
X126989500Y-77273918D01*
X126989500Y-77273920D01*
X126989499Y-77273920D01*
X112187901Y-77273920D01*
X112187900Y-77273918D01*
X112159577Y-77168216D01*
X112135251Y-77126082D01*
X112080524Y-77031290D01*
X112080518Y-77031282D01*
X110527651Y-75478415D01*
X109649231Y-74599996D01*
X124194435Y-74599996D01*
X124194435Y-74600003D01*
X124214630Y-74779249D01*
X124214631Y-74779254D01*
X124274211Y-74949523D01*
X124370184Y-75102262D01*
X124497738Y-75229816D01*
X124650478Y-75325789D01*
X124735353Y-75355488D01*
X124820745Y-75385368D01*
X124820750Y-75385369D01*
X124999996Y-75405565D01*
X125000000Y-75405565D01*
X125000004Y-75405565D01*
X125179249Y-75385369D01*
X125179252Y-75385368D01*
X125179255Y-75385368D01*
X125349522Y-75325789D01*
X125502262Y-75229816D01*
X125629816Y-75102262D01*
X125725789Y-74949522D01*
X125785368Y-74779255D01*
X125786182Y-74772025D01*
X125813245Y-74707611D01*
X125821712Y-74698232D01*
X126705276Y-73814670D01*
X126764664Y-73725789D01*
X126776464Y-73708129D01*
X126800204Y-73650816D01*
X126825501Y-73589744D01*
X126825501Y-73589740D01*
X126825503Y-73589737D01*
X126831502Y-73559578D01*
X126831502Y-73559577D01*
X126850500Y-73464071D01*
X126850500Y-73305067D01*
X126869507Y-73239094D01*
X126925788Y-73149524D01*
X126978110Y-72999996D01*
X126985368Y-72979255D01*
X127005565Y-72800000D01*
X126999875Y-72749500D01*
X126985369Y-72620750D01*
X126985368Y-72620745D01*
X126942326Y-72497738D01*
X126925789Y-72450478D01*
X126903265Y-72414632D01*
X126876758Y-72372445D01*
X126829816Y-72297738D01*
X126702262Y-72170184D01*
X126549523Y-72074211D01*
X126379254Y-72014631D01*
X126379249Y-72014630D01*
X126200004Y-71994435D01*
X126199996Y-71994435D01*
X126020750Y-72014630D01*
X126020745Y-72014631D01*
X125850476Y-72074211D01*
X125697737Y-72170184D01*
X125570184Y-72297737D01*
X125474211Y-72450476D01*
X125414631Y-72620745D01*
X125414630Y-72620750D01*
X125394435Y-72799996D01*
X125394435Y-72800003D01*
X125414630Y-72979249D01*
X125414633Y-72979262D01*
X125463076Y-73117700D01*
X125466639Y-73187478D01*
X125433716Y-73246336D01*
X124901775Y-73778277D01*
X124840452Y-73811762D01*
X124827988Y-73813815D01*
X124820752Y-73814630D01*
X124820744Y-73814632D01*
X124650478Y-73874210D01*
X124497737Y-73970184D01*
X124370184Y-74097737D01*
X124274211Y-74250476D01*
X124214631Y-74420745D01*
X124214630Y-74420750D01*
X124194435Y-74599996D01*
X109649231Y-74599996D01*
X108911415Y-73862180D01*
X108877931Y-73800858D01*
X108882915Y-73731166D01*
X108924787Y-73675233D01*
X108990251Y-73650816D01*
X108999097Y-73650500D01*
X121464071Y-73650500D01*
X121548615Y-73633682D01*
X121589744Y-73625501D01*
X121708127Y-73576465D01*
X121737531Y-73556818D01*
X121814669Y-73505277D01*
X124898224Y-70421720D01*
X124959545Y-70388237D01*
X124972019Y-70386183D01*
X124979255Y-70385368D01*
X124979262Y-70385366D01*
X125081760Y-70349500D01*
X125149522Y-70325789D01*
X125239096Y-70269505D01*
X125305068Y-70250500D01*
X134864071Y-70250500D01*
X134948615Y-70233682D01*
X134989744Y-70225501D01*
X135108127Y-70176465D01*
X135137531Y-70156818D01*
X135214669Y-70105277D01*
X139098224Y-66221720D01*
X139159545Y-66188237D01*
X139172019Y-66186183D01*
X139179255Y-66185368D01*
X139349522Y-66125789D01*
X139502262Y-66029816D01*
X139629816Y-65902262D01*
X139725789Y-65749522D01*
X139785368Y-65579255D01*
X139786391Y-65570182D01*
X139805565Y-65400000D01*
X139805565Y-65399996D01*
X139785369Y-65220750D01*
X139785368Y-65220745D01*
X139754730Y-65133187D01*
X139725789Y-65050478D01*
X139629816Y-64897738D01*
X139502262Y-64770184D01*
X139474335Y-64752636D01*
X139349523Y-64674211D01*
X139179254Y-64614631D01*
X139179249Y-64614630D01*
X139000004Y-64594435D01*
X138999996Y-64594435D01*
X138820750Y-64614630D01*
X138820745Y-64614631D01*
X138650476Y-64674211D01*
X138497737Y-64770184D01*
X138370184Y-64897737D01*
X138274210Y-65050478D01*
X138214632Y-65220744D01*
X138214630Y-65220752D01*
X138213815Y-65227988D01*
X138186743Y-65292400D01*
X138178277Y-65301775D01*
X134566873Y-68913181D01*
X134505550Y-68946666D01*
X134479192Y-68949500D01*
X125305068Y-68949500D01*
X125239096Y-68930494D01*
X125149522Y-68874210D01*
X125149518Y-68874209D01*
X124979262Y-68814633D01*
X124979249Y-68814630D01*
X124800004Y-68794435D01*
X124799996Y-68794435D01*
X124620750Y-68814630D01*
X124620745Y-68814631D01*
X124450476Y-68874211D01*
X124297737Y-68970184D01*
X124170184Y-69097737D01*
X124074210Y-69250478D01*
X124014632Y-69420744D01*
X124014630Y-69420752D01*
X124013815Y-69427988D01*
X123986743Y-69492400D01*
X123978277Y-69501775D01*
X121166873Y-72313181D01*
X121105550Y-72346666D01*
X121079192Y-72349500D01*
X107135929Y-72349500D01*
X107010261Y-72374497D01*
X107010251Y-72374500D01*
X106972685Y-72390061D01*
X106925233Y-72399500D01*
X95982412Y-72399500D01*
X95915373Y-72379815D01*
X95905097Y-72372445D01*
X95902263Y-72370185D01*
X95902262Y-72370184D01*
X95845496Y-72334515D01*
X95749523Y-72274211D01*
X95579254Y-72214631D01*
X95579249Y-72214630D01*
X95400004Y-72194435D01*
X95399996Y-72194435D01*
X95220750Y-72214630D01*
X95220745Y-72214631D01*
X95050476Y-72274211D01*
X94897737Y-72370184D01*
X94770184Y-72497737D01*
X94674211Y-72650476D01*
X94614631Y-72820745D01*
X94614630Y-72820750D01*
X94594435Y-72999996D01*
X82000500Y-72999996D01*
X82000500Y-71173920D01*
X83699499Y-71173920D01*
X83728340Y-71318907D01*
X83728343Y-71318917D01*
X83784912Y-71455488D01*
X83784919Y-71455501D01*
X83867048Y-71578415D01*
X83867051Y-71578419D01*
X83971580Y-71682948D01*
X83971584Y-71682951D01*
X84094498Y-71765080D01*
X84094511Y-71765087D01*
X84231082Y-71821656D01*
X84231087Y-71821658D01*
X84231091Y-71821658D01*
X84231092Y-71821659D01*
X84376079Y-71850500D01*
X84376082Y-71850500D01*
X84523920Y-71850500D01*
X84621462Y-71831096D01*
X84668913Y-71821658D01*
X84805495Y-71765084D01*
X84928416Y-71682951D01*
X85032951Y-71578416D01*
X85115084Y-71455495D01*
X85171658Y-71318913D01*
X85200500Y-71173918D01*
X85200500Y-71026082D01*
X85200500Y-71026079D01*
X85171659Y-70881092D01*
X85171658Y-70881091D01*
X85171658Y-70881087D01*
X85140376Y-70805565D01*
X85115087Y-70744511D01*
X85115080Y-70744498D01*
X85032951Y-70621584D01*
X85032948Y-70621580D01*
X84928419Y-70517051D01*
X84928415Y-70517048D01*
X84805501Y-70434919D01*
X84805488Y-70434912D01*
X84668917Y-70378343D01*
X84668907Y-70378340D01*
X84523920Y-70349500D01*
X84523918Y-70349500D01*
X84376082Y-70349500D01*
X84376080Y-70349500D01*
X84231092Y-70378340D01*
X84231082Y-70378343D01*
X84094511Y-70434912D01*
X84094498Y-70434919D01*
X83971584Y-70517048D01*
X83971580Y-70517051D01*
X83867051Y-70621580D01*
X83867048Y-70621584D01*
X83784919Y-70744498D01*
X83784912Y-70744511D01*
X83728343Y-70881082D01*
X83728340Y-70881092D01*
X83699500Y-71026079D01*
X83699500Y-71026082D01*
X83699500Y-71173918D01*
X83699500Y-71173920D01*
X83699499Y-71173920D01*
X82000500Y-71173920D01*
X82000500Y-67174500D01*
X82020185Y-67107461D01*
X82072989Y-67061706D01*
X82124500Y-67050500D01*
X102694932Y-67050500D01*
X102760904Y-67069506D01*
X102850477Y-67125789D01*
X102850481Y-67125790D01*
X103020737Y-67185366D01*
X103020743Y-67185367D01*
X103020745Y-67185368D01*
X103020746Y-67185368D01*
X103020750Y-67185369D01*
X103199996Y-67205565D01*
X103200000Y-67205565D01*
X103200004Y-67205565D01*
X103379249Y-67185369D01*
X103379252Y-67185368D01*
X103379255Y-67185368D01*
X103549522Y-67125789D01*
X103702262Y-67029816D01*
X103829816Y-66902262D01*
X103925789Y-66749522D01*
X103985368Y-66579255D01*
X103985377Y-66579179D01*
X104005565Y-66400003D01*
X104005565Y-66399996D01*
X103985369Y-66220750D01*
X103985368Y-66220745D01*
X103950519Y-66121152D01*
X103925789Y-66050478D01*
X103907106Y-66020745D01*
X103894069Y-65999996D01*
X125194435Y-65999996D01*
X125194435Y-66000003D01*
X125214630Y-66179249D01*
X125214631Y-66179254D01*
X125274211Y-66349524D01*
X125330493Y-66439094D01*
X125349500Y-66505067D01*
X125349500Y-67094931D01*
X125330494Y-67160903D01*
X125274211Y-67250477D01*
X125274209Y-67250481D01*
X125214633Y-67420737D01*
X125214630Y-67420750D01*
X125194435Y-67599996D01*
X125194435Y-67600003D01*
X125214630Y-67779249D01*
X125214631Y-67779254D01*
X125274211Y-67949523D01*
X125370184Y-68102262D01*
X125497738Y-68229816D01*
X125650478Y-68325789D01*
X125820745Y-68385368D01*
X125820750Y-68385369D01*
X125999996Y-68405565D01*
X126000000Y-68405565D01*
X126000004Y-68405565D01*
X126179249Y-68385369D01*
X126179252Y-68385368D01*
X126179255Y-68385368D01*
X126349522Y-68325789D01*
X126502262Y-68229816D01*
X126629816Y-68102262D01*
X126725789Y-67949522D01*
X126785368Y-67779255D01*
X126785369Y-67779249D01*
X126805565Y-67600003D01*
X126805565Y-67599996D01*
X126785369Y-67420750D01*
X126785366Y-67420737D01*
X126725790Y-67250481D01*
X126725789Y-67250478D01*
X126697568Y-67205565D01*
X126669506Y-67160903D01*
X126650500Y-67094931D01*
X126650500Y-66704999D01*
X129079238Y-66704999D01*
X129079238Y-66705000D01*
X129098244Y-66910113D01*
X129154617Y-67108243D01*
X129246431Y-67292629D01*
X129246433Y-67292632D01*
X129246435Y-67292636D01*
X129370572Y-67457021D01*
X129522802Y-67595796D01*
X129697939Y-67704237D01*
X129890020Y-67778649D01*
X130092504Y-67816500D01*
X130092506Y-67816500D01*
X130298494Y-67816500D01*
X130298496Y-67816500D01*
X130500980Y-67778649D01*
X130693061Y-67704237D01*
X130868198Y-67595796D01*
X131020428Y-67457021D01*
X131144565Y-67292636D01*
X131190088Y-67201211D01*
X131236382Y-67108243D01*
X131236383Y-67108240D01*
X131292756Y-66910113D01*
X131311762Y-66705000D01*
X131292756Y-66499887D01*
X131236383Y-66301760D01*
X131236382Y-66301756D01*
X131144568Y-66117370D01*
X131144567Y-66117369D01*
X131144565Y-66117364D01*
X131020428Y-65952979D01*
X130868198Y-65814204D01*
X130693061Y-65705763D01*
X130693060Y-65705762D01*
X130550348Y-65650476D01*
X130500980Y-65631351D01*
X130298496Y-65593500D01*
X130092504Y-65593500D01*
X129890020Y-65631351D01*
X129890017Y-65631351D01*
X129890017Y-65631352D01*
X129697939Y-65705762D01*
X129697938Y-65705763D01*
X129522806Y-65814201D01*
X129522804Y-65814202D01*
X129522802Y-65814204D01*
X129416468Y-65911140D01*
X129370572Y-65952979D01*
X129370570Y-65952981D01*
X129246440Y-66117356D01*
X129246431Y-66117370D01*
X129154617Y-66301756D01*
X129098244Y-66499886D01*
X129079238Y-66704999D01*
X126650500Y-66704999D01*
X126650500Y-66505067D01*
X126669507Y-66439094D01*
X126725788Y-66349524D01*
X126736818Y-66318003D01*
X126785368Y-66179255D01*
X126791392Y-66125789D01*
X126805565Y-66000003D01*
X126805565Y-65999996D01*
X126785369Y-65820750D01*
X126785368Y-65820745D01*
X126742325Y-65697735D01*
X126725789Y-65650478D01*
X126713771Y-65631352D01*
X126648939Y-65528172D01*
X126629816Y-65497738D01*
X126502262Y-65370184D01*
X126349523Y-65274211D01*
X126179254Y-65214631D01*
X126179249Y-65214630D01*
X126000004Y-65194435D01*
X125999996Y-65194435D01*
X125820750Y-65214630D01*
X125820745Y-65214631D01*
X125650476Y-65274211D01*
X125497737Y-65370184D01*
X125370184Y-65497737D01*
X125274211Y-65650476D01*
X125214631Y-65820745D01*
X125214630Y-65820750D01*
X125194435Y-65999996D01*
X103894069Y-65999996D01*
X103873023Y-65966502D01*
X103829816Y-65897738D01*
X103702262Y-65770184D01*
X103639096Y-65730494D01*
X103549523Y-65674211D01*
X103379254Y-65614631D01*
X103379249Y-65614630D01*
X103200004Y-65594435D01*
X103199996Y-65594435D01*
X103020750Y-65614630D01*
X103020737Y-65614633D01*
X102850481Y-65674209D01*
X102850477Y-65674210D01*
X102760904Y-65730494D01*
X102694932Y-65749500D01*
X81532940Y-65749500D01*
X81465901Y-65729815D01*
X81445259Y-65713181D01*
X81302260Y-65570182D01*
X81302257Y-65570180D01*
X81236900Y-65529114D01*
X81233982Y-65527223D01*
X81179179Y-65490605D01*
X81179173Y-65490603D01*
X81178365Y-65490268D01*
X81159865Y-65480709D01*
X81149524Y-65474212D01*
X81149523Y-65474211D01*
X81149522Y-65474211D01*
X81088867Y-65452986D01*
X81082377Y-65450509D01*
X81033496Y-65430262D01*
X81019860Y-65427550D01*
X81003104Y-65422976D01*
X80979260Y-65414633D01*
X80979256Y-65414632D01*
X80979255Y-65414632D01*
X80958575Y-65412301D01*
X80928303Y-65408890D01*
X80918003Y-65407288D01*
X80878844Y-65399500D01*
X80878842Y-65399500D01*
X80851915Y-65399500D01*
X80838031Y-65398720D01*
X80800002Y-65394435D01*
X80799998Y-65394435D01*
X80761969Y-65398720D01*
X80748085Y-65399500D01*
X80721152Y-65399500D01*
X80681994Y-65407288D01*
X80671696Y-65408890D01*
X80620742Y-65414632D01*
X80620735Y-65414634D01*
X80596898Y-65422975D01*
X80580140Y-65427550D01*
X80566502Y-65430263D01*
X80566496Y-65430264D01*
X80517631Y-65450504D01*
X80511140Y-65452982D01*
X80450477Y-65474210D01*
X80450474Y-65474212D01*
X80440127Y-65480713D01*
X80421639Y-65490266D01*
X80420832Y-65490600D01*
X80420824Y-65490604D01*
X80366047Y-65527204D01*
X80363132Y-65529092D01*
X80297742Y-65570180D01*
X80297735Y-65570186D01*
X80170186Y-65697735D01*
X80170180Y-65697742D01*
X80129092Y-65763132D01*
X80127204Y-65766047D01*
X80090604Y-65820824D01*
X80090600Y-65820832D01*
X80090266Y-65821639D01*
X80080713Y-65840127D01*
X80074212Y-65850474D01*
X80074210Y-65850477D01*
X80052982Y-65911140D01*
X80050504Y-65917631D01*
X80030264Y-65966496D01*
X80030263Y-65966502D01*
X80027550Y-65980140D01*
X80022975Y-65996898D01*
X80014634Y-66020735D01*
X80014632Y-66020742D01*
X80008890Y-66071696D01*
X80007288Y-66081994D01*
X79999500Y-66121152D01*
X79999500Y-66148085D01*
X79998720Y-66161969D01*
X79996084Y-66185368D01*
X79994435Y-66200000D01*
X71400000Y-66200000D01*
X71400000Y-64373920D01*
X74899499Y-64373920D01*
X74928340Y-64518907D01*
X74928343Y-64518917D01*
X74984912Y-64655488D01*
X74984919Y-64655501D01*
X75067048Y-64778415D01*
X75067051Y-64778419D01*
X75171580Y-64882948D01*
X75171584Y-64882951D01*
X75294498Y-64965080D01*
X75294511Y-64965087D01*
X75422463Y-65018086D01*
X75431087Y-65021658D01*
X75431091Y-65021658D01*
X75431092Y-65021659D01*
X75576079Y-65050500D01*
X75576082Y-65050500D01*
X75723920Y-65050500D01*
X75821462Y-65031096D01*
X75868913Y-65021658D01*
X76005495Y-64965084D01*
X76128416Y-64882951D01*
X76232951Y-64778416D01*
X76315084Y-64655495D01*
X76371658Y-64518913D01*
X76400500Y-64373920D01*
X83699499Y-64373920D01*
X83728340Y-64518907D01*
X83728343Y-64518917D01*
X83784912Y-64655488D01*
X83784919Y-64655501D01*
X83867048Y-64778415D01*
X83867051Y-64778419D01*
X83971580Y-64882948D01*
X83971584Y-64882951D01*
X84094498Y-64965080D01*
X84094511Y-64965087D01*
X84222463Y-65018086D01*
X84231087Y-65021658D01*
X84231091Y-65021658D01*
X84231092Y-65021659D01*
X84376079Y-65050500D01*
X84376082Y-65050500D01*
X84523920Y-65050500D01*
X84621462Y-65031096D01*
X84668913Y-65021658D01*
X84805495Y-64965084D01*
X84928416Y-64882951D01*
X85032951Y-64778416D01*
X85115084Y-64655495D01*
X85171658Y-64518913D01*
X85200500Y-64373918D01*
X85200500Y-64226082D01*
X85200500Y-64226079D01*
X85188350Y-64164999D01*
X126539238Y-64164999D01*
X126539238Y-64165000D01*
X126558244Y-64370113D01*
X126614617Y-64568243D01*
X126706431Y-64752629D01*
X126706433Y-64752632D01*
X126706435Y-64752636D01*
X126706438Y-64752640D01*
X126706440Y-64752643D01*
X126725902Y-64778415D01*
X126830572Y-64917021D01*
X126982802Y-65055796D01*
X127157939Y-65164237D01*
X127350020Y-65238649D01*
X127552504Y-65276500D01*
X127552506Y-65276500D01*
X127758494Y-65276500D01*
X127758496Y-65276500D01*
X127960980Y-65238649D01*
X128153061Y-65164237D01*
X128328198Y-65055796D01*
X128480428Y-64917021D01*
X128604565Y-64752636D01*
X128673284Y-64614630D01*
X128696382Y-64568243D01*
X128696383Y-64568240D01*
X128752756Y-64370113D01*
X128771762Y-64165000D01*
X128752756Y-63959887D01*
X128696383Y-63761760D01*
X128696382Y-63761756D01*
X128604568Y-63577370D01*
X128604567Y-63577369D01*
X128604565Y-63577364D01*
X128550791Y-63506155D01*
X131624500Y-63506155D01*
X131624500Y-63915000D01*
X132480626Y-63915000D01*
X132449829Y-63945797D01*
X132402829Y-64027203D01*
X132378500Y-64118000D01*
X132378500Y-64212000D01*
X132402829Y-64302797D01*
X132449829Y-64384203D01*
X132480626Y-64415000D01*
X131624500Y-64415000D01*
X131624500Y-64823844D01*
X131630901Y-64883372D01*
X131630903Y-64883379D01*
X131681145Y-65018086D01*
X131681149Y-65018093D01*
X131767309Y-65133187D01*
X131767312Y-65133190D01*
X131882406Y-65219350D01*
X131882413Y-65219354D01*
X132017120Y-65269596D01*
X132017127Y-65269598D01*
X132076655Y-65275999D01*
X132076672Y-65276000D01*
X132485500Y-65276000D01*
X132485500Y-64419874D01*
X132516297Y-64450671D01*
X132597703Y-64497671D01*
X132688500Y-64522000D01*
X132782500Y-64522000D01*
X132873297Y-64497671D01*
X132954703Y-64450671D01*
X132985500Y-64419874D01*
X132985500Y-65276000D01*
X133394328Y-65276000D01*
X133394344Y-65275999D01*
X133453872Y-65269598D01*
X133453879Y-65269596D01*
X133588586Y-65219354D01*
X133588593Y-65219350D01*
X133703687Y-65133190D01*
X133703690Y-65133187D01*
X133789850Y-65018093D01*
X133789854Y-65018086D01*
X133840096Y-64883379D01*
X133840098Y-64883372D01*
X133846499Y-64823844D01*
X133846500Y-64823827D01*
X133846500Y-64415000D01*
X132990374Y-64415000D01*
X133021171Y-64384203D01*
X133068171Y-64302797D01*
X133092500Y-64212000D01*
X133092500Y-64118000D01*
X133068171Y-64027203D01*
X133021171Y-63945797D01*
X132990374Y-63915000D01*
X133846500Y-63915000D01*
X133846500Y-63506172D01*
X133846499Y-63506155D01*
X133840098Y-63446627D01*
X133840096Y-63446620D01*
X133789854Y-63311913D01*
X133789850Y-63311906D01*
X133703690Y-63196812D01*
X133703687Y-63196809D01*
X133588593Y-63110649D01*
X133588586Y-63110645D01*
X133453879Y-63060403D01*
X133453872Y-63060401D01*
X133394344Y-63054000D01*
X132985500Y-63054000D01*
X132985500Y-63910126D01*
X132954703Y-63879329D01*
X132873297Y-63832329D01*
X132782500Y-63808000D01*
X132688500Y-63808000D01*
X132597703Y-63832329D01*
X132516297Y-63879329D01*
X132485500Y-63910126D01*
X132485500Y-63054000D01*
X132076655Y-63054000D01*
X132017127Y-63060401D01*
X132017120Y-63060403D01*
X131882413Y-63110645D01*
X131882406Y-63110649D01*
X131767312Y-63196809D01*
X131767309Y-63196812D01*
X131681149Y-63311906D01*
X131681145Y-63311913D01*
X131630903Y-63446620D01*
X131630901Y-63446627D01*
X131624500Y-63506155D01*
X128550791Y-63506155D01*
X128480428Y-63412979D01*
X128328198Y-63274204D01*
X128153061Y-63165763D01*
X128153060Y-63165762D01*
X128010784Y-63110645D01*
X127960980Y-63091351D01*
X127758496Y-63053500D01*
X127552504Y-63053500D01*
X127350020Y-63091351D01*
X127350017Y-63091351D01*
X127350017Y-63091352D01*
X127157939Y-63165762D01*
X127157938Y-63165763D01*
X126982806Y-63274201D01*
X126982804Y-63274202D01*
X126982802Y-63274204D01*
X126838921Y-63405368D01*
X126830572Y-63412979D01*
X126830570Y-63412981D01*
X126706440Y-63577356D01*
X126706431Y-63577370D01*
X126614617Y-63761756D01*
X126558244Y-63959886D01*
X126539238Y-64164999D01*
X85188350Y-64164999D01*
X85171659Y-64081092D01*
X85171658Y-64081091D01*
X85171658Y-64081087D01*
X85149339Y-64027203D01*
X85115087Y-63944511D01*
X85115080Y-63944498D01*
X85032951Y-63821584D01*
X85032948Y-63821580D01*
X84928419Y-63717051D01*
X84928415Y-63717048D01*
X84805501Y-63634919D01*
X84805488Y-63634912D01*
X84668917Y-63578343D01*
X84668907Y-63578340D01*
X84523920Y-63549500D01*
X84523918Y-63549500D01*
X84376082Y-63549500D01*
X84376080Y-63549500D01*
X84231092Y-63578340D01*
X84231082Y-63578343D01*
X84094511Y-63634912D01*
X84094498Y-63634919D01*
X83971584Y-63717048D01*
X83971580Y-63717051D01*
X83867051Y-63821580D01*
X83867048Y-63821584D01*
X83784919Y-63944498D01*
X83784912Y-63944511D01*
X83728343Y-64081082D01*
X83728340Y-64081092D01*
X83699500Y-64226079D01*
X83699500Y-64226082D01*
X83699500Y-64373918D01*
X83699500Y-64373920D01*
X83699499Y-64373920D01*
X76400500Y-64373920D01*
X76400500Y-64373918D01*
X76400500Y-64226082D01*
X76400500Y-64226079D01*
X76371659Y-64081092D01*
X76371658Y-64081091D01*
X76371658Y-64081087D01*
X76349339Y-64027203D01*
X76315087Y-63944511D01*
X76315080Y-63944498D01*
X76232951Y-63821584D01*
X76232948Y-63821580D01*
X76128419Y-63717051D01*
X76128415Y-63717048D01*
X76005501Y-63634919D01*
X76005488Y-63634912D01*
X75868917Y-63578343D01*
X75868907Y-63578340D01*
X75723920Y-63549500D01*
X75723918Y-63549500D01*
X75576082Y-63549500D01*
X75576080Y-63549500D01*
X75431092Y-63578340D01*
X75431082Y-63578343D01*
X75294511Y-63634912D01*
X75294498Y-63634919D01*
X75171584Y-63717048D01*
X75171580Y-63717051D01*
X75067051Y-63821580D01*
X75067048Y-63821584D01*
X74984919Y-63944498D01*
X74984912Y-63944511D01*
X74928343Y-64081082D01*
X74928340Y-64081092D01*
X74899500Y-64226079D01*
X74899500Y-64226082D01*
X74899500Y-64373918D01*
X74899500Y-64373920D01*
X74899499Y-64373920D01*
X71400000Y-64373920D01*
X71400000Y-59799996D01*
X106194435Y-59799996D01*
X106194435Y-59800003D01*
X106214630Y-59979249D01*
X106214631Y-59979254D01*
X106274211Y-60149523D01*
X106370184Y-60302262D01*
X106497738Y-60429816D01*
X106650478Y-60525789D01*
X106820599Y-60585317D01*
X106820745Y-60585368D01*
X106820750Y-60585369D01*
X106999996Y-60605565D01*
X107000000Y-60605565D01*
X107000004Y-60605565D01*
X107179249Y-60585369D01*
X107179252Y-60585368D01*
X107179255Y-60585368D01*
X107349522Y-60525789D01*
X107502262Y-60429816D01*
X107629816Y-60302262D01*
X107725789Y-60149522D01*
X107785368Y-59979255D01*
X107786182Y-59972025D01*
X107813245Y-59907611D01*
X107821712Y-59898232D01*
X108937820Y-58782124D01*
X108999142Y-58748641D01*
X109068834Y-58753625D01*
X109124767Y-58795497D01*
X109149184Y-58860961D01*
X109149500Y-58869807D01*
X109149500Y-60472523D01*
X109129815Y-60539562D01*
X109077011Y-60585317D01*
X109011620Y-60595744D01*
X109004024Y-60594888D01*
X109000000Y-60594435D01*
X108999999Y-60594435D01*
X108999996Y-60594435D01*
X108820750Y-60614630D01*
X108820745Y-60614631D01*
X108650476Y-60674211D01*
X108497737Y-60770184D01*
X108370184Y-60897737D01*
X108274211Y-61050476D01*
X108214631Y-61220745D01*
X108214630Y-61220750D01*
X108194435Y-61399996D01*
X108194435Y-61400003D01*
X108214630Y-61579249D01*
X108214631Y-61579254D01*
X108274211Y-61749523D01*
X108370185Y-61902263D01*
X108372445Y-61905097D01*
X108373334Y-61907275D01*
X108373889Y-61908158D01*
X108373734Y-61908255D01*
X108398855Y-61969783D01*
X108399500Y-61982412D01*
X108399500Y-62037587D01*
X108379815Y-62104626D01*
X108372450Y-62114896D01*
X108370186Y-62117734D01*
X108274211Y-62270476D01*
X108214631Y-62440745D01*
X108214630Y-62440750D01*
X108194435Y-62619996D01*
X108194435Y-62620003D01*
X108214630Y-62799249D01*
X108214631Y-62799254D01*
X108274211Y-62969523D01*
X108362887Y-63110649D01*
X108370184Y-63122262D01*
X108497738Y-63249816D01*
X108650478Y-63345789D01*
X108820745Y-63405368D01*
X108820750Y-63405369D01*
X108999996Y-63425565D01*
X109000000Y-63425565D01*
X109000004Y-63425565D01*
X109179249Y-63405369D01*
X109179252Y-63405368D01*
X109179255Y-63405368D01*
X109349522Y-63345789D01*
X109502262Y-63249816D01*
X109536612Y-63215466D01*
X109597935Y-63181981D01*
X109667627Y-63186965D01*
X109723560Y-63228837D01*
X109729287Y-63237175D01*
X109770184Y-63302262D01*
X109897738Y-63429816D01*
X109924493Y-63446627D01*
X110019230Y-63506155D01*
X110050478Y-63525789D01*
X110197848Y-63577356D01*
X110220745Y-63585368D01*
X110220750Y-63585369D01*
X110399996Y-63605565D01*
X110400000Y-63605565D01*
X110400004Y-63605565D01*
X110579249Y-63585369D01*
X110579252Y-63585368D01*
X110579255Y-63585368D01*
X110749522Y-63525789D01*
X110902262Y-63429816D01*
X111029816Y-63302262D01*
X111125789Y-63149522D01*
X111185368Y-62979255D01*
X111205565Y-62800000D01*
X111205481Y-62799255D01*
X111185369Y-62620750D01*
X111185366Y-62620737D01*
X111125790Y-62450481D01*
X111125789Y-62450478D01*
X111104008Y-62415814D01*
X111069506Y-62360903D01*
X111050500Y-62294931D01*
X111050500Y-61816689D01*
X111025502Y-61691022D01*
X111025501Y-61691021D01*
X111025501Y-61691017D01*
X110976465Y-61572634D01*
X110976464Y-61572633D01*
X110976461Y-61572627D01*
X110905277Y-61466093D01*
X110905276Y-61466092D01*
X110814669Y-61375485D01*
X110486819Y-61047634D01*
X110453334Y-60986311D01*
X110450500Y-60959953D01*
X110450500Y-56505067D01*
X110469507Y-56439094D01*
X110525788Y-56349524D01*
X110585368Y-56179254D01*
X110585369Y-56179249D01*
X110605565Y-56000003D01*
X110605565Y-55999996D01*
X110585369Y-55820750D01*
X110585368Y-55820745D01*
X110578108Y-55799996D01*
X118594435Y-55799996D01*
X118594435Y-55800003D01*
X118614630Y-55979249D01*
X118614631Y-55979254D01*
X118674211Y-56149523D01*
X118694021Y-56181050D01*
X118770184Y-56302262D01*
X118897738Y-56429816D01*
X118912504Y-56439094D01*
X119015888Y-56504055D01*
X119050478Y-56525789D01*
X119166203Y-56566283D01*
X119220745Y-56585368D01*
X119220750Y-56585369D01*
X119399996Y-56605565D01*
X119400000Y-56605565D01*
X119400004Y-56605565D01*
X119579249Y-56585369D01*
X119579252Y-56585368D01*
X119579255Y-56585368D01*
X119579256Y-56585367D01*
X119579259Y-56585367D01*
X119618807Y-56571528D01*
X119717703Y-56536922D01*
X119787479Y-56533360D01*
X119846337Y-56566283D01*
X120303195Y-57023141D01*
X120336680Y-57084464D01*
X120331696Y-57154156D01*
X120320509Y-57176793D01*
X120274210Y-57250479D01*
X120274209Y-57250481D01*
X120214633Y-57420737D01*
X120214630Y-57420750D01*
X120194435Y-57599996D01*
X120194435Y-57600003D01*
X120214630Y-57779249D01*
X120214631Y-57779254D01*
X120274211Y-57949523D01*
X120370184Y-58102262D01*
X120497738Y-58229816D01*
X120650478Y-58325789D01*
X120820739Y-58385366D01*
X120820745Y-58385368D01*
X120820750Y-58385369D01*
X120999996Y-58405565D01*
X121000000Y-58405565D01*
X121000004Y-58405565D01*
X121179249Y-58385369D01*
X121179252Y-58385368D01*
X121179255Y-58385368D01*
X121349522Y-58325789D01*
X121502262Y-58229816D01*
X121629816Y-58102262D01*
X121725789Y-57949522D01*
X121785368Y-57779255D01*
X121805565Y-57600000D01*
X121785368Y-57420745D01*
X121785367Y-57420743D01*
X121785366Y-57420737D01*
X121725790Y-57250481D01*
X121725789Y-57250479D01*
X121725789Y-57250478D01*
X121679490Y-57176793D01*
X121669506Y-57160903D01*
X121650500Y-57094931D01*
X121650500Y-56735928D01*
X121625502Y-56610261D01*
X121625501Y-56610260D01*
X121625501Y-56610256D01*
X121590514Y-56525789D01*
X121576466Y-56491874D01*
X121576465Y-56491872D01*
X121576464Y-56491870D01*
X121505278Y-56385332D01*
X121505272Y-56385325D01*
X121300993Y-56181046D01*
X140170111Y-56181046D01*
X140170111Y-56181053D01*
X140190306Y-56360299D01*
X140190307Y-56360304D01*
X140249887Y-56530573D01*
X140284318Y-56585369D01*
X140345860Y-56683312D01*
X140473414Y-56810866D01*
X140626154Y-56906839D01*
X140796421Y-56966418D01*
X140803650Y-56967232D01*
X140868064Y-56994296D01*
X140877452Y-57002772D01*
X141979950Y-58105271D01*
X141979953Y-58105274D01*
X142030853Y-58139284D01*
X142086492Y-58176461D01*
X142086498Y-58176464D01*
X142086499Y-58176465D01*
X142204882Y-58225501D01*
X142204886Y-58225501D01*
X142204887Y-58225502D01*
X142330554Y-58250500D01*
X142330557Y-58250500D01*
X142494932Y-58250500D01*
X142560904Y-58269506D01*
X142650477Y-58325789D01*
X142650481Y-58325790D01*
X142820737Y-58385366D01*
X142820743Y-58385367D01*
X142820745Y-58385368D01*
X142820746Y-58385368D01*
X142820750Y-58385369D01*
X142999996Y-58405565D01*
X143000000Y-58405565D01*
X143000004Y-58405565D01*
X143179249Y-58385369D01*
X143179252Y-58385368D01*
X143179255Y-58385368D01*
X143349522Y-58325789D01*
X143502262Y-58229816D01*
X143629816Y-58102262D01*
X143725789Y-57949522D01*
X143785368Y-57779255D01*
X143805565Y-57600000D01*
X143785368Y-57420745D01*
X143725789Y-57250478D01*
X143629816Y-57097738D01*
X143502262Y-56970184D01*
X143496267Y-56966417D01*
X143349523Y-56874211D01*
X143179254Y-56814631D01*
X143179249Y-56814630D01*
X143000004Y-56794435D01*
X142999996Y-56794435D01*
X142820750Y-56814630D01*
X142820737Y-56814633D01*
X142678317Y-56864469D01*
X142608538Y-56868031D01*
X142549681Y-56835109D01*
X141797398Y-56082826D01*
X141763913Y-56021503D01*
X141761858Y-56009023D01*
X141761044Y-56001795D01*
X141701465Y-55831528D01*
X141605492Y-55678788D01*
X141477938Y-55551234D01*
X141392800Y-55497738D01*
X141325199Y-55455261D01*
X141154930Y-55395681D01*
X141154925Y-55395680D01*
X140975680Y-55375485D01*
X140975672Y-55375485D01*
X140796426Y-55395680D01*
X140796421Y-55395681D01*
X140626152Y-55455261D01*
X140473413Y-55551234D01*
X140345860Y-55678787D01*
X140249887Y-55831526D01*
X140190307Y-56001795D01*
X140190306Y-56001800D01*
X140170111Y-56181046D01*
X121300993Y-56181046D01*
X120414673Y-55294726D01*
X120383970Y-55274211D01*
X120308127Y-55223535D01*
X120286633Y-55214632D01*
X120189744Y-55174499D01*
X120189738Y-55174497D01*
X120064071Y-55149500D01*
X120064069Y-55149500D01*
X119905068Y-55149500D01*
X119839096Y-55130494D01*
X119749522Y-55074210D01*
X119749518Y-55074209D01*
X119579262Y-55014633D01*
X119579249Y-55014630D01*
X119400004Y-54994435D01*
X119399996Y-54994435D01*
X119220750Y-55014630D01*
X119220745Y-55014631D01*
X119050476Y-55074211D01*
X118897737Y-55170184D01*
X118770184Y-55297737D01*
X118674211Y-55450476D01*
X118614631Y-55620745D01*
X118614630Y-55620750D01*
X118594435Y-55799996D01*
X110578108Y-55799996D01*
X110535695Y-55678788D01*
X110525789Y-55650478D01*
X110507106Y-55620745D01*
X110429815Y-55497737D01*
X110302262Y-55370184D01*
X110149523Y-55274211D01*
X109979254Y-55214631D01*
X109979249Y-55214630D01*
X109800004Y-55194435D01*
X109799996Y-55194435D01*
X109620750Y-55214630D01*
X109620745Y-55214631D01*
X109450476Y-55274211D01*
X109297737Y-55370184D01*
X109170184Y-55497737D01*
X109074211Y-55650476D01*
X109014631Y-55820745D01*
X109014630Y-55820750D01*
X108994435Y-55999996D01*
X108994435Y-56000003D01*
X109014630Y-56179249D01*
X109014631Y-56179254D01*
X109074211Y-56349524D01*
X109130493Y-56439094D01*
X109149500Y-56505067D01*
X109149500Y-56679191D01*
X109129815Y-56746230D01*
X109113181Y-56766872D01*
X106901775Y-58978277D01*
X106840452Y-59011762D01*
X106827988Y-59013815D01*
X106820752Y-59014630D01*
X106820744Y-59014632D01*
X106650478Y-59074210D01*
X106497737Y-59170184D01*
X106370184Y-59297737D01*
X106274211Y-59450476D01*
X106214631Y-59620745D01*
X106214630Y-59620750D01*
X106194435Y-59799996D01*
X71400000Y-59799996D01*
X71400000Y-52999996D01*
X81794435Y-52999996D01*
X81794435Y-53000003D01*
X81814630Y-53179249D01*
X81814631Y-53179254D01*
X81874211Y-53349523D01*
X81970184Y-53502262D01*
X82097738Y-53629816D01*
X82250478Y-53725789D01*
X82420739Y-53785366D01*
X82420745Y-53785368D01*
X82420750Y-53785369D01*
X82599996Y-53805565D01*
X82600000Y-53805565D01*
X82600004Y-53805565D01*
X82779249Y-53785369D01*
X82779251Y-53785368D01*
X82779255Y-53785368D01*
X82779258Y-53785366D01*
X82779262Y-53785366D01*
X82869377Y-53753832D01*
X82949522Y-53725789D01*
X83039096Y-53669505D01*
X83105068Y-53650500D01*
X86064071Y-53650500D01*
X86148615Y-53633682D01*
X86189744Y-53625501D01*
X86308127Y-53576465D01*
X86414669Y-53505277D01*
X86898225Y-53021719D01*
X86959545Y-52988237D01*
X86972019Y-52986183D01*
X86979255Y-52985368D01*
X87149522Y-52925789D01*
X87302262Y-52829816D01*
X87429816Y-52702262D01*
X87525789Y-52549522D01*
X87585368Y-52379255D01*
X87597744Y-52269410D01*
X87606400Y-52235856D01*
X87625501Y-52189744D01*
X87643000Y-52101775D01*
X87650500Y-52064071D01*
X87650500Y-40735928D01*
X87625502Y-40610261D01*
X87625501Y-40610260D01*
X87625501Y-40610256D01*
X87606399Y-40564140D01*
X87597743Y-40530586D01*
X87585368Y-40420745D01*
X87525789Y-40250478D01*
X87429816Y-40097738D01*
X87302262Y-39970184D01*
X87149523Y-39874211D01*
X86979254Y-39814631D01*
X86979249Y-39814630D01*
X86800004Y-39794435D01*
X86799996Y-39794435D01*
X86620750Y-39814630D01*
X86620745Y-39814631D01*
X86450476Y-39874211D01*
X86297737Y-39970184D01*
X86170184Y-40097737D01*
X86074211Y-40250476D01*
X86014631Y-40420745D01*
X86014630Y-40420750D01*
X85994435Y-40599996D01*
X85994435Y-40600003D01*
X86014630Y-40779249D01*
X86014631Y-40779254D01*
X86074211Y-40949523D01*
X86074511Y-40950000D01*
X86170184Y-41102262D01*
X86297738Y-41229816D01*
X86297742Y-41229819D01*
X86302809Y-41233859D01*
X86342952Y-41291046D01*
X86349500Y-41330809D01*
X86349500Y-51469190D01*
X86329815Y-51536229D01*
X86302815Y-51566135D01*
X86297738Y-51570183D01*
X86170184Y-51697737D01*
X86074210Y-51850478D01*
X86014632Y-52020744D01*
X86014630Y-52020752D01*
X86013815Y-52027988D01*
X85986743Y-52092400D01*
X85978278Y-52101775D01*
X85766871Y-52313182D01*
X85705551Y-52346666D01*
X85679192Y-52349500D01*
X83105068Y-52349500D01*
X83039096Y-52330494D01*
X82949522Y-52274210D01*
X82949518Y-52274209D01*
X82779262Y-52214633D01*
X82779249Y-52214630D01*
X82600004Y-52194435D01*
X82599996Y-52194435D01*
X82420750Y-52214630D01*
X82420745Y-52214631D01*
X82250476Y-52274211D01*
X82097737Y-52370184D01*
X81970184Y-52497737D01*
X81874211Y-52650476D01*
X81814631Y-52820745D01*
X81814630Y-52820750D01*
X81794435Y-52999996D01*
X71400000Y-52999996D01*
X71400000Y-49763989D01*
X82854877Y-49763989D01*
X82854877Y-49763994D01*
X82873811Y-49932045D01*
X82873812Y-49932048D01*
X82929670Y-50091683D01*
X83019648Y-50234881D01*
X83139236Y-50354469D01*
X83282435Y-50444447D01*
X83442067Y-50500304D01*
X83442068Y-50500304D01*
X83442071Y-50500305D01*
X83610122Y-50519240D01*
X83610125Y-50519240D01*
X83610128Y-50519240D01*
X83778178Y-50500305D01*
X83778179Y-50500304D01*
X83778183Y-50500304D01*
X83937815Y-50444447D01*
X84081014Y-50354469D01*
X84200602Y-50234881D01*
X84290580Y-50091682D01*
X84346437Y-49932050D01*
X84362965Y-49785368D01*
X84365373Y-49763994D01*
X84365373Y-49763989D01*
X84346438Y-49595938D01*
X84346437Y-49595935D01*
X84290579Y-49436300D01*
X84200601Y-49293102D01*
X84081014Y-49173515D01*
X83937816Y-49083537D01*
X83778181Y-49027679D01*
X83778178Y-49027678D01*
X83610128Y-49008744D01*
X83610122Y-49008744D01*
X83442071Y-49027678D01*
X83442068Y-49027679D01*
X83282433Y-49083537D01*
X83139235Y-49173515D01*
X83019648Y-49293102D01*
X82929670Y-49436300D01*
X82873812Y-49595935D01*
X82873811Y-49595938D01*
X82854877Y-49763989D01*
X71400000Y-49763989D01*
X71400000Y-39238389D01*
X72424500Y-39238389D01*
X72424500Y-39411611D01*
X72451598Y-39582701D01*
X72505127Y-39747445D01*
X72583768Y-39901788D01*
X72685586Y-40041928D01*
X72685588Y-40041930D01*
X72793491Y-40149833D01*
X72826976Y-40211156D01*
X72821992Y-40280848D01*
X72780120Y-40336781D01*
X72770907Y-40343053D01*
X72706654Y-40382684D01*
X72582684Y-40506654D01*
X72490643Y-40655875D01*
X72490641Y-40655880D01*
X72435494Y-40822302D01*
X72435493Y-40822309D01*
X72425000Y-40925013D01*
X72425000Y-41075000D01*
X73519670Y-41075000D01*
X73499925Y-41094745D01*
X73450556Y-41180255D01*
X73425000Y-41275630D01*
X73425000Y-41374370D01*
X73450556Y-41469745D01*
X73499925Y-41555255D01*
X73519670Y-41575000D01*
X72425001Y-41575000D01*
X72425001Y-41724986D01*
X72435494Y-41827697D01*
X72490641Y-41994119D01*
X72490643Y-41994124D01*
X72582684Y-42143345D01*
X72706654Y-42267315D01*
X72855875Y-42359356D01*
X72855880Y-42359358D01*
X73022302Y-42414505D01*
X73022309Y-42414506D01*
X73125019Y-42424999D01*
X73549999Y-42424999D01*
X73550000Y-42424998D01*
X73550000Y-41605330D01*
X73569745Y-41625075D01*
X73655255Y-41674444D01*
X73750630Y-41700000D01*
X73849370Y-41700000D01*
X73944745Y-41674444D01*
X74030255Y-41625075D01*
X74050000Y-41605330D01*
X74050000Y-42424999D01*
X74474972Y-42424999D01*
X74474986Y-42424998D01*
X74577697Y-42414505D01*
X74744119Y-42359358D01*
X74744124Y-42359356D01*
X74893345Y-42267315D01*
X75017315Y-42143345D01*
X75109356Y-41994124D01*
X75109358Y-41994119D01*
X75164505Y-41827697D01*
X75164506Y-41827690D01*
X75174999Y-41724986D01*
X75175000Y-41724973D01*
X75175000Y-41575000D01*
X74080330Y-41575000D01*
X74100075Y-41555255D01*
X74149444Y-41469745D01*
X74175000Y-41374370D01*
X74175000Y-41275630D01*
X74149444Y-41180255D01*
X74100075Y-41094745D01*
X74080330Y-41075000D01*
X75174999Y-41075000D01*
X75174999Y-40925028D01*
X75174998Y-40925013D01*
X75164505Y-40822302D01*
X75109358Y-40655880D01*
X75109356Y-40655875D01*
X75017315Y-40506654D01*
X74893343Y-40382682D01*
X74829093Y-40343053D01*
X74782368Y-40291105D01*
X74771145Y-40222143D01*
X74798988Y-40158061D01*
X74806486Y-40149855D01*
X74914414Y-40041928D01*
X75016232Y-39901788D01*
X75094873Y-39747445D01*
X75148402Y-39582701D01*
X75175500Y-39411611D01*
X75175500Y-39238389D01*
X75148402Y-39067299D01*
X75094873Y-38902555D01*
X75016232Y-38748212D01*
X74914414Y-38608072D01*
X74791928Y-38485586D01*
X74651788Y-38383768D01*
X74497445Y-38305127D01*
X74332701Y-38251598D01*
X74332699Y-38251597D01*
X74332698Y-38251597D01*
X74201271Y-38230781D01*
X74161611Y-38224500D01*
X73438389Y-38224500D01*
X73398728Y-38230781D01*
X73267302Y-38251597D01*
X73102552Y-38305128D01*
X72948211Y-38383768D01*
X72868256Y-38441859D01*
X72808072Y-38485586D01*
X72808070Y-38485588D01*
X72808069Y-38485588D01*
X72685588Y-38608069D01*
X72685588Y-38608070D01*
X72685586Y-38608072D01*
X72669788Y-38629816D01*
X72583768Y-38748211D01*
X72505128Y-38902552D01*
X72451597Y-39067302D01*
X72424500Y-39238389D01*
X71400000Y-39238389D01*
X71400000Y-38851362D01*
X71419685Y-38784323D01*
X71436319Y-38763681D01*
X73763681Y-36436319D01*
X73825004Y-36402834D01*
X73851362Y-36400000D01*
X89348638Y-36400000D01*
X89415677Y-36419685D01*
G37*
%TD.AperFunction*%
%TA.AperFunction,Conductor*%
G36*
X112354075Y-83607007D02*
G01*
X112320000Y-83734174D01*
X112320000Y-83865826D01*
X112354075Y-83992993D01*
X112386988Y-84050000D01*
X110713012Y-84050000D01*
X110745925Y-83992993D01*
X110780000Y-83865826D01*
X110780000Y-83734174D01*
X110745925Y-83607007D01*
X110713012Y-83550000D01*
X112386988Y-83550000D01*
X112354075Y-83607007D01*
G37*
%TD.AperFunction*%
%TD*%
M02*
