%TF.GenerationSoftware,KiCad,Pcbnew,8.0.5*%
%TF.CreationDate,2025-03-07T14:34:27+01:00*%
%TF.ProjectId,eeg_4-channel_final,6565675f-342d-4636-9861-6e6e656c5f66,rev?*%
%TF.SameCoordinates,Original*%
%TF.FileFunction,Other,Comment*%
%FSLAX46Y46*%
G04 Gerber Fmt 4.6, Leading zero omitted, Abs format (unit mm)*
G04 Created by KiCad (PCBNEW 8.0.5) date 2025-03-07 14:34:27*
%MOMM*%
%LPD*%
G01*
G04 APERTURE LIST*
%ADD10C,0.100000*%
%ADD11C,0.150000*%
G04 APERTURE END LIST*
D10*
X125451109Y-55788095D02*
X125451109Y-56026190D01*
X125451109Y-56026190D02*
X125689204Y-56049999D01*
X125689204Y-56049999D02*
X125665395Y-56026190D01*
X125665395Y-56026190D02*
X125641585Y-55978571D01*
X125641585Y-55978571D02*
X125641585Y-55859523D01*
X125641585Y-55859523D02*
X125665395Y-55811904D01*
X125665395Y-55811904D02*
X125689204Y-55788095D01*
X125689204Y-55788095D02*
X125736823Y-55764285D01*
X125736823Y-55764285D02*
X125855871Y-55764285D01*
X125855871Y-55764285D02*
X125903490Y-55788095D01*
X125903490Y-55788095D02*
X125927300Y-55811904D01*
X125927300Y-55811904D02*
X125951109Y-55859523D01*
X125951109Y-55859523D02*
X125951109Y-55978571D01*
X125951109Y-55978571D02*
X125927300Y-56026190D01*
X125927300Y-56026190D02*
X125903490Y-56049999D01*
X125951109Y-55169048D02*
X125617776Y-55169048D01*
X125665395Y-55169048D02*
X125641585Y-55145238D01*
X125641585Y-55145238D02*
X125617776Y-55097619D01*
X125617776Y-55097619D02*
X125617776Y-55026191D01*
X125617776Y-55026191D02*
X125641585Y-54978572D01*
X125641585Y-54978572D02*
X125689204Y-54954762D01*
X125689204Y-54954762D02*
X125951109Y-54954762D01*
X125689204Y-54954762D02*
X125641585Y-54930953D01*
X125641585Y-54930953D02*
X125617776Y-54883334D01*
X125617776Y-54883334D02*
X125617776Y-54811905D01*
X125617776Y-54811905D02*
X125641585Y-54764286D01*
X125641585Y-54764286D02*
X125689204Y-54740476D01*
X125689204Y-54740476D02*
X125951109Y-54740476D01*
X125951109Y-54502381D02*
X125617776Y-54502381D01*
X125665395Y-54502381D02*
X125641585Y-54478571D01*
X125641585Y-54478571D02*
X125617776Y-54430952D01*
X125617776Y-54430952D02*
X125617776Y-54359524D01*
X125617776Y-54359524D02*
X125641585Y-54311905D01*
X125641585Y-54311905D02*
X125689204Y-54288095D01*
X125689204Y-54288095D02*
X125951109Y-54288095D01*
X125689204Y-54288095D02*
X125641585Y-54264286D01*
X125641585Y-54264286D02*
X125617776Y-54216667D01*
X125617776Y-54216667D02*
X125617776Y-54145238D01*
X125617776Y-54145238D02*
X125641585Y-54097619D01*
X125641585Y-54097619D02*
X125689204Y-54073809D01*
X125689204Y-54073809D02*
X125951109Y-54073809D01*
X134611904Y-78776109D02*
X134373809Y-78776109D01*
X134373809Y-78776109D02*
X134350000Y-79014204D01*
X134350000Y-79014204D02*
X134373809Y-78990395D01*
X134373809Y-78990395D02*
X134421428Y-78966585D01*
X134421428Y-78966585D02*
X134540476Y-78966585D01*
X134540476Y-78966585D02*
X134588095Y-78990395D01*
X134588095Y-78990395D02*
X134611904Y-79014204D01*
X134611904Y-79014204D02*
X134635714Y-79061823D01*
X134635714Y-79061823D02*
X134635714Y-79180871D01*
X134635714Y-79180871D02*
X134611904Y-79228490D01*
X134611904Y-79228490D02*
X134588095Y-79252300D01*
X134588095Y-79252300D02*
X134540476Y-79276109D01*
X134540476Y-79276109D02*
X134421428Y-79276109D01*
X134421428Y-79276109D02*
X134373809Y-79252300D01*
X134373809Y-79252300D02*
X134350000Y-79228490D01*
X135230951Y-79276109D02*
X135230951Y-78942776D01*
X135230951Y-78990395D02*
X135254761Y-78966585D01*
X135254761Y-78966585D02*
X135302380Y-78942776D01*
X135302380Y-78942776D02*
X135373808Y-78942776D01*
X135373808Y-78942776D02*
X135421427Y-78966585D01*
X135421427Y-78966585D02*
X135445237Y-79014204D01*
X135445237Y-79014204D02*
X135445237Y-79276109D01*
X135445237Y-79014204D02*
X135469046Y-78966585D01*
X135469046Y-78966585D02*
X135516665Y-78942776D01*
X135516665Y-78942776D02*
X135588094Y-78942776D01*
X135588094Y-78942776D02*
X135635713Y-78966585D01*
X135635713Y-78966585D02*
X135659523Y-79014204D01*
X135659523Y-79014204D02*
X135659523Y-79276109D01*
X135897618Y-79276109D02*
X135897618Y-78942776D01*
X135897618Y-78990395D02*
X135921428Y-78966585D01*
X135921428Y-78966585D02*
X135969047Y-78942776D01*
X135969047Y-78942776D02*
X136040475Y-78942776D01*
X136040475Y-78942776D02*
X136088094Y-78966585D01*
X136088094Y-78966585D02*
X136111904Y-79014204D01*
X136111904Y-79014204D02*
X136111904Y-79276109D01*
X136111904Y-79014204D02*
X136135713Y-78966585D01*
X136135713Y-78966585D02*
X136183332Y-78942776D01*
X136183332Y-78942776D02*
X136254761Y-78942776D01*
X136254761Y-78942776D02*
X136302380Y-78966585D01*
X136302380Y-78966585D02*
X136326190Y-79014204D01*
X136326190Y-79014204D02*
X136326190Y-79276109D01*
D11*
X130804819Y-77321428D02*
X129804819Y-77321428D01*
X130804819Y-76750000D02*
X130233390Y-77178571D01*
X129804819Y-76750000D02*
X130376247Y-77321428D01*
X130281009Y-76321428D02*
X130281009Y-75988095D01*
X130804819Y-75845238D02*
X130804819Y-76321428D01*
X130804819Y-76321428D02*
X129804819Y-76321428D01*
X129804819Y-76321428D02*
X129804819Y-75845238D01*
X130281009Y-75416666D02*
X130281009Y-75083333D01*
X130804819Y-74940476D02*
X130804819Y-75416666D01*
X130804819Y-75416666D02*
X129804819Y-75416666D01*
X129804819Y-75416666D02*
X129804819Y-74940476D01*
X130804819Y-74511904D02*
X129804819Y-74511904D01*
X129804819Y-74511904D02*
X129804819Y-74130952D01*
X129804819Y-74130952D02*
X129852438Y-74035714D01*
X129852438Y-74035714D02*
X129900057Y-73988095D01*
X129900057Y-73988095D02*
X129995295Y-73940476D01*
X129995295Y-73940476D02*
X130138152Y-73940476D01*
X130138152Y-73940476D02*
X130233390Y-73988095D01*
X130233390Y-73988095D02*
X130281009Y-74035714D01*
X130281009Y-74035714D02*
X130328628Y-74130952D01*
X130328628Y-74130952D02*
X130328628Y-74511904D01*
X130423866Y-73511904D02*
X130423866Y-72750000D01*
X129804819Y-72083333D02*
X129804819Y-71892857D01*
X129804819Y-71892857D02*
X129852438Y-71797619D01*
X129852438Y-71797619D02*
X129947676Y-71702381D01*
X129947676Y-71702381D02*
X130138152Y-71654762D01*
X130138152Y-71654762D02*
X130471485Y-71654762D01*
X130471485Y-71654762D02*
X130661961Y-71702381D01*
X130661961Y-71702381D02*
X130757200Y-71797619D01*
X130757200Y-71797619D02*
X130804819Y-71892857D01*
X130804819Y-71892857D02*
X130804819Y-72083333D01*
X130804819Y-72083333D02*
X130757200Y-72178571D01*
X130757200Y-72178571D02*
X130661961Y-72273809D01*
X130661961Y-72273809D02*
X130471485Y-72321428D01*
X130471485Y-72321428D02*
X130138152Y-72321428D01*
X130138152Y-72321428D02*
X129947676Y-72273809D01*
X129947676Y-72273809D02*
X129852438Y-72178571D01*
X129852438Y-72178571D02*
X129804819Y-72083333D01*
X129804819Y-71226190D02*
X130614342Y-71226190D01*
X130614342Y-71226190D02*
X130709580Y-71178571D01*
X130709580Y-71178571D02*
X130757200Y-71130952D01*
X130757200Y-71130952D02*
X130804819Y-71035714D01*
X130804819Y-71035714D02*
X130804819Y-70845238D01*
X130804819Y-70845238D02*
X130757200Y-70750000D01*
X130757200Y-70750000D02*
X130709580Y-70702381D01*
X130709580Y-70702381D02*
X130614342Y-70654762D01*
X130614342Y-70654762D02*
X129804819Y-70654762D01*
X129804819Y-70321428D02*
X129804819Y-69750000D01*
X130804819Y-70035714D02*
X129804819Y-70035714D01*
X129804819Y-68749999D02*
X129804819Y-68083333D01*
X129804819Y-68083333D02*
X130804819Y-68749999D01*
X130804819Y-68749999D02*
X130804819Y-68083333D01*
X129804819Y-67511904D02*
X129804819Y-67321428D01*
X129804819Y-67321428D02*
X129852438Y-67226190D01*
X129852438Y-67226190D02*
X129947676Y-67130952D01*
X129947676Y-67130952D02*
X130138152Y-67083333D01*
X130138152Y-67083333D02*
X130471485Y-67083333D01*
X130471485Y-67083333D02*
X130661961Y-67130952D01*
X130661961Y-67130952D02*
X130757200Y-67226190D01*
X130757200Y-67226190D02*
X130804819Y-67321428D01*
X130804819Y-67321428D02*
X130804819Y-67511904D01*
X130804819Y-67511904D02*
X130757200Y-67607142D01*
X130757200Y-67607142D02*
X130661961Y-67702380D01*
X130661961Y-67702380D02*
X130471485Y-67749999D01*
X130471485Y-67749999D02*
X130138152Y-67749999D01*
X130138152Y-67749999D02*
X129947676Y-67702380D01*
X129947676Y-67702380D02*
X129852438Y-67607142D01*
X129852438Y-67607142D02*
X129804819Y-67511904D01*
X130804819Y-66654761D02*
X129804819Y-66654761D01*
X129804819Y-66654761D02*
X130804819Y-66083333D01*
X130804819Y-66083333D02*
X129804819Y-66083333D01*
X130281009Y-65607142D02*
X130281009Y-65273809D01*
X130804819Y-65130952D02*
X130804819Y-65607142D01*
X130804819Y-65607142D02*
X129804819Y-65607142D01*
X129804819Y-65607142D02*
X129804819Y-65130952D01*
D10*
X125451109Y-88188095D02*
X125451109Y-88426190D01*
X125451109Y-88426190D02*
X125689204Y-88449999D01*
X125689204Y-88449999D02*
X125665395Y-88426190D01*
X125665395Y-88426190D02*
X125641585Y-88378571D01*
X125641585Y-88378571D02*
X125641585Y-88259523D01*
X125641585Y-88259523D02*
X125665395Y-88211904D01*
X125665395Y-88211904D02*
X125689204Y-88188095D01*
X125689204Y-88188095D02*
X125736823Y-88164285D01*
X125736823Y-88164285D02*
X125855871Y-88164285D01*
X125855871Y-88164285D02*
X125903490Y-88188095D01*
X125903490Y-88188095D02*
X125927300Y-88211904D01*
X125927300Y-88211904D02*
X125951109Y-88259523D01*
X125951109Y-88259523D02*
X125951109Y-88378571D01*
X125951109Y-88378571D02*
X125927300Y-88426190D01*
X125927300Y-88426190D02*
X125903490Y-88449999D01*
X125951109Y-87569048D02*
X125617776Y-87569048D01*
X125665395Y-87569048D02*
X125641585Y-87545238D01*
X125641585Y-87545238D02*
X125617776Y-87497619D01*
X125617776Y-87497619D02*
X125617776Y-87426191D01*
X125617776Y-87426191D02*
X125641585Y-87378572D01*
X125641585Y-87378572D02*
X125689204Y-87354762D01*
X125689204Y-87354762D02*
X125951109Y-87354762D01*
X125689204Y-87354762D02*
X125641585Y-87330953D01*
X125641585Y-87330953D02*
X125617776Y-87283334D01*
X125617776Y-87283334D02*
X125617776Y-87211905D01*
X125617776Y-87211905D02*
X125641585Y-87164286D01*
X125641585Y-87164286D02*
X125689204Y-87140476D01*
X125689204Y-87140476D02*
X125951109Y-87140476D01*
X125951109Y-86902381D02*
X125617776Y-86902381D01*
X125665395Y-86902381D02*
X125641585Y-86878571D01*
X125641585Y-86878571D02*
X125617776Y-86830952D01*
X125617776Y-86830952D02*
X125617776Y-86759524D01*
X125617776Y-86759524D02*
X125641585Y-86711905D01*
X125641585Y-86711905D02*
X125689204Y-86688095D01*
X125689204Y-86688095D02*
X125951109Y-86688095D01*
X125689204Y-86688095D02*
X125641585Y-86664286D01*
X125641585Y-86664286D02*
X125617776Y-86616667D01*
X125617776Y-86616667D02*
X125617776Y-86545238D01*
X125617776Y-86545238D02*
X125641585Y-86497619D01*
X125641585Y-86497619D02*
X125689204Y-86473809D01*
X125689204Y-86473809D02*
X125951109Y-86473809D01*
D11*
X124519104Y-74011904D02*
X124519104Y-73535714D01*
X124804819Y-74107142D02*
X123804819Y-73773809D01*
X123804819Y-73773809D02*
X124804819Y-73440476D01*
X124138152Y-73107142D02*
X124804819Y-73107142D01*
X124233390Y-73107142D02*
X124185771Y-73059523D01*
X124185771Y-73059523D02*
X124138152Y-72964285D01*
X124138152Y-72964285D02*
X124138152Y-72821428D01*
X124138152Y-72821428D02*
X124185771Y-72726190D01*
X124185771Y-72726190D02*
X124281009Y-72678571D01*
X124281009Y-72678571D02*
X124804819Y-72678571D01*
X124138152Y-72345237D02*
X124138152Y-71964285D01*
X123804819Y-72202380D02*
X124661961Y-72202380D01*
X124661961Y-72202380D02*
X124757200Y-72154761D01*
X124757200Y-72154761D02*
X124804819Y-72059523D01*
X124804819Y-72059523D02*
X124804819Y-71964285D01*
X124757200Y-71249999D02*
X124804819Y-71345237D01*
X124804819Y-71345237D02*
X124804819Y-71535713D01*
X124804819Y-71535713D02*
X124757200Y-71630951D01*
X124757200Y-71630951D02*
X124661961Y-71678570D01*
X124661961Y-71678570D02*
X124281009Y-71678570D01*
X124281009Y-71678570D02*
X124185771Y-71630951D01*
X124185771Y-71630951D02*
X124138152Y-71535713D01*
X124138152Y-71535713D02*
X124138152Y-71345237D01*
X124138152Y-71345237D02*
X124185771Y-71249999D01*
X124185771Y-71249999D02*
X124281009Y-71202380D01*
X124281009Y-71202380D02*
X124376247Y-71202380D01*
X124376247Y-71202380D02*
X124471485Y-71678570D01*
X124138152Y-70773808D02*
X124804819Y-70773808D01*
X124233390Y-70773808D02*
X124185771Y-70726189D01*
X124185771Y-70726189D02*
X124138152Y-70630951D01*
X124138152Y-70630951D02*
X124138152Y-70488094D01*
X124138152Y-70488094D02*
X124185771Y-70392856D01*
X124185771Y-70392856D02*
X124281009Y-70345237D01*
X124281009Y-70345237D02*
X124804819Y-70345237D01*
X124138152Y-69869046D02*
X124804819Y-69869046D01*
X124233390Y-69869046D02*
X124185771Y-69821427D01*
X124185771Y-69821427D02*
X124138152Y-69726189D01*
X124138152Y-69726189D02*
X124138152Y-69583332D01*
X124138152Y-69583332D02*
X124185771Y-69488094D01*
X124185771Y-69488094D02*
X124281009Y-69440475D01*
X124281009Y-69440475D02*
X124804819Y-69440475D01*
X124804819Y-68535713D02*
X124281009Y-68535713D01*
X124281009Y-68535713D02*
X124185771Y-68583332D01*
X124185771Y-68583332D02*
X124138152Y-68678570D01*
X124138152Y-68678570D02*
X124138152Y-68869046D01*
X124138152Y-68869046D02*
X124185771Y-68964284D01*
X124757200Y-68535713D02*
X124804819Y-68630951D01*
X124804819Y-68630951D02*
X124804819Y-68869046D01*
X124804819Y-68869046D02*
X124757200Y-68964284D01*
X124757200Y-68964284D02*
X124661961Y-69011903D01*
X124661961Y-69011903D02*
X124566723Y-69011903D01*
X124566723Y-69011903D02*
X124471485Y-68964284D01*
X124471485Y-68964284D02*
X124423866Y-68869046D01*
X124423866Y-68869046D02*
X124423866Y-68630951D01*
X124423866Y-68630951D02*
X124376247Y-68535713D01*
D10*
%TO.C,U24*%
X125225000Y-47310000D02*
X125025000Y-47510000D01*
X125225000Y-47310000D02*
X125225000Y-62050000D01*
X125225000Y-47310000D02*
X125425000Y-47510000D01*
X125225000Y-62050000D02*
X125025000Y-61850000D01*
X125225000Y-62050000D02*
X125425000Y-61850000D01*
X125225000Y-80450000D02*
X125025000Y-80650000D01*
X125225000Y-80450000D02*
X125225000Y-95190000D01*
X125225000Y-80450000D02*
X125425000Y-80650000D01*
X125225000Y-95190000D02*
X125025000Y-94990000D01*
X125225000Y-95190000D02*
X125425000Y-94990000D01*
X127350000Y-79650000D02*
X127550000Y-79450000D01*
X127350000Y-79650000D02*
X127550000Y-79850000D01*
X127350000Y-79650000D02*
X142030000Y-79650000D01*
X142030000Y-79650000D02*
X141830000Y-79450000D01*
X142030000Y-79650000D02*
X141830000Y-79850000D01*
%TD*%
M02*
