%TF.GenerationSoftware,KiCad,Pcbnew,8.0.5*%
%TF.CreationDate,2025-03-07T14:34:27+01:00*%
%TF.ProjectId,eeg_4-channel_final,6565675f-342d-4636-9861-6e6e656c5f66,rev?*%
%TF.SameCoordinates,Original*%
%TF.FileFunction,Legend,Top*%
%TF.FilePolarity,Positive*%
%FSLAX46Y46*%
G04 Gerber Fmt 4.6, Leading zero omitted, Abs format (unit mm)*
G04 Created by KiCad (PCBNEW 8.0.5) date 2025-03-07 14:34:27*
%MOMM*%
%LPD*%
G01*
G04 APERTURE LIST*
G04 Aperture macros list*
%AMRoundRect*
0 Rectangle with rounded corners*
0 $1 Rounding radius*
0 $2 $3 $4 $5 $6 $7 $8 $9 X,Y pos of 4 corners*
0 Add a 4 corners polygon primitive as box body*
4,1,4,$2,$3,$4,$5,$6,$7,$8,$9,$2,$3,0*
0 Add four circle primitives for the rounded corners*
1,1,$1+$1,$2,$3*
1,1,$1+$1,$4,$5*
1,1,$1+$1,$6,$7*
1,1,$1+$1,$8,$9*
0 Add four rect primitives between the rounded corners*
20,1,$1+$1,$2,$3,$4,$5,0*
20,1,$1+$1,$4,$5,$6,$7,0*
20,1,$1+$1,$6,$7,$8,$9,0*
20,1,$1+$1,$8,$9,$2,$3,0*%
G04 Aperture macros list end*
%ADD10C,0.100000*%
%ADD11C,0.120000*%
%ADD12C,0.127000*%
%ADD13C,0.200000*%
%ADD14C,0.010000*%
%ADD15RoundRect,0.250000X-0.250000X-0.475000X0.250000X-0.475000X0.250000X0.475000X-0.250000X0.475000X0*%
%ADD16RoundRect,0.250000X0.250000X0.475000X-0.250000X0.475000X-0.250000X-0.475000X0.250000X-0.475000X0*%
%ADD17RoundRect,0.250000X0.450000X-0.262500X0.450000X0.262500X-0.450000X0.262500X-0.450000X-0.262500X0*%
%ADD18RoundRect,0.100500X-0.986500X-0.301500X0.986500X-0.301500X0.986500X0.301500X-0.986500X0.301500X0*%
%ADD19RoundRect,0.250000X0.475000X-0.250000X0.475000X0.250000X-0.475000X0.250000X-0.475000X-0.250000X0*%
%ADD20RoundRect,0.250000X-0.450000X0.262500X-0.450000X-0.262500X0.450000X-0.262500X0.450000X0.262500X0*%
%ADD21C,1.000000*%
%ADD22RoundRect,0.102000X1.250000X-0.600000X1.250000X0.600000X-1.250000X0.600000X-1.250000X-0.600000X0*%
%ADD23RoundRect,0.250000X-0.262500X-0.450000X0.262500X-0.450000X0.262500X0.450000X-0.262500X0.450000X0*%
%ADD24RoundRect,0.250000X-0.475000X0.250000X-0.475000X-0.250000X0.475000X-0.250000X0.475000X0.250000X0*%
%ADD25R,1.700000X1.700000*%
%ADD26O,1.700000X1.700000*%
%ADD27RoundRect,0.200000X-0.200000X-0.275000X0.200000X-0.275000X0.200000X0.275000X-0.200000X0.275000X0*%
%ADD28RoundRect,0.200000X0.200000X0.275000X-0.200000X0.275000X-0.200000X-0.275000X0.200000X-0.275000X0*%
%ADD29RoundRect,0.218750X0.381250X-0.218750X0.381250X0.218750X-0.381250X0.218750X-0.381250X-0.218750X0*%
%ADD30R,0.249999X0.499999*%
%ADD31R,2.650000X1.000000*%
%ADD32C,0.499999*%
%ADD33RoundRect,0.250000X0.262500X0.450000X-0.262500X0.450000X-0.262500X-0.450000X0.262500X-0.450000X0*%
%ADD34RoundRect,0.102000X-1.250000X0.600000X-1.250000X-0.600000X1.250000X-0.600000X1.250000X0.600000X0*%
%ADD35RoundRect,0.200000X0.275000X-0.200000X0.275000X0.200000X-0.275000X0.200000X-0.275000X-0.200000X0*%
%ADD36RoundRect,0.102000X-0.900000X0.675000X-0.900000X-0.675000X0.900000X-0.675000X0.900000X0.675000X0*%
%ADD37RoundRect,0.085500X-0.751500X-0.256500X0.751500X-0.256500X0.751500X0.256500X-0.751500X0.256500X0*%
%ADD38RoundRect,0.218750X-0.381250X0.218750X-0.381250X-0.218750X0.381250X-0.218750X0.381250X0.218750X0*%
%ADD39C,0.600000*%
%ADD40O,1.104000X2.204000*%
%ADD41O,1.104000X1.904000*%
%ADD42RoundRect,0.225000X0.225000X0.250000X-0.225000X0.250000X-0.225000X-0.250000X0.225000X-0.250000X0*%
%ADD43RoundRect,0.102000X0.600000X-0.508000X0.600000X0.508000X-0.600000X0.508000X-0.600000X-0.508000X0*%
%ADD44RoundRect,0.243750X0.243750X0.456250X-0.243750X0.456250X-0.243750X-0.456250X0.243750X-0.456250X0*%
%ADD45R,0.900000X1.500000*%
%ADD46R,1.500000X0.900000*%
%ADD47R,3.800000X3.800000*%
%ADD48RoundRect,0.060500X-0.181500X0.776500X-0.181500X-0.776500X0.181500X-0.776500X0.181500X0.776500X0*%
%ADD49RoundRect,0.250000X-0.350000X-0.625000X0.350000X-0.625000X0.350000X0.625000X-0.350000X0.625000X0*%
%ADD50O,1.200000X1.750000*%
%ADD51RoundRect,0.225000X0.250000X-0.225000X0.250000X0.225000X-0.250000X0.225000X-0.250000X-0.225000X0*%
%ADD52RoundRect,0.225000X-0.225000X-0.250000X0.225000X-0.250000X0.225000X0.250000X-0.225000X0.250000X0*%
%ADD53RoundRect,0.102000X-0.600000X0.508000X-0.600000X-0.508000X0.600000X-0.508000X0.600000X0.508000X0*%
%ADD54RoundRect,0.150000X-0.825000X-0.150000X0.825000X-0.150000X0.825000X0.150000X-0.825000X0.150000X0*%
%ADD55RoundRect,0.150000X0.512500X0.150000X-0.512500X0.150000X-0.512500X-0.150000X0.512500X-0.150000X0*%
G04 APERTURE END LIST*
D10*
X77872419Y-83096115D02*
X78681942Y-83096115D01*
X78681942Y-83096115D02*
X78777180Y-83048496D01*
X78777180Y-83048496D02*
X78824800Y-83000877D01*
X78824800Y-83000877D02*
X78872419Y-82905639D01*
X78872419Y-82905639D02*
X78872419Y-82715163D01*
X78872419Y-82715163D02*
X78824800Y-82619925D01*
X78824800Y-82619925D02*
X78777180Y-82572306D01*
X78777180Y-82572306D02*
X78681942Y-82524687D01*
X78681942Y-82524687D02*
X77872419Y-82524687D01*
X78824800Y-82096115D02*
X78872419Y-81953258D01*
X78872419Y-81953258D02*
X78872419Y-81715163D01*
X78872419Y-81715163D02*
X78824800Y-81619925D01*
X78824800Y-81619925D02*
X78777180Y-81572306D01*
X78777180Y-81572306D02*
X78681942Y-81524687D01*
X78681942Y-81524687D02*
X78586704Y-81524687D01*
X78586704Y-81524687D02*
X78491466Y-81572306D01*
X78491466Y-81572306D02*
X78443847Y-81619925D01*
X78443847Y-81619925D02*
X78396228Y-81715163D01*
X78396228Y-81715163D02*
X78348609Y-81905639D01*
X78348609Y-81905639D02*
X78300990Y-82000877D01*
X78300990Y-82000877D02*
X78253371Y-82048496D01*
X78253371Y-82048496D02*
X78158133Y-82096115D01*
X78158133Y-82096115D02*
X78062895Y-82096115D01*
X78062895Y-82096115D02*
X77967657Y-82048496D01*
X77967657Y-82048496D02*
X77920038Y-82000877D01*
X77920038Y-82000877D02*
X77872419Y-81905639D01*
X77872419Y-81905639D02*
X77872419Y-81667544D01*
X77872419Y-81667544D02*
X77920038Y-81524687D01*
X78348609Y-80762782D02*
X78396228Y-80619925D01*
X78396228Y-80619925D02*
X78443847Y-80572306D01*
X78443847Y-80572306D02*
X78539085Y-80524687D01*
X78539085Y-80524687D02*
X78681942Y-80524687D01*
X78681942Y-80524687D02*
X78777180Y-80572306D01*
X78777180Y-80572306D02*
X78824800Y-80619925D01*
X78824800Y-80619925D02*
X78872419Y-80715163D01*
X78872419Y-80715163D02*
X78872419Y-81096115D01*
X78872419Y-81096115D02*
X77872419Y-81096115D01*
X77872419Y-81096115D02*
X77872419Y-80762782D01*
X77872419Y-80762782D02*
X77920038Y-80667544D01*
X77920038Y-80667544D02*
X77967657Y-80619925D01*
X77967657Y-80619925D02*
X78062895Y-80572306D01*
X78062895Y-80572306D02*
X78158133Y-80572306D01*
X78158133Y-80572306D02*
X78253371Y-80619925D01*
X78253371Y-80619925D02*
X78300990Y-80667544D01*
X78300990Y-80667544D02*
X78348609Y-80762782D01*
X78348609Y-80762782D02*
X78348609Y-81096115D01*
X79253371Y-79048496D02*
X79205752Y-79096115D01*
X79205752Y-79096115D02*
X79062895Y-79191353D01*
X79062895Y-79191353D02*
X78967657Y-79238972D01*
X78967657Y-79238972D02*
X78824800Y-79286591D01*
X78824800Y-79286591D02*
X78586704Y-79334210D01*
X78586704Y-79334210D02*
X78396228Y-79334210D01*
X78396228Y-79334210D02*
X78158133Y-79286591D01*
X78158133Y-79286591D02*
X78015276Y-79238972D01*
X78015276Y-79238972D02*
X77920038Y-79191353D01*
X77920038Y-79191353D02*
X77777180Y-79096115D01*
X77777180Y-79096115D02*
X77729561Y-79048496D01*
X77872419Y-78191353D02*
X77872419Y-78667543D01*
X77872419Y-78667543D02*
X78348609Y-78715162D01*
X78348609Y-78715162D02*
X78300990Y-78667543D01*
X78300990Y-78667543D02*
X78253371Y-78572305D01*
X78253371Y-78572305D02*
X78253371Y-78334210D01*
X78253371Y-78334210D02*
X78300990Y-78238972D01*
X78300990Y-78238972D02*
X78348609Y-78191353D01*
X78348609Y-78191353D02*
X78443847Y-78143734D01*
X78443847Y-78143734D02*
X78681942Y-78143734D01*
X78681942Y-78143734D02*
X78777180Y-78191353D01*
X78777180Y-78191353D02*
X78824800Y-78238972D01*
X78824800Y-78238972D02*
X78872419Y-78334210D01*
X78872419Y-78334210D02*
X78872419Y-78572305D01*
X78872419Y-78572305D02*
X78824800Y-78667543D01*
X78824800Y-78667543D02*
X78777180Y-78715162D01*
X77872419Y-77858019D02*
X78872419Y-77524686D01*
X78872419Y-77524686D02*
X77872419Y-77191353D01*
X79253371Y-76953257D02*
X79205752Y-76905638D01*
X79205752Y-76905638D02*
X79062895Y-76810400D01*
X79062895Y-76810400D02*
X78967657Y-76762781D01*
X78967657Y-76762781D02*
X78824800Y-76715162D01*
X78824800Y-76715162D02*
X78586704Y-76667543D01*
X78586704Y-76667543D02*
X78396228Y-76667543D01*
X78396228Y-76667543D02*
X78158133Y-76715162D01*
X78158133Y-76715162D02*
X78015276Y-76762781D01*
X78015276Y-76762781D02*
X77920038Y-76810400D01*
X77920038Y-76810400D02*
X77777180Y-76905638D01*
X77777180Y-76905638D02*
X77729561Y-76953257D01*
X77824800Y-74715162D02*
X79110514Y-75572304D01*
X78872419Y-73143733D02*
X78872419Y-73619923D01*
X78872419Y-73619923D02*
X77872419Y-73619923D01*
X78872419Y-72810399D02*
X78205752Y-72810399D01*
X77872419Y-72810399D02*
X77920038Y-72858018D01*
X77920038Y-72858018D02*
X77967657Y-72810399D01*
X77967657Y-72810399D02*
X77920038Y-72762780D01*
X77920038Y-72762780D02*
X77872419Y-72810399D01*
X77872419Y-72810399D02*
X77967657Y-72810399D01*
X78872419Y-72334209D02*
X77872419Y-72334209D01*
X77872419Y-72334209D02*
X77872419Y-71953257D01*
X77872419Y-71953257D02*
X77920038Y-71858019D01*
X77920038Y-71858019D02*
X77967657Y-71810400D01*
X77967657Y-71810400D02*
X78062895Y-71762781D01*
X78062895Y-71762781D02*
X78205752Y-71762781D01*
X78205752Y-71762781D02*
X78300990Y-71810400D01*
X78300990Y-71810400D02*
X78348609Y-71858019D01*
X78348609Y-71858019D02*
X78396228Y-71953257D01*
X78396228Y-71953257D02*
X78396228Y-72334209D01*
X78872419Y-71191352D02*
X78824800Y-71286590D01*
X78824800Y-71286590D02*
X78777180Y-71334209D01*
X78777180Y-71334209D02*
X78681942Y-71381828D01*
X78681942Y-71381828D02*
X78396228Y-71381828D01*
X78396228Y-71381828D02*
X78300990Y-71334209D01*
X78300990Y-71334209D02*
X78253371Y-71286590D01*
X78253371Y-71286590D02*
X78205752Y-71191352D01*
X78205752Y-71191352D02*
X78205752Y-71048495D01*
X78205752Y-71048495D02*
X78253371Y-70953257D01*
X78253371Y-70953257D02*
X78300990Y-70905638D01*
X78300990Y-70905638D02*
X78396228Y-70858019D01*
X78396228Y-70858019D02*
X78681942Y-70858019D01*
X78681942Y-70858019D02*
X78777180Y-70905638D01*
X78777180Y-70905638D02*
X78824800Y-70953257D01*
X78824800Y-70953257D02*
X78872419Y-71048495D01*
X78872419Y-71048495D02*
X78872419Y-71191352D01*
X79253371Y-69381828D02*
X79205752Y-69429447D01*
X79205752Y-69429447D02*
X79062895Y-69524685D01*
X79062895Y-69524685D02*
X78967657Y-69572304D01*
X78967657Y-69572304D02*
X78824800Y-69619923D01*
X78824800Y-69619923D02*
X78586704Y-69667542D01*
X78586704Y-69667542D02*
X78396228Y-69667542D01*
X78396228Y-69667542D02*
X78158133Y-69619923D01*
X78158133Y-69619923D02*
X78015276Y-69572304D01*
X78015276Y-69572304D02*
X77920038Y-69524685D01*
X77920038Y-69524685D02*
X77777180Y-69429447D01*
X77777180Y-69429447D02*
X77729561Y-69381828D01*
X77872419Y-69096113D02*
X77872419Y-68477066D01*
X77872419Y-68477066D02*
X78253371Y-68810399D01*
X78253371Y-68810399D02*
X78253371Y-68667542D01*
X78253371Y-68667542D02*
X78300990Y-68572304D01*
X78300990Y-68572304D02*
X78348609Y-68524685D01*
X78348609Y-68524685D02*
X78443847Y-68477066D01*
X78443847Y-68477066D02*
X78681942Y-68477066D01*
X78681942Y-68477066D02*
X78777180Y-68524685D01*
X78777180Y-68524685D02*
X78824800Y-68572304D01*
X78824800Y-68572304D02*
X78872419Y-68667542D01*
X78872419Y-68667542D02*
X78872419Y-68953256D01*
X78872419Y-68953256D02*
X78824800Y-69048494D01*
X78824800Y-69048494D02*
X78777180Y-69096113D01*
X78777180Y-68048494D02*
X78824800Y-68000875D01*
X78824800Y-68000875D02*
X78872419Y-68048494D01*
X78872419Y-68048494D02*
X78824800Y-68096113D01*
X78824800Y-68096113D02*
X78777180Y-68048494D01*
X78777180Y-68048494D02*
X78872419Y-68048494D01*
X77872419Y-67667542D02*
X77872419Y-67000876D01*
X77872419Y-67000876D02*
X78872419Y-67429447D01*
X77872419Y-66762780D02*
X78872419Y-66429447D01*
X78872419Y-66429447D02*
X77872419Y-66096114D01*
X79253371Y-65858018D02*
X79205752Y-65810399D01*
X79205752Y-65810399D02*
X79062895Y-65715161D01*
X79062895Y-65715161D02*
X78967657Y-65667542D01*
X78967657Y-65667542D02*
X78824800Y-65619923D01*
X78824800Y-65619923D02*
X78586704Y-65572304D01*
X78586704Y-65572304D02*
X78396228Y-65572304D01*
X78396228Y-65572304D02*
X78158133Y-65619923D01*
X78158133Y-65619923D02*
X78015276Y-65667542D01*
X78015276Y-65667542D02*
X77920038Y-65715161D01*
X77920038Y-65715161D02*
X77777180Y-65810399D01*
X77777180Y-65810399D02*
X77729561Y-65858018D01*
X105572419Y-46519925D02*
X105572419Y-46996115D01*
X105572419Y-46996115D02*
X106048609Y-47043734D01*
X106048609Y-47043734D02*
X106000990Y-46996115D01*
X106000990Y-46996115D02*
X105953371Y-46900877D01*
X105953371Y-46900877D02*
X105953371Y-46662782D01*
X105953371Y-46662782D02*
X106000990Y-46567544D01*
X106000990Y-46567544D02*
X106048609Y-46519925D01*
X106048609Y-46519925D02*
X106143847Y-46472306D01*
X106143847Y-46472306D02*
X106381942Y-46472306D01*
X106381942Y-46472306D02*
X106477180Y-46519925D01*
X106477180Y-46519925D02*
X106524800Y-46567544D01*
X106524800Y-46567544D02*
X106572419Y-46662782D01*
X106572419Y-46662782D02*
X106572419Y-46900877D01*
X106572419Y-46900877D02*
X106524800Y-46996115D01*
X106524800Y-46996115D02*
X106477180Y-47043734D01*
X105572419Y-45853258D02*
X105572419Y-45758020D01*
X105572419Y-45758020D02*
X105620038Y-45662782D01*
X105620038Y-45662782D02*
X105667657Y-45615163D01*
X105667657Y-45615163D02*
X105762895Y-45567544D01*
X105762895Y-45567544D02*
X105953371Y-45519925D01*
X105953371Y-45519925D02*
X106191466Y-45519925D01*
X106191466Y-45519925D02*
X106381942Y-45567544D01*
X106381942Y-45567544D02*
X106477180Y-45615163D01*
X106477180Y-45615163D02*
X106524800Y-45662782D01*
X106524800Y-45662782D02*
X106572419Y-45758020D01*
X106572419Y-45758020D02*
X106572419Y-45853258D01*
X106572419Y-45853258D02*
X106524800Y-45948496D01*
X106524800Y-45948496D02*
X106477180Y-45996115D01*
X106477180Y-45996115D02*
X106381942Y-46043734D01*
X106381942Y-46043734D02*
X106191466Y-46091353D01*
X106191466Y-46091353D02*
X105953371Y-46091353D01*
X105953371Y-46091353D02*
X105762895Y-46043734D01*
X105762895Y-46043734D02*
X105667657Y-45996115D01*
X105667657Y-45996115D02*
X105620038Y-45948496D01*
X105620038Y-45948496D02*
X105572419Y-45853258D01*
X105572419Y-44900877D02*
X105572419Y-44805639D01*
X105572419Y-44805639D02*
X105620038Y-44710401D01*
X105620038Y-44710401D02*
X105667657Y-44662782D01*
X105667657Y-44662782D02*
X105762895Y-44615163D01*
X105762895Y-44615163D02*
X105953371Y-44567544D01*
X105953371Y-44567544D02*
X106191466Y-44567544D01*
X106191466Y-44567544D02*
X106381942Y-44615163D01*
X106381942Y-44615163D02*
X106477180Y-44662782D01*
X106477180Y-44662782D02*
X106524800Y-44710401D01*
X106524800Y-44710401D02*
X106572419Y-44805639D01*
X106572419Y-44805639D02*
X106572419Y-44900877D01*
X106572419Y-44900877D02*
X106524800Y-44996115D01*
X106524800Y-44996115D02*
X106477180Y-45043734D01*
X106477180Y-45043734D02*
X106381942Y-45091353D01*
X106381942Y-45091353D02*
X106191466Y-45138972D01*
X106191466Y-45138972D02*
X105953371Y-45138972D01*
X105953371Y-45138972D02*
X105762895Y-45091353D01*
X105762895Y-45091353D02*
X105667657Y-45043734D01*
X105667657Y-45043734D02*
X105620038Y-44996115D01*
X105620038Y-44996115D02*
X105572419Y-44900877D01*
X105524800Y-43424687D02*
X106810514Y-44281829D01*
X106572419Y-42567544D02*
X106572419Y-43138972D01*
X106572419Y-42853258D02*
X105572419Y-42853258D01*
X105572419Y-42853258D02*
X105715276Y-42948496D01*
X105715276Y-42948496D02*
X105810514Y-43043734D01*
X105810514Y-43043734D02*
X105858133Y-43138972D01*
X105572419Y-41948496D02*
X105572419Y-41853258D01*
X105572419Y-41853258D02*
X105620038Y-41758020D01*
X105620038Y-41758020D02*
X105667657Y-41710401D01*
X105667657Y-41710401D02*
X105762895Y-41662782D01*
X105762895Y-41662782D02*
X105953371Y-41615163D01*
X105953371Y-41615163D02*
X106191466Y-41615163D01*
X106191466Y-41615163D02*
X106381942Y-41662782D01*
X106381942Y-41662782D02*
X106477180Y-41710401D01*
X106477180Y-41710401D02*
X106524800Y-41758020D01*
X106524800Y-41758020D02*
X106572419Y-41853258D01*
X106572419Y-41853258D02*
X106572419Y-41948496D01*
X106572419Y-41948496D02*
X106524800Y-42043734D01*
X106524800Y-42043734D02*
X106477180Y-42091353D01*
X106477180Y-42091353D02*
X106381942Y-42138972D01*
X106381942Y-42138972D02*
X106191466Y-42186591D01*
X106191466Y-42186591D02*
X105953371Y-42186591D01*
X105953371Y-42186591D02*
X105762895Y-42138972D01*
X105762895Y-42138972D02*
X105667657Y-42091353D01*
X105667657Y-42091353D02*
X105620038Y-42043734D01*
X105620038Y-42043734D02*
X105572419Y-41948496D01*
X105572419Y-40996115D02*
X105572419Y-40900877D01*
X105572419Y-40900877D02*
X105620038Y-40805639D01*
X105620038Y-40805639D02*
X105667657Y-40758020D01*
X105667657Y-40758020D02*
X105762895Y-40710401D01*
X105762895Y-40710401D02*
X105953371Y-40662782D01*
X105953371Y-40662782D02*
X106191466Y-40662782D01*
X106191466Y-40662782D02*
X106381942Y-40710401D01*
X106381942Y-40710401D02*
X106477180Y-40758020D01*
X106477180Y-40758020D02*
X106524800Y-40805639D01*
X106524800Y-40805639D02*
X106572419Y-40900877D01*
X106572419Y-40900877D02*
X106572419Y-40996115D01*
X106572419Y-40996115D02*
X106524800Y-41091353D01*
X106524800Y-41091353D02*
X106477180Y-41138972D01*
X106477180Y-41138972D02*
X106381942Y-41186591D01*
X106381942Y-41186591D02*
X106191466Y-41234210D01*
X106191466Y-41234210D02*
X105953371Y-41234210D01*
X105953371Y-41234210D02*
X105762895Y-41186591D01*
X105762895Y-41186591D02*
X105667657Y-41138972D01*
X105667657Y-41138972D02*
X105620038Y-41091353D01*
X105620038Y-41091353D02*
X105572419Y-40996115D01*
X105572419Y-40043734D02*
X105572419Y-39948496D01*
X105572419Y-39948496D02*
X105620038Y-39853258D01*
X105620038Y-39853258D02*
X105667657Y-39805639D01*
X105667657Y-39805639D02*
X105762895Y-39758020D01*
X105762895Y-39758020D02*
X105953371Y-39710401D01*
X105953371Y-39710401D02*
X106191466Y-39710401D01*
X106191466Y-39710401D02*
X106381942Y-39758020D01*
X106381942Y-39758020D02*
X106477180Y-39805639D01*
X106477180Y-39805639D02*
X106524800Y-39853258D01*
X106524800Y-39853258D02*
X106572419Y-39948496D01*
X106572419Y-39948496D02*
X106572419Y-40043734D01*
X106572419Y-40043734D02*
X106524800Y-40138972D01*
X106524800Y-40138972D02*
X106477180Y-40186591D01*
X106477180Y-40186591D02*
X106381942Y-40234210D01*
X106381942Y-40234210D02*
X106191466Y-40281829D01*
X106191466Y-40281829D02*
X105953371Y-40281829D01*
X105953371Y-40281829D02*
X105762895Y-40234210D01*
X105762895Y-40234210D02*
X105667657Y-40186591D01*
X105667657Y-40186591D02*
X105620038Y-40138972D01*
X105620038Y-40138972D02*
X105572419Y-40043734D01*
X105472419Y-37019925D02*
X105472419Y-37496115D01*
X105472419Y-37496115D02*
X105948609Y-37543734D01*
X105948609Y-37543734D02*
X105900990Y-37496115D01*
X105900990Y-37496115D02*
X105853371Y-37400877D01*
X105853371Y-37400877D02*
X105853371Y-37162782D01*
X105853371Y-37162782D02*
X105900990Y-37067544D01*
X105900990Y-37067544D02*
X105948609Y-37019925D01*
X105948609Y-37019925D02*
X106043847Y-36972306D01*
X106043847Y-36972306D02*
X106281942Y-36972306D01*
X106281942Y-36972306D02*
X106377180Y-37019925D01*
X106377180Y-37019925D02*
X106424800Y-37067544D01*
X106424800Y-37067544D02*
X106472419Y-37162782D01*
X106472419Y-37162782D02*
X106472419Y-37400877D01*
X106472419Y-37400877D02*
X106424800Y-37496115D01*
X106424800Y-37496115D02*
X106377180Y-37543734D01*
X105472419Y-36353258D02*
X105472419Y-36258020D01*
X105472419Y-36258020D02*
X105520038Y-36162782D01*
X105520038Y-36162782D02*
X105567657Y-36115163D01*
X105567657Y-36115163D02*
X105662895Y-36067544D01*
X105662895Y-36067544D02*
X105853371Y-36019925D01*
X105853371Y-36019925D02*
X106091466Y-36019925D01*
X106091466Y-36019925D02*
X106281942Y-36067544D01*
X106281942Y-36067544D02*
X106377180Y-36115163D01*
X106377180Y-36115163D02*
X106424800Y-36162782D01*
X106424800Y-36162782D02*
X106472419Y-36258020D01*
X106472419Y-36258020D02*
X106472419Y-36353258D01*
X106472419Y-36353258D02*
X106424800Y-36448496D01*
X106424800Y-36448496D02*
X106377180Y-36496115D01*
X106377180Y-36496115D02*
X106281942Y-36543734D01*
X106281942Y-36543734D02*
X106091466Y-36591353D01*
X106091466Y-36591353D02*
X105853371Y-36591353D01*
X105853371Y-36591353D02*
X105662895Y-36543734D01*
X105662895Y-36543734D02*
X105567657Y-36496115D01*
X105567657Y-36496115D02*
X105520038Y-36448496D01*
X105520038Y-36448496D02*
X105472419Y-36353258D01*
X105472419Y-35400877D02*
X105472419Y-35305639D01*
X105472419Y-35305639D02*
X105520038Y-35210401D01*
X105520038Y-35210401D02*
X105567657Y-35162782D01*
X105567657Y-35162782D02*
X105662895Y-35115163D01*
X105662895Y-35115163D02*
X105853371Y-35067544D01*
X105853371Y-35067544D02*
X106091466Y-35067544D01*
X106091466Y-35067544D02*
X106281942Y-35115163D01*
X106281942Y-35115163D02*
X106377180Y-35162782D01*
X106377180Y-35162782D02*
X106424800Y-35210401D01*
X106424800Y-35210401D02*
X106472419Y-35305639D01*
X106472419Y-35305639D02*
X106472419Y-35400877D01*
X106472419Y-35400877D02*
X106424800Y-35496115D01*
X106424800Y-35496115D02*
X106377180Y-35543734D01*
X106377180Y-35543734D02*
X106281942Y-35591353D01*
X106281942Y-35591353D02*
X106091466Y-35638972D01*
X106091466Y-35638972D02*
X105853371Y-35638972D01*
X105853371Y-35638972D02*
X105662895Y-35591353D01*
X105662895Y-35591353D02*
X105567657Y-35543734D01*
X105567657Y-35543734D02*
X105520038Y-35496115D01*
X105520038Y-35496115D02*
X105472419Y-35400877D01*
X105424800Y-33924687D02*
X106710514Y-34781829D01*
X106472419Y-33067544D02*
X106472419Y-33638972D01*
X106472419Y-33353258D02*
X105472419Y-33353258D01*
X105472419Y-33353258D02*
X105615276Y-33448496D01*
X105615276Y-33448496D02*
X105710514Y-33543734D01*
X105710514Y-33543734D02*
X105758133Y-33638972D01*
X105472419Y-32448496D02*
X105472419Y-32353258D01*
X105472419Y-32353258D02*
X105520038Y-32258020D01*
X105520038Y-32258020D02*
X105567657Y-32210401D01*
X105567657Y-32210401D02*
X105662895Y-32162782D01*
X105662895Y-32162782D02*
X105853371Y-32115163D01*
X105853371Y-32115163D02*
X106091466Y-32115163D01*
X106091466Y-32115163D02*
X106281942Y-32162782D01*
X106281942Y-32162782D02*
X106377180Y-32210401D01*
X106377180Y-32210401D02*
X106424800Y-32258020D01*
X106424800Y-32258020D02*
X106472419Y-32353258D01*
X106472419Y-32353258D02*
X106472419Y-32448496D01*
X106472419Y-32448496D02*
X106424800Y-32543734D01*
X106424800Y-32543734D02*
X106377180Y-32591353D01*
X106377180Y-32591353D02*
X106281942Y-32638972D01*
X106281942Y-32638972D02*
X106091466Y-32686591D01*
X106091466Y-32686591D02*
X105853371Y-32686591D01*
X105853371Y-32686591D02*
X105662895Y-32638972D01*
X105662895Y-32638972D02*
X105567657Y-32591353D01*
X105567657Y-32591353D02*
X105520038Y-32543734D01*
X105520038Y-32543734D02*
X105472419Y-32448496D01*
X105472419Y-31496115D02*
X105472419Y-31400877D01*
X105472419Y-31400877D02*
X105520038Y-31305639D01*
X105520038Y-31305639D02*
X105567657Y-31258020D01*
X105567657Y-31258020D02*
X105662895Y-31210401D01*
X105662895Y-31210401D02*
X105853371Y-31162782D01*
X105853371Y-31162782D02*
X106091466Y-31162782D01*
X106091466Y-31162782D02*
X106281942Y-31210401D01*
X106281942Y-31210401D02*
X106377180Y-31258020D01*
X106377180Y-31258020D02*
X106424800Y-31305639D01*
X106424800Y-31305639D02*
X106472419Y-31400877D01*
X106472419Y-31400877D02*
X106472419Y-31496115D01*
X106472419Y-31496115D02*
X106424800Y-31591353D01*
X106424800Y-31591353D02*
X106377180Y-31638972D01*
X106377180Y-31638972D02*
X106281942Y-31686591D01*
X106281942Y-31686591D02*
X106091466Y-31734210D01*
X106091466Y-31734210D02*
X105853371Y-31734210D01*
X105853371Y-31734210D02*
X105662895Y-31686591D01*
X105662895Y-31686591D02*
X105567657Y-31638972D01*
X105567657Y-31638972D02*
X105520038Y-31591353D01*
X105520038Y-31591353D02*
X105472419Y-31496115D01*
X105472419Y-30543734D02*
X105472419Y-30448496D01*
X105472419Y-30448496D02*
X105520038Y-30353258D01*
X105520038Y-30353258D02*
X105567657Y-30305639D01*
X105567657Y-30305639D02*
X105662895Y-30258020D01*
X105662895Y-30258020D02*
X105853371Y-30210401D01*
X105853371Y-30210401D02*
X106091466Y-30210401D01*
X106091466Y-30210401D02*
X106281942Y-30258020D01*
X106281942Y-30258020D02*
X106377180Y-30305639D01*
X106377180Y-30305639D02*
X106424800Y-30353258D01*
X106424800Y-30353258D02*
X106472419Y-30448496D01*
X106472419Y-30448496D02*
X106472419Y-30543734D01*
X106472419Y-30543734D02*
X106424800Y-30638972D01*
X106424800Y-30638972D02*
X106377180Y-30686591D01*
X106377180Y-30686591D02*
X106281942Y-30734210D01*
X106281942Y-30734210D02*
X106091466Y-30781829D01*
X106091466Y-30781829D02*
X105853371Y-30781829D01*
X105853371Y-30781829D02*
X105662895Y-30734210D01*
X105662895Y-30734210D02*
X105567657Y-30686591D01*
X105567657Y-30686591D02*
X105520038Y-30638972D01*
X105520038Y-30638972D02*
X105472419Y-30543734D01*
X113672419Y-46353258D02*
X113624800Y-46448496D01*
X113624800Y-46448496D02*
X113577180Y-46496115D01*
X113577180Y-46496115D02*
X113481942Y-46543734D01*
X113481942Y-46543734D02*
X113196228Y-46543734D01*
X113196228Y-46543734D02*
X113100990Y-46496115D01*
X113100990Y-46496115D02*
X113053371Y-46448496D01*
X113053371Y-46448496D02*
X113005752Y-46353258D01*
X113005752Y-46353258D02*
X113005752Y-46210401D01*
X113005752Y-46210401D02*
X113053371Y-46115163D01*
X113053371Y-46115163D02*
X113100990Y-46067544D01*
X113100990Y-46067544D02*
X113196228Y-46019925D01*
X113196228Y-46019925D02*
X113481942Y-46019925D01*
X113481942Y-46019925D02*
X113577180Y-46067544D01*
X113577180Y-46067544D02*
X113624800Y-46115163D01*
X113624800Y-46115163D02*
X113672419Y-46210401D01*
X113672419Y-46210401D02*
X113672419Y-46353258D01*
X113005752Y-45591353D02*
X113672419Y-45591353D01*
X113100990Y-45591353D02*
X113053371Y-45543734D01*
X113053371Y-45543734D02*
X113005752Y-45448496D01*
X113005752Y-45448496D02*
X113005752Y-45305639D01*
X113005752Y-45305639D02*
X113053371Y-45210401D01*
X113053371Y-45210401D02*
X113148609Y-45162782D01*
X113148609Y-45162782D02*
X113672419Y-45162782D01*
X112624800Y-43210401D02*
X113910514Y-44067543D01*
X113672419Y-41972305D02*
X113624800Y-42067543D01*
X113624800Y-42067543D02*
X113577180Y-42115162D01*
X113577180Y-42115162D02*
X113481942Y-42162781D01*
X113481942Y-42162781D02*
X113196228Y-42162781D01*
X113196228Y-42162781D02*
X113100990Y-42115162D01*
X113100990Y-42115162D02*
X113053371Y-42067543D01*
X113053371Y-42067543D02*
X113005752Y-41972305D01*
X113005752Y-41972305D02*
X113005752Y-41829448D01*
X113005752Y-41829448D02*
X113053371Y-41734210D01*
X113053371Y-41734210D02*
X113100990Y-41686591D01*
X113100990Y-41686591D02*
X113196228Y-41638972D01*
X113196228Y-41638972D02*
X113481942Y-41638972D01*
X113481942Y-41638972D02*
X113577180Y-41686591D01*
X113577180Y-41686591D02*
X113624800Y-41734210D01*
X113624800Y-41734210D02*
X113672419Y-41829448D01*
X113672419Y-41829448D02*
X113672419Y-41972305D01*
X113005752Y-41353257D02*
X113005752Y-40972305D01*
X113672419Y-41210400D02*
X112815276Y-41210400D01*
X112815276Y-41210400D02*
X112720038Y-41162781D01*
X112720038Y-41162781D02*
X112672419Y-41067543D01*
X112672419Y-41067543D02*
X112672419Y-40972305D01*
X113005752Y-40781828D02*
X113005752Y-40400876D01*
X113672419Y-40638971D02*
X112815276Y-40638971D01*
X112815276Y-40638971D02*
X112720038Y-40591352D01*
X112720038Y-40591352D02*
X112672419Y-40496114D01*
X112672419Y-40496114D02*
X112672419Y-40400876D01*
X19404680Y-35337544D02*
X19452300Y-35370877D01*
X19452300Y-35370877D02*
X19499919Y-35470877D01*
X19499919Y-35470877D02*
X19499919Y-35537544D01*
X19499919Y-35537544D02*
X19452300Y-35637544D01*
X19452300Y-35637544D02*
X19357061Y-35704211D01*
X19357061Y-35704211D02*
X19261823Y-35737544D01*
X19261823Y-35737544D02*
X19071347Y-35770877D01*
X19071347Y-35770877D02*
X18928490Y-35770877D01*
X18928490Y-35770877D02*
X18738014Y-35737544D01*
X18738014Y-35737544D02*
X18642776Y-35704211D01*
X18642776Y-35704211D02*
X18547538Y-35637544D01*
X18547538Y-35637544D02*
X18499919Y-35537544D01*
X18499919Y-35537544D02*
X18499919Y-35470877D01*
X18499919Y-35470877D02*
X18547538Y-35370877D01*
X18547538Y-35370877D02*
X18595157Y-35337544D01*
X19499919Y-35037544D02*
X18499919Y-35037544D01*
X19499919Y-34737544D02*
X18976109Y-34737544D01*
X18976109Y-34737544D02*
X18880871Y-34770877D01*
X18880871Y-34770877D02*
X18833252Y-34837544D01*
X18833252Y-34837544D02*
X18833252Y-34937544D01*
X18833252Y-34937544D02*
X18880871Y-35004211D01*
X18880871Y-35004211D02*
X18928490Y-35037544D01*
X18833252Y-34104211D02*
X19499919Y-34104211D01*
X18452300Y-34270878D02*
X19166585Y-34437544D01*
X19166585Y-34437544D02*
X19166585Y-34004211D01*
X19833252Y-33570877D02*
X18404680Y-33570877D01*
X19404680Y-32670877D02*
X19452300Y-32704210D01*
X19452300Y-32704210D02*
X19499919Y-32804210D01*
X19499919Y-32804210D02*
X19499919Y-32870877D01*
X19499919Y-32870877D02*
X19452300Y-32970877D01*
X19452300Y-32970877D02*
X19357061Y-33037544D01*
X19357061Y-33037544D02*
X19261823Y-33070877D01*
X19261823Y-33070877D02*
X19071347Y-33104210D01*
X19071347Y-33104210D02*
X18928490Y-33104210D01*
X18928490Y-33104210D02*
X18738014Y-33070877D01*
X18738014Y-33070877D02*
X18642776Y-33037544D01*
X18642776Y-33037544D02*
X18547538Y-32970877D01*
X18547538Y-32970877D02*
X18499919Y-32870877D01*
X18499919Y-32870877D02*
X18499919Y-32804210D01*
X18499919Y-32804210D02*
X18547538Y-32704210D01*
X18547538Y-32704210D02*
X18595157Y-32670877D01*
X19499919Y-32370877D02*
X18499919Y-32370877D01*
X19499919Y-32070877D02*
X18976109Y-32070877D01*
X18976109Y-32070877D02*
X18880871Y-32104210D01*
X18880871Y-32104210D02*
X18833252Y-32170877D01*
X18833252Y-32170877D02*
X18833252Y-32270877D01*
X18833252Y-32270877D02*
X18880871Y-32337544D01*
X18880871Y-32337544D02*
X18928490Y-32370877D01*
X18499919Y-31804211D02*
X18499919Y-31370877D01*
X18499919Y-31370877D02*
X18880871Y-31604211D01*
X18880871Y-31604211D02*
X18880871Y-31504211D01*
X18880871Y-31504211D02*
X18928490Y-31437544D01*
X18928490Y-31437544D02*
X18976109Y-31404211D01*
X18976109Y-31404211D02*
X19071347Y-31370877D01*
X19071347Y-31370877D02*
X19309442Y-31370877D01*
X19309442Y-31370877D02*
X19404680Y-31404211D01*
X19404680Y-31404211D02*
X19452300Y-31437544D01*
X19452300Y-31437544D02*
X19499919Y-31504211D01*
X19499919Y-31504211D02*
X19499919Y-31704211D01*
X19499919Y-31704211D02*
X19452300Y-31770877D01*
X19452300Y-31770877D02*
X19404680Y-31804211D01*
X19833252Y-30904210D02*
X18404680Y-30904210D01*
X19404680Y-30004210D02*
X19452300Y-30037543D01*
X19452300Y-30037543D02*
X19499919Y-30137543D01*
X19499919Y-30137543D02*
X19499919Y-30204210D01*
X19499919Y-30204210D02*
X19452300Y-30304210D01*
X19452300Y-30304210D02*
X19357061Y-30370877D01*
X19357061Y-30370877D02*
X19261823Y-30404210D01*
X19261823Y-30404210D02*
X19071347Y-30437543D01*
X19071347Y-30437543D02*
X18928490Y-30437543D01*
X18928490Y-30437543D02*
X18738014Y-30404210D01*
X18738014Y-30404210D02*
X18642776Y-30370877D01*
X18642776Y-30370877D02*
X18547538Y-30304210D01*
X18547538Y-30304210D02*
X18499919Y-30204210D01*
X18499919Y-30204210D02*
X18499919Y-30137543D01*
X18499919Y-30137543D02*
X18547538Y-30037543D01*
X18547538Y-30037543D02*
X18595157Y-30004210D01*
X19499919Y-29704210D02*
X18499919Y-29704210D01*
X19499919Y-29404210D02*
X18976109Y-29404210D01*
X18976109Y-29404210D02*
X18880871Y-29437543D01*
X18880871Y-29437543D02*
X18833252Y-29504210D01*
X18833252Y-29504210D02*
X18833252Y-29604210D01*
X18833252Y-29604210D02*
X18880871Y-29670877D01*
X18880871Y-29670877D02*
X18928490Y-29704210D01*
X18595157Y-29104210D02*
X18547538Y-29070877D01*
X18547538Y-29070877D02*
X18499919Y-29004210D01*
X18499919Y-29004210D02*
X18499919Y-28837544D01*
X18499919Y-28837544D02*
X18547538Y-28770877D01*
X18547538Y-28770877D02*
X18595157Y-28737544D01*
X18595157Y-28737544D02*
X18690395Y-28704210D01*
X18690395Y-28704210D02*
X18785633Y-28704210D01*
X18785633Y-28704210D02*
X18928490Y-28737544D01*
X18928490Y-28737544D02*
X19499919Y-29137544D01*
X19499919Y-29137544D02*
X19499919Y-28704210D01*
X19833252Y-28237543D02*
X18404680Y-28237543D01*
X19404680Y-27337543D02*
X19452300Y-27370876D01*
X19452300Y-27370876D02*
X19499919Y-27470876D01*
X19499919Y-27470876D02*
X19499919Y-27537543D01*
X19499919Y-27537543D02*
X19452300Y-27637543D01*
X19452300Y-27637543D02*
X19357061Y-27704210D01*
X19357061Y-27704210D02*
X19261823Y-27737543D01*
X19261823Y-27737543D02*
X19071347Y-27770876D01*
X19071347Y-27770876D02*
X18928490Y-27770876D01*
X18928490Y-27770876D02*
X18738014Y-27737543D01*
X18738014Y-27737543D02*
X18642776Y-27704210D01*
X18642776Y-27704210D02*
X18547538Y-27637543D01*
X18547538Y-27637543D02*
X18499919Y-27537543D01*
X18499919Y-27537543D02*
X18499919Y-27470876D01*
X18499919Y-27470876D02*
X18547538Y-27370876D01*
X18547538Y-27370876D02*
X18595157Y-27337543D01*
X19499919Y-27037543D02*
X18499919Y-27037543D01*
X19499919Y-26737543D02*
X18976109Y-26737543D01*
X18976109Y-26737543D02*
X18880871Y-26770876D01*
X18880871Y-26770876D02*
X18833252Y-26837543D01*
X18833252Y-26837543D02*
X18833252Y-26937543D01*
X18833252Y-26937543D02*
X18880871Y-27004210D01*
X18880871Y-27004210D02*
X18928490Y-27037543D01*
X19499919Y-26037543D02*
X19499919Y-26437543D01*
X19499919Y-26237543D02*
X18499919Y-26237543D01*
X18499919Y-26237543D02*
X18642776Y-26304210D01*
X18642776Y-26304210D02*
X18738014Y-26370877D01*
X18738014Y-26370877D02*
X18785633Y-26437543D01*
X19833252Y-25570876D02*
X18404680Y-25570876D01*
X19499919Y-24670876D02*
X19023728Y-24904209D01*
X19499919Y-25070876D02*
X18499919Y-25070876D01*
X18499919Y-25070876D02*
X18499919Y-24804209D01*
X18499919Y-24804209D02*
X18547538Y-24737543D01*
X18547538Y-24737543D02*
X18595157Y-24704209D01*
X18595157Y-24704209D02*
X18690395Y-24670876D01*
X18690395Y-24670876D02*
X18833252Y-24670876D01*
X18833252Y-24670876D02*
X18928490Y-24704209D01*
X18928490Y-24704209D02*
X18976109Y-24737543D01*
X18976109Y-24737543D02*
X19023728Y-24804209D01*
X19023728Y-24804209D02*
X19023728Y-25070876D01*
X19452300Y-24104209D02*
X19499919Y-24170876D01*
X19499919Y-24170876D02*
X19499919Y-24304209D01*
X19499919Y-24304209D02*
X19452300Y-24370876D01*
X19452300Y-24370876D02*
X19357061Y-24404209D01*
X19357061Y-24404209D02*
X18976109Y-24404209D01*
X18976109Y-24404209D02*
X18880871Y-24370876D01*
X18880871Y-24370876D02*
X18833252Y-24304209D01*
X18833252Y-24304209D02*
X18833252Y-24170876D01*
X18833252Y-24170876D02*
X18880871Y-24104209D01*
X18880871Y-24104209D02*
X18976109Y-24070876D01*
X18976109Y-24070876D02*
X19071347Y-24070876D01*
X19071347Y-24070876D02*
X19166585Y-24404209D01*
X18833252Y-23870876D02*
X18833252Y-23604209D01*
X19499919Y-23770876D02*
X18642776Y-23770876D01*
X18642776Y-23770876D02*
X18547538Y-23737543D01*
X18547538Y-23737543D02*
X18499919Y-23670876D01*
X18499919Y-23670876D02*
X18499919Y-23604209D01*
X19833252Y-23204209D02*
X18404680Y-23204209D01*
X19499919Y-22704209D02*
X18499919Y-22704209D01*
X18499919Y-22704209D02*
X18499919Y-22537542D01*
X18499919Y-22537542D02*
X18547538Y-22437542D01*
X18547538Y-22437542D02*
X18642776Y-22370876D01*
X18642776Y-22370876D02*
X18738014Y-22337542D01*
X18738014Y-22337542D02*
X18928490Y-22304209D01*
X18928490Y-22304209D02*
X19071347Y-22304209D01*
X19071347Y-22304209D02*
X19261823Y-22337542D01*
X19261823Y-22337542D02*
X19357061Y-22370876D01*
X19357061Y-22370876D02*
X19452300Y-22437542D01*
X19452300Y-22437542D02*
X19499919Y-22537542D01*
X19499919Y-22537542D02*
X19499919Y-22704209D01*
X19499919Y-21604209D02*
X19023728Y-21837542D01*
X19499919Y-22004209D02*
X18499919Y-22004209D01*
X18499919Y-22004209D02*
X18499919Y-21737542D01*
X18499919Y-21737542D02*
X18547538Y-21670876D01*
X18547538Y-21670876D02*
X18595157Y-21637542D01*
X18595157Y-21637542D02*
X18690395Y-21604209D01*
X18690395Y-21604209D02*
X18833252Y-21604209D01*
X18833252Y-21604209D02*
X18928490Y-21637542D01*
X18928490Y-21637542D02*
X18976109Y-21670876D01*
X18976109Y-21670876D02*
X19023728Y-21737542D01*
X19023728Y-21737542D02*
X19023728Y-22004209D01*
X19499919Y-20970876D02*
X19499919Y-21304209D01*
X19499919Y-21304209D02*
X18499919Y-21304209D01*
X105272419Y-26519925D02*
X105272419Y-26996115D01*
X105272419Y-26996115D02*
X105748609Y-27043734D01*
X105748609Y-27043734D02*
X105700990Y-26996115D01*
X105700990Y-26996115D02*
X105653371Y-26900877D01*
X105653371Y-26900877D02*
X105653371Y-26662782D01*
X105653371Y-26662782D02*
X105700990Y-26567544D01*
X105700990Y-26567544D02*
X105748609Y-26519925D01*
X105748609Y-26519925D02*
X105843847Y-26472306D01*
X105843847Y-26472306D02*
X106081942Y-26472306D01*
X106081942Y-26472306D02*
X106177180Y-26519925D01*
X106177180Y-26519925D02*
X106224800Y-26567544D01*
X106224800Y-26567544D02*
X106272419Y-26662782D01*
X106272419Y-26662782D02*
X106272419Y-26900877D01*
X106272419Y-26900877D02*
X106224800Y-26996115D01*
X106224800Y-26996115D02*
X106177180Y-27043734D01*
X105272419Y-25853258D02*
X105272419Y-25758020D01*
X105272419Y-25758020D02*
X105320038Y-25662782D01*
X105320038Y-25662782D02*
X105367657Y-25615163D01*
X105367657Y-25615163D02*
X105462895Y-25567544D01*
X105462895Y-25567544D02*
X105653371Y-25519925D01*
X105653371Y-25519925D02*
X105891466Y-25519925D01*
X105891466Y-25519925D02*
X106081942Y-25567544D01*
X106081942Y-25567544D02*
X106177180Y-25615163D01*
X106177180Y-25615163D02*
X106224800Y-25662782D01*
X106224800Y-25662782D02*
X106272419Y-25758020D01*
X106272419Y-25758020D02*
X106272419Y-25853258D01*
X106272419Y-25853258D02*
X106224800Y-25948496D01*
X106224800Y-25948496D02*
X106177180Y-25996115D01*
X106177180Y-25996115D02*
X106081942Y-26043734D01*
X106081942Y-26043734D02*
X105891466Y-26091353D01*
X105891466Y-26091353D02*
X105653371Y-26091353D01*
X105653371Y-26091353D02*
X105462895Y-26043734D01*
X105462895Y-26043734D02*
X105367657Y-25996115D01*
X105367657Y-25996115D02*
X105320038Y-25948496D01*
X105320038Y-25948496D02*
X105272419Y-25853258D01*
X105272419Y-24900877D02*
X105272419Y-24805639D01*
X105272419Y-24805639D02*
X105320038Y-24710401D01*
X105320038Y-24710401D02*
X105367657Y-24662782D01*
X105367657Y-24662782D02*
X105462895Y-24615163D01*
X105462895Y-24615163D02*
X105653371Y-24567544D01*
X105653371Y-24567544D02*
X105891466Y-24567544D01*
X105891466Y-24567544D02*
X106081942Y-24615163D01*
X106081942Y-24615163D02*
X106177180Y-24662782D01*
X106177180Y-24662782D02*
X106224800Y-24710401D01*
X106224800Y-24710401D02*
X106272419Y-24805639D01*
X106272419Y-24805639D02*
X106272419Y-24900877D01*
X106272419Y-24900877D02*
X106224800Y-24996115D01*
X106224800Y-24996115D02*
X106177180Y-25043734D01*
X106177180Y-25043734D02*
X106081942Y-25091353D01*
X106081942Y-25091353D02*
X105891466Y-25138972D01*
X105891466Y-25138972D02*
X105653371Y-25138972D01*
X105653371Y-25138972D02*
X105462895Y-25091353D01*
X105462895Y-25091353D02*
X105367657Y-25043734D01*
X105367657Y-25043734D02*
X105320038Y-24996115D01*
X105320038Y-24996115D02*
X105272419Y-24900877D01*
X105224800Y-23424687D02*
X106510514Y-24281829D01*
X106272419Y-22567544D02*
X106272419Y-23138972D01*
X106272419Y-22853258D02*
X105272419Y-22853258D01*
X105272419Y-22853258D02*
X105415276Y-22948496D01*
X105415276Y-22948496D02*
X105510514Y-23043734D01*
X105510514Y-23043734D02*
X105558133Y-23138972D01*
X105272419Y-21948496D02*
X105272419Y-21853258D01*
X105272419Y-21853258D02*
X105320038Y-21758020D01*
X105320038Y-21758020D02*
X105367657Y-21710401D01*
X105367657Y-21710401D02*
X105462895Y-21662782D01*
X105462895Y-21662782D02*
X105653371Y-21615163D01*
X105653371Y-21615163D02*
X105891466Y-21615163D01*
X105891466Y-21615163D02*
X106081942Y-21662782D01*
X106081942Y-21662782D02*
X106177180Y-21710401D01*
X106177180Y-21710401D02*
X106224800Y-21758020D01*
X106224800Y-21758020D02*
X106272419Y-21853258D01*
X106272419Y-21853258D02*
X106272419Y-21948496D01*
X106272419Y-21948496D02*
X106224800Y-22043734D01*
X106224800Y-22043734D02*
X106177180Y-22091353D01*
X106177180Y-22091353D02*
X106081942Y-22138972D01*
X106081942Y-22138972D02*
X105891466Y-22186591D01*
X105891466Y-22186591D02*
X105653371Y-22186591D01*
X105653371Y-22186591D02*
X105462895Y-22138972D01*
X105462895Y-22138972D02*
X105367657Y-22091353D01*
X105367657Y-22091353D02*
X105320038Y-22043734D01*
X105320038Y-22043734D02*
X105272419Y-21948496D01*
X105272419Y-20996115D02*
X105272419Y-20900877D01*
X105272419Y-20900877D02*
X105320038Y-20805639D01*
X105320038Y-20805639D02*
X105367657Y-20758020D01*
X105367657Y-20758020D02*
X105462895Y-20710401D01*
X105462895Y-20710401D02*
X105653371Y-20662782D01*
X105653371Y-20662782D02*
X105891466Y-20662782D01*
X105891466Y-20662782D02*
X106081942Y-20710401D01*
X106081942Y-20710401D02*
X106177180Y-20758020D01*
X106177180Y-20758020D02*
X106224800Y-20805639D01*
X106224800Y-20805639D02*
X106272419Y-20900877D01*
X106272419Y-20900877D02*
X106272419Y-20996115D01*
X106272419Y-20996115D02*
X106224800Y-21091353D01*
X106224800Y-21091353D02*
X106177180Y-21138972D01*
X106177180Y-21138972D02*
X106081942Y-21186591D01*
X106081942Y-21186591D02*
X105891466Y-21234210D01*
X105891466Y-21234210D02*
X105653371Y-21234210D01*
X105653371Y-21234210D02*
X105462895Y-21186591D01*
X105462895Y-21186591D02*
X105367657Y-21138972D01*
X105367657Y-21138972D02*
X105320038Y-21091353D01*
X105320038Y-21091353D02*
X105272419Y-20996115D01*
X105272419Y-20043734D02*
X105272419Y-19948496D01*
X105272419Y-19948496D02*
X105320038Y-19853258D01*
X105320038Y-19853258D02*
X105367657Y-19805639D01*
X105367657Y-19805639D02*
X105462895Y-19758020D01*
X105462895Y-19758020D02*
X105653371Y-19710401D01*
X105653371Y-19710401D02*
X105891466Y-19710401D01*
X105891466Y-19710401D02*
X106081942Y-19758020D01*
X106081942Y-19758020D02*
X106177180Y-19805639D01*
X106177180Y-19805639D02*
X106224800Y-19853258D01*
X106224800Y-19853258D02*
X106272419Y-19948496D01*
X106272419Y-19948496D02*
X106272419Y-20043734D01*
X106272419Y-20043734D02*
X106224800Y-20138972D01*
X106224800Y-20138972D02*
X106177180Y-20186591D01*
X106177180Y-20186591D02*
X106081942Y-20234210D01*
X106081942Y-20234210D02*
X105891466Y-20281829D01*
X105891466Y-20281829D02*
X105653371Y-20281829D01*
X105653371Y-20281829D02*
X105462895Y-20234210D01*
X105462895Y-20234210D02*
X105367657Y-20186591D01*
X105367657Y-20186591D02*
X105320038Y-20138972D01*
X105320038Y-20138972D02*
X105272419Y-20043734D01*
X113772419Y-36753258D02*
X113724800Y-36848496D01*
X113724800Y-36848496D02*
X113677180Y-36896115D01*
X113677180Y-36896115D02*
X113581942Y-36943734D01*
X113581942Y-36943734D02*
X113296228Y-36943734D01*
X113296228Y-36943734D02*
X113200990Y-36896115D01*
X113200990Y-36896115D02*
X113153371Y-36848496D01*
X113153371Y-36848496D02*
X113105752Y-36753258D01*
X113105752Y-36753258D02*
X113105752Y-36610401D01*
X113105752Y-36610401D02*
X113153371Y-36515163D01*
X113153371Y-36515163D02*
X113200990Y-36467544D01*
X113200990Y-36467544D02*
X113296228Y-36419925D01*
X113296228Y-36419925D02*
X113581942Y-36419925D01*
X113581942Y-36419925D02*
X113677180Y-36467544D01*
X113677180Y-36467544D02*
X113724800Y-36515163D01*
X113724800Y-36515163D02*
X113772419Y-36610401D01*
X113772419Y-36610401D02*
X113772419Y-36753258D01*
X113105752Y-35991353D02*
X113772419Y-35991353D01*
X113200990Y-35991353D02*
X113153371Y-35943734D01*
X113153371Y-35943734D02*
X113105752Y-35848496D01*
X113105752Y-35848496D02*
X113105752Y-35705639D01*
X113105752Y-35705639D02*
X113153371Y-35610401D01*
X113153371Y-35610401D02*
X113248609Y-35562782D01*
X113248609Y-35562782D02*
X113772419Y-35562782D01*
X112724800Y-33610401D02*
X114010514Y-34467543D01*
X113772419Y-32372305D02*
X113724800Y-32467543D01*
X113724800Y-32467543D02*
X113677180Y-32515162D01*
X113677180Y-32515162D02*
X113581942Y-32562781D01*
X113581942Y-32562781D02*
X113296228Y-32562781D01*
X113296228Y-32562781D02*
X113200990Y-32515162D01*
X113200990Y-32515162D02*
X113153371Y-32467543D01*
X113153371Y-32467543D02*
X113105752Y-32372305D01*
X113105752Y-32372305D02*
X113105752Y-32229448D01*
X113105752Y-32229448D02*
X113153371Y-32134210D01*
X113153371Y-32134210D02*
X113200990Y-32086591D01*
X113200990Y-32086591D02*
X113296228Y-32038972D01*
X113296228Y-32038972D02*
X113581942Y-32038972D01*
X113581942Y-32038972D02*
X113677180Y-32086591D01*
X113677180Y-32086591D02*
X113724800Y-32134210D01*
X113724800Y-32134210D02*
X113772419Y-32229448D01*
X113772419Y-32229448D02*
X113772419Y-32372305D01*
X113105752Y-31753257D02*
X113105752Y-31372305D01*
X113772419Y-31610400D02*
X112915276Y-31610400D01*
X112915276Y-31610400D02*
X112820038Y-31562781D01*
X112820038Y-31562781D02*
X112772419Y-31467543D01*
X112772419Y-31467543D02*
X112772419Y-31372305D01*
X113105752Y-31181828D02*
X113105752Y-30800876D01*
X113772419Y-31038971D02*
X112915276Y-31038971D01*
X112915276Y-31038971D02*
X112820038Y-30991352D01*
X112820038Y-30991352D02*
X112772419Y-30896114D01*
X112772419Y-30896114D02*
X112772419Y-30800876D01*
X113672419Y-56253258D02*
X113624800Y-56348496D01*
X113624800Y-56348496D02*
X113577180Y-56396115D01*
X113577180Y-56396115D02*
X113481942Y-56443734D01*
X113481942Y-56443734D02*
X113196228Y-56443734D01*
X113196228Y-56443734D02*
X113100990Y-56396115D01*
X113100990Y-56396115D02*
X113053371Y-56348496D01*
X113053371Y-56348496D02*
X113005752Y-56253258D01*
X113005752Y-56253258D02*
X113005752Y-56110401D01*
X113005752Y-56110401D02*
X113053371Y-56015163D01*
X113053371Y-56015163D02*
X113100990Y-55967544D01*
X113100990Y-55967544D02*
X113196228Y-55919925D01*
X113196228Y-55919925D02*
X113481942Y-55919925D01*
X113481942Y-55919925D02*
X113577180Y-55967544D01*
X113577180Y-55967544D02*
X113624800Y-56015163D01*
X113624800Y-56015163D02*
X113672419Y-56110401D01*
X113672419Y-56110401D02*
X113672419Y-56253258D01*
X113005752Y-55491353D02*
X113672419Y-55491353D01*
X113100990Y-55491353D02*
X113053371Y-55443734D01*
X113053371Y-55443734D02*
X113005752Y-55348496D01*
X113005752Y-55348496D02*
X113005752Y-55205639D01*
X113005752Y-55205639D02*
X113053371Y-55110401D01*
X113053371Y-55110401D02*
X113148609Y-55062782D01*
X113148609Y-55062782D02*
X113672419Y-55062782D01*
X112624800Y-53110401D02*
X113910514Y-53967543D01*
X113672419Y-51872305D02*
X113624800Y-51967543D01*
X113624800Y-51967543D02*
X113577180Y-52015162D01*
X113577180Y-52015162D02*
X113481942Y-52062781D01*
X113481942Y-52062781D02*
X113196228Y-52062781D01*
X113196228Y-52062781D02*
X113100990Y-52015162D01*
X113100990Y-52015162D02*
X113053371Y-51967543D01*
X113053371Y-51967543D02*
X113005752Y-51872305D01*
X113005752Y-51872305D02*
X113005752Y-51729448D01*
X113005752Y-51729448D02*
X113053371Y-51634210D01*
X113053371Y-51634210D02*
X113100990Y-51586591D01*
X113100990Y-51586591D02*
X113196228Y-51538972D01*
X113196228Y-51538972D02*
X113481942Y-51538972D01*
X113481942Y-51538972D02*
X113577180Y-51586591D01*
X113577180Y-51586591D02*
X113624800Y-51634210D01*
X113624800Y-51634210D02*
X113672419Y-51729448D01*
X113672419Y-51729448D02*
X113672419Y-51872305D01*
X113005752Y-51253257D02*
X113005752Y-50872305D01*
X113672419Y-51110400D02*
X112815276Y-51110400D01*
X112815276Y-51110400D02*
X112720038Y-51062781D01*
X112720038Y-51062781D02*
X112672419Y-50967543D01*
X112672419Y-50967543D02*
X112672419Y-50872305D01*
X113005752Y-50681828D02*
X113005752Y-50300876D01*
X113672419Y-50538971D02*
X112815276Y-50538971D01*
X112815276Y-50538971D02*
X112720038Y-50491352D01*
X112720038Y-50491352D02*
X112672419Y-50396114D01*
X112672419Y-50396114D02*
X112672419Y-50300876D01*
X113672419Y-26753258D02*
X113624800Y-26848496D01*
X113624800Y-26848496D02*
X113577180Y-26896115D01*
X113577180Y-26896115D02*
X113481942Y-26943734D01*
X113481942Y-26943734D02*
X113196228Y-26943734D01*
X113196228Y-26943734D02*
X113100990Y-26896115D01*
X113100990Y-26896115D02*
X113053371Y-26848496D01*
X113053371Y-26848496D02*
X113005752Y-26753258D01*
X113005752Y-26753258D02*
X113005752Y-26610401D01*
X113005752Y-26610401D02*
X113053371Y-26515163D01*
X113053371Y-26515163D02*
X113100990Y-26467544D01*
X113100990Y-26467544D02*
X113196228Y-26419925D01*
X113196228Y-26419925D02*
X113481942Y-26419925D01*
X113481942Y-26419925D02*
X113577180Y-26467544D01*
X113577180Y-26467544D02*
X113624800Y-26515163D01*
X113624800Y-26515163D02*
X113672419Y-26610401D01*
X113672419Y-26610401D02*
X113672419Y-26753258D01*
X113005752Y-25991353D02*
X113672419Y-25991353D01*
X113100990Y-25991353D02*
X113053371Y-25943734D01*
X113053371Y-25943734D02*
X113005752Y-25848496D01*
X113005752Y-25848496D02*
X113005752Y-25705639D01*
X113005752Y-25705639D02*
X113053371Y-25610401D01*
X113053371Y-25610401D02*
X113148609Y-25562782D01*
X113148609Y-25562782D02*
X113672419Y-25562782D01*
X112624800Y-23610401D02*
X113910514Y-24467543D01*
X113672419Y-22372305D02*
X113624800Y-22467543D01*
X113624800Y-22467543D02*
X113577180Y-22515162D01*
X113577180Y-22515162D02*
X113481942Y-22562781D01*
X113481942Y-22562781D02*
X113196228Y-22562781D01*
X113196228Y-22562781D02*
X113100990Y-22515162D01*
X113100990Y-22515162D02*
X113053371Y-22467543D01*
X113053371Y-22467543D02*
X113005752Y-22372305D01*
X113005752Y-22372305D02*
X113005752Y-22229448D01*
X113005752Y-22229448D02*
X113053371Y-22134210D01*
X113053371Y-22134210D02*
X113100990Y-22086591D01*
X113100990Y-22086591D02*
X113196228Y-22038972D01*
X113196228Y-22038972D02*
X113481942Y-22038972D01*
X113481942Y-22038972D02*
X113577180Y-22086591D01*
X113577180Y-22086591D02*
X113624800Y-22134210D01*
X113624800Y-22134210D02*
X113672419Y-22229448D01*
X113672419Y-22229448D02*
X113672419Y-22372305D01*
X113005752Y-21753257D02*
X113005752Y-21372305D01*
X113672419Y-21610400D02*
X112815276Y-21610400D01*
X112815276Y-21610400D02*
X112720038Y-21562781D01*
X112720038Y-21562781D02*
X112672419Y-21467543D01*
X112672419Y-21467543D02*
X112672419Y-21372305D01*
X113005752Y-21181828D02*
X113005752Y-20800876D01*
X113672419Y-21038971D02*
X112815276Y-21038971D01*
X112815276Y-21038971D02*
X112720038Y-20991352D01*
X112720038Y-20991352D02*
X112672419Y-20896114D01*
X112672419Y-20896114D02*
X112672419Y-20800876D01*
X79272419Y-97719925D02*
X79272419Y-98196115D01*
X79272419Y-98196115D02*
X78272419Y-98196115D01*
X79272419Y-97386591D02*
X78272419Y-97386591D01*
X78272419Y-97386591D02*
X78272419Y-97148496D01*
X78272419Y-97148496D02*
X78320038Y-97005639D01*
X78320038Y-97005639D02*
X78415276Y-96910401D01*
X78415276Y-96910401D02*
X78510514Y-96862782D01*
X78510514Y-96862782D02*
X78700990Y-96815163D01*
X78700990Y-96815163D02*
X78843847Y-96815163D01*
X78843847Y-96815163D02*
X79034323Y-96862782D01*
X79034323Y-96862782D02*
X79129561Y-96910401D01*
X79129561Y-96910401D02*
X79224800Y-97005639D01*
X79224800Y-97005639D02*
X79272419Y-97148496D01*
X79272419Y-97148496D02*
X79272419Y-97386591D01*
X78272419Y-96196115D02*
X78272419Y-96005639D01*
X78272419Y-96005639D02*
X78320038Y-95910401D01*
X78320038Y-95910401D02*
X78415276Y-95815163D01*
X78415276Y-95815163D02*
X78605752Y-95767544D01*
X78605752Y-95767544D02*
X78939085Y-95767544D01*
X78939085Y-95767544D02*
X79129561Y-95815163D01*
X79129561Y-95815163D02*
X79224800Y-95910401D01*
X79224800Y-95910401D02*
X79272419Y-96005639D01*
X79272419Y-96005639D02*
X79272419Y-96196115D01*
X79272419Y-96196115D02*
X79224800Y-96291353D01*
X79224800Y-96291353D02*
X79129561Y-96386591D01*
X79129561Y-96386591D02*
X78939085Y-96434210D01*
X78939085Y-96434210D02*
X78605752Y-96434210D01*
X78605752Y-96434210D02*
X78415276Y-96386591D01*
X78415276Y-96386591D02*
X78320038Y-96291353D01*
X78320038Y-96291353D02*
X78272419Y-96196115D01*
X79177180Y-95338972D02*
X79224800Y-95291353D01*
X79224800Y-95291353D02*
X79272419Y-95338972D01*
X79272419Y-95338972D02*
X79224800Y-95386591D01*
X79224800Y-95386591D02*
X79177180Y-95338972D01*
X79177180Y-95338972D02*
X79272419Y-95338972D01*
X78653371Y-95338972D02*
X78700990Y-95291353D01*
X78700990Y-95291353D02*
X78748609Y-95338972D01*
X78748609Y-95338972D02*
X78700990Y-95386591D01*
X78700990Y-95386591D02*
X78653371Y-95338972D01*
X78653371Y-95338972D02*
X78748609Y-95338972D01*
X78272419Y-94196115D02*
X78272419Y-93577068D01*
X78272419Y-93577068D02*
X78653371Y-93910401D01*
X78653371Y-93910401D02*
X78653371Y-93767544D01*
X78653371Y-93767544D02*
X78700990Y-93672306D01*
X78700990Y-93672306D02*
X78748609Y-93624687D01*
X78748609Y-93624687D02*
X78843847Y-93577068D01*
X78843847Y-93577068D02*
X79081942Y-93577068D01*
X79081942Y-93577068D02*
X79177180Y-93624687D01*
X79177180Y-93624687D02*
X79224800Y-93672306D01*
X79224800Y-93672306D02*
X79272419Y-93767544D01*
X79272419Y-93767544D02*
X79272419Y-94053258D01*
X79272419Y-94053258D02*
X79224800Y-94148496D01*
X79224800Y-94148496D02*
X79177180Y-94196115D01*
X79177180Y-93148496D02*
X79224800Y-93100877D01*
X79224800Y-93100877D02*
X79272419Y-93148496D01*
X79272419Y-93148496D02*
X79224800Y-93196115D01*
X79224800Y-93196115D02*
X79177180Y-93148496D01*
X79177180Y-93148496D02*
X79272419Y-93148496D01*
X78272419Y-92767544D02*
X78272419Y-92100878D01*
X78272419Y-92100878D02*
X79272419Y-92529449D01*
X78224800Y-90243735D02*
X79510514Y-91100877D01*
X78272419Y-89243734D02*
X78272419Y-88624687D01*
X78272419Y-88624687D02*
X78653371Y-88958020D01*
X78653371Y-88958020D02*
X78653371Y-88815163D01*
X78653371Y-88815163D02*
X78700990Y-88719925D01*
X78700990Y-88719925D02*
X78748609Y-88672306D01*
X78748609Y-88672306D02*
X78843847Y-88624687D01*
X78843847Y-88624687D02*
X79081942Y-88624687D01*
X79081942Y-88624687D02*
X79177180Y-88672306D01*
X79177180Y-88672306D02*
X79224800Y-88719925D01*
X79224800Y-88719925D02*
X79272419Y-88815163D01*
X79272419Y-88815163D02*
X79272419Y-89100877D01*
X79272419Y-89100877D02*
X79224800Y-89196115D01*
X79224800Y-89196115D02*
X79177180Y-89243734D01*
X79177180Y-88196115D02*
X79224800Y-88148496D01*
X79224800Y-88148496D02*
X79272419Y-88196115D01*
X79272419Y-88196115D02*
X79224800Y-88243734D01*
X79224800Y-88243734D02*
X79177180Y-88196115D01*
X79177180Y-88196115D02*
X79272419Y-88196115D01*
X78272419Y-87815163D02*
X78272419Y-87196116D01*
X78272419Y-87196116D02*
X78653371Y-87529449D01*
X78653371Y-87529449D02*
X78653371Y-87386592D01*
X78653371Y-87386592D02*
X78700990Y-87291354D01*
X78700990Y-87291354D02*
X78748609Y-87243735D01*
X78748609Y-87243735D02*
X78843847Y-87196116D01*
X78843847Y-87196116D02*
X79081942Y-87196116D01*
X79081942Y-87196116D02*
X79177180Y-87243735D01*
X79177180Y-87243735D02*
X79224800Y-87291354D01*
X79224800Y-87291354D02*
X79272419Y-87386592D01*
X79272419Y-87386592D02*
X79272419Y-87672306D01*
X79272419Y-87672306D02*
X79224800Y-87767544D01*
X79224800Y-87767544D02*
X79177180Y-87815163D01*
X105472419Y-56419925D02*
X105472419Y-56896115D01*
X105472419Y-56896115D02*
X105948609Y-56943734D01*
X105948609Y-56943734D02*
X105900990Y-56896115D01*
X105900990Y-56896115D02*
X105853371Y-56800877D01*
X105853371Y-56800877D02*
X105853371Y-56562782D01*
X105853371Y-56562782D02*
X105900990Y-56467544D01*
X105900990Y-56467544D02*
X105948609Y-56419925D01*
X105948609Y-56419925D02*
X106043847Y-56372306D01*
X106043847Y-56372306D02*
X106281942Y-56372306D01*
X106281942Y-56372306D02*
X106377180Y-56419925D01*
X106377180Y-56419925D02*
X106424800Y-56467544D01*
X106424800Y-56467544D02*
X106472419Y-56562782D01*
X106472419Y-56562782D02*
X106472419Y-56800877D01*
X106472419Y-56800877D02*
X106424800Y-56896115D01*
X106424800Y-56896115D02*
X106377180Y-56943734D01*
X105472419Y-55753258D02*
X105472419Y-55658020D01*
X105472419Y-55658020D02*
X105520038Y-55562782D01*
X105520038Y-55562782D02*
X105567657Y-55515163D01*
X105567657Y-55515163D02*
X105662895Y-55467544D01*
X105662895Y-55467544D02*
X105853371Y-55419925D01*
X105853371Y-55419925D02*
X106091466Y-55419925D01*
X106091466Y-55419925D02*
X106281942Y-55467544D01*
X106281942Y-55467544D02*
X106377180Y-55515163D01*
X106377180Y-55515163D02*
X106424800Y-55562782D01*
X106424800Y-55562782D02*
X106472419Y-55658020D01*
X106472419Y-55658020D02*
X106472419Y-55753258D01*
X106472419Y-55753258D02*
X106424800Y-55848496D01*
X106424800Y-55848496D02*
X106377180Y-55896115D01*
X106377180Y-55896115D02*
X106281942Y-55943734D01*
X106281942Y-55943734D02*
X106091466Y-55991353D01*
X106091466Y-55991353D02*
X105853371Y-55991353D01*
X105853371Y-55991353D02*
X105662895Y-55943734D01*
X105662895Y-55943734D02*
X105567657Y-55896115D01*
X105567657Y-55896115D02*
X105520038Y-55848496D01*
X105520038Y-55848496D02*
X105472419Y-55753258D01*
X105472419Y-54800877D02*
X105472419Y-54705639D01*
X105472419Y-54705639D02*
X105520038Y-54610401D01*
X105520038Y-54610401D02*
X105567657Y-54562782D01*
X105567657Y-54562782D02*
X105662895Y-54515163D01*
X105662895Y-54515163D02*
X105853371Y-54467544D01*
X105853371Y-54467544D02*
X106091466Y-54467544D01*
X106091466Y-54467544D02*
X106281942Y-54515163D01*
X106281942Y-54515163D02*
X106377180Y-54562782D01*
X106377180Y-54562782D02*
X106424800Y-54610401D01*
X106424800Y-54610401D02*
X106472419Y-54705639D01*
X106472419Y-54705639D02*
X106472419Y-54800877D01*
X106472419Y-54800877D02*
X106424800Y-54896115D01*
X106424800Y-54896115D02*
X106377180Y-54943734D01*
X106377180Y-54943734D02*
X106281942Y-54991353D01*
X106281942Y-54991353D02*
X106091466Y-55038972D01*
X106091466Y-55038972D02*
X105853371Y-55038972D01*
X105853371Y-55038972D02*
X105662895Y-54991353D01*
X105662895Y-54991353D02*
X105567657Y-54943734D01*
X105567657Y-54943734D02*
X105520038Y-54896115D01*
X105520038Y-54896115D02*
X105472419Y-54800877D01*
X105424800Y-53324687D02*
X106710514Y-54181829D01*
X106472419Y-52467544D02*
X106472419Y-53038972D01*
X106472419Y-52753258D02*
X105472419Y-52753258D01*
X105472419Y-52753258D02*
X105615276Y-52848496D01*
X105615276Y-52848496D02*
X105710514Y-52943734D01*
X105710514Y-52943734D02*
X105758133Y-53038972D01*
X105472419Y-51848496D02*
X105472419Y-51753258D01*
X105472419Y-51753258D02*
X105520038Y-51658020D01*
X105520038Y-51658020D02*
X105567657Y-51610401D01*
X105567657Y-51610401D02*
X105662895Y-51562782D01*
X105662895Y-51562782D02*
X105853371Y-51515163D01*
X105853371Y-51515163D02*
X106091466Y-51515163D01*
X106091466Y-51515163D02*
X106281942Y-51562782D01*
X106281942Y-51562782D02*
X106377180Y-51610401D01*
X106377180Y-51610401D02*
X106424800Y-51658020D01*
X106424800Y-51658020D02*
X106472419Y-51753258D01*
X106472419Y-51753258D02*
X106472419Y-51848496D01*
X106472419Y-51848496D02*
X106424800Y-51943734D01*
X106424800Y-51943734D02*
X106377180Y-51991353D01*
X106377180Y-51991353D02*
X106281942Y-52038972D01*
X106281942Y-52038972D02*
X106091466Y-52086591D01*
X106091466Y-52086591D02*
X105853371Y-52086591D01*
X105853371Y-52086591D02*
X105662895Y-52038972D01*
X105662895Y-52038972D02*
X105567657Y-51991353D01*
X105567657Y-51991353D02*
X105520038Y-51943734D01*
X105520038Y-51943734D02*
X105472419Y-51848496D01*
X105472419Y-50896115D02*
X105472419Y-50800877D01*
X105472419Y-50800877D02*
X105520038Y-50705639D01*
X105520038Y-50705639D02*
X105567657Y-50658020D01*
X105567657Y-50658020D02*
X105662895Y-50610401D01*
X105662895Y-50610401D02*
X105853371Y-50562782D01*
X105853371Y-50562782D02*
X106091466Y-50562782D01*
X106091466Y-50562782D02*
X106281942Y-50610401D01*
X106281942Y-50610401D02*
X106377180Y-50658020D01*
X106377180Y-50658020D02*
X106424800Y-50705639D01*
X106424800Y-50705639D02*
X106472419Y-50800877D01*
X106472419Y-50800877D02*
X106472419Y-50896115D01*
X106472419Y-50896115D02*
X106424800Y-50991353D01*
X106424800Y-50991353D02*
X106377180Y-51038972D01*
X106377180Y-51038972D02*
X106281942Y-51086591D01*
X106281942Y-51086591D02*
X106091466Y-51134210D01*
X106091466Y-51134210D02*
X105853371Y-51134210D01*
X105853371Y-51134210D02*
X105662895Y-51086591D01*
X105662895Y-51086591D02*
X105567657Y-51038972D01*
X105567657Y-51038972D02*
X105520038Y-50991353D01*
X105520038Y-50991353D02*
X105472419Y-50896115D01*
X105472419Y-49943734D02*
X105472419Y-49848496D01*
X105472419Y-49848496D02*
X105520038Y-49753258D01*
X105520038Y-49753258D02*
X105567657Y-49705639D01*
X105567657Y-49705639D02*
X105662895Y-49658020D01*
X105662895Y-49658020D02*
X105853371Y-49610401D01*
X105853371Y-49610401D02*
X106091466Y-49610401D01*
X106091466Y-49610401D02*
X106281942Y-49658020D01*
X106281942Y-49658020D02*
X106377180Y-49705639D01*
X106377180Y-49705639D02*
X106424800Y-49753258D01*
X106424800Y-49753258D02*
X106472419Y-49848496D01*
X106472419Y-49848496D02*
X106472419Y-49943734D01*
X106472419Y-49943734D02*
X106424800Y-50038972D01*
X106424800Y-50038972D02*
X106377180Y-50086591D01*
X106377180Y-50086591D02*
X106281942Y-50134210D01*
X106281942Y-50134210D02*
X106091466Y-50181829D01*
X106091466Y-50181829D02*
X105853371Y-50181829D01*
X105853371Y-50181829D02*
X105662895Y-50134210D01*
X105662895Y-50134210D02*
X105567657Y-50086591D01*
X105567657Y-50086591D02*
X105520038Y-50038972D01*
X105520038Y-50038972D02*
X105472419Y-49943734D01*
X81175312Y-56720038D02*
X81099122Y-56672419D01*
X81099122Y-56672419D02*
X80984836Y-56672419D01*
X80984836Y-56672419D02*
X80870550Y-56720038D01*
X80870550Y-56720038D02*
X80794360Y-56815276D01*
X80794360Y-56815276D02*
X80756265Y-56910514D01*
X80756265Y-56910514D02*
X80718169Y-57100990D01*
X80718169Y-57100990D02*
X80718169Y-57243847D01*
X80718169Y-57243847D02*
X80756265Y-57434323D01*
X80756265Y-57434323D02*
X80794360Y-57529561D01*
X80794360Y-57529561D02*
X80870550Y-57624800D01*
X80870550Y-57624800D02*
X80984836Y-57672419D01*
X80984836Y-57672419D02*
X81061027Y-57672419D01*
X81061027Y-57672419D02*
X81175312Y-57624800D01*
X81175312Y-57624800D02*
X81213408Y-57577180D01*
X81213408Y-57577180D02*
X81213408Y-57243847D01*
X81213408Y-57243847D02*
X81061027Y-57243847D01*
X81556265Y-57672419D02*
X81556265Y-56672419D01*
X81556265Y-56672419D02*
X82013408Y-57672419D01*
X82013408Y-57672419D02*
X82013408Y-56672419D01*
X82394360Y-57672419D02*
X82394360Y-56672419D01*
X82394360Y-56672419D02*
X82584836Y-56672419D01*
X82584836Y-56672419D02*
X82699122Y-56720038D01*
X82699122Y-56720038D02*
X82775312Y-56815276D01*
X82775312Y-56815276D02*
X82813407Y-56910514D01*
X82813407Y-56910514D02*
X82851503Y-57100990D01*
X82851503Y-57100990D02*
X82851503Y-57243847D01*
X82851503Y-57243847D02*
X82813407Y-57434323D01*
X82813407Y-57434323D02*
X82775312Y-57529561D01*
X82775312Y-57529561D02*
X82699122Y-57624800D01*
X82699122Y-57624800D02*
X82584836Y-57672419D01*
X82584836Y-57672419D02*
X82394360Y-57672419D01*
X83384836Y-58005752D02*
X83384836Y-56577180D01*
X83956265Y-57291466D02*
X84565789Y-57291466D01*
X84261027Y-57672419D02*
X84261027Y-56910514D01*
X84908645Y-56767657D02*
X84946741Y-56720038D01*
X84946741Y-56720038D02*
X85022931Y-56672419D01*
X85022931Y-56672419D02*
X85213407Y-56672419D01*
X85213407Y-56672419D02*
X85289598Y-56720038D01*
X85289598Y-56720038D02*
X85327693Y-56767657D01*
X85327693Y-56767657D02*
X85365788Y-56862895D01*
X85365788Y-56862895D02*
X85365788Y-56958133D01*
X85365788Y-56958133D02*
X85327693Y-57100990D01*
X85327693Y-57100990D02*
X84870550Y-57672419D01*
X84870550Y-57672419D02*
X85365788Y-57672419D01*
X85899122Y-58005752D02*
X85899122Y-56577180D01*
X86470551Y-57291466D02*
X87080075Y-57291466D01*
X87422931Y-56767657D02*
X87461027Y-56720038D01*
X87461027Y-56720038D02*
X87537217Y-56672419D01*
X87537217Y-56672419D02*
X87727693Y-56672419D01*
X87727693Y-56672419D02*
X87803884Y-56720038D01*
X87803884Y-56720038D02*
X87841979Y-56767657D01*
X87841979Y-56767657D02*
X87880074Y-56862895D01*
X87880074Y-56862895D02*
X87880074Y-56958133D01*
X87880074Y-56958133D02*
X87841979Y-57100990D01*
X87841979Y-57100990D02*
X87384836Y-57672419D01*
X87384836Y-57672419D02*
X87880074Y-57672419D01*
X88413408Y-58005752D02*
X88413408Y-56577180D01*
X88908646Y-56672419D02*
X89403884Y-56672419D01*
X89403884Y-56672419D02*
X89137218Y-57053371D01*
X89137218Y-57053371D02*
X89251503Y-57053371D01*
X89251503Y-57053371D02*
X89327694Y-57100990D01*
X89327694Y-57100990D02*
X89365789Y-57148609D01*
X89365789Y-57148609D02*
X89403884Y-57243847D01*
X89403884Y-57243847D02*
X89403884Y-57481942D01*
X89403884Y-57481942D02*
X89365789Y-57577180D01*
X89365789Y-57577180D02*
X89327694Y-57624800D01*
X89327694Y-57624800D02*
X89251503Y-57672419D01*
X89251503Y-57672419D02*
X89022932Y-57672419D01*
X89022932Y-57672419D02*
X88946741Y-57624800D01*
X88946741Y-57624800D02*
X88908646Y-57577180D01*
X89746742Y-57577180D02*
X89784837Y-57624800D01*
X89784837Y-57624800D02*
X89746742Y-57672419D01*
X89746742Y-57672419D02*
X89708646Y-57624800D01*
X89708646Y-57624800D02*
X89746742Y-57577180D01*
X89746742Y-57577180D02*
X89746742Y-57672419D01*
X90051503Y-56672419D02*
X90546741Y-56672419D01*
X90546741Y-56672419D02*
X90280075Y-57053371D01*
X90280075Y-57053371D02*
X90394360Y-57053371D01*
X90394360Y-57053371D02*
X90470551Y-57100990D01*
X90470551Y-57100990D02*
X90508646Y-57148609D01*
X90508646Y-57148609D02*
X90546741Y-57243847D01*
X90546741Y-57243847D02*
X90546741Y-57481942D01*
X90546741Y-57481942D02*
X90508646Y-57577180D01*
X90508646Y-57577180D02*
X90470551Y-57624800D01*
X90470551Y-57624800D02*
X90394360Y-57672419D01*
X90394360Y-57672419D02*
X90165789Y-57672419D01*
X90165789Y-57672419D02*
X90089598Y-57624800D01*
X90089598Y-57624800D02*
X90051503Y-57577180D01*
X91080075Y-58005752D02*
X91080075Y-56577180D01*
X91613408Y-57624800D02*
X91727694Y-57672419D01*
X91727694Y-57672419D02*
X91918170Y-57672419D01*
X91918170Y-57672419D02*
X91994361Y-57624800D01*
X91994361Y-57624800D02*
X92032456Y-57577180D01*
X92032456Y-57577180D02*
X92070551Y-57481942D01*
X92070551Y-57481942D02*
X92070551Y-57386704D01*
X92070551Y-57386704D02*
X92032456Y-57291466D01*
X92032456Y-57291466D02*
X91994361Y-57243847D01*
X91994361Y-57243847D02*
X91918170Y-57196228D01*
X91918170Y-57196228D02*
X91765789Y-57148609D01*
X91765789Y-57148609D02*
X91689599Y-57100990D01*
X91689599Y-57100990D02*
X91651504Y-57053371D01*
X91651504Y-57053371D02*
X91613408Y-56958133D01*
X91613408Y-56958133D02*
X91613408Y-56862895D01*
X91613408Y-56862895D02*
X91651504Y-56767657D01*
X91651504Y-56767657D02*
X91689599Y-56720038D01*
X91689599Y-56720038D02*
X91765789Y-56672419D01*
X91765789Y-56672419D02*
X91956266Y-56672419D01*
X91956266Y-56672419D02*
X92070551Y-56720038D01*
X92870552Y-57577180D02*
X92832456Y-57624800D01*
X92832456Y-57624800D02*
X92718171Y-57672419D01*
X92718171Y-57672419D02*
X92641980Y-57672419D01*
X92641980Y-57672419D02*
X92527694Y-57624800D01*
X92527694Y-57624800D02*
X92451504Y-57529561D01*
X92451504Y-57529561D02*
X92413409Y-57434323D01*
X92413409Y-57434323D02*
X92375313Y-57243847D01*
X92375313Y-57243847D02*
X92375313Y-57100990D01*
X92375313Y-57100990D02*
X92413409Y-56910514D01*
X92413409Y-56910514D02*
X92451504Y-56815276D01*
X92451504Y-56815276D02*
X92527694Y-56720038D01*
X92527694Y-56720038D02*
X92641980Y-56672419D01*
X92641980Y-56672419D02*
X92718171Y-56672419D01*
X92718171Y-56672419D02*
X92832456Y-56720038D01*
X92832456Y-56720038D02*
X92870552Y-56767657D01*
X93594361Y-57672419D02*
X93213409Y-57672419D01*
X93213409Y-57672419D02*
X93213409Y-56672419D01*
X94051504Y-58005752D02*
X94051504Y-56577180D01*
X94584837Y-57624800D02*
X94699123Y-57672419D01*
X94699123Y-57672419D02*
X94889599Y-57672419D01*
X94889599Y-57672419D02*
X94965790Y-57624800D01*
X94965790Y-57624800D02*
X95003885Y-57577180D01*
X95003885Y-57577180D02*
X95041980Y-57481942D01*
X95041980Y-57481942D02*
X95041980Y-57386704D01*
X95041980Y-57386704D02*
X95003885Y-57291466D01*
X95003885Y-57291466D02*
X94965790Y-57243847D01*
X94965790Y-57243847D02*
X94889599Y-57196228D01*
X94889599Y-57196228D02*
X94737218Y-57148609D01*
X94737218Y-57148609D02*
X94661028Y-57100990D01*
X94661028Y-57100990D02*
X94622933Y-57053371D01*
X94622933Y-57053371D02*
X94584837Y-56958133D01*
X94584837Y-56958133D02*
X94584837Y-56862895D01*
X94584837Y-56862895D02*
X94622933Y-56767657D01*
X94622933Y-56767657D02*
X94661028Y-56720038D01*
X94661028Y-56720038D02*
X94737218Y-56672419D01*
X94737218Y-56672419D02*
X94927695Y-56672419D01*
X94927695Y-56672419D02*
X95041980Y-56720038D01*
X95384838Y-57672419D02*
X95384838Y-56672419D01*
X95384838Y-56672419D02*
X95575314Y-56672419D01*
X95575314Y-56672419D02*
X95689600Y-56720038D01*
X95689600Y-56720038D02*
X95765790Y-56815276D01*
X95765790Y-56815276D02*
X95803885Y-56910514D01*
X95803885Y-56910514D02*
X95841981Y-57100990D01*
X95841981Y-57100990D02*
X95841981Y-57243847D01*
X95841981Y-57243847D02*
X95803885Y-57434323D01*
X95803885Y-57434323D02*
X95765790Y-57529561D01*
X95765790Y-57529561D02*
X95689600Y-57624800D01*
X95689600Y-57624800D02*
X95575314Y-57672419D01*
X95575314Y-57672419D02*
X95384838Y-57672419D01*
X96146742Y-57386704D02*
X96527695Y-57386704D01*
X96070552Y-57672419D02*
X96337219Y-56672419D01*
X96337219Y-56672419D02*
X96603885Y-57672419D01*
D11*
%TO.C,C11*%
X61873748Y-26297500D02*
X62396252Y-26297500D01*
X61873748Y-27767500D02*
X62396252Y-27767500D01*
%TO.C,C88*%
X98861252Y-87515000D02*
X98338748Y-87515000D01*
X98861252Y-88985000D02*
X98338748Y-88985000D01*
%TO.C,R98*%
X31265000Y-36027064D02*
X31265000Y-35572936D01*
X32735000Y-36027064D02*
X32735000Y-35572936D01*
D12*
%TO.C,U6*%
X75370000Y-20360000D02*
X79270000Y-20360000D01*
X75370000Y-25410000D02*
X79270000Y-25410000D01*
D13*
X73380000Y-20580000D02*
G75*
G02*
X73180000Y-20580000I-100000J0D01*
G01*
X73180000Y-20580000D02*
G75*
G02*
X73380000Y-20580000I100000J0D01*
G01*
D11*
%TO.C,C21*%
X81585000Y-22143752D02*
X81585000Y-21621248D01*
X83055000Y-22143752D02*
X83055000Y-21621248D01*
%TO.C,R72*%
X54600000Y-40502936D02*
X54600000Y-40957064D01*
X56070000Y-40502936D02*
X56070000Y-40957064D01*
%TO.C,R14*%
X54585000Y-26105436D02*
X54585000Y-26559564D01*
X56055000Y-26105436D02*
X56055000Y-26559564D01*
D12*
%TO.C,U2*%
X42165000Y-20360000D02*
X46065000Y-20360000D01*
X42165000Y-25410000D02*
X46065000Y-25410000D01*
D13*
X40175000Y-20580000D02*
G75*
G02*
X39975000Y-20580000I-100000J0D01*
G01*
X39975000Y-20580000D02*
G75*
G02*
X40175000Y-20580000I100000J0D01*
G01*
D11*
%TO.C,C72*%
X34706248Y-41765000D02*
X35228752Y-41765000D01*
X34706248Y-43235000D02*
X35228752Y-43235000D01*
D12*
%TO.C,S10*%
X116400000Y-29500000D02*
X120000000Y-29500000D01*
X116400000Y-38500000D02*
X120000000Y-38500000D01*
X120000000Y-38500000D02*
X120000000Y-29500000D01*
%TO.C,S3*%
X109000000Y-48891500D02*
X112600000Y-48891500D01*
X109000000Y-57891500D02*
X112600000Y-57891500D01*
X112600000Y-57891500D02*
X112600000Y-48891500D01*
D11*
%TO.C,R62*%
X69285000Y-55027064D02*
X69285000Y-54572936D01*
X70755000Y-55027064D02*
X70755000Y-54572936D01*
%TO.C,R64*%
X24920436Y-39265000D02*
X25374564Y-39265000D01*
X24920436Y-40735000D02*
X25374564Y-40735000D01*
%TO.C,C54*%
X38233748Y-48795000D02*
X38756252Y-48795000D01*
X38233748Y-50265000D02*
X38756252Y-50265000D01*
%TO.C,C39*%
X66585000Y-31511252D02*
X66585000Y-30988748D01*
X68055000Y-31511252D02*
X68055000Y-30988748D01*
%TO.C,R75*%
X52202936Y-45295000D02*
X52657064Y-45295000D01*
X52202936Y-46765000D02*
X52657064Y-46765000D01*
%TO.C,C17*%
X86350000Y-26051248D02*
X86350000Y-26573752D01*
X87820000Y-26051248D02*
X87820000Y-26573752D01*
D12*
%TO.C,U14*%
X85980000Y-39227500D02*
X89880000Y-39227500D01*
X85980000Y-44277500D02*
X89880000Y-44277500D01*
D13*
X83990000Y-39447500D02*
G75*
G02*
X83790000Y-39447500I-100000J0D01*
G01*
X83790000Y-39447500D02*
G75*
G02*
X83990000Y-39447500I100000J0D01*
G01*
D11*
%TO.C,C83*%
X71600000Y-41011252D02*
X71600000Y-40488748D01*
X73070000Y-41011252D02*
X73070000Y-40488748D01*
%TO.C,J2*%
X19567500Y-20670000D02*
X20897500Y-20670000D01*
X19567500Y-22000000D02*
X19567500Y-20670000D01*
X19567500Y-23270000D02*
X19567500Y-36030000D01*
X19567500Y-23270000D02*
X22227500Y-23270000D01*
X19567500Y-36030000D02*
X22227500Y-36030000D01*
X22227500Y-23270000D02*
X22227500Y-36030000D01*
%TO.C,R93*%
X103432172Y-49177500D02*
X103906688Y-49177500D01*
X103432172Y-50222500D02*
X103906688Y-50222500D01*
%TO.C,C44*%
X81550000Y-31511252D02*
X81550000Y-30988748D01*
X83020000Y-31511252D02*
X83020000Y-30988748D01*
%TO.C,C79*%
X52188748Y-41765000D02*
X52711252Y-41765000D01*
X52188748Y-43235000D02*
X52711252Y-43235000D01*
%TO.C,R92*%
X103906688Y-44327500D02*
X103432172Y-44327500D01*
X103906688Y-45372500D02*
X103432172Y-45372500D01*
%TO.C,L1*%
X99510000Y-41149622D02*
X99510000Y-40350378D01*
X100630000Y-41149622D02*
X100630000Y-40350378D01*
%TO.C,C28*%
X96811252Y-36565000D02*
X96288748Y-36565000D01*
X96811252Y-38035000D02*
X96288748Y-38035000D01*
D12*
%TO.C,U5*%
X58270000Y-20360000D02*
X62170000Y-20360000D01*
X58270000Y-25410000D02*
X62170000Y-25410000D01*
D13*
X56280000Y-20580000D02*
G75*
G02*
X56080000Y-20580000I-100000J0D01*
G01*
X56080000Y-20580000D02*
G75*
G02*
X56280000Y-20580000I100000J0D01*
G01*
D11*
%TO.C,R53*%
X89660242Y-54977500D02*
X90134758Y-54977500D01*
X89660242Y-56022500D02*
X90134758Y-56022500D01*
%TO.C,R17*%
X71555000Y-26105436D02*
X71555000Y-26559564D01*
X73025000Y-26105436D02*
X73025000Y-26559564D01*
%TO.C,C80*%
X66600000Y-41011252D02*
X66600000Y-40488748D01*
X68070000Y-41011252D02*
X68070000Y-40488748D01*
%TO.C,R13*%
X52187936Y-26327500D02*
X52642064Y-26327500D01*
X52187936Y-27797500D02*
X52642064Y-27797500D01*
D13*
%TO.C,U4*%
X88134998Y-88800000D02*
X88134998Y-88649995D01*
X88134998Y-90750001D02*
X88134998Y-90225001D01*
X91534996Y-88800000D02*
X91534996Y-88649995D01*
X91534996Y-90750007D02*
X91534996Y-90600002D01*
D11*
%TO.C,R49*%
X35159564Y-54795000D02*
X34705436Y-54795000D01*
X35159564Y-56265000D02*
X34705436Y-56265000D01*
%TO.C,C47*%
X92565000Y-31511252D02*
X92565000Y-30988748D01*
X94035000Y-31511252D02*
X94035000Y-30988748D01*
%TO.C,R10*%
X45882936Y-26327500D02*
X46337064Y-26327500D01*
X45882936Y-27797500D02*
X46337064Y-27797500D01*
D12*
%TO.C,S5*%
X80300000Y-88150000D02*
X80300000Y-97150000D01*
X83900000Y-88150000D02*
X80300000Y-88150000D01*
X83900000Y-97150000D02*
X80300000Y-97150000D01*
%TO.C,U15*%
X42165000Y-48727500D02*
X46065000Y-48727500D01*
X42165000Y-53777500D02*
X46065000Y-53777500D01*
D13*
X40175000Y-48947500D02*
G75*
G02*
X39975000Y-48947500I-100000J0D01*
G01*
X39975000Y-48947500D02*
G75*
G02*
X40175000Y-48947500I100000J0D01*
G01*
D11*
%TO.C,R37*%
X64567500Y-36037258D02*
X64567500Y-35562742D01*
X65612500Y-36037258D02*
X65612500Y-35562742D01*
D12*
%TO.C,S11*%
X116400000Y-39050000D02*
X120000000Y-39050000D01*
X116400000Y-48050000D02*
X120000000Y-48050000D01*
X120000000Y-48050000D02*
X120000000Y-39050000D01*
D11*
%TO.C,J4*%
X80970000Y-60930000D02*
X80970000Y-59600000D01*
X82300000Y-60930000D02*
X80970000Y-60930000D01*
X83570000Y-58270000D02*
X96330000Y-58270000D01*
X83570000Y-60930000D02*
X83570000Y-58270000D01*
X83570000Y-60930000D02*
X96330000Y-60930000D01*
X96330000Y-60930000D02*
X96330000Y-58270000D01*
%TO.C,C57*%
X81550000Y-54518748D02*
X81550000Y-55041252D01*
X83020000Y-54518748D02*
X83020000Y-55041252D01*
D12*
%TO.C,S7*%
X97237500Y-93600000D02*
X97467500Y-93600000D01*
X97237500Y-97600000D02*
X97237500Y-93600000D01*
X97237500Y-97600000D02*
X97467500Y-97600000D01*
X99907500Y-93600000D02*
X100137500Y-93600000D01*
X100137500Y-93600000D02*
X100137500Y-97600000D01*
X100137500Y-97600000D02*
X99907500Y-97600000D01*
%TO.C,S8*%
X113150000Y-93500000D02*
X113380000Y-93500000D01*
X113150000Y-97500000D02*
X113150000Y-93500000D01*
X113150000Y-97500000D02*
X113380000Y-97500000D01*
X115820000Y-93500000D02*
X116050000Y-93500000D01*
X116050000Y-93500000D02*
X116050000Y-97500000D01*
X116050000Y-97500000D02*
X115820000Y-97500000D01*
D11*
%TO.C,C92*%
X103428178Y-20465000D02*
X103950682Y-20465000D01*
X103428178Y-21935000D02*
X103950682Y-21935000D01*
%TO.C,R76*%
X71570000Y-45072936D02*
X71570000Y-45527064D01*
X73040000Y-45072936D02*
X73040000Y-45527064D01*
%TO.C,C56*%
X78938748Y-54765000D02*
X79461252Y-54765000D01*
X78938748Y-56235000D02*
X79461252Y-56235000D01*
%TO.C,C85*%
X75561252Y-45265000D02*
X75038748Y-45265000D01*
X75561252Y-46735000D02*
X75038748Y-46735000D01*
D12*
%TO.C,U19*%
X25662500Y-41431666D02*
X28662500Y-41431666D01*
X25662500Y-44501666D02*
X28662500Y-44501666D01*
D13*
X23742500Y-41711666D02*
G75*
G02*
X23542500Y-41711666I-100000J0D01*
G01*
X23542500Y-41711666D02*
G75*
G02*
X23742500Y-41711666I100000J0D01*
G01*
D11*
%TO.C,L2*%
X96440000Y-25862878D02*
X96440000Y-26662122D01*
X97560000Y-25862878D02*
X97560000Y-26662122D01*
%TO.C,R87*%
X103432172Y-27626000D02*
X103906688Y-27626000D01*
X103432172Y-28671000D02*
X103906688Y-28671000D01*
%TO.C,R8*%
X38702064Y-26327500D02*
X38247936Y-26327500D01*
X38702064Y-27797500D02*
X38247936Y-27797500D01*
%TO.C,R43*%
X69497500Y-31467258D02*
X69497500Y-30992742D01*
X70542500Y-31467258D02*
X70542500Y-30992742D01*
%TO.C,C35*%
X42371252Y-35765000D02*
X41848748Y-35765000D01*
X42371252Y-37235000D02*
X41848748Y-37235000D01*
D12*
%TO.C,U12*%
X85980000Y-29727500D02*
X89880000Y-29727500D01*
X85980000Y-34777500D02*
X89880000Y-34777500D01*
D13*
X83990000Y-29947500D02*
G75*
G02*
X83790000Y-29947500I-100000J0D01*
G01*
X83790000Y-29947500D02*
G75*
G02*
X83990000Y-29947500I100000J0D01*
G01*
D11*
%TO.C,R9*%
X35159564Y-20397500D02*
X34705436Y-20397500D01*
X35159564Y-21867500D02*
X34705436Y-21867500D01*
%TO.C,R52*%
X85660242Y-54977500D02*
X86134758Y-54977500D01*
X85660242Y-56022500D02*
X86134758Y-56022500D01*
D12*
%TO.C,J1*%
X102217500Y-93950000D02*
X102217500Y-95630000D01*
X102217500Y-99400000D02*
X102217500Y-97970000D01*
X102217500Y-99400000D02*
X111157500Y-99400000D01*
X111157500Y-93950000D02*
X111157500Y-95630000D01*
X111157500Y-99400000D02*
X111157500Y-97970000D01*
D13*
X103587500Y-90800000D02*
G75*
G02*
X103387500Y-90800000I-100000J0D01*
G01*
X103387500Y-90800000D02*
G75*
G02*
X103587500Y-90800000I100000J0D01*
G01*
D11*
%TO.C,C22*%
X25413752Y-26297500D02*
X24891248Y-26297500D01*
X25413752Y-27767500D02*
X24891248Y-27767500D01*
D12*
%TO.C,U21*%
X58285000Y-39227500D02*
X62185000Y-39227500D01*
X58285000Y-44277500D02*
X62185000Y-44277500D01*
D13*
X56295000Y-39447500D02*
G75*
G02*
X56095000Y-39447500I-100000J0D01*
G01*
X56095000Y-39447500D02*
G75*
G02*
X56295000Y-39447500I100000J0D01*
G01*
D11*
%TO.C,C31*%
X34691248Y-32765000D02*
X35213752Y-32765000D01*
X34691248Y-34235000D02*
X35213752Y-34235000D01*
%TO.C,C30*%
X25413752Y-35765000D02*
X24891248Y-35765000D01*
X25413752Y-37235000D02*
X24891248Y-37235000D01*
D12*
%TO.C,S1*%
X109000000Y-19438500D02*
X112600000Y-19438500D01*
X109000000Y-28438500D02*
X112600000Y-28438500D01*
X112600000Y-28438500D02*
X112600000Y-19438500D01*
D11*
%TO.C,R50*%
X35159564Y-48765000D02*
X34705436Y-48765000D01*
X35159564Y-50235000D02*
X34705436Y-50235000D01*
%TO.C,C1*%
X89538748Y-92515000D02*
X90061252Y-92515000D01*
X89538748Y-93985000D02*
X90061252Y-93985000D01*
%TO.C,C49*%
X81550000Y-45018748D02*
X81550000Y-45541252D01*
X83020000Y-45018748D02*
X83020000Y-45541252D01*
%TO.C,C93*%
X103950682Y-25065000D02*
X103428178Y-25065000D01*
X103950682Y-26535000D02*
X103428178Y-26535000D01*
%TO.C,R16*%
X66555000Y-26559564D02*
X66555000Y-26105436D01*
X68025000Y-26559564D02*
X68025000Y-26105436D01*
%TO.C,R25*%
X96317936Y-41765000D02*
X96772064Y-41765000D01*
X96317936Y-43235000D02*
X96772064Y-43235000D01*
D12*
%TO.C,U13*%
X25647500Y-50965000D02*
X28647500Y-50965000D01*
X25647500Y-54035000D02*
X28647500Y-54035000D01*
D13*
X23727500Y-51245000D02*
G75*
G02*
X23527500Y-51245000I-100000J0D01*
G01*
X23527500Y-51245000D02*
G75*
G02*
X23727500Y-51245000I100000J0D01*
G01*
D12*
%TO.C,S12*%
X116400000Y-48891500D02*
X120000000Y-48891500D01*
X116400000Y-57891500D02*
X120000000Y-57891500D01*
X120000000Y-57891500D02*
X120000000Y-48891500D01*
D11*
%TO.C,R60*%
X52187936Y-54795000D02*
X52642064Y-54795000D01*
X52187936Y-56265000D02*
X52642064Y-56265000D01*
%TO.C,C70*%
X29376252Y-45265000D02*
X28853748Y-45265000D01*
X29376252Y-46735000D02*
X28853748Y-46735000D01*
%TO.C,C26*%
X96285000Y-22143752D02*
X96285000Y-21621248D01*
X97755000Y-22143752D02*
X97755000Y-21621248D01*
%TO.C,R57*%
X54585000Y-50002936D02*
X54585000Y-50457064D01*
X56055000Y-50002936D02*
X56055000Y-50457064D01*
%TO.C,C96*%
X87965000Y-65211252D02*
X87965000Y-64688748D01*
X89435000Y-65211252D02*
X89435000Y-64688748D01*
%TO.C,R69*%
X45897936Y-45295000D02*
X46352064Y-45295000D01*
X45897936Y-46765000D02*
X46352064Y-46765000D01*
%TO.C,C20*%
X64385000Y-22143752D02*
X64385000Y-21621248D01*
X65855000Y-22143752D02*
X65855000Y-21621248D01*
D12*
%TO.C,S6*%
X80300000Y-70500000D02*
X80300000Y-79500000D01*
X83900000Y-70500000D02*
X80300000Y-70500000D01*
X83900000Y-79500000D02*
X80300000Y-79500000D01*
D11*
%TO.C,R56*%
X54585000Y-54572936D02*
X54585000Y-55027064D01*
X56055000Y-54572936D02*
X56055000Y-55027064D01*
%TO.C,R29*%
X29307064Y-29765000D02*
X28852936Y-29765000D01*
X29307064Y-31235000D02*
X28852936Y-31235000D01*
%TO.C,C48*%
X79038748Y-45265000D02*
X79561252Y-45265000D01*
X79038748Y-46735000D02*
X79561252Y-46735000D01*
%TO.C,R67*%
X35174564Y-39265000D02*
X34720436Y-39265000D01*
X35174564Y-40735000D02*
X34720436Y-40735000D01*
%TO.C,R6*%
X29342064Y-20397500D02*
X28887936Y-20397500D01*
X29342064Y-21867500D02*
X28887936Y-21867500D01*
%TO.C,C91*%
X118288748Y-59515000D02*
X118811252Y-59515000D01*
X118288748Y-60985000D02*
X118811252Y-60985000D01*
%TO.C,C16*%
X86285000Y-21621248D02*
X86285000Y-22143752D01*
X87755000Y-21621248D02*
X87755000Y-22143752D01*
%TO.C,R61*%
X71555000Y-54572936D02*
X71555000Y-55027064D01*
X73025000Y-54572936D02*
X73025000Y-55027064D01*
%TO.C,C7*%
X34691248Y-23485000D02*
X35213752Y-23485000D01*
X34691248Y-24955000D02*
X35213752Y-24955000D01*
%TO.C,R63*%
X69497500Y-50467258D02*
X69497500Y-49992742D01*
X70542500Y-50467258D02*
X70542500Y-49992742D01*
%TO.C,C18*%
X29361252Y-26297500D02*
X28838748Y-26297500D01*
X29361252Y-27767500D02*
X28838748Y-27767500D01*
%TO.C,C29*%
X29361252Y-35765000D02*
X28838748Y-35765000D01*
X29361252Y-37235000D02*
X28838748Y-37235000D01*
%TO.C,C87*%
X88838748Y-76265000D02*
X89361252Y-76265000D01*
X88838748Y-77735000D02*
X89361252Y-77735000D01*
%TO.C,C45*%
X75546252Y-35765000D02*
X75023748Y-35765000D01*
X75546252Y-37235000D02*
X75023748Y-37235000D01*
%TO.C,C38*%
X52173748Y-32765000D02*
X52696252Y-32765000D01*
X52173748Y-34235000D02*
X52696252Y-34235000D01*
%TO.C,C25*%
X75546252Y-26297500D02*
X75023748Y-26297500D01*
X75546252Y-27767500D02*
X75023748Y-27767500D01*
%TO.C,R22*%
X89747742Y-26540000D02*
X90222258Y-26540000D01*
X89747742Y-27585000D02*
X90222258Y-27585000D01*
%TO.C,C66*%
X57973748Y-54765000D02*
X58496252Y-54765000D01*
X57973748Y-56235000D02*
X58496252Y-56235000D01*
%TO.C,R41*%
X69285000Y-36027064D02*
X69285000Y-35572936D01*
X70755000Y-36027064D02*
X70755000Y-35572936D01*
%TO.C,R33*%
X45882936Y-35795000D02*
X46337064Y-35795000D01*
X45882936Y-37265000D02*
X46337064Y-37265000D01*
%TO.C,R31*%
X35159564Y-29765000D02*
X34705436Y-29765000D01*
X35159564Y-31235000D02*
X34705436Y-31235000D01*
%TO.C,R102*%
X31265000Y-55027064D02*
X31265000Y-54572936D01*
X32735000Y-55027064D02*
X32735000Y-54572936D01*
%TO.C,C13*%
X71585000Y-22143752D02*
X71585000Y-21621248D01*
X73055000Y-22143752D02*
X73055000Y-21621248D01*
%TO.C,C34*%
X48305000Y-31511252D02*
X48305000Y-30988748D01*
X49775000Y-31511252D02*
X49775000Y-30988748D01*
%TO.C,R42*%
X85822742Y-35977500D02*
X86297258Y-35977500D01*
X85822742Y-37022500D02*
X86297258Y-37022500D01*
%TO.C,C84*%
X81565000Y-41011252D02*
X81565000Y-40488748D01*
X83035000Y-41011252D02*
X83035000Y-40488748D01*
%TO.C,R77*%
X69300000Y-45527064D02*
X69300000Y-45072936D01*
X70770000Y-45527064D02*
X70770000Y-45072936D01*
%TO.C,C58*%
X48305000Y-50511252D02*
X48305000Y-49988748D01*
X49775000Y-50511252D02*
X49775000Y-49988748D01*
%TO.C,C46*%
X81550000Y-35488748D02*
X81550000Y-36011252D01*
X83020000Y-35488748D02*
X83020000Y-36011252D01*
%TO.C,R78*%
X69512500Y-40967258D02*
X69512500Y-40492742D01*
X70557500Y-40967258D02*
X70557500Y-40492742D01*
%TO.C,C69*%
X75546252Y-54765000D02*
X75023748Y-54765000D01*
X75546252Y-56235000D02*
X75023748Y-56235000D01*
%TO.C,R99*%
X31265000Y-31457064D02*
X31265000Y-31002936D01*
X32735000Y-31457064D02*
X32735000Y-31002936D01*
%TO.C,C73*%
X38248748Y-39295000D02*
X38771252Y-39295000D01*
X38248748Y-40765000D02*
X38771252Y-40765000D01*
%TO.C,C89*%
X98861252Y-90015000D02*
X98338748Y-90015000D01*
X98861252Y-91485000D02*
X98338748Y-91485000D01*
%TO.C,C40*%
X64385000Y-31511252D02*
X64385000Y-30988748D01*
X65855000Y-31511252D02*
X65855000Y-30988748D01*
%TO.C,R71*%
X54600000Y-45072936D02*
X54600000Y-45527064D01*
X56070000Y-45072936D02*
X56070000Y-45527064D01*
%TO.C,R70*%
X48502500Y-45537258D02*
X48502500Y-45062742D01*
X49547500Y-45537258D02*
X49547500Y-45062742D01*
%TO.C,R66*%
X35174564Y-45295000D02*
X34720436Y-45295000D01*
X35174564Y-46765000D02*
X34720436Y-46765000D01*
D12*
%TO.C,S9*%
X116400000Y-19438500D02*
X120000000Y-19438500D01*
X116400000Y-28438500D02*
X120000000Y-28438500D01*
X120000000Y-28438500D02*
X120000000Y-19438500D01*
%TO.C,U18*%
X75370000Y-48727500D02*
X79270000Y-48727500D01*
X75370000Y-53777500D02*
X79270000Y-53777500D01*
D13*
X73380000Y-48947500D02*
G75*
G02*
X73180000Y-48947500I-100000J0D01*
G01*
X73180000Y-48947500D02*
G75*
G02*
X73380000Y-48947500I100000J0D01*
G01*
D11*
%TO.C,R48*%
X89675242Y-45477500D02*
X90149758Y-45477500D01*
X89675242Y-46522500D02*
X90149758Y-46522500D01*
%TO.C,R35*%
X54585000Y-35572936D02*
X54585000Y-36027064D01*
X56055000Y-35572936D02*
X56055000Y-36027064D01*
%TO.C,C50*%
X29361252Y-54765000D02*
X28838748Y-54765000D01*
X29361252Y-56235000D02*
X28838748Y-56235000D01*
%TO.C,C82*%
X58511252Y-45265000D02*
X57988748Y-45265000D01*
X58511252Y-46735000D02*
X57988748Y-46735000D01*
%TO.C,C62*%
X61873748Y-54765000D02*
X62396252Y-54765000D01*
X61873748Y-56235000D02*
X62396252Y-56235000D01*
%TO.C,R79*%
X104372936Y-88765000D02*
X104827064Y-88765000D01*
X104372936Y-90235000D02*
X104827064Y-90235000D01*
%TO.C,R18*%
X69497500Y-22099758D02*
X69497500Y-21625242D01*
X70542500Y-22099758D02*
X70542500Y-21625242D01*
%TO.C,C4*%
X85890580Y-85240000D02*
X85609420Y-85240000D01*
X85890580Y-86260000D02*
X85609420Y-86260000D01*
%TO.C,C41*%
X58496252Y-35765000D02*
X57973748Y-35765000D01*
X58496252Y-37235000D02*
X57973748Y-37235000D01*
D12*
%TO.C,U20*%
X42180000Y-39227500D02*
X46080000Y-39227500D01*
X42180000Y-44277500D02*
X46080000Y-44277500D01*
D13*
X40190000Y-39447500D02*
G75*
G02*
X39990000Y-39447500I-100000J0D01*
G01*
X39990000Y-39447500D02*
G75*
G02*
X40190000Y-39447500I100000J0D01*
G01*
D11*
%TO.C,C94*%
X103950682Y-35765000D02*
X103428178Y-35765000D01*
X103950682Y-37235000D02*
X103428178Y-37235000D01*
D12*
%TO.C,U22*%
X75385000Y-39227500D02*
X79285000Y-39227500D01*
X75385000Y-44277500D02*
X79285000Y-44277500D01*
D13*
X73395000Y-39447500D02*
G75*
G02*
X73195000Y-39447500I-100000J0D01*
G01*
X73195000Y-39447500D02*
G75*
G02*
X73395000Y-39447500I100000J0D01*
G01*
D11*
%TO.C,R100*%
X31265000Y-45527064D02*
X31265000Y-45072936D01*
X32735000Y-45527064D02*
X32735000Y-45072936D01*
%TO.C,R95*%
X103906688Y-54977500D02*
X103432172Y-54977500D01*
X103906688Y-56022500D02*
X103432172Y-56022500D01*
D12*
%TO.C,Q1*%
X103550000Y-81539500D02*
X103550000Y-82301500D01*
X103550000Y-83698500D02*
X103550000Y-84460500D01*
X103550000Y-84460500D02*
X104604000Y-84460500D01*
X104604000Y-81539500D02*
X103550000Y-81539500D01*
D11*
%TO.C,R81*%
X109577064Y-83015000D02*
X109122936Y-83015000D01*
X109577064Y-84485000D02*
X109122936Y-84485000D01*
%TO.C,C24*%
X58496252Y-26297500D02*
X57973748Y-26297500D01*
X58496252Y-27767500D02*
X57973748Y-27767500D01*
%TO.C,R46*%
X29307064Y-48765000D02*
X28852936Y-48765000D01*
X29307064Y-50235000D02*
X28852936Y-50235000D01*
%TO.C,D1*%
X108350000Y-90460000D02*
X111035000Y-90460000D01*
X111035000Y-88540000D02*
X108350000Y-88540000D01*
X111035000Y-90460000D02*
X111035000Y-88540000D01*
%TO.C,R65*%
X29322064Y-39265000D02*
X28867936Y-39265000D01*
X29322064Y-40735000D02*
X28867936Y-40735000D01*
%TO.C,R34*%
X48487500Y-36037258D02*
X48487500Y-35562742D01*
X49532500Y-36037258D02*
X49532500Y-35562742D01*
%TO.C,C9*%
X52173748Y-20427500D02*
X52696252Y-20427500D01*
X52173748Y-21897500D02*
X52696252Y-21897500D01*
%TO.C,R1*%
X81747936Y-82515000D02*
X82202064Y-82515000D01*
X81747936Y-83985000D02*
X82202064Y-83985000D01*
%TO.C,R7*%
X35159564Y-26327500D02*
X34705436Y-26327500D01*
X35159564Y-27797500D02*
X34705436Y-27797500D01*
D12*
%TO.C,U1*%
X25647500Y-22497500D02*
X28647500Y-22497500D01*
X25647500Y-25567500D02*
X28647500Y-25567500D01*
D13*
X23727500Y-22777500D02*
G75*
G02*
X23527500Y-22777500I-100000J0D01*
G01*
X23527500Y-22777500D02*
G75*
G02*
X23727500Y-22777500I100000J0D01*
G01*
D11*
%TO.C,C78*%
X61888748Y-45265000D02*
X62411252Y-45265000D01*
X61888748Y-46735000D02*
X62411252Y-46735000D01*
%TO.C,C76*%
X42386252Y-45265000D02*
X41863748Y-45265000D01*
X42386252Y-46735000D02*
X41863748Y-46735000D01*
%TO.C,U24*%
X101470000Y-62130000D02*
X101470000Y-63130000D01*
X101470000Y-80370000D02*
X101470000Y-79370000D01*
X102250000Y-62130000D02*
X101470000Y-62130000D01*
X102250000Y-80370000D02*
X101470000Y-80370000D01*
X127210000Y-62130000D02*
X121050000Y-62130000D01*
X127210000Y-62130000D02*
X127210000Y-80370000D01*
X127210000Y-80370000D02*
X120795000Y-80370000D01*
X120825000Y-62125000D02*
X120325000Y-62125000D01*
X120325000Y-61625000D01*
X120825000Y-62125000D01*
G36*
X120825000Y-62125000D02*
G01*
X120325000Y-62125000D01*
X120325000Y-61625000D01*
X120825000Y-62125000D01*
G37*
D12*
%TO.C,U7*%
X90070000Y-20360000D02*
X93970000Y-20360000D01*
X90070000Y-25410000D02*
X93970000Y-25410000D01*
D13*
X88080000Y-20580000D02*
G75*
G02*
X87880000Y-20580000I-100000J0D01*
G01*
X87880000Y-20580000D02*
G75*
G02*
X88080000Y-20580000I100000J0D01*
G01*
D11*
%TO.C,R51*%
X38702064Y-54795000D02*
X38247936Y-54795000D01*
X38702064Y-56265000D02*
X38247936Y-56265000D01*
D12*
%TO.C,S4*%
X109000000Y-39000000D02*
X112600000Y-39000000D01*
X109000000Y-48000000D02*
X112600000Y-48000000D01*
X112600000Y-48000000D02*
X112600000Y-39000000D01*
%TO.C,U17*%
X58270000Y-48727500D02*
X62170000Y-48727500D01*
X58270000Y-53777500D02*
X62170000Y-53777500D01*
D13*
X56280000Y-48947500D02*
G75*
G02*
X56080000Y-48947500I-100000J0D01*
G01*
X56080000Y-48947500D02*
G75*
G02*
X56280000Y-48947500I100000J0D01*
G01*
D11*
%TO.C,R24*%
X96317936Y-39265000D02*
X96772064Y-39265000D01*
X96317936Y-40735000D02*
X96772064Y-40735000D01*
%TO.C,R97*%
X31265000Y-22089564D02*
X31265000Y-21635436D01*
X32735000Y-22089564D02*
X32735000Y-21635436D01*
%TO.C,R27*%
X99435000Y-31439564D02*
X99435000Y-30985436D01*
X100905000Y-31439564D02*
X100905000Y-30985436D01*
D12*
%TO.C,U3*%
X95100000Y-31170000D02*
X95100000Y-34170000D01*
X98100000Y-31170000D02*
X98100000Y-34170000D01*
D13*
X97950000Y-29170000D02*
G75*
G02*
X97750000Y-29170000I-100000J0D01*
G01*
X97750000Y-29170000D02*
G75*
G02*
X97950000Y-29170000I100000J0D01*
G01*
D11*
%TO.C,R44*%
X89735242Y-35977500D02*
X90209758Y-35977500D01*
X89735242Y-37022500D02*
X90209758Y-37022500D01*
%TO.C,C61*%
X52173748Y-48795000D02*
X52696252Y-48795000D01*
X52173748Y-50265000D02*
X52696252Y-50265000D01*
%TO.C,J3*%
X80490000Y-62140000D02*
X80490000Y-63390000D01*
X80790000Y-62440000D02*
X80790000Y-67160000D01*
X80790000Y-63750000D02*
X81400000Y-63750000D01*
X80790000Y-65050000D02*
X81400000Y-65050000D01*
X80790000Y-67160000D02*
X86910000Y-67160000D01*
X81400000Y-63050000D02*
X81400000Y-66550000D01*
X81400000Y-66550000D02*
X86300000Y-66550000D01*
X81740000Y-62140000D02*
X80490000Y-62140000D01*
X82250000Y-62240000D02*
X82250000Y-62440000D01*
X82550000Y-62240000D02*
X82250000Y-62240000D01*
X82550000Y-62340000D02*
X82250000Y-62340000D01*
X82550000Y-62440000D02*
X82550000Y-62240000D01*
X83350000Y-62440000D02*
X83350000Y-63050000D01*
X83350000Y-63050000D02*
X81400000Y-63050000D01*
X83750000Y-66050000D02*
X83950000Y-66050000D01*
X83750000Y-66550000D02*
X83750000Y-66050000D01*
X83850000Y-66550000D02*
X83850000Y-66050000D01*
X83950000Y-66050000D02*
X83950000Y-66550000D01*
X84350000Y-63050000D02*
X84350000Y-62440000D01*
X86300000Y-63050000D02*
X84350000Y-63050000D01*
X86300000Y-66550000D02*
X86300000Y-63050000D01*
X86910000Y-62440000D02*
X80790000Y-62440000D01*
X86910000Y-63750000D02*
X86300000Y-63750000D01*
X86910000Y-65050000D02*
X86300000Y-65050000D01*
X86910000Y-67160000D02*
X86910000Y-62440000D01*
%TO.C,R55*%
X48487500Y-55037258D02*
X48487500Y-54562742D01*
X49532500Y-55037258D02*
X49532500Y-54562742D01*
%TO.C,R47*%
X85675242Y-45477500D02*
X86149758Y-45477500D01*
X85675242Y-46522500D02*
X86149758Y-46522500D01*
%TO.C,C2*%
X90111252Y-85015000D02*
X89588748Y-85015000D01*
X90111252Y-86485000D02*
X89588748Y-86485000D01*
%TO.C,C63*%
X52173748Y-51265000D02*
X52696252Y-51265000D01*
X52173748Y-52735000D02*
X52696252Y-52735000D01*
%TO.C,C19*%
X48305000Y-22143752D02*
X48305000Y-21621248D01*
X49775000Y-22143752D02*
X49775000Y-21621248D01*
%TO.C,C53*%
X34691248Y-51765000D02*
X35213752Y-51765000D01*
X34691248Y-53235000D02*
X35213752Y-53235000D01*
%TO.C,R91*%
X103442366Y-41165000D02*
X103896494Y-41165000D01*
X103442366Y-42635000D02*
X103896494Y-42635000D01*
D12*
%TO.C,U11*%
X75370000Y-29727500D02*
X79270000Y-29727500D01*
X75370000Y-34777500D02*
X79270000Y-34777500D01*
D13*
X73380000Y-29947500D02*
G75*
G02*
X73180000Y-29947500I-100000J0D01*
G01*
X73180000Y-29947500D02*
G75*
G02*
X73380000Y-29947500I100000J0D01*
G01*
D11*
%TO.C,R26*%
X99435000Y-26559564D02*
X99435000Y-26105436D01*
X100905000Y-26559564D02*
X100905000Y-26105436D01*
%TO.C,C77*%
X52188748Y-39295000D02*
X52711252Y-39295000D01*
X52188748Y-40765000D02*
X52711252Y-40765000D01*
%TO.C,C55*%
X38233748Y-51265000D02*
X38756252Y-51265000D01*
X38233748Y-52735000D02*
X38756252Y-52735000D01*
%TO.C,R68*%
X38717064Y-45295000D02*
X38262936Y-45295000D01*
X38717064Y-46765000D02*
X38262936Y-46765000D01*
%TO.C,R88*%
X103442366Y-30363500D02*
X103896494Y-30363500D01*
X103442366Y-31833500D02*
X103896494Y-31833500D01*
%TO.C,C33*%
X38233748Y-32765000D02*
X38756252Y-32765000D01*
X38233748Y-34235000D02*
X38756252Y-34235000D01*
%TO.C,C27*%
X99465000Y-35461252D02*
X99465000Y-34938748D01*
X100935000Y-35461252D02*
X100935000Y-34938748D01*
%TO.C,R19*%
X79057936Y-26327500D02*
X79512064Y-26327500D01*
X79057936Y-27797500D02*
X79512064Y-27797500D01*
%TO.C,R28*%
X24905436Y-29765000D02*
X25359564Y-29765000D01*
X24905436Y-31235000D02*
X25359564Y-31235000D01*
%TO.C,R32*%
X38702064Y-35795000D02*
X38247936Y-35795000D01*
X38702064Y-37265000D02*
X38247936Y-37265000D01*
%TO.C,R82*%
X98372936Y-85015000D02*
X98827064Y-85015000D01*
X98372936Y-86485000D02*
X98827064Y-86485000D01*
%TO.C,R80*%
X109577064Y-86015000D02*
X109122936Y-86015000D01*
X109577064Y-87485000D02*
X109122936Y-87485000D01*
%TO.C,R86*%
X103432172Y-22877500D02*
X103906688Y-22877500D01*
X103432172Y-23922500D02*
X103906688Y-23922500D01*
%TO.C,R4*%
X94027064Y-85015000D02*
X93572936Y-85015000D01*
X94027064Y-86485000D02*
X93572936Y-86485000D01*
%TO.C,C15*%
X84110000Y-22023080D02*
X84110000Y-21741920D01*
X85130000Y-22023080D02*
X85130000Y-21741920D01*
%TO.C,R84*%
X99775242Y-20677500D02*
X100249758Y-20677500D01*
X99775242Y-21722500D02*
X100249758Y-21722500D01*
%TO.C,C59*%
X42371252Y-54765000D02*
X41848748Y-54765000D01*
X42371252Y-56235000D02*
X41848748Y-56235000D01*
%TO.C,R101*%
X31265000Y-40939564D02*
X31265000Y-40485436D01*
X32735000Y-40939564D02*
X32735000Y-40485436D01*
%TO.C,R3*%
X94087258Y-87727500D02*
X93612742Y-87727500D01*
X94087258Y-88772500D02*
X93612742Y-88772500D01*
%TO.C,C90*%
X118138748Y-94515000D02*
X118661252Y-94515000D01*
X118138748Y-95985000D02*
X118661252Y-95985000D01*
%TO.C,C8*%
X38233748Y-23485000D02*
X38756252Y-23485000D01*
X38233748Y-24955000D02*
X38756252Y-24955000D01*
%TO.C,C12*%
X66585000Y-22143752D02*
X66585000Y-21621248D01*
X68055000Y-22143752D02*
X68055000Y-21621248D01*
D12*
%TO.C,S2*%
X109000000Y-29500000D02*
X112600000Y-29500000D01*
X109000000Y-38500000D02*
X112600000Y-38500000D01*
X112600000Y-38500000D02*
X112600000Y-29500000D01*
D11*
%TO.C,C3*%
X93488748Y-92515000D02*
X94011252Y-92515000D01*
X93488748Y-93985000D02*
X94011252Y-93985000D01*
%TO.C,R39*%
X52187936Y-35795000D02*
X52642064Y-35795000D01*
X52187936Y-37265000D02*
X52642064Y-37265000D01*
%TO.C,C51*%
X25413752Y-54765000D02*
X24891248Y-54765000D01*
X25413752Y-56235000D02*
X24891248Y-56235000D01*
D12*
%TO.C,U8*%
X25647500Y-31898333D02*
X28647500Y-31898333D01*
X25647500Y-34968333D02*
X28647500Y-34968333D01*
D13*
X23727500Y-32178333D02*
G75*
G02*
X23527500Y-32178333I-100000J0D01*
G01*
X23527500Y-32178333D02*
G75*
G02*
X23727500Y-32178333I100000J0D01*
G01*
D11*
%TO.C,R103*%
X31265000Y-50457064D02*
X31265000Y-50002936D01*
X32735000Y-50457064D02*
X32735000Y-50002936D01*
%TO.C,C65*%
X64385000Y-50511252D02*
X64385000Y-49988748D01*
X65855000Y-50511252D02*
X65855000Y-49988748D01*
D12*
%TO.C,U9*%
X42165000Y-29727500D02*
X46065000Y-29727500D01*
X42165000Y-34777500D02*
X46065000Y-34777500D01*
D13*
X40175000Y-29947500D02*
G75*
G02*
X39975000Y-29947500I-100000J0D01*
G01*
X39975000Y-29947500D02*
G75*
G02*
X40175000Y-29947500I100000J0D01*
G01*
D11*
%TO.C,C32*%
X38233748Y-29795000D02*
X38756252Y-29795000D01*
X38233748Y-31265000D02*
X38756252Y-31265000D01*
%TO.C,R89*%
X103906688Y-33526000D02*
X103432172Y-33526000D01*
X103906688Y-34571000D02*
X103432172Y-34571000D01*
%TO.C,R15*%
X64567500Y-26569758D02*
X64567500Y-26095242D01*
X65612500Y-26569758D02*
X65612500Y-26095242D01*
D12*
%TO.C,U16*%
X85980000Y-48727500D02*
X89880000Y-48727500D01*
X85980000Y-53777500D02*
X89880000Y-53777500D01*
D13*
X83990000Y-48947500D02*
G75*
G02*
X83790000Y-48947500I-100000J0D01*
G01*
X83790000Y-48947500D02*
G75*
G02*
X83990000Y-48947500I100000J0D01*
G01*
D11*
%TO.C,J5*%
X88170000Y-16570000D02*
X89500000Y-16570000D01*
X88170000Y-17900000D02*
X88170000Y-16570000D01*
X88170000Y-19170000D02*
X88170000Y-19230000D01*
X88170000Y-19170000D02*
X90830000Y-19170000D01*
X88170000Y-19230000D02*
X90830000Y-19230000D01*
X90830000Y-19170000D02*
X90830000Y-19230000D01*
%TO.C,C43*%
X71585000Y-31511252D02*
X71585000Y-30988748D01*
X73055000Y-31511252D02*
X73055000Y-30988748D01*
%TO.C,C14*%
X81550000Y-26573752D02*
X81550000Y-26051248D01*
X83020000Y-26573752D02*
X83020000Y-26051248D01*
%TO.C,C36*%
X52173748Y-29795000D02*
X52696252Y-29795000D01*
X52173748Y-31265000D02*
X52696252Y-31265000D01*
%TO.C,C5*%
X93709420Y-90240000D02*
X93990580Y-90240000D01*
X93709420Y-91260000D02*
X93990580Y-91260000D01*
%TO.C,C60*%
X92565000Y-50511252D02*
X92565000Y-49988748D01*
X94035000Y-50511252D02*
X94035000Y-49988748D01*
D12*
%TO.C,Q2*%
X104346000Y-87960500D02*
X105400000Y-87960500D01*
X105400000Y-85039500D02*
X104346000Y-85039500D01*
X105400000Y-85801500D02*
X105400000Y-85039500D01*
X105400000Y-87960500D02*
X105400000Y-87198500D01*
D11*
%TO.C,C52*%
X92565000Y-41011252D02*
X92565000Y-40488748D01*
X94035000Y-41011252D02*
X94035000Y-40488748D01*
%TO.C,R5*%
X24940436Y-20397500D02*
X25394564Y-20397500D01*
X24940436Y-21867500D02*
X25394564Y-21867500D01*
%TO.C,R23*%
X69285000Y-26559564D02*
X69285000Y-26105436D01*
X70755000Y-26559564D02*
X70755000Y-26105436D01*
%TO.C,U25*%
X116625000Y-81785000D02*
X114675000Y-81785000D01*
X116625000Y-81785000D02*
X118575000Y-81785000D01*
X116625000Y-91905000D02*
X114675000Y-91905000D01*
X116625000Y-91905000D02*
X118575000Y-91905000D01*
X113925000Y-81840000D02*
X113685000Y-81510000D01*
X114165000Y-81510000D01*
X113925000Y-81840000D01*
G36*
X113925000Y-81840000D02*
G01*
X113685000Y-81510000D01*
X114165000Y-81510000D01*
X113925000Y-81840000D01*
G37*
%TO.C,R90*%
X103432172Y-38427500D02*
X103906688Y-38427500D01*
X103432172Y-39472500D02*
X103906688Y-39472500D01*
%TO.C,R73*%
X64582500Y-45537258D02*
X64582500Y-45062742D01*
X65627500Y-45537258D02*
X65627500Y-45062742D01*
%TO.C,R36*%
X54585000Y-31002936D02*
X54585000Y-31457064D01*
X56055000Y-31002936D02*
X56055000Y-31457064D01*
%TO.C,C6*%
X38233748Y-20427500D02*
X38756252Y-20427500D01*
X38233748Y-21897500D02*
X38756252Y-21897500D01*
%TO.C,C81*%
X64400000Y-41011252D02*
X64400000Y-40488748D01*
X65870000Y-41011252D02*
X65870000Y-40488748D01*
%TO.C,R54*%
X45882936Y-54795000D02*
X46337064Y-54795000D01*
X45882936Y-56265000D02*
X46337064Y-56265000D01*
%TO.C,C42*%
X79038748Y-35765000D02*
X79561252Y-35765000D01*
X79038748Y-37235000D02*
X79561252Y-37235000D01*
%TO.C,R45*%
X24940436Y-48765000D02*
X25394564Y-48765000D01*
X24940436Y-50235000D02*
X25394564Y-50235000D01*
%TO.C,R94*%
X103442366Y-51915000D02*
X103896494Y-51915000D01*
X103442366Y-53385000D02*
X103896494Y-53385000D01*
%TO.C,C68*%
X81550000Y-50511252D02*
X81550000Y-49988748D01*
X83020000Y-50511252D02*
X83020000Y-49988748D01*
%TO.C,R40*%
X71555000Y-35572936D02*
X71555000Y-36027064D01*
X73025000Y-35572936D02*
X73025000Y-36027064D01*
%TO.C,R85*%
X99797936Y-22665000D02*
X100252064Y-22665000D01*
X99797936Y-24135000D02*
X100252064Y-24135000D01*
%TO.C,C74*%
X38248748Y-41765000D02*
X38771252Y-41765000D01*
X38248748Y-43235000D02*
X38771252Y-43235000D01*
%TO.C,C67*%
X71585000Y-50511252D02*
X71585000Y-49988748D01*
X73055000Y-50511252D02*
X73055000Y-49988748D01*
D12*
%TO.C,U10*%
X58270000Y-29727500D02*
X62170000Y-29727500D01*
X58270000Y-34777500D02*
X62170000Y-34777500D01*
D13*
X56280000Y-29947500D02*
G75*
G02*
X56080000Y-29947500I-100000J0D01*
G01*
X56080000Y-29947500D02*
G75*
G02*
X56280000Y-29947500I100000J0D01*
G01*
D11*
%TO.C,R58*%
X64567500Y-55037258D02*
X64567500Y-54562742D01*
X65612500Y-55037258D02*
X65612500Y-54562742D01*
%TO.C,R2*%
X82124758Y-85227500D02*
X81650242Y-85227500D01*
X82124758Y-86272500D02*
X81650242Y-86272500D01*
%TO.C,C71*%
X25428752Y-45265000D02*
X24906248Y-45265000D01*
X25428752Y-46735000D02*
X24906248Y-46735000D01*
%TO.C,R96*%
X31265000Y-26559564D02*
X31265000Y-26105436D01*
X32735000Y-26559564D02*
X32735000Y-26105436D01*
%TO.C,R30*%
X35159564Y-35795000D02*
X34705436Y-35795000D01*
X35159564Y-37265000D02*
X34705436Y-37265000D01*
%TO.C,C75*%
X48320000Y-41011252D02*
X48320000Y-40488748D01*
X49790000Y-41011252D02*
X49790000Y-40488748D01*
%TO.C,C95*%
X103950682Y-46365000D02*
X103428178Y-46365000D01*
X103950682Y-47835000D02*
X103428178Y-47835000D01*
%TO.C,R38*%
X66555000Y-36027064D02*
X66555000Y-35572936D01*
X68025000Y-36027064D02*
X68025000Y-35572936D01*
%TO.C,R59*%
X66555000Y-55027064D02*
X66555000Y-54572936D01*
X68025000Y-55027064D02*
X68025000Y-54572936D01*
%TO.C,U23*%
X89437500Y-72190000D02*
X88637500Y-72190000D01*
X89437500Y-72190000D02*
X90237500Y-72190000D01*
X89437500Y-75310000D02*
X88637500Y-75310000D01*
X89437500Y-75310000D02*
X90237500Y-75310000D01*
X90977500Y-75590000D02*
X90497500Y-75590000D01*
X90737500Y-75260000D01*
X90977500Y-75590000D01*
G36*
X90977500Y-75590000D02*
G01*
X90497500Y-75590000D01*
X90737500Y-75260000D01*
X90977500Y-75590000D01*
G37*
%TO.C,R21*%
X93747742Y-26540000D02*
X94222258Y-26540000D01*
X93747742Y-27585000D02*
X94222258Y-27585000D01*
%TO.C,C86*%
X90111252Y-70015000D02*
X89588748Y-70015000D01*
X90111252Y-71485000D02*
X89588748Y-71485000D01*
%TO.C,R83*%
X118122936Y-96765000D02*
X118577064Y-96765000D01*
X118122936Y-98235000D02*
X118577064Y-98235000D01*
%TO.C,C64*%
X66585000Y-50511252D02*
X66585000Y-49988748D01*
X68055000Y-50511252D02*
X68055000Y-49988748D01*
%TO.C,R20*%
X83850000Y-26559564D02*
X83850000Y-26105436D01*
X85320000Y-26559564D02*
X85320000Y-26105436D01*
%TO.C,C37*%
X61873748Y-35765000D02*
X62396252Y-35765000D01*
X61873748Y-37235000D02*
X62396252Y-37235000D01*
%TO.C,R12*%
X54585000Y-21635436D02*
X54585000Y-22089564D01*
X56055000Y-21635436D02*
X56055000Y-22089564D01*
%TO.C,C10*%
X52173748Y-23462500D02*
X52696252Y-23462500D01*
X52173748Y-24932500D02*
X52696252Y-24932500D01*
%TO.C,C23*%
X42371252Y-26297500D02*
X41848748Y-26297500D01*
X42371252Y-27767500D02*
X41848748Y-27767500D01*
%TO.C,R11*%
X48487500Y-26569758D02*
X48487500Y-26095242D01*
X49532500Y-26569758D02*
X49532500Y-26095242D01*
%TO.C,R74*%
X66570000Y-45527064D02*
X66570000Y-45072936D01*
X68040000Y-45527064D02*
X68040000Y-45072936D01*
%TD*%
%LPC*%
D14*
%TO.C,J1*%
X103837500Y-92670000D02*
X103137500Y-92670000D01*
X103137500Y-91430000D01*
X103837500Y-91430000D01*
X103837500Y-92670000D01*
G36*
X103837500Y-92670000D02*
G01*
X103137500Y-92670000D01*
X103137500Y-91430000D01*
X103837500Y-91430000D01*
X103837500Y-92670000D01*
G37*
X104637500Y-92670000D02*
X103937500Y-92670000D01*
X103937500Y-91430000D01*
X104637500Y-91430000D01*
X104637500Y-92670000D01*
G36*
X104637500Y-92670000D02*
G01*
X103937500Y-92670000D01*
X103937500Y-91430000D01*
X104637500Y-91430000D01*
X104637500Y-92670000D01*
G37*
X105137500Y-92670000D02*
X104737500Y-92670000D01*
X104737500Y-91430000D01*
X105137500Y-91430000D01*
X105137500Y-92670000D01*
G36*
X105137500Y-92670000D02*
G01*
X104737500Y-92670000D01*
X104737500Y-91430000D01*
X105137500Y-91430000D01*
X105137500Y-92670000D01*
G37*
X105637500Y-92670000D02*
X105237500Y-92670000D01*
X105237500Y-91430000D01*
X105637500Y-91430000D01*
X105637500Y-92670000D01*
G36*
X105637500Y-92670000D02*
G01*
X105237500Y-92670000D01*
X105237500Y-91430000D01*
X105637500Y-91430000D01*
X105637500Y-92670000D01*
G37*
X106137500Y-92670000D02*
X105737500Y-92670000D01*
X105737500Y-91430000D01*
X106137500Y-91430000D01*
X106137500Y-92670000D01*
G36*
X106137500Y-92670000D02*
G01*
X105737500Y-92670000D01*
X105737500Y-91430000D01*
X106137500Y-91430000D01*
X106137500Y-92670000D01*
G37*
X106637500Y-92670000D02*
X106237500Y-92670000D01*
X106237500Y-91430000D01*
X106637500Y-91430000D01*
X106637500Y-92670000D01*
G36*
X106637500Y-92670000D02*
G01*
X106237500Y-92670000D01*
X106237500Y-91430000D01*
X106637500Y-91430000D01*
X106637500Y-92670000D01*
G37*
X107137500Y-92670000D02*
X106737500Y-92670000D01*
X106737500Y-91430000D01*
X107137500Y-91430000D01*
X107137500Y-92670000D01*
G36*
X107137500Y-92670000D02*
G01*
X106737500Y-92670000D01*
X106737500Y-91430000D01*
X107137500Y-91430000D01*
X107137500Y-92670000D01*
G37*
X107637500Y-92670000D02*
X107237500Y-92670000D01*
X107237500Y-91430000D01*
X107637500Y-91430000D01*
X107637500Y-92670000D01*
G36*
X107637500Y-92670000D02*
G01*
X107237500Y-92670000D01*
X107237500Y-91430000D01*
X107637500Y-91430000D01*
X107637500Y-92670000D01*
G37*
X108137500Y-92670000D02*
X107737500Y-92670000D01*
X107737500Y-91430000D01*
X108137500Y-91430000D01*
X108137500Y-92670000D01*
G36*
X108137500Y-92670000D02*
G01*
X107737500Y-92670000D01*
X107737500Y-91430000D01*
X108137500Y-91430000D01*
X108137500Y-92670000D01*
G37*
X108637500Y-92670000D02*
X108237500Y-92670000D01*
X108237500Y-91430000D01*
X108637500Y-91430000D01*
X108637500Y-92670000D01*
G36*
X108637500Y-92670000D02*
G01*
X108237500Y-92670000D01*
X108237500Y-91430000D01*
X108637500Y-91430000D01*
X108637500Y-92670000D01*
G37*
X109437500Y-92670000D02*
X108737500Y-92670000D01*
X108737500Y-91430000D01*
X109437500Y-91430000D01*
X109437500Y-92670000D01*
G36*
X109437500Y-92670000D02*
G01*
X108737500Y-92670000D01*
X108737500Y-91430000D01*
X109437500Y-91430000D01*
X109437500Y-92670000D01*
G37*
X110237500Y-92670000D02*
X109537500Y-92670000D01*
X109537500Y-91430000D01*
X110237500Y-91430000D01*
X110237500Y-92670000D01*
G36*
X110237500Y-92670000D02*
G01*
X109537500Y-92670000D01*
X109537500Y-91430000D01*
X110237500Y-91430000D01*
X110237500Y-92670000D01*
G37*
%TD*%
D15*
%TO.C,C11*%
X61185000Y-27032500D03*
X63085000Y-27032500D03*
%TD*%
D16*
%TO.C,C88*%
X99550000Y-88250000D03*
X97650000Y-88250000D03*
%TD*%
D17*
%TO.C,R98*%
X32000000Y-36712500D03*
X32000000Y-34887500D03*
%TD*%
D18*
%TO.C,U6*%
X74850000Y-20980000D03*
X74850000Y-22250000D03*
X74850000Y-23520000D03*
X74850000Y-24790000D03*
X79790000Y-24790000D03*
X79790000Y-23520000D03*
X79790000Y-22250000D03*
X79790000Y-20980000D03*
%TD*%
D19*
%TO.C,C21*%
X82320000Y-22832500D03*
X82320000Y-20932500D03*
%TD*%
D20*
%TO.C,R72*%
X55335000Y-39817500D03*
X55335000Y-41642500D03*
%TD*%
%TO.C,R14*%
X55320000Y-25420000D03*
X55320000Y-27245000D03*
%TD*%
D18*
%TO.C,U2*%
X41645000Y-20980000D03*
X41645000Y-22250000D03*
X41645000Y-23520000D03*
X41645000Y-24790000D03*
X46585000Y-24790000D03*
X46585000Y-23520000D03*
X46585000Y-22250000D03*
X46585000Y-20980000D03*
%TD*%
D15*
%TO.C,C72*%
X34017500Y-42500000D03*
X35917500Y-42500000D03*
%TD*%
D21*
%TO.C,S10*%
X118200000Y-37400000D03*
X118200000Y-30600000D03*
D22*
X115450000Y-36500000D03*
X115450000Y-34000000D03*
X115450000Y-31500000D03*
%TD*%
D21*
%TO.C,S3*%
X110800000Y-56791500D03*
X110800000Y-49991500D03*
D22*
X108050000Y-55891500D03*
X108050000Y-53391500D03*
X108050000Y-50891500D03*
%TD*%
D17*
%TO.C,R62*%
X70020000Y-55712500D03*
X70020000Y-53887500D03*
%TD*%
D23*
%TO.C,R64*%
X24235000Y-40000000D03*
X26060000Y-40000000D03*
%TD*%
D15*
%TO.C,C54*%
X37545000Y-49530000D03*
X39445000Y-49530000D03*
%TD*%
D19*
%TO.C,C39*%
X67320000Y-32200000D03*
X67320000Y-30300000D03*
%TD*%
D23*
%TO.C,R75*%
X51517500Y-46030000D03*
X53342500Y-46030000D03*
%TD*%
D24*
%TO.C,C17*%
X87085000Y-25362500D03*
X87085000Y-27262500D03*
%TD*%
D18*
%TO.C,U14*%
X85460000Y-39847500D03*
X85460000Y-41117500D03*
X85460000Y-42387500D03*
X85460000Y-43657500D03*
X90400000Y-43657500D03*
X90400000Y-42387500D03*
X90400000Y-41117500D03*
X90400000Y-39847500D03*
%TD*%
D19*
%TO.C,C83*%
X72335000Y-41700000D03*
X72335000Y-39800000D03*
%TD*%
D25*
%TO.C,J2*%
X20897500Y-22000000D03*
D26*
X20897500Y-24540000D03*
X20897500Y-27080000D03*
X20897500Y-29620000D03*
X20897500Y-32160000D03*
X20897500Y-34700000D03*
%TD*%
D27*
%TO.C,R93*%
X102844430Y-49700000D03*
X104494430Y-49700000D03*
%TD*%
D19*
%TO.C,C44*%
X82285000Y-32200000D03*
X82285000Y-30300000D03*
%TD*%
D15*
%TO.C,C79*%
X51500000Y-42500000D03*
X53400000Y-42500000D03*
%TD*%
D28*
%TO.C,R92*%
X104494430Y-44850000D03*
X102844430Y-44850000D03*
%TD*%
D29*
%TO.C,L1*%
X100070000Y-41812500D03*
X100070000Y-39687500D03*
%TD*%
D16*
%TO.C,C28*%
X97500000Y-37300000D03*
X95600000Y-37300000D03*
%TD*%
D18*
%TO.C,U5*%
X57750000Y-20980000D03*
X57750000Y-22250000D03*
X57750000Y-23520000D03*
X57750000Y-24790000D03*
X62690000Y-24790000D03*
X62690000Y-23520000D03*
X62690000Y-22250000D03*
X62690000Y-20980000D03*
%TD*%
D27*
%TO.C,R53*%
X89072500Y-55500000D03*
X90722500Y-55500000D03*
%TD*%
D20*
%TO.C,R17*%
X72290000Y-25420000D03*
X72290000Y-27245000D03*
%TD*%
D19*
%TO.C,C80*%
X67335000Y-41700000D03*
X67335000Y-39800000D03*
%TD*%
D23*
%TO.C,R13*%
X51502500Y-27062500D03*
X53327500Y-27062500D03*
%TD*%
D30*
%TO.C,U4*%
X88584997Y-90649999D03*
X89084999Y-90649999D03*
X89584997Y-90649999D03*
X90084997Y-90649999D03*
X90584998Y-90649999D03*
X91084997Y-90649999D03*
X91084997Y-88750000D03*
X90584998Y-88750000D03*
X90084997Y-88750000D03*
X89584997Y-88750000D03*
X89084999Y-88750000D03*
X88584997Y-88750000D03*
D31*
X89834997Y-89699998D03*
D32*
X89834997Y-89700001D03*
%TD*%
D33*
%TO.C,R49*%
X35845000Y-55530000D03*
X34020000Y-55530000D03*
%TD*%
D19*
%TO.C,C47*%
X93300000Y-32200000D03*
X93300000Y-30300000D03*
%TD*%
D23*
%TO.C,R10*%
X45197500Y-27062500D03*
X47022500Y-27062500D03*
%TD*%
D21*
%TO.C,S5*%
X82100000Y-89250000D03*
X82100000Y-96050000D03*
D34*
X84850000Y-90150000D03*
X84850000Y-92650000D03*
X84850000Y-95150000D03*
%TD*%
D18*
%TO.C,U15*%
X41645000Y-49347500D03*
X41645000Y-50617500D03*
X41645000Y-51887500D03*
X41645000Y-53157500D03*
X46585000Y-53157500D03*
X46585000Y-51887500D03*
X46585000Y-50617500D03*
X46585000Y-49347500D03*
%TD*%
D35*
%TO.C,R37*%
X65090000Y-36625000D03*
X65090000Y-34975000D03*
%TD*%
D21*
%TO.C,S11*%
X118200000Y-46950000D03*
X118200000Y-40150000D03*
D22*
X115450000Y-46050000D03*
X115450000Y-43550000D03*
X115450000Y-41050000D03*
%TD*%
D25*
%TO.C,J4*%
X82300000Y-59600000D03*
D26*
X84840000Y-59600000D03*
X87380000Y-59600000D03*
X89920000Y-59600000D03*
X92460000Y-59600000D03*
X95000000Y-59600000D03*
%TD*%
D24*
%TO.C,C57*%
X82285000Y-53830000D03*
X82285000Y-55730000D03*
%TD*%
D36*
%TO.C,S7*%
X98687500Y-93525000D03*
X98687500Y-97675000D03*
%TD*%
%TO.C,S8*%
X114600000Y-93425000D03*
X114600000Y-97575000D03*
%TD*%
D15*
%TO.C,C92*%
X102739430Y-21200000D03*
X104639430Y-21200000D03*
%TD*%
D20*
%TO.C,R76*%
X72305000Y-44387500D03*
X72305000Y-46212500D03*
%TD*%
D15*
%TO.C,C56*%
X78250000Y-55500000D03*
X80150000Y-55500000D03*
%TD*%
D16*
%TO.C,C85*%
X76250000Y-46000000D03*
X74350000Y-46000000D03*
%TD*%
D37*
%TO.C,U19*%
X25012500Y-41991666D03*
X25012500Y-42641666D03*
X25012500Y-43291666D03*
X25012500Y-43941666D03*
X29312500Y-43941666D03*
X29312500Y-43291666D03*
X29312500Y-42641666D03*
X29312500Y-41991666D03*
%TD*%
D38*
%TO.C,L2*%
X97000000Y-25200000D03*
X97000000Y-27325000D03*
%TD*%
D27*
%TO.C,R87*%
X102844430Y-28148500D03*
X104494430Y-28148500D03*
%TD*%
D33*
%TO.C,R8*%
X39387500Y-27062500D03*
X37562500Y-27062500D03*
%TD*%
D35*
%TO.C,R43*%
X70020000Y-32055000D03*
X70020000Y-30405000D03*
%TD*%
D16*
%TO.C,C35*%
X43060000Y-36500000D03*
X41160000Y-36500000D03*
%TD*%
D18*
%TO.C,U12*%
X85460000Y-30347500D03*
X85460000Y-31617500D03*
X85460000Y-32887500D03*
X85460000Y-34157500D03*
X90400000Y-34157500D03*
X90400000Y-32887500D03*
X90400000Y-31617500D03*
X90400000Y-30347500D03*
%TD*%
D33*
%TO.C,R9*%
X35845000Y-21132500D03*
X34020000Y-21132500D03*
%TD*%
D27*
%TO.C,R52*%
X85072500Y-55500000D03*
X86722500Y-55500000D03*
%TD*%
D39*
%TO.C,J1*%
X103797500Y-93120000D03*
X109577500Y-93120000D03*
D40*
X102362500Y-92630000D03*
X111012500Y-92630000D03*
D41*
X102362500Y-96800000D03*
X111012500Y-96800000D03*
%TD*%
D16*
%TO.C,C22*%
X26102500Y-27032500D03*
X24202500Y-27032500D03*
%TD*%
D18*
%TO.C,U21*%
X57765000Y-39847500D03*
X57765000Y-41117500D03*
X57765000Y-42387500D03*
X57765000Y-43657500D03*
X62705000Y-43657500D03*
X62705000Y-42387500D03*
X62705000Y-41117500D03*
X62705000Y-39847500D03*
%TD*%
D15*
%TO.C,C31*%
X34002500Y-33500000D03*
X35902500Y-33500000D03*
%TD*%
D16*
%TO.C,C30*%
X26102500Y-36500000D03*
X24202500Y-36500000D03*
%TD*%
D21*
%TO.C,S1*%
X110800000Y-27338500D03*
X110800000Y-20538500D03*
D22*
X108050000Y-26438500D03*
X108050000Y-23938500D03*
X108050000Y-21438500D03*
%TD*%
D33*
%TO.C,R50*%
X35845000Y-49500000D03*
X34020000Y-49500000D03*
%TD*%
D15*
%TO.C,C1*%
X88850000Y-93250000D03*
X90750000Y-93250000D03*
%TD*%
D24*
%TO.C,C49*%
X82285000Y-44330000D03*
X82285000Y-46230000D03*
%TD*%
D16*
%TO.C,C93*%
X104639430Y-25800000D03*
X102739430Y-25800000D03*
%TD*%
D17*
%TO.C,R16*%
X67290000Y-27245000D03*
X67290000Y-25420000D03*
%TD*%
D23*
%TO.C,R25*%
X95632500Y-42500000D03*
X97457500Y-42500000D03*
%TD*%
D37*
%TO.C,U13*%
X24997500Y-51525000D03*
X24997500Y-52175000D03*
X24997500Y-52825000D03*
X24997500Y-53475000D03*
X29297500Y-53475000D03*
X29297500Y-52825000D03*
X29297500Y-52175000D03*
X29297500Y-51525000D03*
%TD*%
D21*
%TO.C,S12*%
X118200000Y-56791500D03*
X118200000Y-49991500D03*
D22*
X115450000Y-55891500D03*
X115450000Y-53391500D03*
X115450000Y-50891500D03*
%TD*%
D23*
%TO.C,R60*%
X51502500Y-55530000D03*
X53327500Y-55530000D03*
%TD*%
D16*
%TO.C,C70*%
X30065000Y-46000000D03*
X28165000Y-46000000D03*
%TD*%
D19*
%TO.C,C26*%
X97020000Y-22832500D03*
X97020000Y-20932500D03*
%TD*%
D20*
%TO.C,R57*%
X55320000Y-49317500D03*
X55320000Y-51142500D03*
%TD*%
D19*
%TO.C,C96*%
X88700000Y-65900000D03*
X88700000Y-64000000D03*
%TD*%
D23*
%TO.C,R69*%
X45212500Y-46030000D03*
X47037500Y-46030000D03*
%TD*%
D19*
%TO.C,C20*%
X65120000Y-22832500D03*
X65120000Y-20932500D03*
%TD*%
D21*
%TO.C,S6*%
X82100000Y-71600000D03*
X82100000Y-78400000D03*
D34*
X84850000Y-72500000D03*
X84850000Y-75000000D03*
X84850000Y-77500000D03*
%TD*%
D20*
%TO.C,R56*%
X55320000Y-53887500D03*
X55320000Y-55712500D03*
%TD*%
D33*
%TO.C,R29*%
X29992500Y-30500000D03*
X28167500Y-30500000D03*
%TD*%
D15*
%TO.C,C48*%
X78350000Y-46000000D03*
X80250000Y-46000000D03*
%TD*%
D33*
%TO.C,R67*%
X35860000Y-40000000D03*
X34035000Y-40000000D03*
%TD*%
%TO.C,R6*%
X30027500Y-21132500D03*
X28202500Y-21132500D03*
%TD*%
D15*
%TO.C,C91*%
X117600000Y-60250000D03*
X119500000Y-60250000D03*
%TD*%
D24*
%TO.C,C16*%
X87020000Y-20932500D03*
X87020000Y-22832500D03*
%TD*%
D20*
%TO.C,R61*%
X72290000Y-53887500D03*
X72290000Y-55712500D03*
%TD*%
D15*
%TO.C,C7*%
X34002500Y-24220000D03*
X35902500Y-24220000D03*
%TD*%
D35*
%TO.C,R63*%
X70020000Y-51055000D03*
X70020000Y-49405000D03*
%TD*%
D16*
%TO.C,C18*%
X30050000Y-27032500D03*
X28150000Y-27032500D03*
%TD*%
%TO.C,C29*%
X30050000Y-36500000D03*
X28150000Y-36500000D03*
%TD*%
D15*
%TO.C,C87*%
X88150000Y-77000000D03*
X90050000Y-77000000D03*
%TD*%
D16*
%TO.C,C45*%
X76235000Y-36500000D03*
X74335000Y-36500000D03*
%TD*%
D15*
%TO.C,C38*%
X51485000Y-33500000D03*
X53385000Y-33500000D03*
%TD*%
D16*
%TO.C,C25*%
X76235000Y-27032500D03*
X74335000Y-27032500D03*
%TD*%
D27*
%TO.C,R22*%
X89160000Y-27062500D03*
X90810000Y-27062500D03*
%TD*%
D15*
%TO.C,C66*%
X57285000Y-55500000D03*
X59185000Y-55500000D03*
%TD*%
D17*
%TO.C,R41*%
X70020000Y-36712500D03*
X70020000Y-34887500D03*
%TD*%
D23*
%TO.C,R33*%
X45197500Y-36530000D03*
X47022500Y-36530000D03*
%TD*%
D33*
%TO.C,R31*%
X35845000Y-30500000D03*
X34020000Y-30500000D03*
%TD*%
D17*
%TO.C,R102*%
X32000000Y-55712500D03*
X32000000Y-53887500D03*
%TD*%
D19*
%TO.C,C13*%
X72320000Y-22832500D03*
X72320000Y-20932500D03*
%TD*%
%TO.C,C34*%
X49040000Y-32200000D03*
X49040000Y-30300000D03*
%TD*%
D27*
%TO.C,R42*%
X85235000Y-36500000D03*
X86885000Y-36500000D03*
%TD*%
D19*
%TO.C,C84*%
X82300000Y-41700000D03*
X82300000Y-39800000D03*
%TD*%
D17*
%TO.C,R77*%
X70035000Y-46212500D03*
X70035000Y-44387500D03*
%TD*%
D19*
%TO.C,C58*%
X49040000Y-51200000D03*
X49040000Y-49300000D03*
%TD*%
D24*
%TO.C,C46*%
X82285000Y-34800000D03*
X82285000Y-36700000D03*
%TD*%
D35*
%TO.C,R78*%
X70035000Y-41555000D03*
X70035000Y-39905000D03*
%TD*%
D16*
%TO.C,C69*%
X76235000Y-55500000D03*
X74335000Y-55500000D03*
%TD*%
D17*
%TO.C,R99*%
X32000000Y-32142500D03*
X32000000Y-30317500D03*
%TD*%
D15*
%TO.C,C73*%
X37560000Y-40030000D03*
X39460000Y-40030000D03*
%TD*%
D16*
%TO.C,C89*%
X99550000Y-90750000D03*
X97650000Y-90750000D03*
%TD*%
D19*
%TO.C,C40*%
X65120000Y-32200000D03*
X65120000Y-30300000D03*
%TD*%
D20*
%TO.C,R71*%
X55335000Y-44387500D03*
X55335000Y-46212500D03*
%TD*%
D35*
%TO.C,R70*%
X49025000Y-46125000D03*
X49025000Y-44475000D03*
%TD*%
D33*
%TO.C,R66*%
X35860000Y-46030000D03*
X34035000Y-46030000D03*
%TD*%
D21*
%TO.C,S9*%
X118200000Y-27338500D03*
X118200000Y-20538500D03*
D22*
X115450000Y-26438500D03*
X115450000Y-23938500D03*
X115450000Y-21438500D03*
%TD*%
D18*
%TO.C,U18*%
X74850000Y-49347500D03*
X74850000Y-50617500D03*
X74850000Y-51887500D03*
X74850000Y-53157500D03*
X79790000Y-53157500D03*
X79790000Y-51887500D03*
X79790000Y-50617500D03*
X79790000Y-49347500D03*
%TD*%
D27*
%TO.C,R48*%
X89087500Y-46000000D03*
X90737500Y-46000000D03*
%TD*%
D20*
%TO.C,R35*%
X55320000Y-34887500D03*
X55320000Y-36712500D03*
%TD*%
D16*
%TO.C,C50*%
X30050000Y-55500000D03*
X28150000Y-55500000D03*
%TD*%
%TO.C,C82*%
X59200000Y-46000000D03*
X57300000Y-46000000D03*
%TD*%
D15*
%TO.C,C62*%
X61185000Y-55500000D03*
X63085000Y-55500000D03*
%TD*%
D23*
%TO.C,R79*%
X103687500Y-89500000D03*
X105512500Y-89500000D03*
%TD*%
D35*
%TO.C,R18*%
X70020000Y-22687500D03*
X70020000Y-21037500D03*
%TD*%
D42*
%TO.C,C4*%
X86525000Y-85750000D03*
X84975000Y-85750000D03*
%TD*%
D16*
%TO.C,C41*%
X59185000Y-36500000D03*
X57285000Y-36500000D03*
%TD*%
D18*
%TO.C,U20*%
X41660000Y-39847500D03*
X41660000Y-41117500D03*
X41660000Y-42387500D03*
X41660000Y-43657500D03*
X46600000Y-43657500D03*
X46600000Y-42387500D03*
X46600000Y-41117500D03*
X46600000Y-39847500D03*
%TD*%
D16*
%TO.C,C94*%
X104639430Y-36500000D03*
X102739430Y-36500000D03*
%TD*%
D18*
%TO.C,U22*%
X74865000Y-39847500D03*
X74865000Y-41117500D03*
X74865000Y-42387500D03*
X74865000Y-43657500D03*
X79805000Y-43657500D03*
X79805000Y-42387500D03*
X79805000Y-41117500D03*
X79805000Y-39847500D03*
%TD*%
D17*
%TO.C,R100*%
X32000000Y-46212500D03*
X32000000Y-44387500D03*
%TD*%
D28*
%TO.C,R95*%
X104494430Y-55500000D03*
X102844430Y-55500000D03*
%TD*%
D43*
%TO.C,Q1*%
X105410000Y-83950000D03*
X105410000Y-82050000D03*
X103290000Y-83000000D03*
%TD*%
D33*
%TO.C,R81*%
X110262500Y-83750000D03*
X108437500Y-83750000D03*
%TD*%
D16*
%TO.C,C24*%
X59185000Y-27032500D03*
X57285000Y-27032500D03*
%TD*%
D33*
%TO.C,R46*%
X29992500Y-49500000D03*
X28167500Y-49500000D03*
%TD*%
D44*
%TO.C,D1*%
X110287500Y-89500000D03*
X108412500Y-89500000D03*
%TD*%
D33*
%TO.C,R65*%
X30007500Y-40000000D03*
X28182500Y-40000000D03*
%TD*%
D35*
%TO.C,R34*%
X49010000Y-36625000D03*
X49010000Y-34975000D03*
%TD*%
D15*
%TO.C,C9*%
X51485000Y-21162500D03*
X53385000Y-21162500D03*
%TD*%
D23*
%TO.C,R1*%
X81062500Y-83250000D03*
X82887500Y-83250000D03*
%TD*%
D33*
%TO.C,R7*%
X35845000Y-27062500D03*
X34020000Y-27062500D03*
%TD*%
D37*
%TO.C,U1*%
X24997500Y-23057500D03*
X24997500Y-23707500D03*
X24997500Y-24357500D03*
X24997500Y-25007500D03*
X29297500Y-25007500D03*
X29297500Y-24357500D03*
X29297500Y-23707500D03*
X29297500Y-23057500D03*
%TD*%
D15*
%TO.C,C78*%
X61200000Y-46000000D03*
X63100000Y-46000000D03*
%TD*%
D16*
%TO.C,C76*%
X43075000Y-46000000D03*
X41175000Y-46000000D03*
%TD*%
D45*
%TO.C,U24*%
X119600000Y-62500000D03*
X118330000Y-62500000D03*
X117060000Y-62500000D03*
X115790000Y-62500000D03*
X114520000Y-62500000D03*
X113250000Y-62500000D03*
X111980000Y-62500000D03*
X110710000Y-62500000D03*
X109440000Y-62500000D03*
X108170000Y-62500000D03*
X106900000Y-62500000D03*
X105630000Y-62500000D03*
X104360000Y-62500000D03*
X103090000Y-62500000D03*
D46*
X101840000Y-65540000D03*
X101840000Y-66810000D03*
X101840000Y-68080000D03*
X101840000Y-69350000D03*
X101840000Y-70620000D03*
X101840000Y-71890000D03*
X101840000Y-73160000D03*
X101840000Y-74430000D03*
X101840000Y-75700000D03*
X101840000Y-76970000D03*
D45*
X103090000Y-80000000D03*
X104360000Y-80000000D03*
X105630000Y-80000000D03*
X106900000Y-80000000D03*
X108170000Y-80000000D03*
X109440000Y-80000000D03*
X110710000Y-80000000D03*
X111980000Y-80000000D03*
X113250000Y-80000000D03*
X114520000Y-80000000D03*
X115790000Y-80000000D03*
X117060000Y-80000000D03*
X118330000Y-80000000D03*
X119600000Y-80000000D03*
D39*
X112580000Y-68350000D03*
X111180000Y-68350000D03*
X113280000Y-69050000D03*
X111880000Y-69050000D03*
X110480000Y-69050000D03*
X112580000Y-69725000D03*
X111180000Y-69725000D03*
D47*
X111880000Y-69750000D03*
D39*
X113280000Y-70450000D03*
X111880000Y-70450000D03*
X110480000Y-70450000D03*
X112580000Y-71150000D03*
X111180000Y-71150000D03*
%TD*%
D18*
%TO.C,U7*%
X89550000Y-20980000D03*
X89550000Y-22250000D03*
X89550000Y-23520000D03*
X89550000Y-24790000D03*
X94490000Y-24790000D03*
X94490000Y-23520000D03*
X94490000Y-22250000D03*
X94490000Y-20980000D03*
%TD*%
D33*
%TO.C,R51*%
X39387500Y-55530000D03*
X37562500Y-55530000D03*
%TD*%
D21*
%TO.C,S4*%
X110800000Y-46900000D03*
X110800000Y-40100000D03*
D22*
X108050000Y-46000000D03*
X108050000Y-43500000D03*
X108050000Y-41000000D03*
%TD*%
D18*
%TO.C,U17*%
X57750000Y-49347500D03*
X57750000Y-50617500D03*
X57750000Y-51887500D03*
X57750000Y-53157500D03*
X62690000Y-53157500D03*
X62690000Y-51887500D03*
X62690000Y-50617500D03*
X62690000Y-49347500D03*
%TD*%
D23*
%TO.C,R24*%
X95632500Y-40000000D03*
X97457500Y-40000000D03*
%TD*%
D17*
%TO.C,R97*%
X32000000Y-22775000D03*
X32000000Y-20950000D03*
%TD*%
%TO.C,R27*%
X100170000Y-32125000D03*
X100170000Y-30300000D03*
%TD*%
D48*
%TO.C,U3*%
X97600000Y-30520000D03*
X97100000Y-30520000D03*
X96600000Y-30520000D03*
X96100000Y-30520000D03*
X95600000Y-30520000D03*
X95600000Y-34820000D03*
X96100000Y-34820000D03*
X96600000Y-34820000D03*
X97100000Y-34820000D03*
X97600000Y-34820000D03*
%TD*%
D27*
%TO.C,R44*%
X89147500Y-36500000D03*
X90797500Y-36500000D03*
%TD*%
D15*
%TO.C,C61*%
X51485000Y-49530000D03*
X53385000Y-49530000D03*
%TD*%
D49*
%TO.C,J3*%
X82850000Y-64250000D03*
D50*
X84850000Y-64250000D03*
%TD*%
D35*
%TO.C,R55*%
X49010000Y-55625000D03*
X49010000Y-53975000D03*
%TD*%
D27*
%TO.C,R47*%
X85087500Y-46000000D03*
X86737500Y-46000000D03*
%TD*%
D16*
%TO.C,C2*%
X90800000Y-85750000D03*
X88900000Y-85750000D03*
%TD*%
D15*
%TO.C,C63*%
X51485000Y-52000000D03*
X53385000Y-52000000D03*
%TD*%
D19*
%TO.C,C19*%
X49040000Y-22832500D03*
X49040000Y-20932500D03*
%TD*%
D15*
%TO.C,C53*%
X34002500Y-52500000D03*
X35902500Y-52500000D03*
%TD*%
D23*
%TO.C,R91*%
X102756930Y-41900000D03*
X104581930Y-41900000D03*
%TD*%
D18*
%TO.C,U11*%
X74850000Y-30347500D03*
X74850000Y-31617500D03*
X74850000Y-32887500D03*
X74850000Y-34157500D03*
X79790000Y-34157500D03*
X79790000Y-32887500D03*
X79790000Y-31617500D03*
X79790000Y-30347500D03*
%TD*%
D17*
%TO.C,R26*%
X100170000Y-27245000D03*
X100170000Y-25420000D03*
%TD*%
D15*
%TO.C,C77*%
X51500000Y-40030000D03*
X53400000Y-40030000D03*
%TD*%
%TO.C,C55*%
X37545000Y-52000000D03*
X39445000Y-52000000D03*
%TD*%
D33*
%TO.C,R68*%
X39402500Y-46030000D03*
X37577500Y-46030000D03*
%TD*%
D23*
%TO.C,R88*%
X102756930Y-31098500D03*
X104581930Y-31098500D03*
%TD*%
D15*
%TO.C,C33*%
X37545000Y-33500000D03*
X39445000Y-33500000D03*
%TD*%
D19*
%TO.C,C27*%
X100200000Y-36150000D03*
X100200000Y-34250000D03*
%TD*%
D23*
%TO.C,R19*%
X78372500Y-27062500D03*
X80197500Y-27062500D03*
%TD*%
%TO.C,R28*%
X24220000Y-30500000D03*
X26045000Y-30500000D03*
%TD*%
D33*
%TO.C,R32*%
X39387500Y-36530000D03*
X37562500Y-36530000D03*
%TD*%
D23*
%TO.C,R82*%
X97687500Y-85750000D03*
X99512500Y-85750000D03*
%TD*%
D33*
%TO.C,R80*%
X110262500Y-86750000D03*
X108437500Y-86750000D03*
%TD*%
D27*
%TO.C,R86*%
X102844430Y-23400000D03*
X104494430Y-23400000D03*
%TD*%
D33*
%TO.C,R4*%
X94712500Y-85750000D03*
X92887500Y-85750000D03*
%TD*%
D51*
%TO.C,C15*%
X84620000Y-22657500D03*
X84620000Y-21107500D03*
%TD*%
D27*
%TO.C,R84*%
X99187500Y-21200000D03*
X100837500Y-21200000D03*
%TD*%
D16*
%TO.C,C59*%
X43060000Y-55500000D03*
X41160000Y-55500000D03*
%TD*%
D17*
%TO.C,R101*%
X32000000Y-41625000D03*
X32000000Y-39800000D03*
%TD*%
D28*
%TO.C,R3*%
X94675000Y-88250000D03*
X93025000Y-88250000D03*
%TD*%
D15*
%TO.C,C90*%
X117450000Y-95250000D03*
X119350000Y-95250000D03*
%TD*%
%TO.C,C8*%
X37545000Y-24220000D03*
X39445000Y-24220000D03*
%TD*%
D19*
%TO.C,C12*%
X67320000Y-22832500D03*
X67320000Y-20932500D03*
%TD*%
D21*
%TO.C,S2*%
X110800000Y-37400000D03*
X110800000Y-30600000D03*
D22*
X108050000Y-36500000D03*
X108050000Y-34000000D03*
X108050000Y-31500000D03*
%TD*%
D15*
%TO.C,C3*%
X92800000Y-93250000D03*
X94700000Y-93250000D03*
%TD*%
D23*
%TO.C,R39*%
X51502500Y-36530000D03*
X53327500Y-36530000D03*
%TD*%
D16*
%TO.C,C51*%
X26102500Y-55500000D03*
X24202500Y-55500000D03*
%TD*%
D37*
%TO.C,U8*%
X24997500Y-32458333D03*
X24997500Y-33108333D03*
X24997500Y-33758333D03*
X24997500Y-34408333D03*
X29297500Y-34408333D03*
X29297500Y-33758333D03*
X29297500Y-33108333D03*
X29297500Y-32458333D03*
%TD*%
D17*
%TO.C,R103*%
X32000000Y-51142500D03*
X32000000Y-49317500D03*
%TD*%
D19*
%TO.C,C65*%
X65120000Y-51200000D03*
X65120000Y-49300000D03*
%TD*%
D18*
%TO.C,U9*%
X41645000Y-30347500D03*
X41645000Y-31617500D03*
X41645000Y-32887500D03*
X41645000Y-34157500D03*
X46585000Y-34157500D03*
X46585000Y-32887500D03*
X46585000Y-31617500D03*
X46585000Y-30347500D03*
%TD*%
D15*
%TO.C,C32*%
X37545000Y-30530000D03*
X39445000Y-30530000D03*
%TD*%
D28*
%TO.C,R89*%
X104494430Y-34048500D03*
X102844430Y-34048500D03*
%TD*%
D35*
%TO.C,R15*%
X65090000Y-27157500D03*
X65090000Y-25507500D03*
%TD*%
D18*
%TO.C,U16*%
X85460000Y-49347500D03*
X85460000Y-50617500D03*
X85460000Y-51887500D03*
X85460000Y-53157500D03*
X90400000Y-53157500D03*
X90400000Y-51887500D03*
X90400000Y-50617500D03*
X90400000Y-49347500D03*
%TD*%
D25*
%TO.C,J5*%
X89500000Y-17900000D03*
%TD*%
D19*
%TO.C,C43*%
X72320000Y-32200000D03*
X72320000Y-30300000D03*
%TD*%
%TO.C,C14*%
X82285000Y-27262500D03*
X82285000Y-25362500D03*
%TD*%
D15*
%TO.C,C36*%
X51485000Y-30530000D03*
X53385000Y-30530000D03*
%TD*%
D52*
%TO.C,C5*%
X93075000Y-90750000D03*
X94625000Y-90750000D03*
%TD*%
D19*
%TO.C,C60*%
X93300000Y-51200000D03*
X93300000Y-49300000D03*
%TD*%
D53*
%TO.C,Q2*%
X103540000Y-85550000D03*
X103540000Y-87450000D03*
X105660000Y-86500000D03*
%TD*%
D19*
%TO.C,C52*%
X93300000Y-41700000D03*
X93300000Y-39800000D03*
%TD*%
D23*
%TO.C,R5*%
X24255000Y-21132500D03*
X26080000Y-21132500D03*
%TD*%
D17*
%TO.C,R23*%
X70020000Y-27245000D03*
X70020000Y-25420000D03*
%TD*%
D54*
%TO.C,U25*%
X114150000Y-82400000D03*
X114150000Y-83670000D03*
X114150000Y-84940000D03*
X114150000Y-86210000D03*
X114150000Y-87480000D03*
X114150000Y-88750000D03*
X114150000Y-90020000D03*
X114150000Y-91290000D03*
X119100000Y-91290000D03*
X119100000Y-90020000D03*
X119100000Y-88750000D03*
X119100000Y-87480000D03*
X119100000Y-86210000D03*
X119100000Y-84940000D03*
X119100000Y-83670000D03*
X119100000Y-82400000D03*
%TD*%
D27*
%TO.C,R90*%
X102844430Y-38950000D03*
X104494430Y-38950000D03*
%TD*%
D35*
%TO.C,R73*%
X65105000Y-46125000D03*
X65105000Y-44475000D03*
%TD*%
D20*
%TO.C,R36*%
X55320000Y-30317500D03*
X55320000Y-32142500D03*
%TD*%
D15*
%TO.C,C6*%
X37545000Y-21162500D03*
X39445000Y-21162500D03*
%TD*%
D19*
%TO.C,C81*%
X65135000Y-41700000D03*
X65135000Y-39800000D03*
%TD*%
D23*
%TO.C,R54*%
X45197500Y-55530000D03*
X47022500Y-55530000D03*
%TD*%
D15*
%TO.C,C42*%
X78350000Y-36500000D03*
X80250000Y-36500000D03*
%TD*%
D23*
%TO.C,R45*%
X24255000Y-49500000D03*
X26080000Y-49500000D03*
%TD*%
%TO.C,R94*%
X102756930Y-52650000D03*
X104581930Y-52650000D03*
%TD*%
D19*
%TO.C,C68*%
X82285000Y-51200000D03*
X82285000Y-49300000D03*
%TD*%
D20*
%TO.C,R40*%
X72290000Y-34887500D03*
X72290000Y-36712500D03*
%TD*%
D23*
%TO.C,R85*%
X99112500Y-23400000D03*
X100937500Y-23400000D03*
%TD*%
D15*
%TO.C,C74*%
X37560000Y-42500000D03*
X39460000Y-42500000D03*
%TD*%
D19*
%TO.C,C67*%
X72320000Y-51200000D03*
X72320000Y-49300000D03*
%TD*%
D18*
%TO.C,U10*%
X57750000Y-30347500D03*
X57750000Y-31617500D03*
X57750000Y-32887500D03*
X57750000Y-34157500D03*
X62690000Y-34157500D03*
X62690000Y-32887500D03*
X62690000Y-31617500D03*
X62690000Y-30347500D03*
%TD*%
D35*
%TO.C,R58*%
X65090000Y-55625000D03*
X65090000Y-53975000D03*
%TD*%
D28*
%TO.C,R2*%
X82712500Y-85750000D03*
X81062500Y-85750000D03*
%TD*%
D16*
%TO.C,C71*%
X26117500Y-46000000D03*
X24217500Y-46000000D03*
%TD*%
D17*
%TO.C,R96*%
X32000000Y-27245000D03*
X32000000Y-25420000D03*
%TD*%
D33*
%TO.C,R30*%
X35845000Y-36530000D03*
X34020000Y-36530000D03*
%TD*%
D19*
%TO.C,C75*%
X49055000Y-41700000D03*
X49055000Y-39800000D03*
%TD*%
D16*
%TO.C,C95*%
X104639430Y-47100000D03*
X102739430Y-47100000D03*
%TD*%
D17*
%TO.C,R38*%
X67290000Y-36712500D03*
X67290000Y-34887500D03*
%TD*%
%TO.C,R59*%
X67290000Y-55712500D03*
X67290000Y-53887500D03*
%TD*%
D55*
%TO.C,U23*%
X90575000Y-74700000D03*
X90575000Y-72800000D03*
X88300000Y-73750000D03*
%TD*%
D27*
%TO.C,R21*%
X93160000Y-27062500D03*
X94810000Y-27062500D03*
%TD*%
D16*
%TO.C,C86*%
X90800000Y-70750000D03*
X88900000Y-70750000D03*
%TD*%
D23*
%TO.C,R83*%
X117437500Y-97500000D03*
X119262500Y-97500000D03*
%TD*%
D19*
%TO.C,C64*%
X67320000Y-51200000D03*
X67320000Y-49300000D03*
%TD*%
D17*
%TO.C,R20*%
X84585000Y-27245000D03*
X84585000Y-25420000D03*
%TD*%
D15*
%TO.C,C37*%
X61185000Y-36500000D03*
X63085000Y-36500000D03*
%TD*%
D20*
%TO.C,R12*%
X55320000Y-20950000D03*
X55320000Y-22775000D03*
%TD*%
D15*
%TO.C,C10*%
X51485000Y-24197500D03*
X53385000Y-24197500D03*
%TD*%
D16*
%TO.C,C23*%
X43060000Y-27032500D03*
X41160000Y-27032500D03*
%TD*%
D35*
%TO.C,R11*%
X49010000Y-27157500D03*
X49010000Y-25507500D03*
%TD*%
D17*
%TO.C,R74*%
X67305000Y-46212500D03*
X67305000Y-44387500D03*
%TD*%
%LPD*%
M02*
