%TF.GenerationSoftware,KiCad,Pcbnew,8.0.5*%
%TF.CreationDate,2025-03-07T14:34:27+01:00*%
%TF.ProjectId,eeg_4-channel_final,6565675f-342d-4636-9861-6e6e656c5f66,rev?*%
%TF.SameCoordinates,Original*%
%TF.FileFunction,Soldermask,Bot*%
%TF.FilePolarity,Negative*%
%FSLAX46Y46*%
G04 Gerber Fmt 4.6, Leading zero omitted, Abs format (unit mm)*
G04 Created by KiCad (PCBNEW 8.0.5) date 2025-03-07 14:34:27*
%MOMM*%
%LPD*%
G01*
G04 APERTURE LIST*
G04 Aperture macros list*
%AMRoundRect*
0 Rectangle with rounded corners*
0 $1 Rounding radius*
0 $2 $3 $4 $5 $6 $7 $8 $9 X,Y pos of 4 corners*
0 Add a 4 corners polygon primitive as box body*
4,1,4,$2,$3,$4,$5,$6,$7,$8,$9,$2,$3,0*
0 Add four circle primitives for the rounded corners*
1,1,$1+$1,$2,$3*
1,1,$1+$1,$4,$5*
1,1,$1+$1,$6,$7*
1,1,$1+$1,$8,$9*
0 Add four rect primitives between the rounded corners*
20,1,$1+$1,$2,$3,$4,$5,0*
20,1,$1+$1,$4,$5,$6,$7,0*
20,1,$1+$1,$6,$7,$8,$9,0*
20,1,$1+$1,$8,$9,$2,$3,0*%
G04 Aperture macros list end*
%ADD10C,1.000000*%
%ADD11R,1.700000X1.700000*%
%ADD12O,1.700000X1.700000*%
%ADD13C,0.499999*%
%ADD14C,0.600000*%
%ADD15O,1.104000X2.204000*%
%ADD16O,1.104000X1.904000*%
%ADD17RoundRect,0.250000X-0.350000X-0.625000X0.350000X-0.625000X0.350000X0.625000X-0.350000X0.625000X0*%
%ADD18O,1.200000X1.750000*%
G04 APERTURE END LIST*
D10*
%TO.C,S10*%
X118200000Y-37400000D03*
X118200000Y-30600000D03*
%TD*%
%TO.C,S3*%
X110800000Y-56791500D03*
X110800000Y-49991500D03*
%TD*%
D11*
%TO.C,J2*%
X20897500Y-22000000D03*
D12*
X20897500Y-24540000D03*
X20897500Y-27080000D03*
X20897500Y-29620000D03*
X20897500Y-32160000D03*
X20897500Y-34700000D03*
%TD*%
D13*
%TO.C,U4*%
X89834997Y-89700001D03*
%TD*%
D10*
%TO.C,S5*%
X82100000Y-89250000D03*
X82100000Y-96050000D03*
%TD*%
%TO.C,S11*%
X118200000Y-46950000D03*
X118200000Y-40150000D03*
%TD*%
D11*
%TO.C,J4*%
X82300000Y-59600000D03*
D12*
X84840000Y-59600000D03*
X87380000Y-59600000D03*
X89920000Y-59600000D03*
X92460000Y-59600000D03*
X95000000Y-59600000D03*
%TD*%
D14*
%TO.C,J1*%
X103797500Y-93120000D03*
X109577500Y-93120000D03*
D15*
X102362500Y-92630000D03*
X111012500Y-92630000D03*
D16*
X102362500Y-96800000D03*
X111012500Y-96800000D03*
%TD*%
D10*
%TO.C,S1*%
X110800000Y-27338500D03*
X110800000Y-20538500D03*
%TD*%
%TO.C,S12*%
X118200000Y-56791500D03*
X118200000Y-49991500D03*
%TD*%
%TO.C,S6*%
X82100000Y-71600000D03*
X82100000Y-78400000D03*
%TD*%
%TO.C,S9*%
X118200000Y-27338500D03*
X118200000Y-20538500D03*
%TD*%
%TO.C,S4*%
X110800000Y-46900000D03*
X110800000Y-40100000D03*
%TD*%
D17*
%TO.C,J3*%
X82850000Y-64250000D03*
D18*
X84850000Y-64250000D03*
%TD*%
D10*
%TO.C,S2*%
X110800000Y-37400000D03*
X110800000Y-30600000D03*
%TD*%
D11*
%TO.C,J5*%
X89500000Y-17900000D03*
%TD*%
M02*
