M48
; DRILL file {KiCad 8.0.5} date 2025-03-07T14:34:27+0100
; FORMAT={-:-/ absolute / inch / decimal}
; #@! TF.CreationDate,2025-03-07T14:34:27+01:00
; #@! TF.GenerationSoftware,Kicad,Pcbnew,8.0.5
; #@! TF.FileFunction,Plated,1,2,PTH
FMAT,2
INCH
; #@! TA.AperFunction,Plated,PTH,ComponentDrill
T1C0.0079
; #@! TA.AperFunction,Plated,PTH,ComponentDrill
T2C0.0080
; #@! TA.AperFunction,Plated,PTH,ViaDrill
T3C0.0118
; #@! TA.AperFunction,Plated,PTH,ComponentDrill
T4C0.0236
; #@! TA.AperFunction,Plated,PTH,ComponentDrill
T5C0.0295
; #@! TA.AperFunction,Plated,PTH,ComponentDrill
T6C0.0394
%
G90
G05
T1
X4.3496Y-2.7185
X4.3496Y-2.7736
X4.3772Y-2.6909
X4.3772Y-2.7451
X4.3772Y-2.8012
X4.4047Y-2.7185
X4.4047Y-2.7736
X4.4323Y-2.6909
X4.4323Y-2.7451
X4.4323Y-2.8012
X4.4598Y-2.7185
X4.4598Y-2.7736
T2
X3.5368Y-3.5315
T3
X0.9094Y-0.9334
X0.9094Y-1.6299
X0.9094Y-2.0079
X0.9105Y-1.2509
X0.9528Y-1.1181
X0.9528Y-1.4961
X0.9528Y-1.8701
X0.9528Y-2.248
X1.0591Y-0.9882
X1.063Y-1.3937
X1.063Y-2.1339
X1.0669Y-1.7677
X1.1417Y-1.3937
X1.1457Y-1.7677
X1.1457Y-2.1378
X1.185Y-0.7847
X1.2008Y-2.126
X1.2047Y-1.3819
X1.2047Y-1.752
X1.2087Y-0.9882
X1.2087Y-1.0197
X1.2165Y-1.1457
X1.2165Y-1.5236
X1.2165Y-1.9016
X1.2205Y-0.7835
X1.2992Y-1.2323
X1.3031Y-1.9882
X1.3041Y-1.6075
X1.3059Y-0.873
X1.315Y-1.3819
X1.315Y-1.7559
X1.315Y-2.1299
X1.3425Y-1.0118
X1.4449Y-1.0354
X1.4449Y-1.4055
X1.4449Y-1.7795
X1.4488Y-2.0
X1.4488Y-2.1535
X1.4528Y-1.622
X1.4764Y-1.2559
X1.4803Y-0.8898
X1.6181Y-2.248
X1.622Y-1.1181
X1.622Y-1.4961
X1.622Y-1.8701
X1.7283Y-2.1339
X1.7323Y-1.3898
X1.7362Y-1.0197
X1.7362Y-1.7638
X1.9291Y-0.7795
X1.9291Y-0.9488
X1.9291Y-1.1457
X1.9291Y-1.5217
X1.9291Y-1.8957
X1.9291Y-2.0709
X1.9646Y-2.0748
X1.9685Y-0.9528
X1.9764Y-1.378
X1.9784Y-1.248
X1.9803Y-1.4409
X1.9803Y-1.748
X1.9803Y-1.811
X1.9843Y-1.6024
X2.0276Y-1.0118
X2.0276Y-2.1142
X2.2559Y-1.1181
X2.2559Y-1.4961
X2.2559Y-1.8701
X2.2638Y-2.1339
X2.3307Y-1.0079
X2.3307Y-2.248
X2.3465Y-1.3858
X2.3504Y-1.748
X2.378Y-2.1339
X2.3937Y-1.3858
X2.3976Y-1.6969
X2.3976Y-1.748
X2.4016Y-0.9724
X2.4094Y-1.0079
X2.4528Y-1.3858
X2.4528Y-2.1339
X2.5591Y-0.9488
X2.563Y-0.7795
X2.563Y-1.1457
X2.563Y-1.311
X2.563Y-1.5236
X2.563Y-1.8976
X2.563Y-2.0591
X2.5669Y-1.685
X2.7008Y-1.0709
X2.7008Y-1.3701
X2.7008Y-1.7392
X2.7047Y-1.7874
X2.7047Y-2.122
X2.7047Y-2.1929
X2.7559Y-0.9614
X2.7638Y-1.3268
X2.8031Y-2.1535
X2.8425Y-1.3268
X2.8465Y-0.9614
X2.8858Y-1.7047
X2.8873Y-1.0431
X2.8886Y-2.157
X2.8976Y-1.374
X2.8976Y-1.752
X2.9252Y-1.1181
X2.9252Y-1.4961
X2.9252Y-1.8701
X2.9252Y-2.248
X2.9449Y-2.1299
X2.9843Y-1.8543
X3.0079Y-2.1299
X3.0157Y-1.2441
X3.0197Y-0.878
X3.0236Y-1.6181
X3.0276Y-1.9961
X3.0354Y-0.9961
X3.0354Y-1.4843
X3.0433Y-1.8543
X3.0669Y-0.8189
X3.1181Y-1.4843
X3.1693Y-2.3465
X3.1913Y-1.0063
X3.2047Y-2.0669
X3.2087Y-1.6969
X3.2362Y-1.3189
X3.2362Y-1.5236
X3.2402Y-0.7795
X3.2402Y-0.9449
X3.2402Y-1.1457
X3.2402Y-1.8976
X3.2441Y-2.0669
X3.2559Y-1.6929
X3.2598Y-2.6929
X3.2598Y-3.4291
X3.2913Y-0.8031
X3.2953Y-1.2677
X3.3031Y-3.3268
X3.3386Y-3.126
X3.3504Y-3.4252
X3.3543Y-3.2756
X3.3937Y-2.4331
X3.4134Y-3.6142
X3.4252Y-3.0551
X3.4291Y-0.9528
X3.4291Y-1.2953
X3.4291Y-1.3425
X3.4291Y-2.0433
X3.4291Y-2.0906
X3.4409Y-1.6693
X3.4409Y-1.7165
X3.4567Y-3.4921
X3.4567Y-3.5669
X3.4921Y-2.6457
X3.4961Y-2.7205
X3.5Y-3.0945
X3.5197Y-2.9409
X3.5506Y-3.6063
X3.5748Y-3.7362
X3.5787Y-3.4449
X3.5906Y-1.0039
X3.6181Y-0.9287
X3.622Y-3.5079
X3.622Y-3.5512
X3.626Y-1.4724
X3.626Y-2.0906
X3.6299Y-1.3465
X3.6339Y-1.7165
X3.6417Y-2.4567
X3.6457Y-0.9803
X3.6496Y-3.0354
X3.6614Y-0.9252
X3.6732Y-1.3386
X3.6732Y-1.7165
X3.6732Y-2.2362
X3.6772Y-2.0906
X3.7093Y-1.481
X3.7244Y-1.622
X3.7323Y-1.0276
X3.7402Y-2.4528
X3.7559Y-1.1457
X3.7765Y-0.976
X3.7795Y-1.252
X3.7795Y-3.6732
X3.7835Y-3.5984
X3.7874Y-3.4724
X3.7953Y-3.8386
X3.8636Y-1.1471
X3.8701Y-0.8819
X3.878Y-1.0157
X3.878Y-1.4685
X3.8819Y-3.4213
X3.8858Y-1.622
X3.8898Y-1.2244
X3.8898Y-1.3425
X3.9055Y-1.6929
X3.9528Y-2.5827
X3.9843Y-2.0472
X3.9882Y-3.2165
X3.9882Y-3.4449
X3.9921Y-1.6693
X3.9961Y-1.2283
X3.9961Y-1.7323
X3.9961Y-2.2457
X4.0Y-1.2913
X4.0Y-1.4843
X4.0Y-1.8543
X4.0013Y-0.9631
X4.0039Y-1.3425
X4.0118Y-3.5197
X4.0197Y-3.3583
X4.0433Y-3.2165
X4.063Y-3.7165
X4.0945Y-3.811
X4.1159Y-0.9675
X4.1535Y-2.1929
X4.1654Y-1.2953
X4.1654Y-1.3386
X4.1693Y-0.8578
X4.1693Y-1.7126
X4.1693Y-1.811
X4.1693Y-3.5748
X4.1732Y-1.0709
X4.1732Y-1.4213
X4.1811Y-2.1024
X4.185Y-2.1457
X4.1861Y-0.814
X4.2087Y-3.5512
X4.2559Y-1.6654
X4.2677Y-3.3543
X4.2913Y-0.8976
X4.311Y-3.811
X4.3228Y-1.248
X4.3228Y-1.3661
X4.3268Y-3.7087
X4.3307Y-2.1417
X4.3937Y-3.4961
X4.3937Y-3.5354
X4.4094Y-3.5827
X4.4134Y-1.1339
X4.4252Y-2.1417
X4.4252Y-3.2441
X4.4252Y-3.3976
X4.4331Y-1.6693
X4.4409Y-0.7717
X4.4449Y-1.8976
X4.4606Y-1.5236
X4.5669Y-2.374
X4.5787Y-3.8425
X4.5866Y-3.7953
X4.6024Y-2.5276
X4.6102Y-3.2441
X4.6969Y-3.689
X4.7047Y-2.5236
X4.7126Y-3.2008
T5
X3.2618Y-2.5295
X3.3406Y-2.5295
T6
X0.8227Y-0.8661
X0.8227Y-0.9661
X0.8227Y-1.0661
X0.8227Y-1.1661
X0.8227Y-1.2661
X0.8227Y-1.3661
X3.2402Y-2.3465
X3.3402Y-2.3465
X3.4402Y-2.3465
X3.5236Y-0.7047
X3.5402Y-2.3465
X3.6402Y-2.3465
X3.7402Y-2.3465
T4
G00X4.03Y-3.6252
M15
G01X4.03Y-3.6685
M16
G05
G00X4.03Y-3.7953
M15
G01X4.03Y-3.8268
M16
G05
G00X4.3706Y-3.6252
M15
G01X4.3706Y-3.6685
M16
G05
G00X4.3706Y-3.7953
M15
G01X4.3706Y-3.8268
M16
G05
M30
