%TF.GenerationSoftware,KiCad,Pcbnew,8.0.5*%
%TF.CreationDate,2025-03-07T14:34:27+01:00*%
%TF.ProjectId,eeg_4-channel_final,6565675f-342d-4636-9861-6e6e656c5f66,rev?*%
%TF.SameCoordinates,Original*%
%TF.FileFunction,Copper,L2,Bot*%
%TF.FilePolarity,Positive*%
%FSLAX46Y46*%
G04 Gerber Fmt 4.6, Leading zero omitted, Abs format (unit mm)*
G04 Created by KiCad (PCBNEW 8.0.5) date 2025-03-07 14:34:27*
%MOMM*%
%LPD*%
G01*
G04 APERTURE LIST*
G04 Aperture macros list*
%AMRoundRect*
0 Rectangle with rounded corners*
0 $1 Rounding radius*
0 $2 $3 $4 $5 $6 $7 $8 $9 X,Y pos of 4 corners*
0 Add a 4 corners polygon primitive as box body*
4,1,4,$2,$3,$4,$5,$6,$7,$8,$9,$2,$3,0*
0 Add four circle primitives for the rounded corners*
1,1,$1+$1,$2,$3*
1,1,$1+$1,$4,$5*
1,1,$1+$1,$6,$7*
1,1,$1+$1,$8,$9*
0 Add four rect primitives between the rounded corners*
20,1,$1+$1,$2,$3,$4,$5,0*
20,1,$1+$1,$4,$5,$6,$7,0*
20,1,$1+$1,$6,$7,$8,$9,0*
20,1,$1+$1,$8,$9,$2,$3,0*%
G04 Aperture macros list end*
%TA.AperFunction,ComponentPad*%
%ADD10R,1.700000X1.700000*%
%TD*%
%TA.AperFunction,ComponentPad*%
%ADD11O,1.700000X1.700000*%
%TD*%
%TA.AperFunction,ComponentPad*%
%ADD12C,0.499999*%
%TD*%
%TA.AperFunction,ComponentPad*%
%ADD13O,0.900000X2.000000*%
%TD*%
%TA.AperFunction,ComponentPad*%
%ADD14O,0.900000X1.700000*%
%TD*%
%TA.AperFunction,HeatsinkPad*%
%ADD15C,0.600000*%
%TD*%
%TA.AperFunction,ComponentPad*%
%ADD16RoundRect,0.250000X-0.350000X-0.625000X0.350000X-0.625000X0.350000X0.625000X-0.350000X0.625000X0*%
%TD*%
%TA.AperFunction,ComponentPad*%
%ADD17O,1.200000X1.750000*%
%TD*%
%TA.AperFunction,ViaPad*%
%ADD18C,0.600000*%
%TD*%
%TA.AperFunction,Conductor*%
%ADD19C,0.200000*%
%TD*%
%TA.AperFunction,Conductor*%
%ADD20C,0.300000*%
%TD*%
G04 APERTURE END LIST*
D10*
%TO.P,J2,1,Pin_1*%
%TO.N,DRL*%
X20897500Y-22000000D03*
D11*
%TO.P,J2,2,Pin_2*%
%TO.N,Channel_ref*%
X20897500Y-24540000D03*
%TO.P,J2,3,Pin_3*%
%TO.N,Channel1*%
X20897500Y-27080000D03*
%TO.P,J2,4,Pin_4*%
%TO.N,Channel2*%
X20897500Y-29620000D03*
%TO.P,J2,5,Pin_5*%
%TO.N,Channel3*%
X20897500Y-32160000D03*
%TO.P,J2,6,Pin_6*%
%TO.N,Channel4*%
X20897500Y-34700000D03*
%TD*%
D12*
%TO.P,U4,V*%
%TO.N,N/C*%
X89834997Y-89700001D03*
%TD*%
D10*
%TO.P,J4,1,Pin_1*%
%TO.N,GND*%
X82300000Y-59600000D03*
D11*
%TO.P,J4,2,Pin_2*%
%TO.N,+2V*%
X84840000Y-59600000D03*
%TO.P,J4,3,Pin_3*%
%TO.N,-2V*%
X87380000Y-59600000D03*
%TO.P,J4,4,Pin_4*%
%TO.N,3.3V*%
X89920000Y-59600000D03*
%TO.P,J4,5,Pin_5*%
%TO.N,SCL*%
X92460000Y-59600000D03*
%TO.P,J4,6,Pin_6*%
%TO.N,SDA*%
X95000000Y-59600000D03*
%TD*%
D13*
%TO.P,J1,S1,SHIELD*%
%TO.N,GND*%
X102362500Y-92630000D03*
%TO.P,J1,S2,SHIELD*%
X111012500Y-92630000D03*
D14*
%TO.P,J1,S3,SHIELD*%
X102362500Y-96800000D03*
%TO.P,J1,S4,SHIELD*%
X111012500Y-96800000D03*
%TD*%
D15*
%TO.P,U24,39,GND*%
%TO.N,GND*%
X112580000Y-68350000D03*
X111180000Y-68350000D03*
X113280000Y-69050000D03*
X111880000Y-69050000D03*
X110480000Y-69050000D03*
X112580000Y-69725000D03*
X111180000Y-69725000D03*
X113280000Y-70450000D03*
X111880000Y-70450000D03*
X110480000Y-70450000D03*
X112580000Y-71150000D03*
X111180000Y-71150000D03*
%TD*%
D16*
%TO.P,J3,1,Pin_1*%
%TO.N,GND*%
X82850000Y-64250000D03*
D17*
%TO.P,J3,2,Pin_2*%
%TO.N,3.7V*%
X84850000Y-64250000D03*
%TD*%
D10*
%TO.P,J5,1,Pin_1*%
%TO.N,ADC_1*%
X89500000Y-17900000D03*
%TD*%
D18*
%TO.N,Net-(U4-EN+)*%
X87800000Y-88700000D03*
X90900000Y-87500000D03*
X86700000Y-91799998D03*
%TO.N,GND*%
X44100000Y-25900000D03*
X82700000Y-43000000D03*
X106327520Y-20674904D03*
X82800000Y-87100000D03*
X60400000Y-54200000D03*
X109500000Y-96800000D03*
X119300000Y-93700000D03*
X51500000Y-25700000D03*
X88700000Y-67200000D03*
X112400000Y-82400000D03*
X27100000Y-44900000D03*
X43900000Y-54200000D03*
X65000000Y-24100000D03*
X62300000Y-54200000D03*
X96000000Y-93300000D03*
X71200000Y-54700000D03*
X87100000Y-24200000D03*
X50300000Y-44400000D03*
X89400000Y-74700000D03*
X50400000Y-40700000D03*
X29000000Y-35400000D03*
X100400000Y-65600000D03*
X82800000Y-68400000D03*
X83700000Y-32200000D03*
X68600000Y-44175000D03*
X98500000Y-25800000D03*
X75800000Y-47100000D03*
X57500000Y-54200000D03*
X49900000Y-52700000D03*
X87100000Y-34100000D03*
X59200000Y-25600000D03*
X50000000Y-24200000D03*
X93300000Y-43600000D03*
X77100000Y-25300000D03*
X49000000Y-24100000D03*
X59700000Y-44400000D03*
X88800000Y-69100000D03*
X30700000Y-25100000D03*
X81400000Y-52500000D03*
X30500000Y-54000000D03*
X109900000Y-94200000D03*
X70200000Y-33700000D03*
X104000000Y-96800000D03*
X98300000Y-22400000D03*
X88900000Y-78600000D03*
X82300000Y-24000000D03*
X44100000Y-44800000D03*
X44000000Y-35300000D03*
X68700000Y-53900000D03*
X92200000Y-34200000D03*
X101700000Y-34100000D03*
X70000000Y-24420000D03*
X101500000Y-44000000D03*
X50300000Y-36600000D03*
X90184997Y-91600000D03*
X50300000Y-46000000D03*
X82400000Y-52500000D03*
X77300000Y-47100000D03*
X93300000Y-34000000D03*
X65200000Y-42800000D03*
X27000000Y-35400000D03*
X60900000Y-43100000D03*
X96100000Y-91400000D03*
X101632877Y-24462778D03*
X92300000Y-43600000D03*
X73300000Y-43300000D03*
X116000000Y-60300000D03*
X119500000Y-64100000D03*
X82200000Y-33500000D03*
X60800000Y-35200000D03*
X72300000Y-24420000D03*
X101600000Y-47100000D03*
X65100000Y-33300000D03*
X92000000Y-89100000D03*
X60900000Y-44400000D03*
X98600000Y-86900000D03*
X87100000Y-53100000D03*
X92100000Y-53100000D03*
X49000000Y-52600000D03*
X29100000Y-54300000D03*
X92000000Y-90200000D03*
X81060000Y-25559886D03*
X85100000Y-87000000D03*
X72200000Y-33700000D03*
X101600000Y-37700000D03*
X96400000Y-97500000D03*
X93400000Y-53100000D03*
X26900000Y-25100000D03*
X59600000Y-35200000D03*
X61000000Y-24700000D03*
X116300000Y-97600000D03*
X101500000Y-57041500D03*
X95924035Y-24790000D03*
X80500000Y-59600000D03*
X81500000Y-43100000D03*
X30700000Y-25900000D03*
X30600000Y-44500000D03*
X65100000Y-52300000D03*
X87800000Y-90599998D03*
X87400000Y-43600000D03*
X74800000Y-54100000D03*
X90800000Y-94900000D03*
X79200000Y-37700000D03*
X91200000Y-25500000D03*
X119700000Y-81300000D03*
X112000000Y-91000000D03*
X51500000Y-53700000D03*
X76400000Y-54100000D03*
X61200000Y-25600000D03*
X104543027Y-24575000D03*
X103200000Y-94400000D03*
X77100000Y-37700000D03*
X50251473Y-31700000D03*
X50200000Y-35000000D03*
X30600000Y-35100000D03*
X98800000Y-34100000D03*
X29100000Y-44900000D03*
X62300000Y-35200000D03*
X27000000Y-54200000D03*
%TO.N,+2V*%
X49000000Y-29100000D03*
X65100000Y-48200000D03*
X113300000Y-38700000D03*
X65100000Y-29100000D03*
X30900000Y-38700000D03*
X30900000Y-48300000D03*
X65100000Y-38700000D03*
X49000000Y-38650000D03*
X49000000Y-19800000D03*
X82200000Y-38700000D03*
X82300000Y-48200000D03*
X87000000Y-77600000D03*
X112900000Y-48200000D03*
X65100000Y-19800000D03*
X82300000Y-19800000D03*
X31000000Y-19900000D03*
X30900000Y-29100000D03*
X112100000Y-28800000D03*
X86200000Y-61800000D03*
X82300000Y-29100000D03*
X112800000Y-19600000D03*
X49000000Y-48150000D03*
%TO.N,-2V*%
X92700000Y-77100000D03*
X24200000Y-28400000D03*
X41100000Y-57100000D03*
X74300000Y-28400000D03*
X57300000Y-38000000D03*
X41200000Y-38000000D03*
X41200000Y-28400000D03*
X59200000Y-57100000D03*
X57300000Y-28400000D03*
X74300000Y-38000000D03*
X57300000Y-47500000D03*
X24200000Y-57100000D03*
X41200000Y-47500000D03*
X74300000Y-47500000D03*
X74300000Y-57100000D03*
X24200000Y-38000000D03*
X24200000Y-47500000D03*
%TO.N,Net-(C6-Pad1)*%
X37600000Y-22600000D03*
X36700000Y-26300000D03*
%TO.N,Net-(U6--IN_A)*%
X76700000Y-22300000D03*
X105900000Y-21788500D03*
%TO.N,DRL_1*%
X77900000Y-20800000D03*
X30100000Y-19932500D03*
%TO.N,DRL*%
X83600000Y-20400000D03*
%TO.N,3.3V*%
X98700000Y-41200000D03*
X92100000Y-37400000D03*
X94600000Y-41200000D03*
X112400000Y-86300000D03*
X83900000Y-84500000D03*
X96200000Y-88200000D03*
X116500000Y-96400000D03*
X85200000Y-83200000D03*
X93300000Y-56800000D03*
X117100000Y-82400000D03*
X94217108Y-37617108D03*
%TO.N,Net-(U11--IN_A)*%
X105800000Y-34000000D03*
X76600000Y-31600000D03*
%TO.N,Net-(U18--IN_A)*%
X76900000Y-50700000D03*
X106300000Y-54500000D03*
%TO.N,Net-(U22--IN_A)*%
X105900000Y-43500000D03*
X76800000Y-41100000D03*
%TO.N,EN*%
X116900000Y-64200000D03*
X102700000Y-81700000D03*
%TO.N,IO0*%
X101300000Y-87500000D03*
X101300000Y-81700000D03*
%TO.N,5V*%
X84800000Y-79400000D03*
X101900000Y-89400000D03*
%TO.N,USB_D-*%
X105900000Y-90800000D03*
X111600000Y-89800000D03*
%TO.N,USB_D+*%
X111600000Y-88800000D03*
X106900000Y-90200000D03*
%TO.N,Channel_ref*%
X23100000Y-23707500D03*
X23100000Y-41400000D03*
X23126349Y-31773651D03*
X23100000Y-51000000D03*
%TO.N,SCL*%
X92500000Y-62400000D03*
X110000000Y-54400000D03*
%TO.N,SDA*%
X112600000Y-42400000D03*
X95000000Y-62300000D03*
X112400000Y-54400000D03*
X99200000Y-43000000D03*
%TO.N,Net-(Q2-B)*%
X108400000Y-85200000D03*
X102100000Y-85300000D03*
%TO.N,Net-(R17-Pad2)*%
X109000000Y-22800000D03*
X73336421Y-26495195D03*
%TO.N,ADC_1*%
X94800000Y-26100000D03*
X93000000Y-23500000D03*
%TO.N,Net-(U7--IN_A)*%
X91900000Y-23590000D03*
X92600000Y-24900000D03*
%TO.N,Net-(R23-Pad1)*%
X68600000Y-27200000D03*
X106000000Y-27200000D03*
%TO.N,Net-(U3-ALERT{slash}RDY)*%
X98135735Y-29135735D03*
X98800000Y-31100000D03*
%TO.N,Net-(C32-Pad1)*%
X37500000Y-31900000D03*
X36700000Y-35700000D03*
%TO.N,Net-(R40-Pad2)*%
X105800000Y-32900000D03*
X73600000Y-34900000D03*
%TO.N,Net-(R41-Pad1)*%
X106000000Y-36100000D03*
X68600000Y-34800000D03*
%TO.N,Net-(C54-Pad1)*%
X36800000Y-54700000D03*
X36800000Y-50800000D03*
%TO.N,Net-(R61-Pad2)*%
X106200000Y-53400000D03*
X73369390Y-54787849D03*
%TO.N,Net-(R62-Pad1)*%
X105500000Y-55700000D03*
X68700000Y-55700000D03*
%TO.N,Net-(C73-Pad1)*%
X36900000Y-41200000D03*
X36700000Y-45200000D03*
%TO.N,Net-(R76-Pad2)*%
X73600000Y-44500000D03*
X108100000Y-42300000D03*
%TO.N,Net-(R77-Pad1)*%
X68700000Y-45400000D03*
X105900000Y-46000000D03*
%TO.N,Net-(U12-+IN_A)*%
X87100000Y-32900000D03*
X101600000Y-32800000D03*
%TO.N,Net-(U14-+IN_A)*%
X101400000Y-42400000D03*
X87400000Y-42400000D03*
%TO.N,Net-(U16-+IN_A)*%
X87100000Y-51900000D03*
X101200000Y-52000000D03*
%TO.N,Net-(R8-Pad1)*%
X33168973Y-22175000D03*
X34100000Y-25700000D03*
%TO.N,Net-(R32-Pad1)*%
X33400000Y-35100000D03*
X33000000Y-31300000D03*
%TO.N,Net-(R103-Pad2)*%
X33400000Y-54100000D03*
X33100000Y-50500000D03*
%TO.N,Net-(R101-Pad2)*%
X33125408Y-40831523D03*
X33400000Y-44600000D03*
%TO.N,GND_ADC*%
X109800000Y-31700000D03*
X101500000Y-31200000D03*
X96000000Y-31800000D03*
X109800000Y-34700000D03*
X98500000Y-37300000D03*
X95400000Y-29100000D03*
%TD*%
D19*
%TO.N,Net-(U4-EN+)*%
X90900000Y-87500000D02*
X89700000Y-88700000D01*
X86700000Y-89800000D02*
X86700000Y-91799998D01*
X89700000Y-88700000D02*
X87800000Y-88700000D01*
X87800000Y-88700000D02*
X86700000Y-89800000D01*
D20*
%TO.N,+2V*%
X30950000Y-38650000D02*
X30900000Y-38700000D01*
X112100000Y-28800000D02*
X111700000Y-28400000D01*
X82461500Y-19638500D02*
X112761500Y-19638500D01*
X49000000Y-19800000D02*
X31100000Y-19800000D01*
X111700000Y-28400000D02*
X83000000Y-28400000D01*
X49000000Y-29100000D02*
X65100000Y-29100000D01*
X82200000Y-38700000D02*
X113300000Y-38700000D01*
X49000000Y-38650000D02*
X30950000Y-38650000D01*
X31000000Y-48200000D02*
X30900000Y-48300000D01*
X49000000Y-48150000D02*
X65050000Y-48150000D01*
X65050000Y-38650000D02*
X65100000Y-38700000D01*
X65100000Y-29100000D02*
X82300000Y-29100000D01*
X87000000Y-77600000D02*
X86200000Y-76800000D01*
X65050000Y-48150000D02*
X65100000Y-48200000D01*
X86200000Y-76800000D02*
X86200000Y-61800000D01*
X83000000Y-28400000D02*
X82300000Y-29100000D01*
X30900000Y-29100000D02*
X49000000Y-29100000D01*
X112761500Y-19638500D02*
X112800000Y-19600000D01*
X82300000Y-19800000D02*
X82461500Y-19638500D01*
X49000000Y-38650000D02*
X65050000Y-38650000D01*
X65100000Y-48200000D02*
X82300000Y-48200000D01*
X31100000Y-19800000D02*
X31000000Y-19900000D01*
X112900000Y-48200000D02*
X82300000Y-48200000D01*
X65100000Y-38700000D02*
X82200000Y-38700000D01*
X65100000Y-19800000D02*
X49000000Y-19800000D01*
X82300000Y-19800000D02*
X65100000Y-19800000D01*
X49000000Y-48150000D02*
X48950000Y-48200000D01*
X48950000Y-48200000D02*
X31000000Y-48200000D01*
%TO.N,-2V*%
X57300000Y-28400000D02*
X74300000Y-28400000D01*
X24200000Y-47500000D02*
X41200000Y-47500000D01*
X41200000Y-38000000D02*
X57300000Y-38000000D01*
X24200000Y-57100000D02*
X41100000Y-57100000D01*
X41200000Y-47500000D02*
X57300000Y-47500000D01*
X24200000Y-57100000D02*
X24200000Y-47500000D01*
X59200000Y-57100000D02*
X74300000Y-57100000D01*
X24200000Y-38000000D02*
X41200000Y-38000000D01*
X24200000Y-47500000D02*
X24200000Y-38000000D01*
X24200000Y-38000000D02*
X24200000Y-28400000D01*
X74300000Y-57100000D02*
X84880000Y-57100000D01*
X41100000Y-57100000D02*
X59200000Y-57100000D01*
X92700000Y-77100000D02*
X92700000Y-64920000D01*
X84880000Y-57100000D02*
X87380000Y-59600000D01*
X57300000Y-47500000D02*
X74300000Y-47500000D01*
X24200000Y-28400000D02*
X41200000Y-28400000D01*
X57300000Y-38000000D02*
X74300000Y-38000000D01*
X41200000Y-28400000D02*
X57300000Y-28400000D01*
X92700000Y-64920000D02*
X87380000Y-59600000D01*
D19*
%TO.N,Net-(C6-Pad1)*%
X37500000Y-22700000D02*
X37500000Y-25500000D01*
X37500000Y-25500000D02*
X36700000Y-26300000D01*
X37600000Y-22600000D02*
X37500000Y-22700000D01*
%TO.N,Net-(U6--IN_A)*%
X105900000Y-21788500D02*
X105311500Y-21200000D01*
X82765686Y-21800000D02*
X77200000Y-21800000D01*
X77200000Y-21800000D02*
X76700000Y-22300000D01*
X83365686Y-21200000D02*
X82765686Y-21800000D01*
X105311500Y-21200000D02*
X83365686Y-21200000D01*
%TO.N,DRL_1*%
X30967500Y-20800000D02*
X30100000Y-19932500D01*
X77900000Y-20800000D02*
X30967500Y-20800000D01*
%TO.N,DRL*%
X21497500Y-21400000D02*
X20897500Y-22000000D01*
X82600000Y-21400000D02*
X21497500Y-21400000D01*
X83600000Y-20400000D02*
X82600000Y-21400000D01*
D20*
%TO.N,3.3V*%
X112400000Y-86300000D02*
X110550000Y-88150000D01*
X113200000Y-86300000D02*
X112400000Y-86300000D01*
X83900000Y-84500000D02*
X85200000Y-83200000D01*
X116300000Y-96200000D02*
X116300000Y-90200000D01*
X92720000Y-56800000D02*
X93300000Y-56800000D01*
X110550000Y-88150000D02*
X96250000Y-88150000D01*
X116500000Y-96400000D02*
X116300000Y-96200000D01*
X94217108Y-37617108D02*
X92317108Y-37617108D01*
X96250000Y-88150000D02*
X96200000Y-88200000D01*
X89920000Y-59600000D02*
X92720000Y-56800000D01*
X94600000Y-41200000D02*
X98700000Y-41200000D01*
X92317108Y-37617108D02*
X92100000Y-37400000D01*
X117100000Y-82400000D02*
X113200000Y-86300000D01*
X116300000Y-90200000D02*
X112400000Y-86300000D01*
D19*
%TO.N,Net-(U11--IN_A)*%
X105800000Y-34000000D02*
X105800000Y-34100000D01*
X76600000Y-33800000D02*
X76600000Y-31600000D01*
X78000000Y-35200000D02*
X76600000Y-33800000D01*
X105800000Y-34100000D02*
X104700000Y-35200000D01*
X104700000Y-35200000D02*
X78000000Y-35200000D01*
%TO.N,Net-(U18--IN_A)*%
X106100000Y-54700000D02*
X78500000Y-54700000D01*
X106300000Y-54500000D02*
X106100000Y-54700000D01*
X78500000Y-54700000D02*
X76900000Y-53100000D01*
X76900000Y-53100000D02*
X76900000Y-50700000D01*
%TO.N,Net-(U22--IN_A)*%
X77600000Y-45000000D02*
X104400000Y-45000000D01*
X76800000Y-44200000D02*
X77600000Y-45000000D01*
X76800000Y-41100000D02*
X76800000Y-44200000D01*
X104400000Y-45000000D02*
X105900000Y-43500000D01*
%TO.N,EN*%
X108700000Y-64200000D02*
X116900000Y-64200000D01*
X102700000Y-70200000D02*
X108700000Y-64200000D01*
X102700000Y-81700000D02*
X102700000Y-70200000D01*
%TO.N,IO0*%
X101300000Y-87500000D02*
X101300000Y-81700000D01*
D20*
%TO.N,5V*%
X84800000Y-80019239D02*
X84800000Y-79400000D01*
X98330761Y-90150000D02*
X94930761Y-90150000D01*
X101900000Y-89400000D02*
X101050000Y-90250000D01*
X98430761Y-90250000D02*
X98330761Y-90150000D01*
X94930761Y-90150000D02*
X84800000Y-80019239D01*
X101050000Y-90250000D02*
X98430761Y-90250000D01*
D19*
%TO.N,USB_D-*%
X111600000Y-89800000D02*
X110600000Y-90800000D01*
X110600000Y-90800000D02*
X105900000Y-90800000D01*
%TO.N,USB_D+*%
X108300000Y-88800000D02*
X111600000Y-88800000D01*
X106900000Y-90200000D02*
X108300000Y-88800000D01*
%TO.N,Channel_ref*%
X23126349Y-31773651D02*
X23126349Y-23733849D01*
X23100000Y-41400000D02*
X23100000Y-51000000D01*
X23126349Y-23733849D02*
X23100000Y-23707500D01*
X23126349Y-41373651D02*
X23100000Y-41400000D01*
X23126349Y-31773651D02*
X23126349Y-41373651D01*
%TO.N,SCL*%
X105950000Y-58450000D02*
X93610000Y-58450000D01*
X92460000Y-62360000D02*
X92460000Y-59600000D01*
X110000000Y-54400000D02*
X105950000Y-58450000D01*
X92500000Y-62400000D02*
X92460000Y-62360000D01*
X93610000Y-58450000D02*
X92460000Y-59600000D01*
%TO.N,SDA*%
X112400000Y-56393582D02*
X109193582Y-59600000D01*
X112300000Y-42100000D02*
X112600000Y-42400000D01*
X95000000Y-62300000D02*
X95000000Y-59600000D01*
X108748529Y-42100000D02*
X112300000Y-42100000D01*
X105551471Y-43000000D02*
X106851471Y-41700000D01*
X108348529Y-41700000D02*
X108748529Y-42100000D01*
X112400000Y-54400000D02*
X112400000Y-56393582D01*
X106851471Y-41700000D02*
X108348529Y-41700000D01*
X99200000Y-43000000D02*
X105551471Y-43000000D01*
X109193582Y-59600000D02*
X95000000Y-59600000D01*
%TO.N,Net-(Q2-B)*%
X102200000Y-85200000D02*
X102100000Y-85300000D01*
X108400000Y-85200000D02*
X102200000Y-85200000D01*
%TO.N,Net-(R17-Pad2)*%
X73550636Y-26495195D02*
X73336421Y-26495195D01*
X108000000Y-22800000D02*
X103900000Y-26900000D01*
X109000000Y-22800000D02*
X108000000Y-22800000D01*
X73955441Y-26900000D02*
X73550636Y-26495195D01*
X103900000Y-26900000D02*
X73955441Y-26900000D01*
%TO.N,ADC_1*%
X93000000Y-23841471D02*
X93000000Y-23500000D01*
X94800000Y-25641471D02*
X93000000Y-23841471D01*
X94800000Y-26100000D02*
X94800000Y-25641471D01*
%TO.N,Net-(U7--IN_A)*%
X91900000Y-23590000D02*
X91900000Y-24200000D01*
X91900000Y-24200000D02*
X92600000Y-24900000D01*
%TO.N,Net-(R23-Pad1)*%
X73584950Y-27095195D02*
X73789755Y-27300000D01*
X73789755Y-27300000D02*
X105900000Y-27300000D01*
X68900000Y-26900000D02*
X72892697Y-26900000D01*
X72892697Y-26900000D02*
X73087892Y-27095195D01*
X105900000Y-27300000D02*
X106000000Y-27200000D01*
X73087892Y-27095195D02*
X73584950Y-27095195D01*
X68600000Y-27200000D02*
X68900000Y-26900000D01*
%TO.N,Net-(U3-ALERT{slash}RDY)*%
X98135735Y-29635735D02*
X98135735Y-29135735D01*
X98800000Y-31100000D02*
X98800000Y-30300000D01*
X98800000Y-30300000D02*
X98135735Y-29635735D01*
%TO.N,Net-(C32-Pad1)*%
X37500000Y-31900000D02*
X37500000Y-34900000D01*
X37500000Y-34900000D02*
X36700000Y-35700000D01*
%TO.N,Net-(R40-Pad2)*%
X106400000Y-34400000D02*
X105200000Y-35600000D01*
X106400000Y-33500000D02*
X106400000Y-34400000D01*
X105200000Y-35600000D02*
X77834314Y-35600000D01*
X105800000Y-32900000D02*
X106400000Y-33500000D01*
X77834314Y-35600000D02*
X77134314Y-34900000D01*
X77134314Y-34900000D02*
X73600000Y-34900000D01*
%TO.N,Net-(R41-Pad1)*%
X72148529Y-34800000D02*
X68600000Y-34800000D01*
X105900000Y-36000000D02*
X77668628Y-36000000D01*
X72848529Y-35500000D02*
X72148529Y-34800000D01*
X77168628Y-35500000D02*
X72848529Y-35500000D01*
X106000000Y-36100000D02*
X105900000Y-36000000D01*
X77668628Y-36000000D02*
X77168628Y-35500000D01*
%TO.N,Net-(C54-Pad1)*%
X36800000Y-50800000D02*
X36800000Y-54700000D01*
%TO.N,Net-(R61-Pad2)*%
X73681541Y-55100000D02*
X73369390Y-54787849D01*
X106548529Y-55100000D02*
X73681541Y-55100000D01*
X106900000Y-54748529D02*
X106548529Y-55100000D01*
X106900000Y-54100000D02*
X106900000Y-54748529D01*
X106200000Y-53400000D02*
X106900000Y-54100000D01*
%TO.N,Net-(R62-Pad1)*%
X105500000Y-55700000D02*
X105300000Y-55900000D01*
X68900000Y-55900000D02*
X68700000Y-55700000D01*
X105300000Y-55900000D02*
X68900000Y-55900000D01*
%TO.N,Net-(C73-Pad1)*%
X36700000Y-41400000D02*
X36700000Y-45200000D01*
X36900000Y-41200000D02*
X36700000Y-41400000D01*
%TO.N,Net-(R76-Pad2)*%
X76634314Y-44600000D02*
X77434314Y-45400000D01*
X105000000Y-45400000D02*
X108100000Y-42300000D01*
X73600000Y-44500000D02*
X73700000Y-44600000D01*
X77434314Y-45400000D02*
X105000000Y-45400000D01*
X73700000Y-44600000D02*
X76634314Y-44600000D01*
%TO.N,Net-(R77-Pad1)*%
X74225210Y-45100000D02*
X74325210Y-45200000D01*
X68700000Y-45400000D02*
X69000000Y-45100000D01*
X74325210Y-45200000D02*
X76668628Y-45200000D01*
X76668628Y-45200000D02*
X77468628Y-46000000D01*
X77468628Y-46000000D02*
X105900000Y-46000000D01*
X69000000Y-45100000D02*
X74225210Y-45100000D01*
%TO.N,Net-(U12-+IN_A)*%
X87200000Y-33000000D02*
X101400000Y-33000000D01*
X87100000Y-32900000D02*
X87200000Y-33000000D01*
X101400000Y-33000000D02*
X101600000Y-32800000D01*
%TO.N,Net-(U14-+IN_A)*%
X87400000Y-42400000D02*
X101400000Y-42400000D01*
%TO.N,Net-(U16-+IN_A)*%
X101100000Y-51900000D02*
X101200000Y-52000000D01*
X87100000Y-51900000D02*
X101100000Y-51900000D01*
%TO.N,Net-(R8-Pad1)*%
X33168973Y-24768973D02*
X33168973Y-22175000D01*
X34100000Y-25700000D02*
X33168973Y-24768973D01*
%TO.N,Net-(R32-Pad1)*%
X33000000Y-31300000D02*
X33000000Y-34700000D01*
X33000000Y-34700000D02*
X33400000Y-35100000D01*
%TO.N,Net-(R103-Pad2)*%
X33400000Y-50800000D02*
X33100000Y-50500000D01*
X33400000Y-54100000D02*
X33400000Y-50800000D01*
%TO.N,Net-(R101-Pad2)*%
X33125408Y-40831523D02*
X33125408Y-44325408D01*
X33125408Y-44325408D02*
X33400000Y-44600000D01*
%TO.N,GND_ADC*%
X109800000Y-31700000D02*
X107300000Y-29200000D01*
X101500000Y-30951471D02*
X101500000Y-31200000D01*
X95400000Y-29100000D02*
X94900000Y-29600000D01*
X96000000Y-31800000D02*
X96800000Y-32600000D01*
X98500000Y-37300000D02*
X99100000Y-36700000D01*
X99100000Y-36700000D02*
X107800000Y-36700000D01*
X100100000Y-32600000D02*
X101500000Y-31200000D01*
X96800000Y-32600000D02*
X100100000Y-32600000D01*
X107800000Y-36700000D02*
X109800000Y-34700000D01*
X103251471Y-29200000D02*
X101500000Y-30951471D01*
X107300000Y-29200000D02*
X103251471Y-29200000D01*
X94900000Y-29600000D02*
X94900000Y-30700000D01*
X94900000Y-30700000D02*
X96000000Y-31800000D01*
%TD*%
%TA.AperFunction,Conductor*%
%TO.N,GND*%
G36*
X120042723Y-19019797D02*
G01*
X120088582Y-19072511D01*
X120099890Y-19124354D01*
X120030118Y-98315609D01*
X120010374Y-98382631D01*
X119957530Y-98428340D01*
X119906118Y-98439500D01*
X77023013Y-98439500D01*
X76955974Y-98419815D01*
X76910219Y-98367011D01*
X76899015Y-98316165D01*
X76887260Y-96123920D01*
X81349499Y-96123920D01*
X81378340Y-96268907D01*
X81378343Y-96268917D01*
X81434912Y-96405488D01*
X81434919Y-96405501D01*
X81517048Y-96528415D01*
X81517051Y-96528419D01*
X81621580Y-96632948D01*
X81621584Y-96632951D01*
X81744498Y-96715080D01*
X81744511Y-96715087D01*
X81827648Y-96749523D01*
X81881087Y-96771658D01*
X81881091Y-96771658D01*
X81881092Y-96771659D01*
X82026079Y-96800500D01*
X82026082Y-96800500D01*
X82173920Y-96800500D01*
X82271462Y-96781096D01*
X82318913Y-96771658D01*
X82455495Y-96715084D01*
X82578416Y-96632951D01*
X82682951Y-96528416D01*
X82765084Y-96405495D01*
X82806119Y-96306428D01*
X101412500Y-96306428D01*
X101412500Y-96550000D01*
X102062500Y-96550000D01*
X102062500Y-97050000D01*
X101412500Y-97050000D01*
X101412500Y-97293571D01*
X101449006Y-97477097D01*
X101449008Y-97477105D01*
X101520619Y-97649991D01*
X101520624Y-97650000D01*
X101624586Y-97805589D01*
X101624589Y-97805593D01*
X101756906Y-97937910D01*
X101756910Y-97937913D01*
X101912499Y-98041875D01*
X101912512Y-98041882D01*
X102085389Y-98113489D01*
X102085396Y-98113491D01*
X102112500Y-98118882D01*
X102112500Y-97366988D01*
X102122440Y-97384205D01*
X102178295Y-97440060D01*
X102246704Y-97479556D01*
X102323004Y-97500000D01*
X102401996Y-97500000D01*
X102478296Y-97479556D01*
X102546705Y-97440060D01*
X102602560Y-97384205D01*
X102612500Y-97366988D01*
X102612500Y-98118881D01*
X102639603Y-98113491D01*
X102639610Y-98113489D01*
X102812487Y-98041882D01*
X102812500Y-98041875D01*
X102968089Y-97937913D01*
X102968093Y-97937910D01*
X103100410Y-97805593D01*
X103100413Y-97805589D01*
X103204375Y-97650000D01*
X103204380Y-97649991D01*
X103275991Y-97477105D01*
X103275993Y-97477097D01*
X103312499Y-97293571D01*
X103312500Y-97293569D01*
X103312500Y-97050000D01*
X102662500Y-97050000D01*
X102662500Y-96550000D01*
X103312500Y-96550000D01*
X103312500Y-96306430D01*
X103312499Y-96306428D01*
X110062500Y-96306428D01*
X110062500Y-96550000D01*
X110712500Y-96550000D01*
X110712500Y-97050000D01*
X110062500Y-97050000D01*
X110062500Y-97293571D01*
X110099006Y-97477097D01*
X110099008Y-97477105D01*
X110170619Y-97649991D01*
X110170624Y-97650000D01*
X110274586Y-97805589D01*
X110274589Y-97805593D01*
X110406906Y-97937910D01*
X110406910Y-97937913D01*
X110562499Y-98041875D01*
X110562512Y-98041882D01*
X110735389Y-98113489D01*
X110735396Y-98113491D01*
X110762500Y-98118882D01*
X110762500Y-97366988D01*
X110772440Y-97384205D01*
X110828295Y-97440060D01*
X110896704Y-97479556D01*
X110973004Y-97500000D01*
X111051996Y-97500000D01*
X111128296Y-97479556D01*
X111196705Y-97440060D01*
X111252560Y-97384205D01*
X111262500Y-97366988D01*
X111262500Y-98118881D01*
X111289603Y-98113491D01*
X111289610Y-98113489D01*
X111462487Y-98041882D01*
X111462500Y-98041875D01*
X111618089Y-97937913D01*
X111618093Y-97937910D01*
X111750410Y-97805593D01*
X111750413Y-97805589D01*
X111854375Y-97650000D01*
X111854380Y-97649991D01*
X111925991Y-97477105D01*
X111925993Y-97477097D01*
X111962499Y-97293571D01*
X111962500Y-97293569D01*
X111962500Y-97050000D01*
X111312500Y-97050000D01*
X111312500Y-96550000D01*
X111962500Y-96550000D01*
X111962500Y-96306430D01*
X111962499Y-96306428D01*
X111925993Y-96122902D01*
X111925991Y-96122894D01*
X111854380Y-95950008D01*
X111854375Y-95949999D01*
X111750413Y-95794410D01*
X111750410Y-95794406D01*
X111618093Y-95662089D01*
X111618089Y-95662086D01*
X111462500Y-95558124D01*
X111462491Y-95558119D01*
X111289603Y-95486507D01*
X111289600Y-95486506D01*
X111262500Y-95481115D01*
X111262500Y-96233011D01*
X111252560Y-96215795D01*
X111196705Y-96159940D01*
X111128296Y-96120444D01*
X111051996Y-96100000D01*
X110973004Y-96100000D01*
X110896704Y-96120444D01*
X110828295Y-96159940D01*
X110772440Y-96215795D01*
X110762500Y-96233011D01*
X110762500Y-95481116D01*
X110762499Y-95481115D01*
X110735399Y-95486506D01*
X110735396Y-95486507D01*
X110562508Y-95558119D01*
X110562499Y-95558124D01*
X110406910Y-95662086D01*
X110406906Y-95662089D01*
X110274589Y-95794406D01*
X110274586Y-95794410D01*
X110170624Y-95949999D01*
X110170619Y-95950008D01*
X110099008Y-96122894D01*
X110099006Y-96122902D01*
X110062500Y-96306428D01*
X103312499Y-96306428D01*
X103275993Y-96122902D01*
X103275991Y-96122894D01*
X103204380Y-95950008D01*
X103204375Y-95949999D01*
X103100413Y-95794410D01*
X103100410Y-95794406D01*
X102968093Y-95662089D01*
X102968089Y-95662086D01*
X102812500Y-95558124D01*
X102812491Y-95558119D01*
X102639603Y-95486507D01*
X102639600Y-95486506D01*
X102612500Y-95481115D01*
X102612500Y-96233011D01*
X102602560Y-96215795D01*
X102546705Y-96159940D01*
X102478296Y-96120444D01*
X102401996Y-96100000D01*
X102323004Y-96100000D01*
X102246704Y-96120444D01*
X102178295Y-96159940D01*
X102122440Y-96215795D01*
X102112500Y-96233011D01*
X102112500Y-95481116D01*
X102112499Y-95481115D01*
X102085399Y-95486506D01*
X102085396Y-95486507D01*
X101912508Y-95558119D01*
X101912499Y-95558124D01*
X101756910Y-95662086D01*
X101756906Y-95662089D01*
X101624589Y-95794406D01*
X101624586Y-95794410D01*
X101520624Y-95949999D01*
X101520619Y-95950008D01*
X101449008Y-96122894D01*
X101449006Y-96122902D01*
X101412500Y-96306428D01*
X82806119Y-96306428D01*
X82821658Y-96268913D01*
X82850500Y-96123918D01*
X82850500Y-95976082D01*
X82850500Y-95976079D01*
X82821659Y-95831092D01*
X82821658Y-95831091D01*
X82821658Y-95831087D01*
X82771066Y-95708946D01*
X82765087Y-95694511D01*
X82765080Y-95694498D01*
X82682951Y-95571584D01*
X82682948Y-95571580D01*
X82578419Y-95467051D01*
X82578415Y-95467048D01*
X82455501Y-95384919D01*
X82455488Y-95384912D01*
X82318917Y-95328343D01*
X82318907Y-95328340D01*
X82173920Y-95299500D01*
X82173918Y-95299500D01*
X82026082Y-95299500D01*
X82026080Y-95299500D01*
X81881092Y-95328340D01*
X81881082Y-95328343D01*
X81744511Y-95384912D01*
X81744498Y-95384919D01*
X81621584Y-95467048D01*
X81621580Y-95467051D01*
X81517051Y-95571580D01*
X81517048Y-95571584D01*
X81434919Y-95694498D01*
X81434912Y-95694511D01*
X81378343Y-95831082D01*
X81378340Y-95831092D01*
X81349500Y-95976079D01*
X81349500Y-95976082D01*
X81349500Y-96123918D01*
X81349500Y-96123920D01*
X81349499Y-96123920D01*
X76887260Y-96123920D01*
X76850799Y-89323920D01*
X81349499Y-89323920D01*
X81378340Y-89468907D01*
X81378343Y-89468917D01*
X81434912Y-89605488D01*
X81434919Y-89605501D01*
X81517048Y-89728415D01*
X81517051Y-89728419D01*
X81621580Y-89832948D01*
X81621584Y-89832951D01*
X81744498Y-89915080D01*
X81744511Y-89915087D01*
X81881082Y-89971656D01*
X81881087Y-89971658D01*
X81881091Y-89971658D01*
X81881092Y-89971659D01*
X82026079Y-90000500D01*
X82026082Y-90000500D01*
X82173920Y-90000500D01*
X82280751Y-89979249D01*
X82318913Y-89971658D01*
X82455495Y-89915084D01*
X82578416Y-89832951D01*
X82682951Y-89728416D01*
X82765084Y-89605495D01*
X82821658Y-89468913D01*
X82849327Y-89329816D01*
X82850500Y-89323920D01*
X82850500Y-89176079D01*
X82821659Y-89031092D01*
X82821658Y-89031091D01*
X82821658Y-89031087D01*
X82811144Y-89005703D01*
X82765087Y-88894511D01*
X82765080Y-88894498D01*
X82682951Y-88771584D01*
X82682948Y-88771580D01*
X82578419Y-88667051D01*
X82578415Y-88667048D01*
X82455501Y-88584919D01*
X82455488Y-88584912D01*
X82318917Y-88528343D01*
X82318907Y-88528340D01*
X82173920Y-88499500D01*
X82173918Y-88499500D01*
X82026082Y-88499500D01*
X82026080Y-88499500D01*
X81881092Y-88528340D01*
X81881082Y-88528343D01*
X81744511Y-88584912D01*
X81744498Y-88584919D01*
X81621584Y-88667048D01*
X81621580Y-88667051D01*
X81517051Y-88771580D01*
X81517048Y-88771584D01*
X81434919Y-88894498D01*
X81434912Y-88894511D01*
X81378343Y-89031082D01*
X81378340Y-89031092D01*
X81349500Y-89176079D01*
X81349500Y-89176082D01*
X81349500Y-89323918D01*
X81349500Y-89323920D01*
X81349499Y-89323920D01*
X76850799Y-89323920D01*
X76824933Y-84499996D01*
X83094435Y-84499996D01*
X83094435Y-84500003D01*
X83114630Y-84679249D01*
X83114631Y-84679254D01*
X83174211Y-84849523D01*
X83270184Y-85002262D01*
X83397738Y-85129816D01*
X83550478Y-85225789D01*
X83720745Y-85285368D01*
X83720750Y-85285369D01*
X83899996Y-85305565D01*
X83900000Y-85305565D01*
X83900004Y-85305565D01*
X84079249Y-85285369D01*
X84079252Y-85285368D01*
X84079255Y-85285368D01*
X84249522Y-85225789D01*
X84402262Y-85129816D01*
X84529816Y-85002262D01*
X84625789Y-84849522D01*
X84685368Y-84679255D01*
X84686182Y-84672025D01*
X84713245Y-84607611D01*
X84721712Y-84598232D01*
X85298224Y-84021720D01*
X85359545Y-83988237D01*
X85372019Y-83986183D01*
X85379255Y-83985368D01*
X85549522Y-83925789D01*
X85702262Y-83829816D01*
X85829816Y-83702262D01*
X85925789Y-83549522D01*
X85985368Y-83379255D01*
X86005565Y-83200000D01*
X86004008Y-83186182D01*
X85985369Y-83020750D01*
X85985368Y-83020745D01*
X85925788Y-82850476D01*
X85829815Y-82697737D01*
X85702262Y-82570184D01*
X85549523Y-82474211D01*
X85379254Y-82414631D01*
X85379249Y-82414630D01*
X85200004Y-82394435D01*
X85199996Y-82394435D01*
X85020750Y-82414630D01*
X85020745Y-82414631D01*
X84850476Y-82474211D01*
X84697737Y-82570184D01*
X84570184Y-82697737D01*
X84474210Y-82850478D01*
X84414632Y-83020744D01*
X84414630Y-83020752D01*
X84413815Y-83027988D01*
X84386743Y-83092400D01*
X84378277Y-83101775D01*
X83801775Y-83678277D01*
X83740452Y-83711762D01*
X83727988Y-83713815D01*
X83720752Y-83714630D01*
X83720744Y-83714632D01*
X83550478Y-83774210D01*
X83397737Y-83870184D01*
X83270184Y-83997737D01*
X83174211Y-84150476D01*
X83114631Y-84320745D01*
X83114630Y-84320750D01*
X83094435Y-84499996D01*
X76824933Y-84499996D01*
X76797587Y-79399996D01*
X83994435Y-79399996D01*
X83994435Y-79400003D01*
X84014630Y-79579249D01*
X84014631Y-79579254D01*
X84074211Y-79749524D01*
X84130493Y-79839094D01*
X84149500Y-79905067D01*
X84149500Y-80083310D01*
X84169801Y-80185365D01*
X84169801Y-80185366D01*
X84174497Y-80208976D01*
X84174500Y-80208986D01*
X84223532Y-80327362D01*
X84294726Y-80433912D01*
X84294727Y-80433913D01*
X90492451Y-86631636D01*
X90525936Y-86692959D01*
X90520952Y-86762651D01*
X90479080Y-86818584D01*
X90470744Y-86824310D01*
X90397736Y-86870185D01*
X90270184Y-86997737D01*
X90174210Y-87150478D01*
X90114630Y-87320750D01*
X90104837Y-87407668D01*
X90077770Y-87472082D01*
X90069298Y-87481465D01*
X89487584Y-88063181D01*
X89426261Y-88096666D01*
X89399903Y-88099500D01*
X88382412Y-88099500D01*
X88315373Y-88079815D01*
X88305097Y-88072445D01*
X88302263Y-88070185D01*
X88302262Y-88070184D01*
X88245496Y-88034515D01*
X88149523Y-87974211D01*
X87979254Y-87914631D01*
X87979249Y-87914630D01*
X87800004Y-87894435D01*
X87799996Y-87894435D01*
X87620750Y-87914630D01*
X87620745Y-87914631D01*
X87450476Y-87974211D01*
X87297737Y-88070184D01*
X87170184Y-88197737D01*
X87074210Y-88350478D01*
X87014630Y-88520750D01*
X87004837Y-88607668D01*
X86977770Y-88672082D01*
X86969298Y-88681465D01*
X86331286Y-89319478D01*
X86219481Y-89431282D01*
X86219479Y-89431284D01*
X86197755Y-89468913D01*
X86180096Y-89499500D01*
X86161363Y-89531947D01*
X86142017Y-89565455D01*
X86140423Y-89568215D01*
X86099499Y-89720943D01*
X86099499Y-89720945D01*
X86099499Y-89889046D01*
X86099500Y-89889059D01*
X86099500Y-91217585D01*
X86079815Y-91284624D01*
X86072450Y-91294894D01*
X86070186Y-91297732D01*
X85974211Y-91450474D01*
X85914631Y-91620743D01*
X85914630Y-91620748D01*
X85894435Y-91799994D01*
X85894435Y-91800001D01*
X85914630Y-91979247D01*
X85914631Y-91979252D01*
X85974211Y-92149521D01*
X86070184Y-92302260D01*
X86197738Y-92429814D01*
X86350478Y-92525787D01*
X86475403Y-92569500D01*
X86520745Y-92585366D01*
X86520750Y-92585367D01*
X86699996Y-92605563D01*
X86700000Y-92605563D01*
X86700004Y-92605563D01*
X86879249Y-92585367D01*
X86879252Y-92585366D01*
X86879255Y-92585366D01*
X87049522Y-92525787D01*
X87202262Y-92429814D01*
X87329816Y-92302260D01*
X87425789Y-92149520D01*
X87482857Y-91986428D01*
X101412500Y-91986428D01*
X101412500Y-92380000D01*
X102062500Y-92380000D01*
X102062500Y-92880000D01*
X101412500Y-92880000D01*
X101412500Y-93273571D01*
X101449006Y-93457097D01*
X101449008Y-93457105D01*
X101520619Y-93629991D01*
X101520624Y-93630000D01*
X101624586Y-93785589D01*
X101624589Y-93785593D01*
X101756906Y-93917910D01*
X101756910Y-93917913D01*
X101912499Y-94021875D01*
X101912512Y-94021882D01*
X102085389Y-94093489D01*
X102085396Y-94093491D01*
X102112500Y-94098882D01*
X102112500Y-93346988D01*
X102122440Y-93364205D01*
X102178295Y-93420060D01*
X102246704Y-93459556D01*
X102323004Y-93480000D01*
X102401996Y-93480000D01*
X102478296Y-93459556D01*
X102546705Y-93420060D01*
X102602560Y-93364205D01*
X102612500Y-93346988D01*
X102612500Y-94098881D01*
X102639603Y-94093491D01*
X102639610Y-94093489D01*
X102812487Y-94021882D01*
X102812500Y-94021875D01*
X102968089Y-93917913D01*
X102968093Y-93917910D01*
X103100410Y-93785593D01*
X103100413Y-93785589D01*
X103204375Y-93630000D01*
X103204379Y-93629993D01*
X103228430Y-93571927D01*
X103272270Y-93517523D01*
X103338564Y-93495457D01*
X103406264Y-93512735D01*
X103430673Y-93531697D01*
X103459485Y-93560509D01*
X103459486Y-93560510D01*
X103459488Y-93560511D01*
X103585011Y-93632982D01*
X103585012Y-93632982D01*
X103585015Y-93632984D01*
X103725025Y-93670500D01*
X103725028Y-93670500D01*
X103869972Y-93670500D01*
X103869975Y-93670500D01*
X104009985Y-93632984D01*
X104135515Y-93560509D01*
X104238009Y-93458015D01*
X104310484Y-93332485D01*
X104348000Y-93192475D01*
X104348000Y-93047525D01*
X104310484Y-92907515D01*
X104286639Y-92866215D01*
X104238011Y-92781988D01*
X104238006Y-92781982D01*
X104135517Y-92679493D01*
X104135511Y-92679488D01*
X104009988Y-92607017D01*
X104009989Y-92607017D01*
X103998506Y-92603940D01*
X103869975Y-92569500D01*
X103725025Y-92569500D01*
X103596493Y-92603940D01*
X103585011Y-92607017D01*
X103459488Y-92679488D01*
X103459482Y-92679493D01*
X103356993Y-92781982D01*
X103356989Y-92781988D01*
X103336198Y-92818000D01*
X103285632Y-92866215D01*
X103228811Y-92880000D01*
X102662500Y-92880000D01*
X102662500Y-92380000D01*
X103312500Y-92380000D01*
X103312500Y-91986430D01*
X103312499Y-91986428D01*
X103275993Y-91802902D01*
X103275991Y-91802894D01*
X103204380Y-91630008D01*
X103204375Y-91629999D01*
X103100413Y-91474410D01*
X103100410Y-91474406D01*
X102968093Y-91342089D01*
X102968089Y-91342086D01*
X102812500Y-91238124D01*
X102812491Y-91238119D01*
X102639603Y-91166507D01*
X102639600Y-91166506D01*
X102612500Y-91161115D01*
X102612500Y-91913011D01*
X102602560Y-91895795D01*
X102546705Y-91839940D01*
X102478296Y-91800444D01*
X102401996Y-91780000D01*
X102323004Y-91780000D01*
X102246704Y-91800444D01*
X102178295Y-91839940D01*
X102122440Y-91895795D01*
X102112500Y-91913011D01*
X102112500Y-91161116D01*
X102112499Y-91161115D01*
X102085399Y-91166506D01*
X102085396Y-91166507D01*
X101912508Y-91238119D01*
X101912499Y-91238124D01*
X101756910Y-91342086D01*
X101756906Y-91342089D01*
X101624589Y-91474406D01*
X101624586Y-91474410D01*
X101520624Y-91629999D01*
X101520619Y-91630008D01*
X101449008Y-91802894D01*
X101449006Y-91802902D01*
X101412500Y-91986428D01*
X87482857Y-91986428D01*
X87485368Y-91979253D01*
X87487064Y-91964204D01*
X87505565Y-91800001D01*
X87505565Y-91799994D01*
X87485369Y-91620748D01*
X87485368Y-91620743D01*
X87434162Y-91474406D01*
X87425789Y-91450476D01*
X87412807Y-91429816D01*
X87350490Y-91330639D01*
X87329816Y-91297736D01*
X87329814Y-91297734D01*
X87329813Y-91297732D01*
X87327550Y-91294894D01*
X87326659Y-91292713D01*
X87326111Y-91291840D01*
X87326264Y-91291743D01*
X87301144Y-91230207D01*
X87300500Y-91217585D01*
X87300500Y-90100096D01*
X87320185Y-90033057D01*
X87336815Y-90012419D01*
X87818535Y-89530698D01*
X87879856Y-89497215D01*
X87892311Y-89495163D01*
X87979255Y-89485368D01*
X88149522Y-89425789D01*
X88302262Y-89329816D01*
X88302267Y-89329810D01*
X88305097Y-89327555D01*
X88307275Y-89326665D01*
X88308158Y-89326111D01*
X88308255Y-89326265D01*
X88369783Y-89301145D01*
X88382412Y-89300500D01*
X89004908Y-89300500D01*
X89071947Y-89320185D01*
X89117702Y-89372989D01*
X89127646Y-89442147D01*
X89121950Y-89465454D01*
X89098684Y-89531943D01*
X89098683Y-89531947D01*
X89079749Y-89699998D01*
X89079749Y-89700003D01*
X89098683Y-89868054D01*
X89098684Y-89868057D01*
X89154542Y-90027692D01*
X89231094Y-90149523D01*
X89244520Y-90170890D01*
X89364108Y-90290478D01*
X89507307Y-90380456D01*
X89666939Y-90436313D01*
X89666940Y-90436313D01*
X89666943Y-90436314D01*
X89834994Y-90455249D01*
X89834997Y-90455249D01*
X89835000Y-90455249D01*
X90003050Y-90436314D01*
X90003051Y-90436313D01*
X90003055Y-90436313D01*
X90162687Y-90380456D01*
X90305886Y-90290478D01*
X90425474Y-90170890D01*
X90515452Y-90027691D01*
X90571309Y-89868059D01*
X90574260Y-89841875D01*
X90590245Y-89700003D01*
X90590245Y-89699998D01*
X90571310Y-89531947D01*
X90571309Y-89531944D01*
X90568703Y-89524497D01*
X90515452Y-89372311D01*
X90425474Y-89229112D01*
X90310479Y-89114117D01*
X90276994Y-89052794D01*
X90281978Y-88983102D01*
X90310479Y-88938755D01*
X90598450Y-88650784D01*
X90918535Y-88330698D01*
X90979856Y-88297215D01*
X90992311Y-88295163D01*
X91079255Y-88285368D01*
X91249522Y-88225789D01*
X91402262Y-88129816D01*
X91529816Y-88002262D01*
X91575690Y-87929252D01*
X91628020Y-87882966D01*
X91697074Y-87872316D01*
X91760922Y-87900691D01*
X91768362Y-87907547D01*
X94516086Y-90655272D01*
X94516093Y-90655278D01*
X94622624Y-90726459D01*
X94622627Y-90726461D01*
X94622635Y-90726466D01*
X94640761Y-90733974D01*
X94653581Y-90739284D01*
X94653580Y-90739284D01*
X94741012Y-90775499D01*
X94741017Y-90775501D01*
X94741021Y-90775501D01*
X94741022Y-90775502D01*
X94866689Y-90800500D01*
X94866692Y-90800500D01*
X94994830Y-90800500D01*
X98046159Y-90800500D01*
X98113198Y-90820185D01*
X98115051Y-90821399D01*
X98122625Y-90826460D01*
X98122633Y-90826464D01*
X98122634Y-90826465D01*
X98241017Y-90875501D01*
X98241021Y-90875501D01*
X98241022Y-90875502D01*
X98366689Y-90900500D01*
X98366692Y-90900500D01*
X101114071Y-90900500D01*
X101198615Y-90883682D01*
X101239744Y-90875501D01*
X101358127Y-90826465D01*
X101396984Y-90800502D01*
X101396985Y-90800502D01*
X101447632Y-90766660D01*
X101464669Y-90755277D01*
X101998224Y-90221720D01*
X102059545Y-90188237D01*
X102072019Y-90186183D01*
X102079255Y-90185368D01*
X102249522Y-90125789D01*
X102402262Y-90029816D01*
X102529816Y-89902262D01*
X102625789Y-89749522D01*
X102685368Y-89579255D01*
X102685369Y-89579249D01*
X102705565Y-89400003D01*
X102705565Y-89399996D01*
X102685369Y-89220750D01*
X102685368Y-89220745D01*
X102625788Y-89050476D01*
X102588085Y-88990472D01*
X102569085Y-88923235D01*
X102589453Y-88856400D01*
X102642721Y-88811186D01*
X102693079Y-88800500D01*
X107150903Y-88800500D01*
X107217942Y-88820185D01*
X107263697Y-88872989D01*
X107273641Y-88942147D01*
X107244616Y-89005703D01*
X107238584Y-89012181D01*
X106881465Y-89369298D01*
X106820142Y-89402783D01*
X106807668Y-89404837D01*
X106720750Y-89414630D01*
X106550478Y-89474210D01*
X106397737Y-89570184D01*
X106270184Y-89697737D01*
X106174209Y-89850480D01*
X106148007Y-89925361D01*
X106107286Y-89982137D01*
X106042333Y-90007884D01*
X106017083Y-90007626D01*
X105900004Y-89994435D01*
X105899996Y-89994435D01*
X105720750Y-90014630D01*
X105720745Y-90014631D01*
X105550476Y-90074211D01*
X105397737Y-90170184D01*
X105270184Y-90297737D01*
X105174211Y-90450476D01*
X105114631Y-90620745D01*
X105114630Y-90620750D01*
X105094435Y-90799996D01*
X105094435Y-90800003D01*
X105114630Y-90979249D01*
X105114631Y-90979254D01*
X105174211Y-91149523D01*
X105259101Y-91284624D01*
X105270184Y-91302262D01*
X105397738Y-91429816D01*
X105550478Y-91525789D01*
X105720745Y-91585368D01*
X105720750Y-91585369D01*
X105899996Y-91605565D01*
X105900000Y-91605565D01*
X105900004Y-91605565D01*
X106079249Y-91585369D01*
X106079252Y-91585368D01*
X106079255Y-91585368D01*
X106249522Y-91525789D01*
X106402262Y-91429816D01*
X106402267Y-91429810D01*
X106405097Y-91427555D01*
X106407275Y-91426665D01*
X106408158Y-91426111D01*
X106408255Y-91426265D01*
X106469783Y-91401145D01*
X106482412Y-91400500D01*
X110091984Y-91400500D01*
X110159023Y-91420185D01*
X110204778Y-91472989D01*
X110214722Y-91542147D01*
X110195086Y-91593391D01*
X110170624Y-91630000D01*
X110170619Y-91630008D01*
X110099008Y-91802894D01*
X110099006Y-91802902D01*
X110062500Y-91986428D01*
X110062500Y-92380000D01*
X110712500Y-92380000D01*
X110712500Y-92880000D01*
X110146189Y-92880000D01*
X110079150Y-92860315D01*
X110038802Y-92818000D01*
X110018009Y-92781985D01*
X109915515Y-92679491D01*
X109915513Y-92679490D01*
X109915511Y-92679488D01*
X109789988Y-92607017D01*
X109789989Y-92607017D01*
X109778506Y-92603940D01*
X109649975Y-92569500D01*
X109505025Y-92569500D01*
X109376493Y-92603940D01*
X109365011Y-92607017D01*
X109239488Y-92679488D01*
X109239482Y-92679493D01*
X109136993Y-92781982D01*
X109136988Y-92781988D01*
X109064517Y-92907511D01*
X109064516Y-92907515D01*
X109027000Y-93047525D01*
X109027000Y-93192475D01*
X109048730Y-93273571D01*
X109064517Y-93332488D01*
X109136988Y-93458011D01*
X109136990Y-93458013D01*
X109136991Y-93458015D01*
X109239485Y-93560509D01*
X109239486Y-93560510D01*
X109239488Y-93560511D01*
X109365011Y-93632982D01*
X109365012Y-93632982D01*
X109365015Y-93632984D01*
X109505025Y-93670500D01*
X109505028Y-93670500D01*
X109649972Y-93670500D01*
X109649975Y-93670500D01*
X109789985Y-93632984D01*
X109915515Y-93560509D01*
X109944328Y-93531695D01*
X110005647Y-93498212D01*
X110075339Y-93503196D01*
X110131273Y-93545066D01*
X110146568Y-93571926D01*
X110170617Y-93629987D01*
X110170624Y-93630000D01*
X110274586Y-93785589D01*
X110274589Y-93785593D01*
X110406906Y-93917910D01*
X110406910Y-93917913D01*
X110562499Y-94021875D01*
X110562512Y-94021882D01*
X110735389Y-94093489D01*
X110735396Y-94093491D01*
X110762500Y-94098882D01*
X110762500Y-93346988D01*
X110772440Y-93364205D01*
X110828295Y-93420060D01*
X110896704Y-93459556D01*
X110973004Y-93480000D01*
X111051996Y-93480000D01*
X111128296Y-93459556D01*
X111196705Y-93420060D01*
X111252560Y-93364205D01*
X111262500Y-93346988D01*
X111262500Y-94098881D01*
X111289603Y-94093491D01*
X111289610Y-94093489D01*
X111462487Y-94021882D01*
X111462500Y-94021875D01*
X111618089Y-93917913D01*
X111618093Y-93917910D01*
X111750410Y-93785593D01*
X111750413Y-93785589D01*
X111854375Y-93630000D01*
X111854380Y-93629991D01*
X111925991Y-93457105D01*
X111925993Y-93457097D01*
X111962499Y-93273571D01*
X111962500Y-93273569D01*
X111962500Y-92880000D01*
X111312500Y-92880000D01*
X111312500Y-92380000D01*
X111962500Y-92380000D01*
X111962500Y-91986430D01*
X111962499Y-91986428D01*
X111925993Y-91802902D01*
X111925991Y-91802894D01*
X111854380Y-91630008D01*
X111854375Y-91629999D01*
X111750413Y-91474410D01*
X111750410Y-91474406D01*
X111618093Y-91342089D01*
X111618089Y-91342086D01*
X111462500Y-91238124D01*
X111462491Y-91238119D01*
X111314771Y-91176932D01*
X111260368Y-91133091D01*
X111238303Y-91066797D01*
X111255582Y-90999098D01*
X111274539Y-90974694D01*
X111618535Y-90630698D01*
X111679856Y-90597215D01*
X111692311Y-90595163D01*
X111779255Y-90585368D01*
X111949522Y-90525789D01*
X112102262Y-90429816D01*
X112229816Y-90302262D01*
X112325789Y-90149522D01*
X112385368Y-89979255D01*
X112386224Y-89971658D01*
X112405565Y-89800003D01*
X112405565Y-89799996D01*
X112385369Y-89620750D01*
X112385368Y-89620745D01*
X112325788Y-89450475D01*
X112272691Y-89365973D01*
X112253690Y-89298736D01*
X112272691Y-89234027D01*
X112325788Y-89149524D01*
X112325789Y-89149522D01*
X112385368Y-88979255D01*
X112389549Y-88942147D01*
X112405565Y-88800003D01*
X112405565Y-88799996D01*
X112385369Y-88620750D01*
X112385368Y-88620745D01*
X112350376Y-88520745D01*
X112325789Y-88450478D01*
X112229816Y-88297738D01*
X112102262Y-88170184D01*
X112038015Y-88129815D01*
X111949521Y-88074210D01*
X111870020Y-88046392D01*
X111836670Y-88034722D01*
X111779895Y-87994001D01*
X111754147Y-87929049D01*
X111767603Y-87860487D01*
X111789940Y-87830004D01*
X112312322Y-87307623D01*
X112373641Y-87274141D01*
X112443333Y-87279125D01*
X112487680Y-87307626D01*
X115613181Y-90433127D01*
X115646666Y-90494450D01*
X115649500Y-90520808D01*
X115649500Y-96264070D01*
X115663795Y-96335930D01*
X115663795Y-96335932D01*
X115674497Y-96389738D01*
X115674501Y-96389749D01*
X115693597Y-96435853D01*
X115702255Y-96469419D01*
X115714630Y-96579249D01*
X115774210Y-96749521D01*
X115870184Y-96902262D01*
X115997738Y-97029816D01*
X116150478Y-97125789D01*
X116320745Y-97185368D01*
X116320750Y-97185369D01*
X116499996Y-97205565D01*
X116500000Y-97205565D01*
X116500004Y-97205565D01*
X116679249Y-97185369D01*
X116679252Y-97185368D01*
X116679255Y-97185368D01*
X116849522Y-97125789D01*
X117002262Y-97029816D01*
X117129816Y-96902262D01*
X117225789Y-96749522D01*
X117285368Y-96579255D01*
X117285369Y-96579249D01*
X117305565Y-96400003D01*
X117305565Y-96399996D01*
X117285369Y-96220750D01*
X117285368Y-96220745D01*
X117225788Y-96050476D01*
X117129815Y-95897737D01*
X117002261Y-95770183D01*
X116997185Y-95766135D01*
X116957046Y-95708946D01*
X116950500Y-95669190D01*
X116950500Y-90135928D01*
X116925502Y-90010261D01*
X116925501Y-90010260D01*
X116925501Y-90010256D01*
X116876465Y-89891873D01*
X116843057Y-89841874D01*
X116805277Y-89785331D01*
X116805275Y-89785328D01*
X113807627Y-86787680D01*
X113774142Y-86726357D01*
X113779126Y-86656665D01*
X113807625Y-86612320D01*
X117198224Y-83221720D01*
X117259545Y-83188237D01*
X117272019Y-83186183D01*
X117279255Y-83185368D01*
X117449522Y-83125789D01*
X117602262Y-83029816D01*
X117729816Y-82902262D01*
X117825789Y-82749522D01*
X117885368Y-82579255D01*
X117893671Y-82505565D01*
X117905565Y-82400003D01*
X117905565Y-82399996D01*
X117885369Y-82220750D01*
X117885368Y-82220745D01*
X117878901Y-82202263D01*
X117825789Y-82050478D01*
X117825188Y-82049522D01*
X117729815Y-81897737D01*
X117602262Y-81770184D01*
X117449523Y-81674211D01*
X117279254Y-81614631D01*
X117279249Y-81614630D01*
X117100004Y-81594435D01*
X117099996Y-81594435D01*
X116920750Y-81614630D01*
X116920745Y-81614631D01*
X116750476Y-81674211D01*
X116597737Y-81770184D01*
X116470184Y-81897737D01*
X116374210Y-82050478D01*
X116314632Y-82220744D01*
X116314630Y-82220752D01*
X116313815Y-82227988D01*
X116286743Y-82292400D01*
X116278277Y-82301775D01*
X112976858Y-85603195D01*
X112915535Y-85636680D01*
X112845843Y-85631696D01*
X112823206Y-85620508D01*
X112749527Y-85574213D01*
X112749518Y-85574209D01*
X112579262Y-85514633D01*
X112579249Y-85514630D01*
X112400004Y-85494435D01*
X112399996Y-85494435D01*
X112220750Y-85514630D01*
X112220745Y-85514631D01*
X112050476Y-85574211D01*
X111897737Y-85670184D01*
X111770184Y-85797737D01*
X111674210Y-85950478D01*
X111614632Y-86120744D01*
X111614630Y-86120752D01*
X111613815Y-86127988D01*
X111586743Y-86192400D01*
X111578277Y-86201775D01*
X110316873Y-87463181D01*
X110255550Y-87496666D01*
X110229192Y-87499500D01*
X102216322Y-87499500D01*
X102149283Y-87479815D01*
X102103528Y-87427011D01*
X102093102Y-87389383D01*
X102085369Y-87320750D01*
X102085368Y-87320748D01*
X102085368Y-87320745D01*
X102025789Y-87150478D01*
X101929816Y-86997738D01*
X101929814Y-86997736D01*
X101929813Y-86997734D01*
X101927550Y-86994896D01*
X101926659Y-86992715D01*
X101926111Y-86991842D01*
X101926264Y-86991745D01*
X101901144Y-86930209D01*
X101900500Y-86917587D01*
X101900500Y-86221842D01*
X101920185Y-86154803D01*
X101972989Y-86109048D01*
X102038382Y-86098622D01*
X102091675Y-86104627D01*
X102099999Y-86105565D01*
X102100000Y-86105565D01*
X102100004Y-86105565D01*
X102279249Y-86085369D01*
X102279252Y-86085368D01*
X102279255Y-86085368D01*
X102449522Y-86025789D01*
X102602262Y-85929816D01*
X102695260Y-85836818D01*
X102756584Y-85803334D01*
X102782941Y-85800500D01*
X107817588Y-85800500D01*
X107884627Y-85820185D01*
X107894903Y-85827555D01*
X107897736Y-85829814D01*
X107897738Y-85829816D01*
X108050478Y-85925789D01*
X108220745Y-85985368D01*
X108220750Y-85985369D01*
X108399996Y-86005565D01*
X108400000Y-86005565D01*
X108400004Y-86005565D01*
X108579249Y-85985369D01*
X108579252Y-85985368D01*
X108579255Y-85985368D01*
X108749522Y-85925789D01*
X108902262Y-85829816D01*
X109029816Y-85702262D01*
X109125789Y-85549522D01*
X109185368Y-85379255D01*
X109193671Y-85305565D01*
X109205565Y-85200003D01*
X109205565Y-85199996D01*
X109185369Y-85020750D01*
X109185368Y-85020745D01*
X109125789Y-84850478D01*
X109125188Y-84849522D01*
X109029815Y-84697737D01*
X108902262Y-84570184D01*
X108749523Y-84474211D01*
X108579254Y-84414631D01*
X108579249Y-84414630D01*
X108400004Y-84394435D01*
X108399996Y-84394435D01*
X108220750Y-84414630D01*
X108220745Y-84414631D01*
X108050476Y-84474211D01*
X107897736Y-84570185D01*
X107894903Y-84572445D01*
X107892724Y-84573334D01*
X107891842Y-84573889D01*
X107891744Y-84573734D01*
X107830217Y-84598855D01*
X107817588Y-84599500D01*
X102525494Y-84599500D01*
X102459523Y-84580494D01*
X102449525Y-84574212D01*
X102279254Y-84514631D01*
X102279249Y-84514630D01*
X102100004Y-84494435D01*
X102100003Y-84494435D01*
X102100001Y-84494435D01*
X102100000Y-84494435D01*
X102078184Y-84496892D01*
X102038382Y-84501377D01*
X101969560Y-84489321D01*
X101918181Y-84441971D01*
X101900500Y-84378156D01*
X101900500Y-82331940D01*
X101920185Y-82264901D01*
X101972989Y-82219146D01*
X102042147Y-82209202D01*
X102105703Y-82238227D01*
X102112181Y-82244259D01*
X102197738Y-82329816D01*
X102288080Y-82386582D01*
X102332721Y-82414632D01*
X102350478Y-82425789D01*
X102488860Y-82474211D01*
X102520745Y-82485368D01*
X102520750Y-82485369D01*
X102699996Y-82505565D01*
X102700000Y-82505565D01*
X102700004Y-82505565D01*
X102879249Y-82485369D01*
X102879252Y-82485368D01*
X102879255Y-82485368D01*
X103049522Y-82425789D01*
X103202262Y-82329816D01*
X103329816Y-82202262D01*
X103425789Y-82049522D01*
X103485368Y-81879255D01*
X103485369Y-81879249D01*
X103505565Y-81700003D01*
X103505565Y-81699996D01*
X103485369Y-81520750D01*
X103485368Y-81520745D01*
X103425788Y-81350476D01*
X103329813Y-81197734D01*
X103327550Y-81194896D01*
X103326659Y-81192715D01*
X103326111Y-81191842D01*
X103326264Y-81191745D01*
X103301144Y-81130209D01*
X103300500Y-81117587D01*
X103300500Y-71866660D01*
X110816892Y-71866660D01*
X110816892Y-71866661D01*
X110830692Y-71875333D01*
X110830691Y-71875333D01*
X111000861Y-71934878D01*
X111179997Y-71955062D01*
X111180003Y-71955062D01*
X111359138Y-71934878D01*
X111359141Y-71934877D01*
X111529305Y-71875334D01*
X111529306Y-71875334D01*
X111543106Y-71866661D01*
X111543106Y-71866660D01*
X112216892Y-71866660D01*
X112216892Y-71866661D01*
X112230692Y-71875333D01*
X112230691Y-71875333D01*
X112400861Y-71934878D01*
X112579997Y-71955062D01*
X112580003Y-71955062D01*
X112759138Y-71934878D01*
X112759141Y-71934877D01*
X112929305Y-71875334D01*
X112929306Y-71875334D01*
X112943106Y-71866661D01*
X112943106Y-71866660D01*
X112580001Y-71503553D01*
X112580000Y-71503553D01*
X112216892Y-71866660D01*
X111543106Y-71866660D01*
X111180001Y-71503553D01*
X111180000Y-71503553D01*
X110816892Y-71866660D01*
X103300500Y-71866660D01*
X103300500Y-71166660D01*
X110116892Y-71166660D01*
X110116892Y-71166661D01*
X110130692Y-71175333D01*
X110130691Y-71175333D01*
X110300862Y-71234878D01*
X110301644Y-71235057D01*
X110302097Y-71235310D01*
X110307431Y-71237177D01*
X110307104Y-71238111D01*
X110362623Y-71269166D01*
X110391952Y-71322874D01*
X110392822Y-71322570D01*
X110394670Y-71327852D01*
X110394940Y-71328346D01*
X110395121Y-71329142D01*
X110454663Y-71499300D01*
X110454663Y-71499301D01*
X110463338Y-71513107D01*
X110826446Y-71150000D01*
X110806555Y-71130109D01*
X111080000Y-71130109D01*
X111080000Y-71169891D01*
X111095224Y-71206645D01*
X111123355Y-71234776D01*
X111160109Y-71250000D01*
X111199891Y-71250000D01*
X111236645Y-71234776D01*
X111264776Y-71206645D01*
X111280000Y-71169891D01*
X111280000Y-71150000D01*
X111533553Y-71150000D01*
X111880000Y-71496446D01*
X111880001Y-71496446D01*
X112226446Y-71150000D01*
X112206555Y-71130109D01*
X112480000Y-71130109D01*
X112480000Y-71169891D01*
X112495224Y-71206645D01*
X112523355Y-71234776D01*
X112560109Y-71250000D01*
X112599891Y-71250000D01*
X112636645Y-71234776D01*
X112664776Y-71206645D01*
X112680000Y-71169891D01*
X112680000Y-71150000D01*
X112933553Y-71150000D01*
X113296660Y-71513106D01*
X113296661Y-71513106D01*
X113305334Y-71499306D01*
X113305334Y-71499305D01*
X113364876Y-71329144D01*
X113365056Y-71328358D01*
X113365311Y-71327901D01*
X113367177Y-71322570D01*
X113368110Y-71322896D01*
X113399164Y-71267379D01*
X113452875Y-71238049D01*
X113452570Y-71237177D01*
X113457870Y-71235322D01*
X113458358Y-71235056D01*
X113459144Y-71234876D01*
X113629305Y-71175334D01*
X113629306Y-71175334D01*
X113643106Y-71166661D01*
X113643106Y-71166660D01*
X113280000Y-70803553D01*
X113234056Y-70849499D01*
X113234054Y-70849501D01*
X112933553Y-71150000D01*
X112680000Y-71150000D01*
X112680000Y-71130109D01*
X112664776Y-71093355D01*
X112636645Y-71065224D01*
X112599891Y-71050000D01*
X112560109Y-71050000D01*
X112523355Y-71065224D01*
X112495224Y-71093355D01*
X112480000Y-71130109D01*
X112206555Y-71130109D01*
X111925945Y-70849499D01*
X111880000Y-70803553D01*
X111834055Y-70849499D01*
X111834054Y-70849500D01*
X111533553Y-71150000D01*
X111280000Y-71150000D01*
X111280000Y-71130109D01*
X111264776Y-71093355D01*
X111236645Y-71065224D01*
X111199891Y-71050000D01*
X111160109Y-71050000D01*
X111123355Y-71065224D01*
X111095224Y-71093355D01*
X111080000Y-71130109D01*
X110806555Y-71130109D01*
X110479999Y-70803553D01*
X110479998Y-70803553D01*
X110116892Y-71166660D01*
X103300500Y-71166660D01*
X103300500Y-70500097D01*
X103315211Y-70449997D01*
X109674938Y-70449997D01*
X109674938Y-70450002D01*
X109695121Y-70629138D01*
X109754665Y-70799304D01*
X109763338Y-70813107D01*
X110126446Y-70450000D01*
X110126446Y-70449999D01*
X110106556Y-70430109D01*
X110380000Y-70430109D01*
X110380000Y-70469891D01*
X110395224Y-70506645D01*
X110423355Y-70534776D01*
X110460109Y-70550000D01*
X110499891Y-70550000D01*
X110536645Y-70534776D01*
X110564776Y-70506645D01*
X110580000Y-70469891D01*
X110580000Y-70449998D01*
X110833553Y-70449998D01*
X110833553Y-70449999D01*
X111180000Y-70796446D01*
X111478577Y-70497869D01*
X111526446Y-70449998D01*
X111506557Y-70430109D01*
X111780000Y-70430109D01*
X111780000Y-70469891D01*
X111795224Y-70506645D01*
X111823355Y-70534776D01*
X111860109Y-70550000D01*
X111899891Y-70550000D01*
X111936645Y-70534776D01*
X111964776Y-70506645D01*
X111980000Y-70469891D01*
X111980000Y-70449998D01*
X112233553Y-70449998D01*
X112233553Y-70449999D01*
X112580000Y-70796446D01*
X112878577Y-70497869D01*
X112926446Y-70449998D01*
X112906557Y-70430109D01*
X113180000Y-70430109D01*
X113180000Y-70469891D01*
X113195224Y-70506645D01*
X113223355Y-70534776D01*
X113260109Y-70550000D01*
X113299891Y-70550000D01*
X113336645Y-70534776D01*
X113364776Y-70506645D01*
X113380000Y-70469891D01*
X113380000Y-70450000D01*
X113633553Y-70450000D01*
X113996660Y-70813106D01*
X113996661Y-70813106D01*
X114005334Y-70799306D01*
X114005334Y-70799305D01*
X114064877Y-70629141D01*
X114064878Y-70629138D01*
X114085062Y-70450002D01*
X114085062Y-70449997D01*
X114064878Y-70270861D01*
X114005333Y-70100692D01*
X113996661Y-70086892D01*
X113996660Y-70086892D01*
X113633553Y-70450000D01*
X113380000Y-70450000D01*
X113380000Y-70430109D01*
X113364776Y-70393355D01*
X113336645Y-70365224D01*
X113299891Y-70350000D01*
X113260109Y-70350000D01*
X113223355Y-70365224D01*
X113195224Y-70393355D01*
X113180000Y-70430109D01*
X112906557Y-70430109D01*
X112580001Y-70103553D01*
X112580000Y-70103553D01*
X112233553Y-70449998D01*
X111980000Y-70449998D01*
X111980000Y-70430109D01*
X111964776Y-70393355D01*
X111936645Y-70365224D01*
X111899891Y-70350000D01*
X111860109Y-70350000D01*
X111823355Y-70365224D01*
X111795224Y-70393355D01*
X111780000Y-70430109D01*
X111506557Y-70430109D01*
X111180001Y-70103553D01*
X111180000Y-70103553D01*
X110833553Y-70449998D01*
X110580000Y-70449998D01*
X110580000Y-70430109D01*
X110564776Y-70393355D01*
X110536645Y-70365224D01*
X110499891Y-70350000D01*
X110460109Y-70350000D01*
X110423355Y-70365224D01*
X110395224Y-70393355D01*
X110380000Y-70430109D01*
X110106556Y-70430109D01*
X109763338Y-70086891D01*
X109763337Y-70086891D01*
X109754667Y-70100691D01*
X109754662Y-70100701D01*
X109695122Y-70270858D01*
X109695121Y-70270861D01*
X109674938Y-70449997D01*
X103315211Y-70449997D01*
X103320185Y-70433058D01*
X103336819Y-70412416D01*
X103999235Y-69750000D01*
X110133553Y-69750000D01*
X110467498Y-70083946D01*
X110467499Y-70083946D01*
X110813946Y-69737500D01*
X110813946Y-69737499D01*
X110781556Y-69705109D01*
X111080000Y-69705109D01*
X111080000Y-69744891D01*
X111095224Y-69781645D01*
X111123355Y-69809776D01*
X111160109Y-69825000D01*
X111199891Y-69825000D01*
X111236645Y-69809776D01*
X111264776Y-69781645D01*
X111280000Y-69744891D01*
X111280000Y-69737500D01*
X111546053Y-69737500D01*
X111880000Y-70071446D01*
X111880001Y-70071446D01*
X112213946Y-69737501D01*
X112213946Y-69737499D01*
X112181556Y-69705109D01*
X112480000Y-69705109D01*
X112480000Y-69744891D01*
X112495224Y-69781645D01*
X112523355Y-69809776D01*
X112560109Y-69825000D01*
X112599891Y-69825000D01*
X112636645Y-69809776D01*
X112664776Y-69781645D01*
X112680000Y-69744891D01*
X112680000Y-69737500D01*
X112946053Y-69737500D01*
X113292500Y-70083946D01*
X113292501Y-70083946D01*
X113626446Y-69750001D01*
X113626446Y-69749999D01*
X113280001Y-69403553D01*
X113280000Y-69403553D01*
X112946053Y-69737500D01*
X112680000Y-69737500D01*
X112680000Y-69705109D01*
X112664776Y-69668355D01*
X112636645Y-69640224D01*
X112599891Y-69625000D01*
X112560109Y-69625000D01*
X112523355Y-69640224D01*
X112495224Y-69668355D01*
X112480000Y-69705109D01*
X112181556Y-69705109D01*
X111880001Y-69403553D01*
X111880000Y-69403553D01*
X111546053Y-69737500D01*
X111280000Y-69737500D01*
X111280000Y-69705109D01*
X111264776Y-69668355D01*
X111236645Y-69640224D01*
X111199891Y-69625000D01*
X111160109Y-69625000D01*
X111123355Y-69640224D01*
X111095224Y-69668355D01*
X111080000Y-69705109D01*
X110781556Y-69705109D01*
X110480001Y-69403553D01*
X110480000Y-69403553D01*
X110133553Y-69750000D01*
X103999235Y-69750000D01*
X104699238Y-69049997D01*
X109674938Y-69049997D01*
X109674938Y-69050002D01*
X109695121Y-69229138D01*
X109754665Y-69399304D01*
X109763338Y-69413107D01*
X110126446Y-69050000D01*
X110126446Y-69049999D01*
X110106556Y-69030109D01*
X110380000Y-69030109D01*
X110380000Y-69069891D01*
X110395224Y-69106645D01*
X110423355Y-69134776D01*
X110460109Y-69150000D01*
X110499891Y-69150000D01*
X110536645Y-69134776D01*
X110564776Y-69106645D01*
X110580000Y-69069891D01*
X110580000Y-69037499D01*
X110846053Y-69037499D01*
X110846053Y-69037500D01*
X111180000Y-69371446D01*
X111180001Y-69371446D01*
X111513946Y-69037500D01*
X111506555Y-69030109D01*
X111780000Y-69030109D01*
X111780000Y-69069891D01*
X111795224Y-69106645D01*
X111823355Y-69134776D01*
X111860109Y-69150000D01*
X111899891Y-69150000D01*
X111936645Y-69134776D01*
X111964776Y-69106645D01*
X111980000Y-69069891D01*
X111980000Y-69037499D01*
X112246053Y-69037499D01*
X112246053Y-69037500D01*
X112580000Y-69371446D01*
X112580001Y-69371446D01*
X112913946Y-69037500D01*
X112906555Y-69030109D01*
X113180000Y-69030109D01*
X113180000Y-69069891D01*
X113195224Y-69106645D01*
X113223355Y-69134776D01*
X113260109Y-69150000D01*
X113299891Y-69150000D01*
X113336645Y-69134776D01*
X113364776Y-69106645D01*
X113380000Y-69069891D01*
X113380000Y-69050000D01*
X113633553Y-69050000D01*
X113996660Y-69413106D01*
X113996661Y-69413106D01*
X114005334Y-69399306D01*
X114005334Y-69399305D01*
X114064877Y-69229141D01*
X114064878Y-69229138D01*
X114085062Y-69050002D01*
X114085062Y-69049997D01*
X114064878Y-68870861D01*
X114005333Y-68700692D01*
X113996661Y-68686892D01*
X113996660Y-68686892D01*
X113633553Y-69050000D01*
X113380000Y-69050000D01*
X113380000Y-69030109D01*
X113364776Y-68993355D01*
X113336645Y-68965224D01*
X113299891Y-68950000D01*
X113260109Y-68950000D01*
X113223355Y-68965224D01*
X113195224Y-68993355D01*
X113180000Y-69030109D01*
X112906555Y-69030109D01*
X112645760Y-68769314D01*
X112580000Y-68703553D01*
X112514240Y-68769314D01*
X112514239Y-68769314D01*
X112246053Y-69037499D01*
X111980000Y-69037499D01*
X111980000Y-69030109D01*
X111964776Y-68993355D01*
X111936645Y-68965224D01*
X111899891Y-68950000D01*
X111860109Y-68950000D01*
X111823355Y-68965224D01*
X111795224Y-68993355D01*
X111780000Y-69030109D01*
X111506555Y-69030109D01*
X111245760Y-68769314D01*
X111180000Y-68703553D01*
X111114240Y-68769314D01*
X111114239Y-68769314D01*
X110846053Y-69037499D01*
X110580000Y-69037499D01*
X110580000Y-69030109D01*
X110564776Y-68993355D01*
X110536645Y-68965224D01*
X110499891Y-68950000D01*
X110460109Y-68950000D01*
X110423355Y-68965224D01*
X110395224Y-68993355D01*
X110380000Y-69030109D01*
X110106556Y-69030109D01*
X109763338Y-68686891D01*
X109763337Y-68686891D01*
X109754667Y-68700691D01*
X109754662Y-68700701D01*
X109695122Y-68870858D01*
X109695121Y-68870861D01*
X109674938Y-69049997D01*
X104699238Y-69049997D01*
X105415898Y-68333337D01*
X110116891Y-68333337D01*
X110116891Y-68333338D01*
X110479998Y-68696446D01*
X110479999Y-68696446D01*
X110755868Y-68420577D01*
X110826446Y-68349998D01*
X110806557Y-68330109D01*
X111080000Y-68330109D01*
X111080000Y-68369891D01*
X111095224Y-68406645D01*
X111123355Y-68434776D01*
X111160109Y-68450000D01*
X111199891Y-68450000D01*
X111236645Y-68434776D01*
X111264776Y-68406645D01*
X111280000Y-68369891D01*
X111280000Y-68349998D01*
X111533553Y-68349998D01*
X111533553Y-68349999D01*
X111880000Y-68696446D01*
X112155870Y-68420577D01*
X112226446Y-68349999D01*
X112226446Y-68349998D01*
X112206557Y-68330109D01*
X112480000Y-68330109D01*
X112480000Y-68369891D01*
X112495224Y-68406645D01*
X112523355Y-68434776D01*
X112560109Y-68450000D01*
X112599891Y-68450000D01*
X112636645Y-68434776D01*
X112664776Y-68406645D01*
X112680000Y-68369891D01*
X112680000Y-68349998D01*
X112933553Y-68349998D01*
X112933553Y-68349999D01*
X113280000Y-68696446D01*
X113280001Y-68696446D01*
X113643107Y-68333338D01*
X113629301Y-68324663D01*
X113459142Y-68265121D01*
X113458346Y-68264940D01*
X113457883Y-68264681D01*
X113452570Y-68262822D01*
X113452895Y-68261890D01*
X113397370Y-68230827D01*
X113368049Y-68177125D01*
X113367177Y-68177431D01*
X113365321Y-68172128D01*
X113365057Y-68171644D01*
X113364878Y-68170862D01*
X113305333Y-68000692D01*
X113296661Y-67986892D01*
X113296660Y-67986892D01*
X112933553Y-68349998D01*
X112680000Y-68349998D01*
X112680000Y-68330109D01*
X112664776Y-68293355D01*
X112636645Y-68265224D01*
X112599891Y-68250000D01*
X112560109Y-68250000D01*
X112523355Y-68265224D01*
X112495224Y-68293355D01*
X112480000Y-68330109D01*
X112206557Y-68330109D01*
X111880001Y-68003553D01*
X111880000Y-68003553D01*
X111533553Y-68349998D01*
X111280000Y-68349998D01*
X111280000Y-68330109D01*
X111264776Y-68293355D01*
X111236645Y-68265224D01*
X111199891Y-68250000D01*
X111160109Y-68250000D01*
X111123355Y-68265224D01*
X111095224Y-68293355D01*
X111080000Y-68330109D01*
X110806557Y-68330109D01*
X110463338Y-67986891D01*
X110463337Y-67986891D01*
X110454667Y-68000691D01*
X110454662Y-68000701D01*
X110395119Y-68170866D01*
X110394939Y-68171656D01*
X110394682Y-68172113D01*
X110392823Y-68177429D01*
X110391891Y-68177103D01*
X110360824Y-68232631D01*
X110307124Y-68261952D01*
X110307429Y-68262823D01*
X110302145Y-68264671D01*
X110301656Y-68264939D01*
X110300866Y-68265119D01*
X110130701Y-68324662D01*
X110130691Y-68324667D01*
X110116891Y-68333337D01*
X105415898Y-68333337D01*
X106115898Y-67633337D01*
X110816891Y-67633337D01*
X110816891Y-67633338D01*
X111180000Y-67996446D01*
X111180001Y-67996446D01*
X111543107Y-67633338D01*
X111543105Y-67633337D01*
X112216891Y-67633337D01*
X112216891Y-67633338D01*
X112580000Y-67996446D01*
X112580001Y-67996446D01*
X112943107Y-67633338D01*
X112929304Y-67624665D01*
X112759138Y-67565121D01*
X112580003Y-67544938D01*
X112579997Y-67544938D01*
X112400861Y-67565121D01*
X112400858Y-67565122D01*
X112230701Y-67624662D01*
X112230691Y-67624667D01*
X112216891Y-67633337D01*
X111543105Y-67633337D01*
X111529304Y-67624665D01*
X111359138Y-67565121D01*
X111180003Y-67544938D01*
X111179997Y-67544938D01*
X111000861Y-67565121D01*
X111000858Y-67565122D01*
X110830701Y-67624662D01*
X110830691Y-67624667D01*
X110816891Y-67633337D01*
X106115898Y-67633337D01*
X108912416Y-64836819D01*
X108973739Y-64803334D01*
X109000097Y-64800500D01*
X116317588Y-64800500D01*
X116384627Y-64820185D01*
X116394903Y-64827555D01*
X116397736Y-64829814D01*
X116397738Y-64829816D01*
X116550478Y-64925789D01*
X116720745Y-64985368D01*
X116720750Y-64985369D01*
X116899996Y-65005565D01*
X116900000Y-65005565D01*
X116900004Y-65005565D01*
X117079249Y-64985369D01*
X117079252Y-64985368D01*
X117079255Y-64985368D01*
X117249522Y-64925789D01*
X117402262Y-64829816D01*
X117529816Y-64702262D01*
X117625789Y-64549522D01*
X117685368Y-64379255D01*
X117705565Y-64200000D01*
X117685368Y-64020745D01*
X117625789Y-63850478D01*
X117529816Y-63697738D01*
X117402262Y-63570184D01*
X117374206Y-63552555D01*
X117249523Y-63474211D01*
X117079254Y-63414631D01*
X117079249Y-63414630D01*
X116900004Y-63394435D01*
X116899996Y-63394435D01*
X116720750Y-63414630D01*
X116720745Y-63414631D01*
X116550476Y-63474211D01*
X116397736Y-63570185D01*
X116394903Y-63572445D01*
X116392724Y-63573334D01*
X116391842Y-63573889D01*
X116391744Y-63573734D01*
X116330217Y-63598855D01*
X116317588Y-63599500D01*
X108620940Y-63599500D01*
X108580019Y-63610464D01*
X108580019Y-63610465D01*
X108542751Y-63620451D01*
X108468214Y-63640423D01*
X108468209Y-63640426D01*
X108331290Y-63719475D01*
X108331282Y-63719481D01*
X102219481Y-69831282D01*
X102219479Y-69831285D01*
X102169361Y-69918094D01*
X102169359Y-69918096D01*
X102140425Y-69968209D01*
X102140424Y-69968210D01*
X102140423Y-69968215D01*
X102099499Y-70120943D01*
X102099499Y-70120945D01*
X102099499Y-70289046D01*
X102099500Y-70289059D01*
X102099500Y-81068060D01*
X102079815Y-81135099D01*
X102027011Y-81180854D01*
X101957853Y-81190798D01*
X101894297Y-81161773D01*
X101887819Y-81155741D01*
X101802262Y-81070184D01*
X101649523Y-80974211D01*
X101479254Y-80914631D01*
X101479249Y-80914630D01*
X101300004Y-80894435D01*
X101299996Y-80894435D01*
X101120750Y-80914630D01*
X101120745Y-80914631D01*
X100950476Y-80974211D01*
X100797737Y-81070184D01*
X100670184Y-81197737D01*
X100574211Y-81350476D01*
X100514631Y-81520745D01*
X100514630Y-81520750D01*
X100494435Y-81699996D01*
X100494435Y-81700003D01*
X100514630Y-81879249D01*
X100514631Y-81879254D01*
X100574211Y-82049523D01*
X100670185Y-82202263D01*
X100672445Y-82205097D01*
X100673334Y-82207275D01*
X100673889Y-82208158D01*
X100673734Y-82208255D01*
X100698855Y-82269783D01*
X100699500Y-82282412D01*
X100699500Y-86917587D01*
X100679815Y-86984626D01*
X100672450Y-86994896D01*
X100670186Y-86997734D01*
X100574210Y-87150478D01*
X100514630Y-87320750D01*
X100506898Y-87389383D01*
X100479832Y-87453797D01*
X100422237Y-87493352D01*
X100383678Y-87499500D01*
X96625494Y-87499500D01*
X96559523Y-87480494D01*
X96549525Y-87474212D01*
X96379254Y-87414631D01*
X96379249Y-87414630D01*
X96200004Y-87394435D01*
X96199996Y-87394435D01*
X96020750Y-87414630D01*
X96020745Y-87414631D01*
X95850476Y-87474211D01*
X95697737Y-87570184D01*
X95570184Y-87697737D01*
X95474211Y-87850476D01*
X95414631Y-88020745D01*
X95414630Y-88020750D01*
X95394435Y-88199996D01*
X95394435Y-88200003D01*
X95414630Y-88379249D01*
X95414631Y-88379254D01*
X95474211Y-88549523D01*
X95548058Y-88667049D01*
X95570184Y-88702262D01*
X95697738Y-88829816D01*
X95850478Y-88925789D01*
X96003258Y-88979249D01*
X96020745Y-88985368D01*
X96020750Y-88985369D01*
X96199996Y-89005565D01*
X96200000Y-89005565D01*
X96200004Y-89005565D01*
X96379249Y-88985369D01*
X96379252Y-88985368D01*
X96379255Y-88985368D01*
X96549522Y-88925789D01*
X96702262Y-88829816D01*
X96702267Y-88829810D01*
X96705097Y-88827555D01*
X96707275Y-88826665D01*
X96708158Y-88826111D01*
X96708255Y-88826265D01*
X96769783Y-88801145D01*
X96782412Y-88800500D01*
X101106921Y-88800500D01*
X101173960Y-88820185D01*
X101219715Y-88872989D01*
X101229659Y-88942147D01*
X101211915Y-88990472D01*
X101174210Y-89050478D01*
X101114632Y-89220744D01*
X101114630Y-89220752D01*
X101113815Y-89227988D01*
X101086743Y-89292400D01*
X101078277Y-89301775D01*
X100816871Y-89563182D01*
X100755551Y-89596666D01*
X100729192Y-89599500D01*
X98715363Y-89599500D01*
X98648324Y-89579815D01*
X98646475Y-89578604D01*
X98638888Y-89573534D01*
X98520505Y-89524499D01*
X98520499Y-89524497D01*
X98394832Y-89499500D01*
X98394830Y-89499500D01*
X95251569Y-89499500D01*
X95184530Y-89479815D01*
X95163888Y-89463181D01*
X85561297Y-79860590D01*
X85527812Y-79799267D01*
X85531937Y-79731954D01*
X85585366Y-79579262D01*
X85585369Y-79579249D01*
X85605565Y-79400003D01*
X85605565Y-79399996D01*
X85585369Y-79220750D01*
X85585368Y-79220745D01*
X85525788Y-79050476D01*
X85429815Y-78897737D01*
X85302262Y-78770184D01*
X85149523Y-78674211D01*
X84979254Y-78614631D01*
X84979249Y-78614630D01*
X84800004Y-78594435D01*
X84799996Y-78594435D01*
X84620750Y-78614630D01*
X84620745Y-78614631D01*
X84450476Y-78674211D01*
X84297737Y-78770184D01*
X84170184Y-78897737D01*
X84074211Y-79050476D01*
X84014631Y-79220745D01*
X84014630Y-79220750D01*
X83994435Y-79399996D01*
X76797587Y-79399996D01*
X76792622Y-78473920D01*
X81349499Y-78473920D01*
X81378340Y-78618907D01*
X81378343Y-78618917D01*
X81434912Y-78755488D01*
X81434919Y-78755501D01*
X81517048Y-78878415D01*
X81517051Y-78878419D01*
X81621580Y-78982948D01*
X81621584Y-78982951D01*
X81744498Y-79065080D01*
X81744511Y-79065087D01*
X81881082Y-79121656D01*
X81881087Y-79121658D01*
X81881091Y-79121658D01*
X81881092Y-79121659D01*
X82026079Y-79150500D01*
X82026082Y-79150500D01*
X82173920Y-79150500D01*
X82271462Y-79131096D01*
X82318913Y-79121658D01*
X82455495Y-79065084D01*
X82578416Y-78982951D01*
X82682951Y-78878416D01*
X82765084Y-78755495D01*
X82821658Y-78618913D01*
X82850500Y-78473918D01*
X82850500Y-78326082D01*
X82850500Y-78326079D01*
X82821659Y-78181092D01*
X82821658Y-78181091D01*
X82821658Y-78181087D01*
X82789008Y-78102262D01*
X82765087Y-78044511D01*
X82765080Y-78044498D01*
X82682951Y-77921584D01*
X82682948Y-77921580D01*
X82578419Y-77817051D01*
X82578415Y-77817048D01*
X82455501Y-77734919D01*
X82455488Y-77734912D01*
X82318917Y-77678343D01*
X82318907Y-77678340D01*
X82173920Y-77649500D01*
X82173918Y-77649500D01*
X82026082Y-77649500D01*
X82026080Y-77649500D01*
X81881092Y-77678340D01*
X81881082Y-77678343D01*
X81744511Y-77734912D01*
X81744498Y-77734919D01*
X81621584Y-77817048D01*
X81621580Y-77817051D01*
X81517051Y-77921580D01*
X81517048Y-77921584D01*
X81434919Y-78044498D01*
X81434912Y-78044511D01*
X81378343Y-78181082D01*
X81378340Y-78181092D01*
X81349500Y-78326079D01*
X81349500Y-78326082D01*
X81349500Y-78473918D01*
X81349500Y-78473920D01*
X81349499Y-78473920D01*
X76792622Y-78473920D01*
X76756161Y-71673920D01*
X81349499Y-71673920D01*
X81378340Y-71818907D01*
X81378343Y-71818917D01*
X81434912Y-71955488D01*
X81434919Y-71955501D01*
X81517048Y-72078415D01*
X81517051Y-72078419D01*
X81621580Y-72182948D01*
X81621584Y-72182951D01*
X81744498Y-72265080D01*
X81744511Y-72265087D01*
X81881082Y-72321656D01*
X81881087Y-72321658D01*
X81881091Y-72321658D01*
X81881092Y-72321659D01*
X82026079Y-72350500D01*
X82026082Y-72350500D01*
X82173920Y-72350500D01*
X82271462Y-72331096D01*
X82318913Y-72321658D01*
X82455495Y-72265084D01*
X82578416Y-72182951D01*
X82682951Y-72078416D01*
X82765084Y-71955495D01*
X82821658Y-71818913D01*
X82850500Y-71673918D01*
X82850500Y-71526082D01*
X82850500Y-71526079D01*
X82821659Y-71381092D01*
X82821658Y-71381091D01*
X82821658Y-71381087D01*
X82799628Y-71327901D01*
X82765087Y-71244511D01*
X82765080Y-71244498D01*
X82682951Y-71121584D01*
X82682948Y-71121580D01*
X82578419Y-71017051D01*
X82578415Y-71017048D01*
X82455501Y-70934919D01*
X82455488Y-70934912D01*
X82318917Y-70878343D01*
X82318907Y-70878340D01*
X82173920Y-70849500D01*
X82173918Y-70849500D01*
X82026082Y-70849500D01*
X82026080Y-70849500D01*
X81881092Y-70878340D01*
X81881082Y-70878343D01*
X81744511Y-70934912D01*
X81744498Y-70934919D01*
X81621584Y-71017048D01*
X81621580Y-71017051D01*
X81517051Y-71121580D01*
X81517048Y-71121584D01*
X81434919Y-71244498D01*
X81434912Y-71244511D01*
X81378343Y-71381082D01*
X81378340Y-71381092D01*
X81349500Y-71526079D01*
X81349500Y-71526082D01*
X81349500Y-71673918D01*
X81349500Y-71673920D01*
X81349499Y-71673920D01*
X76756161Y-71673920D01*
X76712735Y-63575013D01*
X81750000Y-63575013D01*
X81750000Y-64000000D01*
X82569670Y-64000000D01*
X82549925Y-64019745D01*
X82500556Y-64105255D01*
X82475000Y-64200630D01*
X82475000Y-64299370D01*
X82500556Y-64394745D01*
X82549925Y-64480255D01*
X82569670Y-64500000D01*
X81750001Y-64500000D01*
X81750001Y-64924986D01*
X81760494Y-65027697D01*
X81815641Y-65194119D01*
X81815643Y-65194124D01*
X81907684Y-65343345D01*
X82031654Y-65467315D01*
X82180875Y-65559356D01*
X82180880Y-65559358D01*
X82347302Y-65614505D01*
X82347309Y-65614506D01*
X82450019Y-65624999D01*
X82599999Y-65624999D01*
X82600000Y-65624998D01*
X82600000Y-64530330D01*
X82619745Y-64550075D01*
X82705255Y-64599444D01*
X82800630Y-64625000D01*
X82899370Y-64625000D01*
X82994745Y-64599444D01*
X83080255Y-64550075D01*
X83100000Y-64530330D01*
X83100000Y-65624999D01*
X83249972Y-65624999D01*
X83249986Y-65624998D01*
X83352697Y-65614505D01*
X83519119Y-65559358D01*
X83519124Y-65559356D01*
X83668345Y-65467315D01*
X83792315Y-65343345D01*
X83831945Y-65279094D01*
X83883893Y-65232368D01*
X83952855Y-65221145D01*
X84016937Y-65248988D01*
X84025166Y-65256508D01*
X84133072Y-65364414D01*
X84273212Y-65466232D01*
X84427555Y-65544873D01*
X84592299Y-65598402D01*
X84763389Y-65625500D01*
X84763390Y-65625500D01*
X84936610Y-65625500D01*
X84936611Y-65625500D01*
X85107701Y-65598402D01*
X85272445Y-65544873D01*
X85369207Y-65495570D01*
X85437874Y-65482675D01*
X85502614Y-65508951D01*
X85542872Y-65566057D01*
X85549500Y-65606056D01*
X85549500Y-76864069D01*
X85560772Y-76920737D01*
X85560774Y-76920744D01*
X85560774Y-76920746D01*
X85574497Y-76989736D01*
X85574499Y-76989744D01*
X85623534Y-77108125D01*
X85694726Y-77214673D01*
X85694727Y-77214674D01*
X86178277Y-77698223D01*
X86211762Y-77759546D01*
X86213815Y-77772012D01*
X86214630Y-77779246D01*
X86214632Y-77779255D01*
X86274210Y-77949521D01*
X86370184Y-78102262D01*
X86497738Y-78229816D01*
X86650478Y-78325789D01*
X86820745Y-78385368D01*
X86820750Y-78385369D01*
X86999996Y-78405565D01*
X87000000Y-78405565D01*
X87000004Y-78405565D01*
X87179249Y-78385369D01*
X87179252Y-78385368D01*
X87179255Y-78385368D01*
X87349522Y-78325789D01*
X87502262Y-78229816D01*
X87629816Y-78102262D01*
X87725789Y-77949522D01*
X87785368Y-77779255D01*
X87787589Y-77759546D01*
X87805565Y-77600003D01*
X87805565Y-77599996D01*
X87785369Y-77420750D01*
X87785368Y-77420745D01*
X87725789Y-77250478D01*
X87629816Y-77097738D01*
X87502262Y-76970184D01*
X87349521Y-76874210D01*
X87179255Y-76814632D01*
X87179246Y-76814630D01*
X87172012Y-76813815D01*
X87107600Y-76786744D01*
X87098223Y-76778277D01*
X86886819Y-76566873D01*
X86853334Y-76505550D01*
X86850500Y-76479192D01*
X86850500Y-62305067D01*
X86869507Y-62239094D01*
X86925788Y-62149524D01*
X86925789Y-62149522D01*
X86985368Y-61979255D01*
X86985369Y-61979249D01*
X87005565Y-61800003D01*
X87005565Y-61799996D01*
X86985369Y-61620750D01*
X86985368Y-61620745D01*
X86925788Y-61450476D01*
X86829815Y-61297737D01*
X86702262Y-61170184D01*
X86549523Y-61074211D01*
X86379254Y-61014631D01*
X86379249Y-61014630D01*
X86200004Y-60994435D01*
X86199996Y-60994435D01*
X86020750Y-61014630D01*
X86020745Y-61014631D01*
X85850476Y-61074211D01*
X85697737Y-61170184D01*
X85570184Y-61297737D01*
X85474211Y-61450476D01*
X85414631Y-61620745D01*
X85414630Y-61620750D01*
X85394435Y-61799996D01*
X85394435Y-61800003D01*
X85414630Y-61979249D01*
X85414631Y-61979254D01*
X85474211Y-62149524D01*
X85530493Y-62239094D01*
X85549500Y-62305067D01*
X85549500Y-62893943D01*
X85529815Y-62960982D01*
X85477011Y-63006737D01*
X85407853Y-63016681D01*
X85369206Y-63004428D01*
X85272450Y-62955129D01*
X85272447Y-62955128D01*
X85272445Y-62955127D01*
X85107701Y-62901598D01*
X85107699Y-62901597D01*
X85107698Y-62901597D01*
X84976271Y-62880781D01*
X84936611Y-62874500D01*
X84763389Y-62874500D01*
X84723728Y-62880781D01*
X84592302Y-62901597D01*
X84427552Y-62955128D01*
X84273211Y-63033768D01*
X84133073Y-63135585D01*
X84025166Y-63243492D01*
X83963843Y-63276976D01*
X83894151Y-63271992D01*
X83838218Y-63230120D01*
X83831946Y-63220906D01*
X83792317Y-63156656D01*
X83668345Y-63032684D01*
X83519124Y-62940643D01*
X83519119Y-62940641D01*
X83352697Y-62885494D01*
X83352690Y-62885493D01*
X83249986Y-62875000D01*
X83100000Y-62875000D01*
X83100000Y-63969670D01*
X83080255Y-63949925D01*
X82994745Y-63900556D01*
X82899370Y-63875000D01*
X82800630Y-63875000D01*
X82705255Y-63900556D01*
X82619745Y-63949925D01*
X82600000Y-63969670D01*
X82600000Y-62875000D01*
X82450027Y-62875000D01*
X82450012Y-62875001D01*
X82347302Y-62885494D01*
X82180880Y-62940641D01*
X82180875Y-62940643D01*
X82031654Y-63032684D01*
X81907684Y-63156654D01*
X81815643Y-63305875D01*
X81815641Y-63305880D01*
X81760494Y-63472302D01*
X81760493Y-63472309D01*
X81750000Y-63575013D01*
X76712735Y-63575013D01*
X76700000Y-61200002D01*
X76700000Y-61200000D01*
X76699998Y-61199998D01*
X76699998Y-61199997D01*
X73462181Y-57962181D01*
X73428696Y-57900858D01*
X73433680Y-57831166D01*
X73475552Y-57775233D01*
X73541016Y-57750816D01*
X73549862Y-57750500D01*
X73794932Y-57750500D01*
X73860904Y-57769506D01*
X73950477Y-57825789D01*
X73950481Y-57825790D01*
X74120737Y-57885366D01*
X74120743Y-57885367D01*
X74120745Y-57885368D01*
X74120746Y-57885368D01*
X74120750Y-57885369D01*
X74299996Y-57905565D01*
X74300000Y-57905565D01*
X74300004Y-57905565D01*
X74479249Y-57885369D01*
X74479251Y-57885368D01*
X74479255Y-57885368D01*
X74479258Y-57885366D01*
X74479262Y-57885366D01*
X74589859Y-57846666D01*
X74649522Y-57825789D01*
X74739096Y-57769505D01*
X74805068Y-57750500D01*
X84559192Y-57750500D01*
X84626231Y-57770185D01*
X84646873Y-57786819D01*
X84895091Y-58035037D01*
X84928576Y-58096360D01*
X84923592Y-58166052D01*
X84881720Y-58221985D01*
X84818218Y-58246246D01*
X84604596Y-58264936D01*
X84604586Y-58264938D01*
X84376344Y-58326094D01*
X84376335Y-58326098D01*
X84162171Y-58425964D01*
X84162169Y-58425965D01*
X83968600Y-58561503D01*
X83846284Y-58683819D01*
X83784961Y-58717303D01*
X83715269Y-58712319D01*
X83659336Y-58670447D01*
X83642421Y-58639470D01*
X83593354Y-58507913D01*
X83593350Y-58507906D01*
X83507190Y-58392812D01*
X83507187Y-58392809D01*
X83392093Y-58306649D01*
X83392086Y-58306645D01*
X83257379Y-58256403D01*
X83257372Y-58256401D01*
X83197844Y-58250000D01*
X82550000Y-58250000D01*
X82550000Y-59166988D01*
X82492993Y-59134075D01*
X82365826Y-59100000D01*
X82234174Y-59100000D01*
X82107007Y-59134075D01*
X82050000Y-59166988D01*
X82050000Y-58250000D01*
X81402155Y-58250000D01*
X81342627Y-58256401D01*
X81342620Y-58256403D01*
X81207913Y-58306645D01*
X81207906Y-58306649D01*
X81092812Y-58392809D01*
X81092809Y-58392812D01*
X81006649Y-58507906D01*
X81006645Y-58507913D01*
X80956403Y-58642620D01*
X80956401Y-58642627D01*
X80950000Y-58702155D01*
X80950000Y-59350000D01*
X81866988Y-59350000D01*
X81834075Y-59407007D01*
X81800000Y-59534174D01*
X81800000Y-59665826D01*
X81834075Y-59792993D01*
X81866988Y-59850000D01*
X80950000Y-59850000D01*
X80950000Y-60497844D01*
X80956401Y-60557372D01*
X80956403Y-60557379D01*
X81006645Y-60692086D01*
X81006649Y-60692093D01*
X81092809Y-60807187D01*
X81092812Y-60807190D01*
X81207906Y-60893350D01*
X81207913Y-60893354D01*
X81342620Y-60943596D01*
X81342627Y-60943598D01*
X81402155Y-60949999D01*
X81402172Y-60950000D01*
X82050000Y-60950000D01*
X82050000Y-60033012D01*
X82107007Y-60065925D01*
X82234174Y-60100000D01*
X82365826Y-60100000D01*
X82492993Y-60065925D01*
X82550000Y-60033012D01*
X82550000Y-60950000D01*
X83197828Y-60950000D01*
X83197844Y-60949999D01*
X83257372Y-60943598D01*
X83257379Y-60943596D01*
X83392086Y-60893354D01*
X83392093Y-60893350D01*
X83507187Y-60807190D01*
X83507190Y-60807187D01*
X83593350Y-60692093D01*
X83593354Y-60692086D01*
X83642422Y-60560529D01*
X83684293Y-60504595D01*
X83749757Y-60480178D01*
X83818030Y-60495030D01*
X83846285Y-60516181D01*
X83968599Y-60638495D01*
X84045135Y-60692086D01*
X84162165Y-60774032D01*
X84162167Y-60774033D01*
X84162170Y-60774035D01*
X84376337Y-60873903D01*
X84604592Y-60935063D01*
X84775319Y-60950000D01*
X84839999Y-60955659D01*
X84840000Y-60955659D01*
X84840001Y-60955659D01*
X84904681Y-60950000D01*
X85075408Y-60935063D01*
X85303663Y-60873903D01*
X85517830Y-60774035D01*
X85711401Y-60638495D01*
X85878495Y-60471401D01*
X86008425Y-60285842D01*
X86063002Y-60242217D01*
X86132500Y-60235023D01*
X86194855Y-60266546D01*
X86211575Y-60285842D01*
X86341500Y-60471395D01*
X86341505Y-60471401D01*
X86508599Y-60638495D01*
X86585135Y-60692086D01*
X86702165Y-60774032D01*
X86702167Y-60774033D01*
X86702170Y-60774035D01*
X86916337Y-60873903D01*
X87144592Y-60935063D01*
X87315319Y-60950000D01*
X87379999Y-60955659D01*
X87380000Y-60955659D01*
X87380001Y-60955659D01*
X87444681Y-60950000D01*
X87615408Y-60935063D01*
X87687989Y-60915615D01*
X87757839Y-60917278D01*
X87807763Y-60947709D01*
X92013181Y-65153126D01*
X92046666Y-65214449D01*
X92049500Y-65240807D01*
X92049500Y-76594931D01*
X92030494Y-76660903D01*
X91974211Y-76750477D01*
X91974209Y-76750481D01*
X91914633Y-76920737D01*
X91914630Y-76920750D01*
X91894435Y-77099996D01*
X91894435Y-77100003D01*
X91914630Y-77279249D01*
X91914631Y-77279254D01*
X91974211Y-77449523D01*
X92068760Y-77599996D01*
X92070184Y-77602262D01*
X92197738Y-77729816D01*
X92276405Y-77779246D01*
X92336571Y-77817051D01*
X92350478Y-77825789D01*
X92520745Y-77885368D01*
X92520750Y-77885369D01*
X92699996Y-77905565D01*
X92700000Y-77905565D01*
X92700004Y-77905565D01*
X92879249Y-77885369D01*
X92879252Y-77885368D01*
X92879255Y-77885368D01*
X93049522Y-77825789D01*
X93202262Y-77729816D01*
X93329816Y-77602262D01*
X93425789Y-77449522D01*
X93485368Y-77279255D01*
X93485369Y-77279249D01*
X93505565Y-77100003D01*
X93505565Y-77099996D01*
X93485369Y-76920750D01*
X93485366Y-76920737D01*
X93425790Y-76750481D01*
X93425789Y-76750478D01*
X93404008Y-76715814D01*
X93369506Y-76660903D01*
X93350500Y-76594931D01*
X93350500Y-64855928D01*
X93325502Y-64730261D01*
X93325501Y-64730260D01*
X93325501Y-64730256D01*
X93276465Y-64611873D01*
X93276464Y-64611872D01*
X93276461Y-64611866D01*
X93205277Y-64505332D01*
X93180200Y-64480255D01*
X93114669Y-64414724D01*
X92035093Y-63335148D01*
X92001609Y-63273826D01*
X92006593Y-63204134D01*
X92048465Y-63148201D01*
X92113929Y-63123784D01*
X92163729Y-63130425D01*
X92178476Y-63135586D01*
X92320745Y-63185368D01*
X92320750Y-63185369D01*
X92499996Y-63205565D01*
X92500000Y-63205565D01*
X92500004Y-63205565D01*
X92679249Y-63185369D01*
X92679252Y-63185368D01*
X92679255Y-63185368D01*
X92849522Y-63125789D01*
X93002262Y-63029816D01*
X93129816Y-62902262D01*
X93225789Y-62749522D01*
X93285368Y-62579255D01*
X93285369Y-62579249D01*
X93305565Y-62400003D01*
X93305565Y-62399996D01*
X93285369Y-62220750D01*
X93285368Y-62220745D01*
X93225788Y-62050476D01*
X93162955Y-61950478D01*
X93129816Y-61897738D01*
X93096819Y-61864741D01*
X93063334Y-61803418D01*
X93060500Y-61777060D01*
X93060500Y-60889090D01*
X93080185Y-60822051D01*
X93132101Y-60776706D01*
X93137830Y-60774035D01*
X93331401Y-60638495D01*
X93498495Y-60471401D01*
X93628425Y-60285842D01*
X93683002Y-60242217D01*
X93752500Y-60235023D01*
X93814855Y-60266546D01*
X93831575Y-60285842D01*
X93961500Y-60471395D01*
X93961505Y-60471401D01*
X94128599Y-60638495D01*
X94205135Y-60692086D01*
X94322165Y-60774032D01*
X94322167Y-60774033D01*
X94322170Y-60774035D01*
X94327898Y-60776706D01*
X94380339Y-60822872D01*
X94399500Y-60889090D01*
X94399500Y-61717587D01*
X94379815Y-61784626D01*
X94372450Y-61794896D01*
X94370186Y-61797734D01*
X94274211Y-61950476D01*
X94214631Y-62120745D01*
X94214630Y-62120750D01*
X94194435Y-62299996D01*
X94194435Y-62300003D01*
X94214630Y-62479249D01*
X94214631Y-62479254D01*
X94274211Y-62649523D01*
X94328718Y-62736270D01*
X94370184Y-62802262D01*
X94497738Y-62929816D01*
X94588080Y-62986582D01*
X94635982Y-63016681D01*
X94650478Y-63025789D01*
X94673281Y-63033768D01*
X94820745Y-63085368D01*
X94820750Y-63085369D01*
X94999996Y-63105565D01*
X95000000Y-63105565D01*
X95000004Y-63105565D01*
X95179249Y-63085369D01*
X95179252Y-63085368D01*
X95179255Y-63085368D01*
X95349522Y-63025789D01*
X95502262Y-62929816D01*
X95629816Y-62802262D01*
X95725789Y-62649522D01*
X95785368Y-62479255D01*
X95785369Y-62479249D01*
X95805565Y-62300003D01*
X95805565Y-62299996D01*
X95785369Y-62120750D01*
X95785368Y-62120745D01*
X95725789Y-61950478D01*
X95722339Y-61944988D01*
X95631237Y-61800000D01*
X95629816Y-61797738D01*
X95629814Y-61797736D01*
X95629813Y-61797734D01*
X95627550Y-61794896D01*
X95626659Y-61792715D01*
X95626111Y-61791842D01*
X95626264Y-61791745D01*
X95601144Y-61730209D01*
X95600500Y-61717587D01*
X95600500Y-60889090D01*
X95620185Y-60822051D01*
X95672101Y-60776706D01*
X95677830Y-60774035D01*
X95871401Y-60638495D01*
X96038495Y-60471401D01*
X96174035Y-60277830D01*
X96176707Y-60272097D01*
X96222878Y-60219658D01*
X96289091Y-60200500D01*
X109106913Y-60200500D01*
X109106929Y-60200501D01*
X109114525Y-60200501D01*
X109272636Y-60200501D01*
X109272639Y-60200501D01*
X109425367Y-60159577D01*
X109475486Y-60130639D01*
X109562298Y-60080520D01*
X109674102Y-59968716D01*
X109674102Y-59968714D01*
X109684310Y-59958507D01*
X109684312Y-59958504D01*
X112758506Y-56884310D01*
X112758511Y-56884306D01*
X112768714Y-56874102D01*
X112768716Y-56874102D01*
X112777398Y-56865420D01*
X117449499Y-56865420D01*
X117478340Y-57010407D01*
X117478343Y-57010417D01*
X117534912Y-57146988D01*
X117534919Y-57147001D01*
X117617048Y-57269915D01*
X117617051Y-57269919D01*
X117721580Y-57374448D01*
X117721584Y-57374451D01*
X117844498Y-57456580D01*
X117844511Y-57456587D01*
X117977743Y-57511773D01*
X117981087Y-57513158D01*
X117981091Y-57513158D01*
X117981092Y-57513159D01*
X118126079Y-57542000D01*
X118126082Y-57542000D01*
X118273920Y-57542000D01*
X118371462Y-57522596D01*
X118418913Y-57513158D01*
X118555495Y-57456584D01*
X118678416Y-57374451D01*
X118782951Y-57269916D01*
X118865084Y-57146995D01*
X118921658Y-57010413D01*
X118939496Y-56920737D01*
X118950500Y-56865420D01*
X118950500Y-56717579D01*
X118921659Y-56572592D01*
X118921658Y-56572591D01*
X118921658Y-56572587D01*
X118920405Y-56569561D01*
X118865087Y-56436011D01*
X118865080Y-56435998D01*
X118782951Y-56313083D01*
X118678419Y-56208551D01*
X118678415Y-56208548D01*
X118555501Y-56126419D01*
X118555488Y-56126412D01*
X118418917Y-56069843D01*
X118418907Y-56069840D01*
X118273920Y-56041000D01*
X118273918Y-56041000D01*
X118126082Y-56041000D01*
X118126080Y-56041000D01*
X117981092Y-56069840D01*
X117981082Y-56069843D01*
X117844511Y-56126412D01*
X117844498Y-56126419D01*
X117721584Y-56208548D01*
X117721580Y-56208551D01*
X117617051Y-56313080D01*
X117617049Y-56313083D01*
X117534919Y-56435998D01*
X117534912Y-56436011D01*
X117478343Y-56572582D01*
X117478340Y-56572592D01*
X117449500Y-56717579D01*
X117449500Y-56717582D01*
X117449500Y-56865418D01*
X117449500Y-56865420D01*
X117449499Y-56865420D01*
X112777398Y-56865420D01*
X112880520Y-56762298D01*
X112884206Y-56755913D01*
X112949290Y-56643185D01*
X112949291Y-56643182D01*
X112956523Y-56630656D01*
X112959577Y-56625367D01*
X113000501Y-56472639D01*
X113000501Y-56314525D01*
X113000501Y-56306930D01*
X113000500Y-56306912D01*
X113000500Y-54982412D01*
X113020185Y-54915373D01*
X113027555Y-54905097D01*
X113029810Y-54902267D01*
X113029816Y-54902262D01*
X113125789Y-54749522D01*
X113185368Y-54579255D01*
X113191960Y-54520750D01*
X113205565Y-54400003D01*
X113205565Y-54399996D01*
X113185369Y-54220750D01*
X113185368Y-54220745D01*
X113125789Y-54050478D01*
X113095630Y-54002481D01*
X113044272Y-53920745D01*
X113029816Y-53897738D01*
X112902262Y-53770184D01*
X112840363Y-53731290D01*
X112749523Y-53674211D01*
X112579254Y-53614631D01*
X112579249Y-53614630D01*
X112400004Y-53594435D01*
X112399996Y-53594435D01*
X112220750Y-53614630D01*
X112220745Y-53614631D01*
X112050476Y-53674211D01*
X111897737Y-53770184D01*
X111770184Y-53897737D01*
X111674211Y-54050476D01*
X111614631Y-54220745D01*
X111614630Y-54220750D01*
X111594435Y-54399996D01*
X111594435Y-54400003D01*
X111614630Y-54579249D01*
X111614631Y-54579254D01*
X111674211Y-54749523D01*
X111698291Y-54787845D01*
X111759569Y-54885369D01*
X111770185Y-54902263D01*
X111772445Y-54905097D01*
X111773334Y-54907275D01*
X111773889Y-54908158D01*
X111773734Y-54908255D01*
X111798855Y-54969783D01*
X111799500Y-54982412D01*
X111799500Y-56093484D01*
X111779815Y-56160523D01*
X111763181Y-56181165D01*
X111589250Y-56355095D01*
X111527927Y-56388580D01*
X111458235Y-56383596D01*
X111402302Y-56341724D01*
X111398467Y-56336304D01*
X111382951Y-56313083D01*
X111278419Y-56208551D01*
X111278415Y-56208548D01*
X111155501Y-56126419D01*
X111155488Y-56126412D01*
X111018917Y-56069843D01*
X111018907Y-56069840D01*
X110873920Y-56041000D01*
X110873918Y-56041000D01*
X110726082Y-56041000D01*
X110726080Y-56041000D01*
X110581092Y-56069840D01*
X110581082Y-56069843D01*
X110444511Y-56126412D01*
X110444498Y-56126419D01*
X110321584Y-56208548D01*
X110321580Y-56208551D01*
X110217051Y-56313080D01*
X110217049Y-56313083D01*
X110134919Y-56435998D01*
X110134912Y-56436011D01*
X110078343Y-56572582D01*
X110078340Y-56572592D01*
X110049500Y-56717579D01*
X110049500Y-56717582D01*
X110049500Y-56865418D01*
X110049500Y-56865420D01*
X110049499Y-56865420D01*
X110078340Y-57010407D01*
X110078343Y-57010417D01*
X110134912Y-57146988D01*
X110134919Y-57147001D01*
X110217048Y-57269915D01*
X110217051Y-57269919D01*
X110321580Y-57374448D01*
X110321588Y-57374454D01*
X110344804Y-57389967D01*
X110389610Y-57443579D01*
X110398317Y-57512904D01*
X110368163Y-57575931D01*
X110363595Y-57580750D01*
X108981166Y-58963181D01*
X108919843Y-58996666D01*
X108893485Y-58999500D01*
X106549096Y-58999500D01*
X106482057Y-58979815D01*
X106436302Y-58927011D01*
X106426358Y-58857853D01*
X106455383Y-58794297D01*
X106461415Y-58787819D01*
X108238827Y-57010407D01*
X110018535Y-55230698D01*
X110079856Y-55197215D01*
X110092311Y-55195163D01*
X110179255Y-55185368D01*
X110349522Y-55125789D01*
X110502262Y-55029816D01*
X110629816Y-54902262D01*
X110725789Y-54749522D01*
X110785368Y-54579255D01*
X110791960Y-54520750D01*
X110805565Y-54400003D01*
X110805565Y-54399996D01*
X110785369Y-54220750D01*
X110785368Y-54220745D01*
X110725789Y-54050478D01*
X110695630Y-54002481D01*
X110644272Y-53920745D01*
X110629816Y-53897738D01*
X110502262Y-53770184D01*
X110440363Y-53731290D01*
X110349523Y-53674211D01*
X110179254Y-53614631D01*
X110179249Y-53614630D01*
X110000004Y-53594435D01*
X109999996Y-53594435D01*
X109820750Y-53614630D01*
X109820745Y-53614631D01*
X109650476Y-53674211D01*
X109497737Y-53770184D01*
X109370184Y-53897737D01*
X109274210Y-54050478D01*
X109214630Y-54220750D01*
X109204837Y-54307668D01*
X109177770Y-54372082D01*
X109169298Y-54381465D01*
X105737584Y-57813181D01*
X105676261Y-57846666D01*
X105649903Y-57849500D01*
X93696670Y-57849500D01*
X93696654Y-57849499D01*
X93689058Y-57849499D01*
X93530943Y-57849499D01*
X93465182Y-57867120D01*
X93378214Y-57890423D01*
X93378209Y-57890426D01*
X93241290Y-57969475D01*
X93241286Y-57969478D01*
X92943529Y-58267234D01*
X92882206Y-58300718D01*
X92823755Y-58299327D01*
X92695413Y-58264938D01*
X92695403Y-58264936D01*
X92481780Y-58246246D01*
X92416711Y-58220793D01*
X92375733Y-58164202D01*
X92371855Y-58094440D01*
X92404905Y-58035039D01*
X92868478Y-57571466D01*
X92929799Y-57537983D01*
X92997112Y-57542107D01*
X93120745Y-57585368D01*
X93120750Y-57585369D01*
X93299996Y-57605565D01*
X93300000Y-57605565D01*
X93300004Y-57605565D01*
X93479249Y-57585369D01*
X93479252Y-57585368D01*
X93479255Y-57585368D01*
X93649522Y-57525789D01*
X93802262Y-57429816D01*
X93929816Y-57302262D01*
X94025789Y-57149522D01*
X94085368Y-56979255D01*
X94091960Y-56920750D01*
X94105565Y-56800003D01*
X94105565Y-56799996D01*
X94087356Y-56638383D01*
X94099411Y-56569561D01*
X94146760Y-56518182D01*
X94210576Y-56500500D01*
X105213331Y-56500500D01*
X105213347Y-56500501D01*
X105220943Y-56500501D01*
X105379062Y-56500501D01*
X105387121Y-56499440D01*
X105387184Y-56499925D01*
X105424869Y-56497099D01*
X105500000Y-56505565D01*
X105500003Y-56505565D01*
X105679249Y-56485369D01*
X105679252Y-56485368D01*
X105679255Y-56485368D01*
X105849522Y-56425789D01*
X106002262Y-56329816D01*
X106129816Y-56202262D01*
X106225789Y-56049522D01*
X106285368Y-55879255D01*
X106293102Y-55810617D01*
X106320168Y-55746203D01*
X106377763Y-55706648D01*
X106416322Y-55700500D01*
X106461860Y-55700500D01*
X106461876Y-55700501D01*
X106469472Y-55700501D01*
X106627583Y-55700501D01*
X106627586Y-55700501D01*
X106780314Y-55659577D01*
X106830433Y-55630639D01*
X106917245Y-55580520D01*
X107029049Y-55468716D01*
X107029049Y-55468714D01*
X107039257Y-55458507D01*
X107039259Y-55458504D01*
X107258506Y-55239257D01*
X107258511Y-55239253D01*
X107268714Y-55229049D01*
X107268716Y-55229049D01*
X107380520Y-55117245D01*
X107430997Y-55029816D01*
X107459577Y-54980314D01*
X107500500Y-54827586D01*
X107500500Y-54669472D01*
X107500500Y-54020943D01*
X107459577Y-53868216D01*
X107391602Y-53750478D01*
X107380524Y-53731290D01*
X107380521Y-53731286D01*
X107380520Y-53731284D01*
X107268716Y-53619480D01*
X107268715Y-53619479D01*
X107264385Y-53615149D01*
X107264374Y-53615139D01*
X107030700Y-53381465D01*
X106997215Y-53320142D01*
X106995163Y-53307686D01*
X106985368Y-53220745D01*
X106925789Y-53050478D01*
X106829816Y-52897738D01*
X106702262Y-52770184D01*
X106631608Y-52725789D01*
X106549523Y-52674211D01*
X106379254Y-52614631D01*
X106379249Y-52614630D01*
X106200004Y-52594435D01*
X106199996Y-52594435D01*
X106020750Y-52614630D01*
X106020745Y-52614631D01*
X105850476Y-52674211D01*
X105697737Y-52770184D01*
X105570184Y-52897737D01*
X105474211Y-53050476D01*
X105414631Y-53220745D01*
X105414630Y-53220750D01*
X105394435Y-53399996D01*
X105394435Y-53400003D01*
X105414630Y-53579249D01*
X105414631Y-53579254D01*
X105474211Y-53749523D01*
X105542122Y-53857602D01*
X105567341Y-53897738D01*
X105573889Y-53908158D01*
X105571590Y-53909602D01*
X105593341Y-53962849D01*
X105580599Y-54031547D01*
X105532739Y-54082450D01*
X105469988Y-54099500D01*
X78800098Y-54099500D01*
X78733059Y-54079815D01*
X78712417Y-54063181D01*
X77536819Y-52887583D01*
X77503334Y-52826260D01*
X77500500Y-52799902D01*
X77500500Y-51899996D01*
X86294435Y-51899996D01*
X86294435Y-51900003D01*
X86314630Y-52079249D01*
X86314631Y-52079254D01*
X86374211Y-52249523D01*
X86437045Y-52349522D01*
X86470184Y-52402262D01*
X86597738Y-52529816D01*
X86608882Y-52536818D01*
X86732721Y-52614632D01*
X86750478Y-52625789D01*
X86761984Y-52629815D01*
X86920745Y-52685368D01*
X86920750Y-52685369D01*
X87099996Y-52705565D01*
X87100000Y-52705565D01*
X87100004Y-52705565D01*
X87279249Y-52685369D01*
X87279252Y-52685368D01*
X87279255Y-52685368D01*
X87449522Y-52625789D01*
X87602262Y-52529816D01*
X87602267Y-52529810D01*
X87605097Y-52527555D01*
X87607275Y-52526665D01*
X87608158Y-52526111D01*
X87608255Y-52526265D01*
X87669783Y-52501145D01*
X87682412Y-52500500D01*
X100517059Y-52500500D01*
X100584098Y-52520185D01*
X100604740Y-52536818D01*
X100697738Y-52629816D01*
X100850478Y-52725789D01*
X100977352Y-52770184D01*
X101020745Y-52785368D01*
X101020750Y-52785369D01*
X101199996Y-52805565D01*
X101200000Y-52805565D01*
X101200004Y-52805565D01*
X101379249Y-52785369D01*
X101379252Y-52785368D01*
X101379255Y-52785368D01*
X101549522Y-52725789D01*
X101702262Y-52629816D01*
X101829816Y-52502262D01*
X101925789Y-52349522D01*
X101985368Y-52179255D01*
X101985369Y-52179249D01*
X102005565Y-52000003D01*
X102005565Y-51999996D01*
X101985369Y-51820750D01*
X101985368Y-51820745D01*
X101925788Y-51650476D01*
X101862955Y-51550478D01*
X101829816Y-51497738D01*
X101702262Y-51370184D01*
X101603703Y-51308255D01*
X101549523Y-51274211D01*
X101379254Y-51214631D01*
X101379249Y-51214630D01*
X101200004Y-51194435D01*
X101199996Y-51194435D01*
X101020750Y-51214630D01*
X101020745Y-51214631D01*
X100850474Y-51274212D01*
X100840477Y-51280494D01*
X100774506Y-51299500D01*
X87682412Y-51299500D01*
X87615373Y-51279815D01*
X87605097Y-51272445D01*
X87602263Y-51270185D01*
X87602262Y-51270184D01*
X87513850Y-51214631D01*
X87449523Y-51174211D01*
X87279254Y-51114631D01*
X87279249Y-51114630D01*
X87100004Y-51094435D01*
X87099996Y-51094435D01*
X86920750Y-51114630D01*
X86920745Y-51114631D01*
X86750476Y-51174211D01*
X86597737Y-51270184D01*
X86470184Y-51397737D01*
X86374211Y-51550476D01*
X86314631Y-51720745D01*
X86314630Y-51720750D01*
X86294435Y-51899996D01*
X77500500Y-51899996D01*
X77500500Y-51282412D01*
X77520185Y-51215373D01*
X77527555Y-51205097D01*
X77529810Y-51202267D01*
X77529816Y-51202262D01*
X77625789Y-51049522D01*
X77685368Y-50879255D01*
X77691960Y-50820750D01*
X77705565Y-50700003D01*
X77705565Y-50699996D01*
X77685369Y-50520750D01*
X77685368Y-50520745D01*
X77677318Y-50497739D01*
X77625789Y-50350478D01*
X77623600Y-50346995D01*
X77586582Y-50288080D01*
X77529816Y-50197738D01*
X77402262Y-50070184D01*
X77394680Y-50065420D01*
X110049499Y-50065420D01*
X110078340Y-50210407D01*
X110078343Y-50210417D01*
X110134912Y-50346988D01*
X110134919Y-50347001D01*
X110217048Y-50469915D01*
X110217051Y-50469919D01*
X110321580Y-50574448D01*
X110321584Y-50574451D01*
X110444498Y-50656580D01*
X110444511Y-50656587D01*
X110549328Y-50700003D01*
X110581087Y-50713158D01*
X110581091Y-50713158D01*
X110581092Y-50713159D01*
X110726079Y-50742000D01*
X110726082Y-50742000D01*
X110873920Y-50742000D01*
X110979776Y-50720943D01*
X111018913Y-50713158D01*
X111155495Y-50656584D01*
X111278416Y-50574451D01*
X111382951Y-50469916D01*
X111465084Y-50346995D01*
X111521658Y-50210413D01*
X111550500Y-50065420D01*
X117449499Y-50065420D01*
X117478340Y-50210407D01*
X117478343Y-50210417D01*
X117534912Y-50346988D01*
X117534919Y-50347001D01*
X117617048Y-50469915D01*
X117617051Y-50469919D01*
X117721580Y-50574448D01*
X117721584Y-50574451D01*
X117844498Y-50656580D01*
X117844511Y-50656587D01*
X117949328Y-50700003D01*
X117981087Y-50713158D01*
X117981091Y-50713158D01*
X117981092Y-50713159D01*
X118126079Y-50742000D01*
X118126082Y-50742000D01*
X118273920Y-50742000D01*
X118379776Y-50720943D01*
X118418913Y-50713158D01*
X118555495Y-50656584D01*
X118678416Y-50574451D01*
X118782951Y-50469916D01*
X118865084Y-50346995D01*
X118921658Y-50210413D01*
X118950500Y-50065418D01*
X118950500Y-49917582D01*
X118950500Y-49917579D01*
X118921659Y-49772592D01*
X118921658Y-49772591D01*
X118921658Y-49772587D01*
X118921656Y-49772582D01*
X118865087Y-49636011D01*
X118865080Y-49635998D01*
X118782951Y-49513084D01*
X118782948Y-49513080D01*
X118678419Y-49408551D01*
X118678415Y-49408548D01*
X118555501Y-49326419D01*
X118555488Y-49326412D01*
X118418917Y-49269843D01*
X118418907Y-49269840D01*
X118273920Y-49241000D01*
X118273918Y-49241000D01*
X118126082Y-49241000D01*
X118126080Y-49241000D01*
X117981092Y-49269840D01*
X117981082Y-49269843D01*
X117844511Y-49326412D01*
X117844498Y-49326419D01*
X117721584Y-49408548D01*
X117721580Y-49408551D01*
X117617051Y-49513080D01*
X117617048Y-49513084D01*
X117534919Y-49635998D01*
X117534912Y-49636011D01*
X117478343Y-49772582D01*
X117478340Y-49772592D01*
X117449500Y-49917579D01*
X117449500Y-49917582D01*
X117449500Y-50065418D01*
X117449500Y-50065420D01*
X117449499Y-50065420D01*
X111550500Y-50065420D01*
X111550500Y-50065418D01*
X111550500Y-49917582D01*
X111550500Y-49917579D01*
X111521659Y-49772592D01*
X111521658Y-49772591D01*
X111521658Y-49772587D01*
X111521656Y-49772582D01*
X111465087Y-49636011D01*
X111465080Y-49635998D01*
X111382951Y-49513084D01*
X111382948Y-49513080D01*
X111278419Y-49408551D01*
X111278415Y-49408548D01*
X111155501Y-49326419D01*
X111155488Y-49326412D01*
X111018917Y-49269843D01*
X111018907Y-49269840D01*
X110873920Y-49241000D01*
X110873918Y-49241000D01*
X110726082Y-49241000D01*
X110726080Y-49241000D01*
X110581092Y-49269840D01*
X110581082Y-49269843D01*
X110444511Y-49326412D01*
X110444498Y-49326419D01*
X110321584Y-49408548D01*
X110321580Y-49408551D01*
X110217051Y-49513080D01*
X110217048Y-49513084D01*
X110134919Y-49635998D01*
X110134912Y-49636011D01*
X110078343Y-49772582D01*
X110078340Y-49772592D01*
X110049500Y-49917579D01*
X110049500Y-49917582D01*
X110049500Y-50065418D01*
X110049500Y-50065420D01*
X110049499Y-50065420D01*
X77394680Y-50065420D01*
X77313852Y-50014632D01*
X77249523Y-49974211D01*
X77079254Y-49914631D01*
X77079249Y-49914630D01*
X76900004Y-49894435D01*
X76899996Y-49894435D01*
X76720750Y-49914630D01*
X76720745Y-49914631D01*
X76550476Y-49974211D01*
X76397737Y-50070184D01*
X76270184Y-50197737D01*
X76174211Y-50350476D01*
X76114631Y-50520745D01*
X76114630Y-50520750D01*
X76094435Y-50699996D01*
X76094435Y-50700003D01*
X76114630Y-50879249D01*
X76114631Y-50879254D01*
X76174211Y-51049523D01*
X76215121Y-51114630D01*
X76252558Y-51174211D01*
X76270185Y-51202263D01*
X76272445Y-51205097D01*
X76273334Y-51207275D01*
X76273889Y-51208158D01*
X76273734Y-51208255D01*
X76298855Y-51269783D01*
X76299500Y-51282412D01*
X76299500Y-53013330D01*
X76299499Y-53013348D01*
X76299499Y-53179054D01*
X76299498Y-53179054D01*
X76299499Y-53179057D01*
X76340423Y-53331785D01*
X76364918Y-53374211D01*
X76379809Y-53400003D01*
X76419479Y-53468714D01*
X76419481Y-53468717D01*
X76538349Y-53587585D01*
X76538355Y-53587590D01*
X77238583Y-54287819D01*
X77272068Y-54349142D01*
X77267084Y-54418834D01*
X77225212Y-54474767D01*
X77159748Y-54499184D01*
X77150902Y-54499500D01*
X74202149Y-54499500D01*
X74135110Y-54479815D01*
X74097155Y-54441472D01*
X74071098Y-54400003D01*
X73999206Y-54285587D01*
X73871652Y-54158033D01*
X73718913Y-54062060D01*
X73548644Y-54002480D01*
X73548639Y-54002479D01*
X73369394Y-53982284D01*
X73369386Y-53982284D01*
X73190140Y-54002479D01*
X73190135Y-54002480D01*
X73019866Y-54062060D01*
X72867127Y-54158033D01*
X72739574Y-54285586D01*
X72643601Y-54438325D01*
X72584021Y-54608594D01*
X72584020Y-54608599D01*
X72563825Y-54787845D01*
X72563825Y-54787852D01*
X72584020Y-54967098D01*
X72584021Y-54967103D01*
X72642612Y-55134545D01*
X72646173Y-55204324D01*
X72611444Y-55264952D01*
X72549451Y-55297179D01*
X72525570Y-55299500D01*
X69462290Y-55299500D01*
X69395251Y-55279815D01*
X69357297Y-55241473D01*
X69329817Y-55197739D01*
X69202262Y-55070184D01*
X69049523Y-54974211D01*
X68879254Y-54914631D01*
X68879249Y-54914630D01*
X68700004Y-54894435D01*
X68699996Y-54894435D01*
X68520750Y-54914630D01*
X68520745Y-54914631D01*
X68350476Y-54974211D01*
X68197737Y-55070184D01*
X68070184Y-55197737D01*
X67974211Y-55350476D01*
X67914631Y-55520745D01*
X67914630Y-55520750D01*
X67894435Y-55699996D01*
X67894435Y-55700003D01*
X67914630Y-55879249D01*
X67914631Y-55879254D01*
X67974211Y-56049523D01*
X68070184Y-56202262D01*
X68105741Y-56237819D01*
X68139226Y-56299142D01*
X68134242Y-56368834D01*
X68092370Y-56424767D01*
X68026906Y-56449184D01*
X68018060Y-56449500D01*
X59705068Y-56449500D01*
X59639096Y-56430494D01*
X59549522Y-56374210D01*
X59549518Y-56374209D01*
X59379262Y-56314633D01*
X59379249Y-56314630D01*
X59200004Y-56294435D01*
X59199996Y-56294435D01*
X59020750Y-56314630D01*
X59020737Y-56314633D01*
X58850481Y-56374209D01*
X58850477Y-56374210D01*
X58760904Y-56430494D01*
X58694932Y-56449500D01*
X41605068Y-56449500D01*
X41539096Y-56430494D01*
X41449522Y-56374210D01*
X41449518Y-56374209D01*
X41279262Y-56314633D01*
X41279249Y-56314630D01*
X41100004Y-56294435D01*
X41099996Y-56294435D01*
X40920750Y-56314630D01*
X40920737Y-56314633D01*
X40750481Y-56374209D01*
X40750477Y-56374210D01*
X40660904Y-56430494D01*
X40594932Y-56449500D01*
X24974500Y-56449500D01*
X24907461Y-56429815D01*
X24861706Y-56377011D01*
X24850500Y-56325500D01*
X24850500Y-50499996D01*
X32294435Y-50499996D01*
X32294435Y-50500003D01*
X32314630Y-50679249D01*
X32314631Y-50679254D01*
X32374211Y-50849523D01*
X32455724Y-50979249D01*
X32470184Y-51002262D01*
X32597738Y-51129816D01*
X32741474Y-51220131D01*
X32787763Y-51272463D01*
X32799500Y-51325123D01*
X32799500Y-53517587D01*
X32779815Y-53584626D01*
X32772450Y-53594896D01*
X32770186Y-53597734D01*
X32674211Y-53750476D01*
X32614631Y-53920745D01*
X32614630Y-53920750D01*
X32594435Y-54099996D01*
X32594435Y-54100003D01*
X32614630Y-54279249D01*
X32614631Y-54279254D01*
X32674211Y-54449523D01*
X32755724Y-54579249D01*
X32770184Y-54602262D01*
X32897738Y-54729816D01*
X33050478Y-54825789D01*
X33055614Y-54827586D01*
X33220745Y-54885368D01*
X33220750Y-54885369D01*
X33399996Y-54905565D01*
X33400000Y-54905565D01*
X33400004Y-54905565D01*
X33579249Y-54885369D01*
X33579252Y-54885368D01*
X33579255Y-54885368D01*
X33749522Y-54825789D01*
X33902262Y-54729816D01*
X34029816Y-54602262D01*
X34125789Y-54449522D01*
X34185368Y-54279255D01*
X34191960Y-54220750D01*
X34205565Y-54100003D01*
X34205565Y-54099996D01*
X34185369Y-53920750D01*
X34185368Y-53920745D01*
X34180964Y-53908158D01*
X34125789Y-53750478D01*
X34125188Y-53749522D01*
X34040756Y-53615149D01*
X34029816Y-53597738D01*
X34029814Y-53597736D01*
X34029813Y-53597734D01*
X34027550Y-53594896D01*
X34026659Y-53592715D01*
X34026111Y-53591842D01*
X34026264Y-53591745D01*
X34001144Y-53530209D01*
X34000500Y-53517587D01*
X34000500Y-50799996D01*
X35994435Y-50799996D01*
X35994435Y-50800003D01*
X36014630Y-50979249D01*
X36014631Y-50979254D01*
X36074211Y-51149523D01*
X36111054Y-51208158D01*
X36157711Y-51282412D01*
X36170185Y-51302263D01*
X36172445Y-51305097D01*
X36173334Y-51307275D01*
X36173889Y-51308158D01*
X36173734Y-51308255D01*
X36198855Y-51369783D01*
X36199500Y-51382412D01*
X36199500Y-54117587D01*
X36179815Y-54184626D01*
X36172450Y-54194896D01*
X36170186Y-54197734D01*
X36074211Y-54350476D01*
X36014631Y-54520745D01*
X36014630Y-54520750D01*
X35994435Y-54699996D01*
X35994435Y-54700003D01*
X36014630Y-54879249D01*
X36014631Y-54879254D01*
X36074211Y-55049523D01*
X36167013Y-55197215D01*
X36170184Y-55202262D01*
X36297738Y-55329816D01*
X36450478Y-55425789D01*
X36620745Y-55485368D01*
X36620750Y-55485369D01*
X36799996Y-55505565D01*
X36800000Y-55505565D01*
X36800004Y-55505565D01*
X36979249Y-55485369D01*
X36979252Y-55485368D01*
X36979255Y-55485368D01*
X37149522Y-55425789D01*
X37302262Y-55329816D01*
X37429816Y-55202262D01*
X37525789Y-55049522D01*
X37585368Y-54879255D01*
X37591392Y-54825789D01*
X37605565Y-54700003D01*
X37605565Y-54699996D01*
X37585369Y-54520750D01*
X37585368Y-54520745D01*
X37549708Y-54418834D01*
X37525789Y-54350478D01*
X37429816Y-54197738D01*
X37429814Y-54197736D01*
X37429813Y-54197734D01*
X37427550Y-54194896D01*
X37426659Y-54192715D01*
X37426111Y-54191842D01*
X37426264Y-54191745D01*
X37401144Y-54130209D01*
X37400500Y-54117587D01*
X37400500Y-51382412D01*
X37420185Y-51315373D01*
X37427555Y-51305097D01*
X37429810Y-51302267D01*
X37429816Y-51302262D01*
X37525789Y-51149522D01*
X37585368Y-50979255D01*
X37585369Y-50979249D01*
X37605565Y-50800003D01*
X37605565Y-50799996D01*
X37585369Y-50620750D01*
X37585368Y-50620745D01*
X37550376Y-50520745D01*
X37525789Y-50450478D01*
X37429816Y-50297738D01*
X37302262Y-50170184D01*
X37270897Y-50150476D01*
X37149523Y-50074211D01*
X36979254Y-50014631D01*
X36979249Y-50014630D01*
X36800004Y-49994435D01*
X36799996Y-49994435D01*
X36620750Y-50014630D01*
X36620745Y-50014631D01*
X36450476Y-50074211D01*
X36297737Y-50170184D01*
X36170184Y-50297737D01*
X36074211Y-50450476D01*
X36014631Y-50620745D01*
X36014630Y-50620750D01*
X35994435Y-50799996D01*
X34000500Y-50799996D01*
X34000500Y-50720945D01*
X34000500Y-50720943D01*
X33959577Y-50568216D01*
X33959577Y-50568215D01*
X33959577Y-50568214D01*
X33918887Y-50497738D01*
X33914953Y-50490924D01*
X33899121Y-50442809D01*
X33885369Y-50320749D01*
X33885368Y-50320745D01*
X33825789Y-50150478D01*
X33729816Y-49997738D01*
X33602262Y-49870184D01*
X33449523Y-49774211D01*
X33279254Y-49714631D01*
X33279249Y-49714630D01*
X33100004Y-49694435D01*
X33099996Y-49694435D01*
X32920750Y-49714630D01*
X32920745Y-49714631D01*
X32750476Y-49774211D01*
X32597737Y-49870184D01*
X32470184Y-49997737D01*
X32374211Y-50150476D01*
X32314631Y-50320745D01*
X32314630Y-50320750D01*
X32294435Y-50499996D01*
X24850500Y-50499996D01*
X24850500Y-48274500D01*
X24870185Y-48207461D01*
X24922989Y-48161706D01*
X24974500Y-48150500D01*
X29972524Y-48150500D01*
X30039563Y-48170185D01*
X30085318Y-48222989D01*
X30095744Y-48288386D01*
X30094435Y-48300001D01*
X30094435Y-48300003D01*
X30114630Y-48479249D01*
X30114631Y-48479254D01*
X30174211Y-48649523D01*
X30269077Y-48800500D01*
X30270184Y-48802262D01*
X30397738Y-48929816D01*
X30550478Y-49025789D01*
X30720745Y-49085368D01*
X30720750Y-49085369D01*
X30899996Y-49105565D01*
X30900000Y-49105565D01*
X30900004Y-49105565D01*
X31079249Y-49085369D01*
X31079252Y-49085368D01*
X31079255Y-49085368D01*
X31249522Y-49025789D01*
X31402262Y-48929816D01*
X31445259Y-48886819D01*
X31506582Y-48853334D01*
X31532940Y-48850500D01*
X48574506Y-48850500D01*
X48640477Y-48869506D01*
X48650474Y-48875787D01*
X48650475Y-48875787D01*
X48650478Y-48875789D01*
X48804878Y-48929816D01*
X48820745Y-48935368D01*
X48820750Y-48935369D01*
X48999996Y-48955565D01*
X49000000Y-48955565D01*
X49000004Y-48955565D01*
X49179249Y-48935369D01*
X49179251Y-48935368D01*
X49179255Y-48935368D01*
X49179258Y-48935366D01*
X49179262Y-48935366D01*
X49269377Y-48903832D01*
X49349522Y-48875789D01*
X49439096Y-48819505D01*
X49505068Y-48800500D01*
X64517588Y-48800500D01*
X64584627Y-48820185D01*
X64594903Y-48827555D01*
X64597736Y-48829814D01*
X64597738Y-48829816D01*
X64750478Y-48925789D01*
X64835573Y-48955565D01*
X64920745Y-48985368D01*
X64920750Y-48985369D01*
X65099996Y-49005565D01*
X65100000Y-49005565D01*
X65100004Y-49005565D01*
X65279249Y-48985369D01*
X65279251Y-48985368D01*
X65279255Y-48985368D01*
X65279258Y-48985366D01*
X65279262Y-48985366D01*
X65369377Y-48953832D01*
X65449522Y-48925789D01*
X65539096Y-48869505D01*
X65605068Y-48850500D01*
X81794932Y-48850500D01*
X81860904Y-48869506D01*
X81950477Y-48925789D01*
X81950481Y-48925790D01*
X82120737Y-48985366D01*
X82120743Y-48985367D01*
X82120745Y-48985368D01*
X82120746Y-48985368D01*
X82120750Y-48985369D01*
X82299996Y-49005565D01*
X82300000Y-49005565D01*
X82300004Y-49005565D01*
X82479249Y-48985369D01*
X82479251Y-48985368D01*
X82479255Y-48985368D01*
X82479258Y-48985366D01*
X82479262Y-48985366D01*
X82569377Y-48953832D01*
X82649522Y-48925789D01*
X82739096Y-48869505D01*
X82805068Y-48850500D01*
X112394932Y-48850500D01*
X112460904Y-48869506D01*
X112550477Y-48925789D01*
X112550481Y-48925790D01*
X112720737Y-48985366D01*
X112720743Y-48985367D01*
X112720745Y-48985368D01*
X112720746Y-48985368D01*
X112720750Y-48985369D01*
X112899996Y-49005565D01*
X112900000Y-49005565D01*
X112900004Y-49005565D01*
X113079249Y-48985369D01*
X113079252Y-48985368D01*
X113079255Y-48985368D01*
X113249522Y-48925789D01*
X113402262Y-48829816D01*
X113529816Y-48702262D01*
X113625789Y-48549522D01*
X113685368Y-48379255D01*
X113685369Y-48379249D01*
X113705565Y-48200003D01*
X113705565Y-48199996D01*
X113685369Y-48020750D01*
X113685368Y-48020745D01*
X113625788Y-47850476D01*
X113529815Y-47697737D01*
X113402262Y-47570184D01*
X113249523Y-47474211D01*
X113079254Y-47414631D01*
X113079249Y-47414630D01*
X112900004Y-47394435D01*
X112899996Y-47394435D01*
X112720750Y-47414630D01*
X112720737Y-47414633D01*
X112550481Y-47474209D01*
X112550477Y-47474210D01*
X112460904Y-47530494D01*
X112394932Y-47549500D01*
X111500624Y-47549500D01*
X111433585Y-47529815D01*
X111387830Y-47477011D01*
X111377886Y-47407853D01*
X111397522Y-47356609D01*
X111465080Y-47255501D01*
X111465080Y-47255500D01*
X111465084Y-47255495D01*
X111521658Y-47118913D01*
X111540554Y-47023920D01*
X117449499Y-47023920D01*
X117478340Y-47168907D01*
X117478343Y-47168917D01*
X117534912Y-47305488D01*
X117534919Y-47305501D01*
X117617048Y-47428415D01*
X117617051Y-47428419D01*
X117721580Y-47532948D01*
X117721584Y-47532951D01*
X117844498Y-47615080D01*
X117844511Y-47615087D01*
X117981082Y-47671656D01*
X117981087Y-47671658D01*
X117981091Y-47671658D01*
X117981092Y-47671659D01*
X118126079Y-47700500D01*
X118126082Y-47700500D01*
X118273920Y-47700500D01*
X118371462Y-47681096D01*
X118418913Y-47671658D01*
X118555495Y-47615084D01*
X118678416Y-47532951D01*
X118782951Y-47428416D01*
X118865084Y-47305495D01*
X118921658Y-47168913D01*
X118950500Y-47023918D01*
X118950500Y-46876082D01*
X118950500Y-46876079D01*
X118921659Y-46731092D01*
X118921658Y-46731091D01*
X118921658Y-46731087D01*
X118906476Y-46694435D01*
X118865087Y-46594511D01*
X118865080Y-46594498D01*
X118782951Y-46471584D01*
X118782948Y-46471580D01*
X118678419Y-46367051D01*
X118678415Y-46367048D01*
X118555501Y-46284919D01*
X118555488Y-46284912D01*
X118418917Y-46228343D01*
X118418907Y-46228340D01*
X118273920Y-46199500D01*
X118273918Y-46199500D01*
X118126082Y-46199500D01*
X118126080Y-46199500D01*
X117981092Y-46228340D01*
X117981082Y-46228343D01*
X117844511Y-46284912D01*
X117844498Y-46284919D01*
X117721584Y-46367048D01*
X117721580Y-46367051D01*
X117617051Y-46471580D01*
X117617048Y-46471584D01*
X117534919Y-46594498D01*
X117534912Y-46594511D01*
X117478343Y-46731082D01*
X117478340Y-46731092D01*
X117449500Y-46876079D01*
X117449500Y-46876082D01*
X117449500Y-47023918D01*
X117449500Y-47023920D01*
X117449499Y-47023920D01*
X111540554Y-47023920D01*
X111550500Y-46973918D01*
X111550500Y-46826082D01*
X111550500Y-46826079D01*
X111521659Y-46681092D01*
X111521658Y-46681091D01*
X111521658Y-46681087D01*
X111500421Y-46629816D01*
X111465087Y-46544511D01*
X111465080Y-46544498D01*
X111382951Y-46421584D01*
X111382948Y-46421580D01*
X111278419Y-46317051D01*
X111278415Y-46317048D01*
X111155501Y-46234919D01*
X111155488Y-46234912D01*
X111018917Y-46178343D01*
X111018907Y-46178340D01*
X110873920Y-46149500D01*
X110873918Y-46149500D01*
X110726082Y-46149500D01*
X110726080Y-46149500D01*
X110581092Y-46178340D01*
X110581082Y-46178343D01*
X110444511Y-46234912D01*
X110444498Y-46234919D01*
X110321584Y-46317048D01*
X110321580Y-46317051D01*
X110217051Y-46421580D01*
X110217048Y-46421584D01*
X110134919Y-46544498D01*
X110134912Y-46544511D01*
X110078343Y-46681082D01*
X110078340Y-46681092D01*
X110049500Y-46826079D01*
X110049500Y-46826082D01*
X110049500Y-46973918D01*
X110049500Y-46973920D01*
X110049499Y-46973920D01*
X110078340Y-47118907D01*
X110078343Y-47118917D01*
X110134912Y-47255488D01*
X110134919Y-47255501D01*
X110202478Y-47356609D01*
X110223356Y-47423286D01*
X110204872Y-47490667D01*
X110152893Y-47537357D01*
X110099376Y-47549500D01*
X82805068Y-47549500D01*
X82739096Y-47530494D01*
X82649522Y-47474210D01*
X82649518Y-47474209D01*
X82479262Y-47414633D01*
X82479249Y-47414630D01*
X82300004Y-47394435D01*
X82299996Y-47394435D01*
X82120750Y-47414630D01*
X82120737Y-47414633D01*
X81950481Y-47474209D01*
X81950477Y-47474210D01*
X81860904Y-47530494D01*
X81794932Y-47549500D01*
X75221956Y-47549500D01*
X75154917Y-47529815D01*
X75109162Y-47477011D01*
X75098736Y-47439384D01*
X75085369Y-47320749D01*
X75085368Y-47320745D01*
X75062536Y-47255495D01*
X75025789Y-47150478D01*
X75005955Y-47118913D01*
X74929815Y-46997737D01*
X74802262Y-46870184D01*
X74649523Y-46774211D01*
X74479254Y-46714631D01*
X74479249Y-46714630D01*
X74300004Y-46694435D01*
X74299996Y-46694435D01*
X74120750Y-46714630D01*
X74120737Y-46714633D01*
X73950481Y-46774209D01*
X73950477Y-46774210D01*
X73860904Y-46830494D01*
X73794932Y-46849500D01*
X57805068Y-46849500D01*
X57739096Y-46830494D01*
X57649522Y-46774210D01*
X57649518Y-46774209D01*
X57479262Y-46714633D01*
X57479249Y-46714630D01*
X57300004Y-46694435D01*
X57299996Y-46694435D01*
X57120750Y-46714630D01*
X57120737Y-46714633D01*
X56950481Y-46774209D01*
X56950477Y-46774210D01*
X56860904Y-46830494D01*
X56794932Y-46849500D01*
X41705068Y-46849500D01*
X41639096Y-46830494D01*
X41549522Y-46774210D01*
X41549518Y-46774209D01*
X41379262Y-46714633D01*
X41379249Y-46714630D01*
X41200004Y-46694435D01*
X41199996Y-46694435D01*
X41020750Y-46714630D01*
X41020737Y-46714633D01*
X40850481Y-46774209D01*
X40850477Y-46774210D01*
X40760904Y-46830494D01*
X40694932Y-46849500D01*
X24974500Y-46849500D01*
X24907461Y-46829815D01*
X24861706Y-46777011D01*
X24850500Y-46725500D01*
X24850500Y-40831519D01*
X32319843Y-40831519D01*
X32319843Y-40831526D01*
X32340038Y-41010772D01*
X32340039Y-41010777D01*
X32399619Y-41181046D01*
X32411529Y-41200000D01*
X32461328Y-41279255D01*
X32495593Y-41333786D01*
X32497853Y-41336620D01*
X32498742Y-41338798D01*
X32499297Y-41339681D01*
X32499142Y-41339778D01*
X32524263Y-41401306D01*
X32524908Y-41413935D01*
X32524908Y-44238738D01*
X32524907Y-44238756D01*
X32524907Y-44404462D01*
X32524906Y-44404462D01*
X32524907Y-44404465D01*
X32565831Y-44557193D01*
X32572279Y-44568361D01*
X32582442Y-44585965D01*
X32598273Y-44634078D01*
X32614630Y-44779249D01*
X32674210Y-44949521D01*
X32737645Y-45050476D01*
X32770184Y-45102262D01*
X32897738Y-45229816D01*
X33050478Y-45325789D01*
X33177352Y-45370184D01*
X33220745Y-45385368D01*
X33220750Y-45385369D01*
X33399996Y-45405565D01*
X33400000Y-45405565D01*
X33400004Y-45405565D01*
X33579249Y-45385369D01*
X33579252Y-45385368D01*
X33579255Y-45385368D01*
X33749522Y-45325789D01*
X33902262Y-45229816D01*
X33932082Y-45199996D01*
X35894435Y-45199996D01*
X35894435Y-45200003D01*
X35914630Y-45379249D01*
X35914631Y-45379254D01*
X35974211Y-45549523D01*
X36037646Y-45650478D01*
X36070184Y-45702262D01*
X36197738Y-45829816D01*
X36350478Y-45925789D01*
X36520745Y-45985368D01*
X36520750Y-45985369D01*
X36699996Y-46005565D01*
X36700000Y-46005565D01*
X36700004Y-46005565D01*
X36879249Y-45985369D01*
X36879252Y-45985368D01*
X36879255Y-45985368D01*
X37049522Y-45925789D01*
X37202262Y-45829816D01*
X37329816Y-45702262D01*
X37425789Y-45549522D01*
X37478110Y-45399996D01*
X67894435Y-45399996D01*
X67894435Y-45400003D01*
X67914630Y-45579249D01*
X67914631Y-45579254D01*
X67974211Y-45749523D01*
X68024662Y-45829815D01*
X68070184Y-45902262D01*
X68197738Y-46029816D01*
X68350478Y-46125789D01*
X68500660Y-46178340D01*
X68520745Y-46185368D01*
X68520750Y-46185369D01*
X68699996Y-46205565D01*
X68700000Y-46205565D01*
X68700004Y-46205565D01*
X68879249Y-46185369D01*
X68879252Y-46185368D01*
X68879255Y-46185368D01*
X69049522Y-46125789D01*
X69202262Y-46029816D01*
X69329816Y-45902262D01*
X69420130Y-45758527D01*
X69472465Y-45712237D01*
X69525124Y-45700500D01*
X73957876Y-45700500D01*
X74019875Y-45717112D01*
X74093426Y-45759577D01*
X74205229Y-45789534D01*
X74246152Y-45800500D01*
X74246153Y-45800500D01*
X76368531Y-45800500D01*
X76435570Y-45820185D01*
X76456212Y-45836819D01*
X76983767Y-46364374D01*
X76983777Y-46364385D01*
X76988107Y-46368715D01*
X76988108Y-46368716D01*
X77099912Y-46480520D01*
X77186723Y-46530639D01*
X77186725Y-46530641D01*
X77224779Y-46552611D01*
X77236843Y-46559577D01*
X77389571Y-46600501D01*
X77389574Y-46600501D01*
X77555281Y-46600501D01*
X77555297Y-46600500D01*
X105317588Y-46600500D01*
X105384627Y-46620185D01*
X105394903Y-46627555D01*
X105397736Y-46629814D01*
X105397738Y-46629816D01*
X105511270Y-46701152D01*
X105532718Y-46714630D01*
X105550478Y-46725789D01*
X105688857Y-46774210D01*
X105720745Y-46785368D01*
X105720750Y-46785369D01*
X105899996Y-46805565D01*
X105900000Y-46805565D01*
X105900004Y-46805565D01*
X106079249Y-46785369D01*
X106079252Y-46785368D01*
X106079255Y-46785368D01*
X106249522Y-46725789D01*
X106402262Y-46629816D01*
X106529816Y-46502262D01*
X106625789Y-46349522D01*
X106685368Y-46179255D01*
X106691392Y-46125789D01*
X106705565Y-46000003D01*
X106705565Y-45999996D01*
X106685369Y-45820750D01*
X106685368Y-45820745D01*
X106660446Y-45749522D01*
X106625789Y-45650478D01*
X106529816Y-45497738D01*
X106402262Y-45370184D01*
X106331608Y-45325789D01*
X106249521Y-45274210D01*
X106232447Y-45268236D01*
X106175671Y-45227514D01*
X106149923Y-45162562D01*
X106163379Y-45094000D01*
X106185717Y-45063516D01*
X108118535Y-43130698D01*
X108179856Y-43097215D01*
X108192311Y-43095163D01*
X108279255Y-43085368D01*
X108449522Y-43025789D01*
X108602262Y-42929816D01*
X108729816Y-42802262D01*
X108757296Y-42758528D01*
X108757297Y-42758527D01*
X108809631Y-42712237D01*
X108862290Y-42700500D01*
X111774876Y-42700500D01*
X111841915Y-42720185D01*
X111879869Y-42758527D01*
X111970184Y-42902262D01*
X112097738Y-43029816D01*
X112250478Y-43125789D01*
X112403258Y-43179249D01*
X112420745Y-43185368D01*
X112420750Y-43185369D01*
X112599996Y-43205565D01*
X112600000Y-43205565D01*
X112600004Y-43205565D01*
X112779249Y-43185369D01*
X112779252Y-43185368D01*
X112779255Y-43185368D01*
X112949522Y-43125789D01*
X113102262Y-43029816D01*
X113229816Y-42902262D01*
X113325789Y-42749522D01*
X113385368Y-42579255D01*
X113405565Y-42400000D01*
X113405189Y-42396666D01*
X113385369Y-42220750D01*
X113385368Y-42220745D01*
X113325788Y-42050476D01*
X113236363Y-41908158D01*
X113229816Y-41897738D01*
X113102262Y-41770184D01*
X112953587Y-41676765D01*
X112949521Y-41674210D01*
X112801849Y-41622538D01*
X112779255Y-41614632D01*
X112779254Y-41614631D01*
X112779249Y-41614630D01*
X112657189Y-41600877D01*
X112609075Y-41585045D01*
X112561038Y-41557312D01*
X112561037Y-41557312D01*
X112547546Y-41549523D01*
X112531785Y-41540423D01*
X112531784Y-41540422D01*
X112531783Y-41540422D01*
X112475881Y-41525443D01*
X112379057Y-41499499D01*
X112220943Y-41499499D01*
X112213347Y-41499499D01*
X112213331Y-41499500D01*
X109048626Y-41499500D01*
X108981587Y-41479815D01*
X108960945Y-41463181D01*
X108836119Y-41338355D01*
X108836117Y-41338352D01*
X108717246Y-41219481D01*
X108717238Y-41219475D01*
X108628452Y-41168215D01*
X108628451Y-41168215D01*
X108580314Y-41140423D01*
X108427586Y-41099499D01*
X108269472Y-41099499D01*
X108261876Y-41099499D01*
X108261860Y-41099500D01*
X106938141Y-41099500D01*
X106938125Y-41099499D01*
X106930529Y-41099499D01*
X106772414Y-41099499D01*
X106696050Y-41119961D01*
X106619685Y-41140423D01*
X106619680Y-41140426D01*
X106482761Y-41219475D01*
X106482753Y-41219481D01*
X105339055Y-42363181D01*
X105277732Y-42396666D01*
X105251374Y-42399500D01*
X102316322Y-42399500D01*
X102249283Y-42379815D01*
X102203528Y-42327011D01*
X102193102Y-42289383D01*
X102185369Y-42220750D01*
X102185368Y-42220748D01*
X102185368Y-42220745D01*
X102125789Y-42050478D01*
X102029816Y-41897738D01*
X101902262Y-41770184D01*
X101833553Y-41727011D01*
X101749523Y-41674211D01*
X101579254Y-41614631D01*
X101579249Y-41614630D01*
X101400004Y-41594435D01*
X101399996Y-41594435D01*
X101220750Y-41614630D01*
X101220745Y-41614631D01*
X101050476Y-41674211D01*
X100897736Y-41770185D01*
X100894903Y-41772445D01*
X100892724Y-41773334D01*
X100891842Y-41773889D01*
X100891744Y-41773734D01*
X100830217Y-41798855D01*
X100817588Y-41799500D01*
X99493079Y-41799500D01*
X99426040Y-41779815D01*
X99380285Y-41727011D01*
X99370341Y-41657853D01*
X99388085Y-41609528D01*
X99425788Y-41549523D01*
X99425789Y-41549522D01*
X99485368Y-41379255D01*
X99489827Y-41339681D01*
X99505565Y-41200003D01*
X99505565Y-41199996D01*
X99485369Y-41020750D01*
X99485368Y-41020745D01*
X99442326Y-40897738D01*
X99425789Y-40850478D01*
X99403549Y-40815084D01*
X99362955Y-40750478D01*
X99329816Y-40697738D01*
X99202262Y-40570184D01*
X99099320Y-40505501D01*
X99049523Y-40474211D01*
X98879254Y-40414631D01*
X98879249Y-40414630D01*
X98700004Y-40394435D01*
X98699996Y-40394435D01*
X98520750Y-40414630D01*
X98520737Y-40414633D01*
X98350481Y-40474209D01*
X98350477Y-40474210D01*
X98260904Y-40530494D01*
X98194932Y-40549500D01*
X95105068Y-40549500D01*
X95039096Y-40530494D01*
X94949522Y-40474210D01*
X94949518Y-40474209D01*
X94779262Y-40414633D01*
X94779249Y-40414630D01*
X94600004Y-40394435D01*
X94599996Y-40394435D01*
X94420750Y-40414630D01*
X94420745Y-40414631D01*
X94250476Y-40474211D01*
X94097737Y-40570184D01*
X93970184Y-40697737D01*
X93874211Y-40850476D01*
X93814631Y-41020745D01*
X93814630Y-41020750D01*
X93794435Y-41199996D01*
X93794435Y-41200003D01*
X93814630Y-41379249D01*
X93814631Y-41379254D01*
X93874211Y-41549523D01*
X93911915Y-41609528D01*
X93930915Y-41676765D01*
X93910547Y-41743600D01*
X93857279Y-41788814D01*
X93806921Y-41799500D01*
X87982412Y-41799500D01*
X87915373Y-41779815D01*
X87905097Y-41772445D01*
X87902263Y-41770185D01*
X87902262Y-41770184D01*
X87794165Y-41702262D01*
X87749523Y-41674211D01*
X87579254Y-41614631D01*
X87579249Y-41614630D01*
X87400004Y-41594435D01*
X87399996Y-41594435D01*
X87220750Y-41614630D01*
X87220745Y-41614631D01*
X87050476Y-41674211D01*
X86897737Y-41770184D01*
X86770184Y-41897737D01*
X86674211Y-42050476D01*
X86614631Y-42220745D01*
X86614630Y-42220750D01*
X86594435Y-42399996D01*
X86594435Y-42400003D01*
X86614630Y-42579249D01*
X86614631Y-42579254D01*
X86674211Y-42749523D01*
X86770184Y-42902262D01*
X86897738Y-43029816D01*
X87050478Y-43125789D01*
X87203258Y-43179249D01*
X87220745Y-43185368D01*
X87220750Y-43185369D01*
X87399996Y-43205565D01*
X87400000Y-43205565D01*
X87400004Y-43205565D01*
X87579249Y-43185369D01*
X87579252Y-43185368D01*
X87579255Y-43185368D01*
X87749522Y-43125789D01*
X87902262Y-43029816D01*
X87902267Y-43029810D01*
X87905097Y-43027555D01*
X87907275Y-43026665D01*
X87908158Y-43026111D01*
X87908255Y-43026265D01*
X87969783Y-43001145D01*
X87982412Y-43000500D01*
X98283678Y-43000500D01*
X98350717Y-43020185D01*
X98396472Y-43072989D01*
X98406898Y-43110617D01*
X98414630Y-43179249D01*
X98474210Y-43349521D01*
X98474211Y-43349522D01*
X98570184Y-43502262D01*
X98697738Y-43629816D01*
X98788080Y-43686582D01*
X98832721Y-43714632D01*
X98850478Y-43725789D01*
X98988860Y-43774211D01*
X99020745Y-43785368D01*
X99020750Y-43785369D01*
X99199996Y-43805565D01*
X99200000Y-43805565D01*
X99200004Y-43805565D01*
X99379249Y-43785369D01*
X99379252Y-43785368D01*
X99379255Y-43785368D01*
X99549522Y-43725789D01*
X99702262Y-43629816D01*
X99702267Y-43629810D01*
X99705097Y-43627555D01*
X99707275Y-43626665D01*
X99708158Y-43626111D01*
X99708255Y-43626265D01*
X99769783Y-43601145D01*
X99782412Y-43600500D01*
X104650903Y-43600500D01*
X104717942Y-43620185D01*
X104763697Y-43672989D01*
X104773641Y-43742147D01*
X104744616Y-43805703D01*
X104738584Y-43812181D01*
X104187584Y-44363181D01*
X104126261Y-44396666D01*
X104099903Y-44399500D01*
X77900097Y-44399500D01*
X77833058Y-44379815D01*
X77812416Y-44363181D01*
X77436819Y-43987584D01*
X77403334Y-43926261D01*
X77400500Y-43899903D01*
X77400500Y-41682412D01*
X77420185Y-41615373D01*
X77427555Y-41605097D01*
X77429810Y-41602267D01*
X77429816Y-41602262D01*
X77525789Y-41449522D01*
X77585368Y-41279255D01*
X77591960Y-41220750D01*
X77605565Y-41100003D01*
X77605565Y-41099996D01*
X77585369Y-40920750D01*
X77585368Y-40920745D01*
X77578284Y-40900500D01*
X77525789Y-40750478D01*
X77429816Y-40597738D01*
X77302262Y-40470184D01*
X77278885Y-40455495D01*
X77149523Y-40374211D01*
X76979254Y-40314631D01*
X76979249Y-40314630D01*
X76800004Y-40294435D01*
X76799996Y-40294435D01*
X76620750Y-40314630D01*
X76620745Y-40314631D01*
X76450476Y-40374211D01*
X76297737Y-40470184D01*
X76170184Y-40597737D01*
X76074211Y-40750476D01*
X76014631Y-40920745D01*
X76014630Y-40920750D01*
X75994435Y-41099996D01*
X75994435Y-41100003D01*
X76014630Y-41279249D01*
X76014631Y-41279254D01*
X76074211Y-41449523D01*
X76170185Y-41602263D01*
X76172445Y-41605097D01*
X76173334Y-41607275D01*
X76173889Y-41608158D01*
X76173734Y-41608255D01*
X76198855Y-41669783D01*
X76199500Y-41682412D01*
X76199500Y-43875500D01*
X76179815Y-43942539D01*
X76127011Y-43988294D01*
X76075500Y-43999500D01*
X74282941Y-43999500D01*
X74215902Y-43979815D01*
X74195260Y-43963182D01*
X74158339Y-43926261D01*
X74102262Y-43870184D01*
X74009951Y-43812181D01*
X73949523Y-43774211D01*
X73779254Y-43714631D01*
X73779249Y-43714630D01*
X73600004Y-43694435D01*
X73599996Y-43694435D01*
X73420750Y-43714630D01*
X73420745Y-43714631D01*
X73250476Y-43774211D01*
X73097737Y-43870184D01*
X72970184Y-43997737D01*
X72874210Y-44150478D01*
X72814630Y-44320750D01*
X72806898Y-44389383D01*
X72779832Y-44453797D01*
X72722237Y-44493352D01*
X72683678Y-44499500D01*
X69079057Y-44499500D01*
X68920943Y-44499500D01*
X68768215Y-44540423D01*
X68739171Y-44557192D01*
X68716584Y-44570231D01*
X68690924Y-44585046D01*
X68642811Y-44600877D01*
X68520750Y-44614630D01*
X68350478Y-44674210D01*
X68197737Y-44770184D01*
X68070184Y-44897737D01*
X67974211Y-45050476D01*
X67914631Y-45220745D01*
X67914630Y-45220750D01*
X67894435Y-45399996D01*
X37478110Y-45399996D01*
X37485368Y-45379255D01*
X37491392Y-45325789D01*
X37505565Y-45200003D01*
X37505565Y-45199996D01*
X37485369Y-45020750D01*
X37485368Y-45020745D01*
X37442326Y-44897738D01*
X37425789Y-44850478D01*
X37329816Y-44697738D01*
X37329814Y-44697736D01*
X37329813Y-44697734D01*
X37327550Y-44694896D01*
X37326659Y-44692715D01*
X37326111Y-44691842D01*
X37326264Y-44691745D01*
X37301144Y-44630209D01*
X37300500Y-44617587D01*
X37300500Y-41962289D01*
X37320185Y-41895250D01*
X37358529Y-41857295D01*
X37402262Y-41829816D01*
X37529816Y-41702262D01*
X37625789Y-41549522D01*
X37685368Y-41379255D01*
X37689827Y-41339681D01*
X37705565Y-41200003D01*
X37705565Y-41199996D01*
X37685369Y-41020750D01*
X37685368Y-41020745D01*
X37642326Y-40897738D01*
X37625789Y-40850478D01*
X37603549Y-40815084D01*
X37562955Y-40750478D01*
X37529816Y-40697738D01*
X37402262Y-40570184D01*
X37299320Y-40505501D01*
X37249523Y-40474211D01*
X37079254Y-40414631D01*
X37079249Y-40414630D01*
X36900004Y-40394435D01*
X36899996Y-40394435D01*
X36720750Y-40414630D01*
X36720745Y-40414631D01*
X36550476Y-40474211D01*
X36397737Y-40570184D01*
X36270184Y-40697737D01*
X36174211Y-40850476D01*
X36114631Y-41020745D01*
X36114630Y-41020750D01*
X36094435Y-41199996D01*
X36094435Y-41200002D01*
X36102900Y-41275130D01*
X36100076Y-41312823D01*
X36100560Y-41312887D01*
X36099499Y-41320945D01*
X36099499Y-41489046D01*
X36099500Y-41489059D01*
X36099500Y-44617587D01*
X36079815Y-44684626D01*
X36072450Y-44694896D01*
X36070186Y-44697734D01*
X35974211Y-44850476D01*
X35914631Y-45020745D01*
X35914630Y-45020750D01*
X35894435Y-45199996D01*
X33932082Y-45199996D01*
X34029816Y-45102262D01*
X34125789Y-44949522D01*
X34185368Y-44779255D01*
X34197856Y-44668422D01*
X34205565Y-44600003D01*
X34205565Y-44599996D01*
X34185369Y-44420750D01*
X34185368Y-44420745D01*
X34125788Y-44250476D01*
X34029815Y-44097737D01*
X33902260Y-43970182D01*
X33783935Y-43895833D01*
X33737645Y-43843499D01*
X33725908Y-43790840D01*
X33725908Y-41413935D01*
X33745593Y-41346896D01*
X33752963Y-41336620D01*
X33755218Y-41333790D01*
X33755224Y-41333785D01*
X33851197Y-41181045D01*
X33910776Y-41010778D01*
X33920920Y-40920750D01*
X33930973Y-40831526D01*
X33930973Y-40831519D01*
X33910777Y-40652273D01*
X33910776Y-40652268D01*
X33884934Y-40578415D01*
X33851197Y-40482001D01*
X33755224Y-40329261D01*
X33627670Y-40201707D01*
X33474931Y-40105734D01*
X33304662Y-40046154D01*
X33304657Y-40046153D01*
X33125412Y-40025958D01*
X33125404Y-40025958D01*
X32946158Y-40046153D01*
X32946153Y-40046154D01*
X32775884Y-40105734D01*
X32623145Y-40201707D01*
X32495592Y-40329260D01*
X32399619Y-40481999D01*
X32340039Y-40652268D01*
X32340038Y-40652273D01*
X32319843Y-40831519D01*
X24850500Y-40831519D01*
X24850500Y-38774500D01*
X24870185Y-38707461D01*
X24922989Y-38661706D01*
X24974500Y-38650500D01*
X29978044Y-38650500D01*
X30045083Y-38670185D01*
X30090838Y-38722989D01*
X30101264Y-38760616D01*
X30114630Y-38879250D01*
X30114631Y-38879254D01*
X30174211Y-39049523D01*
X30270184Y-39202262D01*
X30397738Y-39329816D01*
X30460904Y-39369506D01*
X30546021Y-39422989D01*
X30550478Y-39425789D01*
X30635573Y-39455565D01*
X30720745Y-39485368D01*
X30720750Y-39485369D01*
X30899996Y-39505565D01*
X30900000Y-39505565D01*
X30900004Y-39505565D01*
X31079249Y-39485369D01*
X31079252Y-39485368D01*
X31079255Y-39485368D01*
X31249522Y-39425789D01*
X31402262Y-39329816D01*
X31402267Y-39329810D01*
X31405097Y-39327555D01*
X31407275Y-39326665D01*
X31408158Y-39326111D01*
X31408255Y-39326265D01*
X31469783Y-39301145D01*
X31482412Y-39300500D01*
X48494932Y-39300500D01*
X48560904Y-39319506D01*
X48650477Y-39375789D01*
X48650481Y-39375790D01*
X48820737Y-39435366D01*
X48820743Y-39435367D01*
X48820745Y-39435368D01*
X48820746Y-39435368D01*
X48820750Y-39435369D01*
X48999996Y-39455565D01*
X49000000Y-39455565D01*
X49000004Y-39455565D01*
X49179249Y-39435369D01*
X49179251Y-39435368D01*
X49179255Y-39435368D01*
X49179258Y-39435366D01*
X49179262Y-39435366D01*
X49281760Y-39399500D01*
X49349522Y-39375789D01*
X49439096Y-39319505D01*
X49505068Y-39300500D01*
X64517588Y-39300500D01*
X64584627Y-39320185D01*
X64594903Y-39327555D01*
X64597736Y-39329814D01*
X64597738Y-39329816D01*
X64674967Y-39378342D01*
X64746021Y-39422989D01*
X64750478Y-39425789D01*
X64835573Y-39455565D01*
X64920745Y-39485368D01*
X64920750Y-39485369D01*
X65099996Y-39505565D01*
X65100000Y-39505565D01*
X65100004Y-39505565D01*
X65279249Y-39485369D01*
X65279251Y-39485368D01*
X65279255Y-39485368D01*
X65279258Y-39485366D01*
X65279262Y-39485366D01*
X65369377Y-39453832D01*
X65449522Y-39425789D01*
X65539096Y-39369505D01*
X65605068Y-39350500D01*
X81694932Y-39350500D01*
X81760904Y-39369506D01*
X81850477Y-39425789D01*
X81850481Y-39425790D01*
X82020737Y-39485366D01*
X82020743Y-39485367D01*
X82020745Y-39485368D01*
X82020746Y-39485368D01*
X82020750Y-39485369D01*
X82199996Y-39505565D01*
X82200000Y-39505565D01*
X82200004Y-39505565D01*
X82379249Y-39485369D01*
X82379251Y-39485368D01*
X82379255Y-39485368D01*
X82379258Y-39485366D01*
X82379262Y-39485366D01*
X82469377Y-39453832D01*
X82549522Y-39425789D01*
X82639096Y-39369505D01*
X82705068Y-39350500D01*
X110188770Y-39350500D01*
X110255809Y-39370185D01*
X110301564Y-39422989D01*
X110311508Y-39492147D01*
X110282483Y-39555703D01*
X110276451Y-39562181D01*
X110217051Y-39621580D01*
X110217048Y-39621584D01*
X110134919Y-39744498D01*
X110134912Y-39744511D01*
X110078343Y-39881082D01*
X110078340Y-39881092D01*
X110049500Y-40026079D01*
X110049500Y-40026082D01*
X110049500Y-40173918D01*
X110049500Y-40173920D01*
X110049499Y-40173920D01*
X110078340Y-40318907D01*
X110078343Y-40318917D01*
X110134912Y-40455488D01*
X110134919Y-40455501D01*
X110217048Y-40578415D01*
X110217051Y-40578419D01*
X110321580Y-40682948D01*
X110321584Y-40682951D01*
X110444498Y-40765080D01*
X110444511Y-40765087D01*
X110565206Y-40815080D01*
X110581087Y-40821658D01*
X110581091Y-40821658D01*
X110581092Y-40821659D01*
X110726079Y-40850500D01*
X110726082Y-40850500D01*
X110873920Y-40850500D01*
X110971462Y-40831096D01*
X111018913Y-40821658D01*
X111155495Y-40765084D01*
X111278416Y-40682951D01*
X111382951Y-40578416D01*
X111465084Y-40455495D01*
X111521658Y-40318913D01*
X111540554Y-40223920D01*
X117449499Y-40223920D01*
X117478340Y-40368907D01*
X117478343Y-40368917D01*
X117534912Y-40505488D01*
X117534919Y-40505501D01*
X117617048Y-40628415D01*
X117617051Y-40628419D01*
X117721580Y-40732948D01*
X117721584Y-40732951D01*
X117844498Y-40815080D01*
X117844511Y-40815087D01*
X117947510Y-40857750D01*
X117981087Y-40871658D01*
X117981091Y-40871658D01*
X117981092Y-40871659D01*
X118126079Y-40900500D01*
X118126082Y-40900500D01*
X118273920Y-40900500D01*
X118371462Y-40881096D01*
X118418913Y-40871658D01*
X118555495Y-40815084D01*
X118678416Y-40732951D01*
X118782951Y-40628416D01*
X118865084Y-40505495D01*
X118921658Y-40368913D01*
X118950500Y-40223918D01*
X118950500Y-40076082D01*
X118950500Y-40076079D01*
X118921659Y-39931092D01*
X118921658Y-39931091D01*
X118921658Y-39931087D01*
X118921656Y-39931082D01*
X118865087Y-39794511D01*
X118865080Y-39794498D01*
X118782951Y-39671584D01*
X118782948Y-39671580D01*
X118678419Y-39567051D01*
X118678415Y-39567048D01*
X118555501Y-39484919D01*
X118555488Y-39484912D01*
X118418917Y-39428343D01*
X118418907Y-39428340D01*
X118273920Y-39399500D01*
X118273918Y-39399500D01*
X118126082Y-39399500D01*
X118126080Y-39399500D01*
X117981092Y-39428340D01*
X117981082Y-39428343D01*
X117844511Y-39484912D01*
X117844498Y-39484919D01*
X117721584Y-39567048D01*
X117721580Y-39567051D01*
X117617051Y-39671580D01*
X117617048Y-39671584D01*
X117534919Y-39794498D01*
X117534912Y-39794511D01*
X117478343Y-39931082D01*
X117478340Y-39931092D01*
X117449500Y-40076079D01*
X117449500Y-40076082D01*
X117449500Y-40223918D01*
X117449500Y-40223920D01*
X117449499Y-40223920D01*
X111540554Y-40223920D01*
X111540554Y-40223918D01*
X111550500Y-40173920D01*
X111550500Y-40026079D01*
X111521659Y-39881092D01*
X111521658Y-39881091D01*
X111521658Y-39881087D01*
X111485792Y-39794498D01*
X111465087Y-39744511D01*
X111465080Y-39744498D01*
X111382951Y-39621584D01*
X111382948Y-39621580D01*
X111323549Y-39562181D01*
X111290064Y-39500858D01*
X111295048Y-39431166D01*
X111336920Y-39375233D01*
X111402384Y-39350816D01*
X111411230Y-39350500D01*
X112794932Y-39350500D01*
X112860904Y-39369506D01*
X112950477Y-39425789D01*
X112950481Y-39425790D01*
X113120737Y-39485366D01*
X113120743Y-39485367D01*
X113120745Y-39485368D01*
X113120746Y-39485368D01*
X113120750Y-39485369D01*
X113299996Y-39505565D01*
X113300000Y-39505565D01*
X113300004Y-39505565D01*
X113479249Y-39485369D01*
X113479252Y-39485368D01*
X113479255Y-39485368D01*
X113649522Y-39425789D01*
X113802262Y-39329816D01*
X113929816Y-39202262D01*
X114025789Y-39049522D01*
X114085368Y-38879255D01*
X114097171Y-38774500D01*
X114105565Y-38700003D01*
X114105565Y-38699996D01*
X114085369Y-38520750D01*
X114085368Y-38520745D01*
X114025788Y-38350476D01*
X113929815Y-38197737D01*
X113802262Y-38070184D01*
X113649523Y-37974211D01*
X113479254Y-37914631D01*
X113479249Y-37914630D01*
X113300004Y-37894435D01*
X113299996Y-37894435D01*
X113120750Y-37914630D01*
X113120737Y-37914633D01*
X112950481Y-37974209D01*
X112950477Y-37974210D01*
X112860904Y-38030494D01*
X112794932Y-38049500D01*
X111500624Y-38049500D01*
X111433585Y-38029815D01*
X111387830Y-37977011D01*
X111377886Y-37907853D01*
X111397522Y-37856609D01*
X111465080Y-37755501D01*
X111465080Y-37755500D01*
X111465084Y-37755495D01*
X111521658Y-37618913D01*
X111545762Y-37497737D01*
X111550500Y-37473920D01*
X117449499Y-37473920D01*
X117478340Y-37618907D01*
X117478343Y-37618917D01*
X117534912Y-37755488D01*
X117534919Y-37755501D01*
X117617048Y-37878415D01*
X117617051Y-37878419D01*
X117721580Y-37982948D01*
X117721584Y-37982951D01*
X117844498Y-38065080D01*
X117844511Y-38065087D01*
X117981082Y-38121656D01*
X117981087Y-38121658D01*
X117981091Y-38121658D01*
X117981092Y-38121659D01*
X118126079Y-38150500D01*
X118126082Y-38150500D01*
X118273920Y-38150500D01*
X118371462Y-38131096D01*
X118418913Y-38121658D01*
X118524547Y-38077902D01*
X118555488Y-38065087D01*
X118555488Y-38065086D01*
X118555495Y-38065084D01*
X118678416Y-37982951D01*
X118782951Y-37878416D01*
X118865084Y-37755495D01*
X118921658Y-37618913D01*
X118945762Y-37497737D01*
X118950500Y-37473920D01*
X118950500Y-37326079D01*
X118921659Y-37181092D01*
X118921658Y-37181091D01*
X118921658Y-37181087D01*
X118875113Y-37068716D01*
X118865087Y-37044511D01*
X118865080Y-37044498D01*
X118782951Y-36921584D01*
X118782948Y-36921580D01*
X118678419Y-36817051D01*
X118678415Y-36817048D01*
X118555501Y-36734919D01*
X118555488Y-36734912D01*
X118418917Y-36678343D01*
X118418907Y-36678340D01*
X118273920Y-36649500D01*
X118273918Y-36649500D01*
X118126082Y-36649500D01*
X118126080Y-36649500D01*
X117981092Y-36678340D01*
X117981082Y-36678343D01*
X117844511Y-36734912D01*
X117844498Y-36734919D01*
X117721584Y-36817048D01*
X117721580Y-36817051D01*
X117617051Y-36921580D01*
X117617048Y-36921584D01*
X117534919Y-37044498D01*
X117534912Y-37044511D01*
X117478343Y-37181082D01*
X117478340Y-37181092D01*
X117449500Y-37326079D01*
X117449500Y-37326082D01*
X117449500Y-37473918D01*
X117449500Y-37473920D01*
X117449499Y-37473920D01*
X111550500Y-37473920D01*
X111550500Y-37326079D01*
X111521659Y-37181092D01*
X111521658Y-37181091D01*
X111521658Y-37181087D01*
X111475113Y-37068716D01*
X111465087Y-37044511D01*
X111465080Y-37044498D01*
X111382951Y-36921584D01*
X111382948Y-36921580D01*
X111278419Y-36817051D01*
X111278415Y-36817048D01*
X111155501Y-36734919D01*
X111155488Y-36734912D01*
X111018917Y-36678343D01*
X111018907Y-36678340D01*
X110873920Y-36649500D01*
X110873918Y-36649500D01*
X110726082Y-36649500D01*
X110726080Y-36649500D01*
X110581092Y-36678340D01*
X110581082Y-36678343D01*
X110444511Y-36734912D01*
X110444498Y-36734919D01*
X110321584Y-36817048D01*
X110321580Y-36817051D01*
X110217051Y-36921580D01*
X110217048Y-36921584D01*
X110134919Y-37044498D01*
X110134912Y-37044511D01*
X110078343Y-37181082D01*
X110078340Y-37181092D01*
X110049500Y-37326079D01*
X110049500Y-37326082D01*
X110049500Y-37473918D01*
X110049500Y-37473920D01*
X110049499Y-37473920D01*
X110078340Y-37618907D01*
X110078343Y-37618917D01*
X110134912Y-37755488D01*
X110134919Y-37755501D01*
X110202478Y-37856609D01*
X110223356Y-37923286D01*
X110204872Y-37990667D01*
X110152893Y-38037357D01*
X110099376Y-38049500D01*
X99181940Y-38049500D01*
X99114901Y-38029815D01*
X99069146Y-37977011D01*
X99059202Y-37907853D01*
X99088227Y-37844297D01*
X99094259Y-37837819D01*
X99111333Y-37820745D01*
X99129816Y-37802262D01*
X99225789Y-37649522D01*
X99285368Y-37479255D01*
X99293101Y-37410616D01*
X99320166Y-37346204D01*
X99377760Y-37306648D01*
X99416321Y-37300500D01*
X107713331Y-37300500D01*
X107713347Y-37300501D01*
X107720943Y-37300501D01*
X107879054Y-37300501D01*
X107879057Y-37300501D01*
X108031785Y-37259577D01*
X108081904Y-37230639D01*
X108168716Y-37180520D01*
X108280520Y-37068716D01*
X108280520Y-37068714D01*
X108290728Y-37058507D01*
X108290730Y-37058504D01*
X109818535Y-35530698D01*
X109879856Y-35497215D01*
X109892311Y-35495163D01*
X109979255Y-35485368D01*
X110149522Y-35425789D01*
X110302262Y-35329816D01*
X110429816Y-35202262D01*
X110525789Y-35049522D01*
X110585368Y-34879255D01*
X110592796Y-34813330D01*
X110605565Y-34700003D01*
X110605565Y-34699996D01*
X110585369Y-34520750D01*
X110585368Y-34520745D01*
X110565717Y-34464586D01*
X110525789Y-34350478D01*
X110429816Y-34197738D01*
X110302262Y-34070184D01*
X110271134Y-34050625D01*
X110149523Y-33974211D01*
X109979254Y-33914631D01*
X109979249Y-33914630D01*
X109800004Y-33894435D01*
X109799996Y-33894435D01*
X109620750Y-33914630D01*
X109620745Y-33914631D01*
X109450476Y-33974211D01*
X109297737Y-34070184D01*
X109170184Y-34197737D01*
X109074210Y-34350478D01*
X109014630Y-34520750D01*
X109004837Y-34607668D01*
X108977770Y-34672082D01*
X108969298Y-34681465D01*
X107587584Y-36063181D01*
X107526261Y-36096666D01*
X107499903Y-36099500D01*
X106916322Y-36099500D01*
X106849283Y-36079815D01*
X106803528Y-36027011D01*
X106793102Y-35989383D01*
X106785369Y-35920750D01*
X106785368Y-35920748D01*
X106785368Y-35920745D01*
X106725789Y-35750478D01*
X106629816Y-35597738D01*
X106502262Y-35470184D01*
X106502260Y-35470182D01*
X106435427Y-35428188D01*
X106389137Y-35375853D01*
X106378489Y-35306800D01*
X106406864Y-35242952D01*
X106413707Y-35235526D01*
X106758506Y-34890728D01*
X106758511Y-34890724D01*
X106768714Y-34880520D01*
X106768716Y-34880520D01*
X106880520Y-34768716D01*
X106943531Y-34659577D01*
X106959577Y-34631785D01*
X107000500Y-34479058D01*
X107000500Y-34320943D01*
X107000500Y-33420943D01*
X106994754Y-33399500D01*
X106959577Y-33268215D01*
X106920482Y-33200501D01*
X106880520Y-33131284D01*
X106768716Y-33019480D01*
X106768715Y-33019479D01*
X106764385Y-33015149D01*
X106764374Y-33015139D01*
X106630700Y-32881465D01*
X106597215Y-32820142D01*
X106595163Y-32807686D01*
X106585368Y-32720745D01*
X106525789Y-32550478D01*
X106429816Y-32397738D01*
X106302262Y-32270184D01*
X106229321Y-32224352D01*
X106149523Y-32174211D01*
X105979254Y-32114631D01*
X105979249Y-32114630D01*
X105800004Y-32094435D01*
X105799996Y-32094435D01*
X105620750Y-32114630D01*
X105620745Y-32114631D01*
X105450476Y-32174211D01*
X105297737Y-32270184D01*
X105170184Y-32397737D01*
X105074211Y-32550476D01*
X105014631Y-32720745D01*
X105014630Y-32720750D01*
X104994435Y-32899996D01*
X104994435Y-32900003D01*
X105014630Y-33079249D01*
X105014631Y-33079254D01*
X105074211Y-33249523D01*
X105158727Y-33384028D01*
X105177727Y-33451264D01*
X105158727Y-33515972D01*
X105074211Y-33650476D01*
X105014631Y-33820745D01*
X105014630Y-33820750D01*
X104994435Y-33999996D01*
X104994435Y-34004967D01*
X104974750Y-34072006D01*
X104958116Y-34092648D01*
X104487584Y-34563181D01*
X104426261Y-34596666D01*
X104399903Y-34599500D01*
X78300097Y-34599500D01*
X78233058Y-34579815D01*
X78212416Y-34563181D01*
X77236819Y-33587584D01*
X77203334Y-33526261D01*
X77200500Y-33499903D01*
X77200500Y-32182412D01*
X77220185Y-32115373D01*
X77227555Y-32105097D01*
X77229810Y-32102267D01*
X77229816Y-32102262D01*
X77325789Y-31949522D01*
X77385368Y-31779255D01*
X77385369Y-31779249D01*
X77405565Y-31600003D01*
X77405565Y-31599996D01*
X77385369Y-31420750D01*
X77385368Y-31420745D01*
X77325789Y-31250478D01*
X77229816Y-31097738D01*
X77102262Y-30970184D01*
X77078885Y-30955495D01*
X76949523Y-30874211D01*
X76779254Y-30814631D01*
X76779249Y-30814630D01*
X76600004Y-30794435D01*
X76599996Y-30794435D01*
X76420750Y-30814630D01*
X76420745Y-30814631D01*
X76250476Y-30874211D01*
X76097737Y-30970184D01*
X75970184Y-31097737D01*
X75874211Y-31250476D01*
X75814631Y-31420745D01*
X75814630Y-31420750D01*
X75794435Y-31599996D01*
X75794435Y-31600003D01*
X75814630Y-31779249D01*
X75814631Y-31779254D01*
X75874211Y-31949523D01*
X75915122Y-32014632D01*
X75952558Y-32074211D01*
X75970185Y-32102263D01*
X75972445Y-32105097D01*
X75973334Y-32107275D01*
X75973889Y-32108158D01*
X75973734Y-32108255D01*
X75998855Y-32169783D01*
X75999500Y-32182412D01*
X75999500Y-33713330D01*
X75999499Y-33713348D01*
X75999499Y-33879054D01*
X75999498Y-33879054D01*
X76035827Y-34014631D01*
X76040423Y-34031785D01*
X76050651Y-34049500D01*
X76050653Y-34049503D01*
X76050652Y-34049503D01*
X76087601Y-34113501D01*
X76104074Y-34181401D01*
X76081221Y-34247428D01*
X76026300Y-34290618D01*
X75980214Y-34299500D01*
X74182412Y-34299500D01*
X74115373Y-34279815D01*
X74105097Y-34272445D01*
X74102263Y-34270185D01*
X74102262Y-34270184D01*
X74044808Y-34234083D01*
X73949523Y-34174211D01*
X73779254Y-34114631D01*
X73779249Y-34114630D01*
X73600004Y-34094435D01*
X73599996Y-34094435D01*
X73420750Y-34114630D01*
X73420745Y-34114631D01*
X73250476Y-34174211D01*
X73097737Y-34270184D01*
X72970182Y-34397739D01*
X72908327Y-34496181D01*
X72855992Y-34542471D01*
X72786939Y-34553119D01*
X72723091Y-34524744D01*
X72715653Y-34517889D01*
X72636119Y-34438355D01*
X72636117Y-34438352D01*
X72517246Y-34319481D01*
X72517238Y-34319475D01*
X72415465Y-34260717D01*
X72415463Y-34260716D01*
X72380319Y-34240425D01*
X72380318Y-34240424D01*
X72356653Y-34234083D01*
X72227586Y-34199499D01*
X72069472Y-34199499D01*
X72061876Y-34199499D01*
X72061860Y-34199500D01*
X69182412Y-34199500D01*
X69115373Y-34179815D01*
X69105097Y-34172445D01*
X69102263Y-34170185D01*
X69102262Y-34170184D01*
X69013850Y-34114631D01*
X68949523Y-34074211D01*
X68779254Y-34014631D01*
X68779249Y-34014630D01*
X68600004Y-33994435D01*
X68599996Y-33994435D01*
X68420750Y-34014630D01*
X68420745Y-34014631D01*
X68250476Y-34074211D01*
X68097737Y-34170184D01*
X67970184Y-34297737D01*
X67874211Y-34450476D01*
X67814631Y-34620745D01*
X67814630Y-34620750D01*
X67794435Y-34799996D01*
X67794435Y-34800003D01*
X67814630Y-34979249D01*
X67814631Y-34979254D01*
X67874211Y-35149523D01*
X67949106Y-35268717D01*
X67970184Y-35302262D01*
X68097738Y-35429816D01*
X68161980Y-35470182D01*
X68242450Y-35520745D01*
X68250478Y-35525789D01*
X68420745Y-35585368D01*
X68420750Y-35585369D01*
X68599996Y-35605565D01*
X68600000Y-35605565D01*
X68600004Y-35605565D01*
X68779249Y-35585369D01*
X68779252Y-35585368D01*
X68779255Y-35585368D01*
X68949522Y-35525789D01*
X69102262Y-35429816D01*
X69102267Y-35429810D01*
X69105097Y-35427555D01*
X69107275Y-35426665D01*
X69108158Y-35426111D01*
X69108255Y-35426265D01*
X69169783Y-35401145D01*
X69182412Y-35400500D01*
X71848432Y-35400500D01*
X71915471Y-35420185D01*
X71936113Y-35436819D01*
X72363668Y-35864374D01*
X72363678Y-35864385D01*
X72368008Y-35868715D01*
X72368009Y-35868716D01*
X72479813Y-35980520D01*
X72479815Y-35980521D01*
X72479819Y-35980524D01*
X72574285Y-36035063D01*
X72616745Y-36059577D01*
X72728548Y-36089534D01*
X72769471Y-36100500D01*
X72769472Y-36100500D01*
X76868531Y-36100500D01*
X76935570Y-36120185D01*
X76956211Y-36136818D01*
X77299912Y-36480520D01*
X77299914Y-36480521D01*
X77299918Y-36480524D01*
X77436837Y-36559573D01*
X77436844Y-36559577D01*
X77589571Y-36600501D01*
X77589573Y-36600501D01*
X77755282Y-36600501D01*
X77755298Y-36600500D01*
X91468060Y-36600500D01*
X91535099Y-36620185D01*
X91580854Y-36672989D01*
X91590798Y-36742147D01*
X91561773Y-36805703D01*
X91555741Y-36812181D01*
X91470184Y-36897737D01*
X91374211Y-37050476D01*
X91314631Y-37220745D01*
X91314630Y-37220750D01*
X91294435Y-37399996D01*
X91294435Y-37400003D01*
X91314630Y-37579249D01*
X91314631Y-37579254D01*
X91374211Y-37749524D01*
X91443332Y-37859527D01*
X91462333Y-37926764D01*
X91441966Y-37993599D01*
X91388698Y-38038814D01*
X91338339Y-38049500D01*
X82705068Y-38049500D01*
X82639096Y-38030494D01*
X82549522Y-37974210D01*
X82549518Y-37974209D01*
X82379262Y-37914633D01*
X82379249Y-37914630D01*
X82200004Y-37894435D01*
X82199996Y-37894435D01*
X82020750Y-37914630D01*
X82020737Y-37914633D01*
X81850481Y-37974209D01*
X81850477Y-37974210D01*
X81760904Y-38030494D01*
X81694932Y-38049500D01*
X75221956Y-38049500D01*
X75154917Y-38029815D01*
X75109162Y-37977011D01*
X75098736Y-37939384D01*
X75085369Y-37820749D01*
X75085368Y-37820745D01*
X75025789Y-37650478D01*
X75025188Y-37649522D01*
X74929815Y-37497737D01*
X74802262Y-37370184D01*
X74649523Y-37274211D01*
X74479254Y-37214631D01*
X74479249Y-37214630D01*
X74300004Y-37194435D01*
X74299996Y-37194435D01*
X74120750Y-37214630D01*
X74120737Y-37214633D01*
X73950481Y-37274209D01*
X73950477Y-37274210D01*
X73860904Y-37330494D01*
X73794932Y-37349500D01*
X57805068Y-37349500D01*
X57739096Y-37330494D01*
X57649522Y-37274210D01*
X57649518Y-37274209D01*
X57479262Y-37214633D01*
X57479249Y-37214630D01*
X57300004Y-37194435D01*
X57299996Y-37194435D01*
X57120750Y-37214630D01*
X57120737Y-37214633D01*
X56950481Y-37274209D01*
X56950477Y-37274210D01*
X56860904Y-37330494D01*
X56794932Y-37349500D01*
X41705068Y-37349500D01*
X41639096Y-37330494D01*
X41549522Y-37274210D01*
X41549518Y-37274209D01*
X41379262Y-37214633D01*
X41379249Y-37214630D01*
X41200004Y-37194435D01*
X41199996Y-37194435D01*
X41020750Y-37214630D01*
X41020737Y-37214633D01*
X40850481Y-37274209D01*
X40850477Y-37274210D01*
X40760904Y-37330494D01*
X40694932Y-37349500D01*
X24974500Y-37349500D01*
X24907461Y-37329815D01*
X24861706Y-37277011D01*
X24850500Y-37225500D01*
X24850500Y-31299996D01*
X32194435Y-31299996D01*
X32194435Y-31300003D01*
X32214630Y-31479249D01*
X32214631Y-31479254D01*
X32274211Y-31649523D01*
X32324662Y-31729815D01*
X32365179Y-31794297D01*
X32370185Y-31802263D01*
X32372445Y-31805097D01*
X32373334Y-31807275D01*
X32373889Y-31808158D01*
X32373734Y-31808255D01*
X32398855Y-31869783D01*
X32399500Y-31882412D01*
X32399500Y-34613330D01*
X32399499Y-34613348D01*
X32399499Y-34779054D01*
X32399498Y-34779054D01*
X32440423Y-34931785D01*
X32454876Y-34956818D01*
X32519477Y-35068712D01*
X32519481Y-35068717D01*
X32569298Y-35118534D01*
X32602783Y-35179857D01*
X32604837Y-35192331D01*
X32614630Y-35279249D01*
X32674210Y-35449521D01*
X32750789Y-35571395D01*
X32770184Y-35602262D01*
X32897738Y-35729816D01*
X33050478Y-35825789D01*
X33188349Y-35874032D01*
X33220745Y-35885368D01*
X33220750Y-35885369D01*
X33399996Y-35905565D01*
X33400000Y-35905565D01*
X33400004Y-35905565D01*
X33579249Y-35885369D01*
X33579252Y-35885368D01*
X33579255Y-35885368D01*
X33749522Y-35825789D01*
X33902262Y-35729816D01*
X33932082Y-35699996D01*
X35894435Y-35699996D01*
X35894435Y-35700003D01*
X35914630Y-35879249D01*
X35914631Y-35879254D01*
X35974211Y-36049523D01*
X36029063Y-36136819D01*
X36070184Y-36202262D01*
X36197738Y-36329816D01*
X36350478Y-36425789D01*
X36506890Y-36480520D01*
X36520745Y-36485368D01*
X36520750Y-36485369D01*
X36699996Y-36505565D01*
X36700000Y-36505565D01*
X36700004Y-36505565D01*
X36879249Y-36485369D01*
X36879252Y-36485368D01*
X36879255Y-36485368D01*
X37049522Y-36425789D01*
X37202262Y-36329816D01*
X37329816Y-36202262D01*
X37425789Y-36049522D01*
X37485368Y-35879255D01*
X37495161Y-35792329D01*
X37522226Y-35727918D01*
X37530690Y-35718543D01*
X37858506Y-35390728D01*
X37858511Y-35390724D01*
X37868714Y-35380520D01*
X37868716Y-35380520D01*
X37980520Y-35268716D01*
X38032284Y-35179057D01*
X38059577Y-35131785D01*
X38100501Y-34979057D01*
X38100501Y-34820943D01*
X38100501Y-34813348D01*
X38100500Y-34813330D01*
X38100500Y-32482412D01*
X38120185Y-32415373D01*
X38127555Y-32405097D01*
X38129810Y-32402267D01*
X38129816Y-32402262D01*
X38225789Y-32249522D01*
X38285368Y-32079255D01*
X38285369Y-32079249D01*
X38305565Y-31900003D01*
X38305565Y-31899996D01*
X38285369Y-31720750D01*
X38285368Y-31720745D01*
X38280791Y-31707666D01*
X38225789Y-31550478D01*
X38225188Y-31549522D01*
X38146400Y-31424131D01*
X38129816Y-31397738D01*
X38002262Y-31270184D01*
X37890570Y-31200003D01*
X37849523Y-31174211D01*
X37679254Y-31114631D01*
X37679249Y-31114630D01*
X37500004Y-31094435D01*
X37499996Y-31094435D01*
X37320750Y-31114630D01*
X37320745Y-31114631D01*
X37150476Y-31174211D01*
X36997737Y-31270184D01*
X36870184Y-31397737D01*
X36774211Y-31550476D01*
X36714631Y-31720745D01*
X36714630Y-31720750D01*
X36694435Y-31899996D01*
X36694435Y-31900003D01*
X36714630Y-32079249D01*
X36714631Y-32079254D01*
X36774211Y-32249523D01*
X36809214Y-32305229D01*
X36867341Y-32397738D01*
X36870185Y-32402263D01*
X36872445Y-32405097D01*
X36873334Y-32407275D01*
X36873889Y-32408158D01*
X36873734Y-32408255D01*
X36898855Y-32469783D01*
X36899500Y-32482412D01*
X36899500Y-34599902D01*
X36879815Y-34666941D01*
X36863181Y-34687583D01*
X36681465Y-34869298D01*
X36620142Y-34902783D01*
X36607668Y-34904837D01*
X36520750Y-34914630D01*
X36350478Y-34974210D01*
X36197737Y-35070184D01*
X36070184Y-35197737D01*
X35974211Y-35350476D01*
X35914631Y-35520745D01*
X35914630Y-35520750D01*
X35894435Y-35699996D01*
X33932082Y-35699996D01*
X34029816Y-35602262D01*
X34125789Y-35449522D01*
X34185368Y-35279255D01*
X34185369Y-35279249D01*
X34205565Y-35100003D01*
X34205565Y-35099996D01*
X34185369Y-34920750D01*
X34185368Y-34920745D01*
X34147782Y-34813330D01*
X34125789Y-34750478D01*
X34029816Y-34597738D01*
X33902262Y-34470184D01*
X33870897Y-34450476D01*
X33749524Y-34374212D01*
X33749523Y-34374211D01*
X33683544Y-34351124D01*
X33626769Y-34310402D01*
X33601022Y-34245449D01*
X33600500Y-34234083D01*
X33600500Y-31882412D01*
X33620185Y-31815373D01*
X33627555Y-31805097D01*
X33629810Y-31802267D01*
X33629816Y-31802262D01*
X33725789Y-31649522D01*
X33785368Y-31479255D01*
X33785369Y-31479249D01*
X33805565Y-31300003D01*
X33805565Y-31299996D01*
X33785369Y-31120750D01*
X33785368Y-31120745D01*
X33778108Y-31099996D01*
X33725789Y-30950478D01*
X33725174Y-30949500D01*
X33650985Y-30831429D01*
X33629816Y-30797738D01*
X33502262Y-30670184D01*
X33443673Y-30633370D01*
X33349523Y-30574211D01*
X33179254Y-30514631D01*
X33179249Y-30514630D01*
X33000004Y-30494435D01*
X32999996Y-30494435D01*
X32820750Y-30514630D01*
X32820745Y-30514631D01*
X32650476Y-30574211D01*
X32497737Y-30670184D01*
X32370184Y-30797737D01*
X32274211Y-30950476D01*
X32214631Y-31120745D01*
X32214630Y-31120750D01*
X32194435Y-31299996D01*
X24850500Y-31299996D01*
X24850500Y-29174500D01*
X24870185Y-29107461D01*
X24922989Y-29061706D01*
X24974500Y-29050500D01*
X29978044Y-29050500D01*
X30045083Y-29070185D01*
X30090838Y-29122989D01*
X30101264Y-29160616D01*
X30114630Y-29279250D01*
X30114631Y-29279254D01*
X30174211Y-29449523D01*
X30259569Y-29585368D01*
X30270184Y-29602262D01*
X30397738Y-29729816D01*
X30550478Y-29825789D01*
X30700660Y-29878340D01*
X30720745Y-29885368D01*
X30720750Y-29885369D01*
X30899996Y-29905565D01*
X30900000Y-29905565D01*
X30900004Y-29905565D01*
X31079249Y-29885369D01*
X31079251Y-29885368D01*
X31079255Y-29885368D01*
X31079258Y-29885366D01*
X31079262Y-29885366D01*
X31181760Y-29849500D01*
X31249522Y-29825789D01*
X31339096Y-29769505D01*
X31405068Y-29750500D01*
X48494932Y-29750500D01*
X48560904Y-29769506D01*
X48650477Y-29825789D01*
X48650481Y-29825790D01*
X48820737Y-29885366D01*
X48820743Y-29885367D01*
X48820745Y-29885368D01*
X48820746Y-29885368D01*
X48820750Y-29885369D01*
X48999996Y-29905565D01*
X49000000Y-29905565D01*
X49000004Y-29905565D01*
X49179249Y-29885369D01*
X49179251Y-29885368D01*
X49179255Y-29885368D01*
X49179258Y-29885366D01*
X49179262Y-29885366D01*
X49281760Y-29849500D01*
X49349522Y-29825789D01*
X49439096Y-29769505D01*
X49505068Y-29750500D01*
X64594932Y-29750500D01*
X64660904Y-29769506D01*
X64750477Y-29825789D01*
X64750481Y-29825790D01*
X64920737Y-29885366D01*
X64920743Y-29885367D01*
X64920745Y-29885368D01*
X64920746Y-29885368D01*
X64920750Y-29885369D01*
X65099996Y-29905565D01*
X65100000Y-29905565D01*
X65100004Y-29905565D01*
X65279249Y-29885369D01*
X65279251Y-29885368D01*
X65279255Y-29885368D01*
X65279258Y-29885366D01*
X65279262Y-29885366D01*
X65381760Y-29849500D01*
X65449522Y-29825789D01*
X65539096Y-29769505D01*
X65605068Y-29750500D01*
X81794932Y-29750500D01*
X81860904Y-29769506D01*
X81950477Y-29825789D01*
X81950481Y-29825790D01*
X82120737Y-29885366D01*
X82120743Y-29885367D01*
X82120745Y-29885368D01*
X82120746Y-29885368D01*
X82120750Y-29885369D01*
X82299996Y-29905565D01*
X82300000Y-29905565D01*
X82300004Y-29905565D01*
X82479249Y-29885369D01*
X82479252Y-29885368D01*
X82479255Y-29885368D01*
X82649522Y-29825789D01*
X82802262Y-29729816D01*
X82929816Y-29602262D01*
X83025789Y-29449522D01*
X83085368Y-29279255D01*
X83086182Y-29272025D01*
X83113245Y-29207611D01*
X83121712Y-29198233D01*
X83233128Y-29086818D01*
X83294451Y-29053334D01*
X83320808Y-29050500D01*
X94309081Y-29050500D01*
X94376120Y-29070185D01*
X94421875Y-29122989D01*
X94431819Y-29192147D01*
X94416469Y-29236499D01*
X94384108Y-29292551D01*
X94384107Y-29292553D01*
X94340423Y-29368214D01*
X94326781Y-29419124D01*
X94299499Y-29520943D01*
X94299499Y-29520945D01*
X94299499Y-29689046D01*
X94299500Y-29689059D01*
X94299500Y-30613330D01*
X94299499Y-30613348D01*
X94299499Y-30779054D01*
X94299498Y-30779054D01*
X94335256Y-30912500D01*
X94340423Y-30931785D01*
X94343433Y-30936998D01*
X94350651Y-30949500D01*
X94419477Y-31068712D01*
X94419481Y-31068717D01*
X94538349Y-31187585D01*
X94538355Y-31187590D01*
X95169298Y-31818533D01*
X95202783Y-31879856D01*
X95204837Y-31892330D01*
X95214630Y-31979249D01*
X95274210Y-32149521D01*
X95311915Y-32209528D01*
X95330915Y-32276765D01*
X95310547Y-32343600D01*
X95257279Y-32388814D01*
X95206921Y-32399500D01*
X87782941Y-32399500D01*
X87715902Y-32379815D01*
X87695260Y-32363182D01*
X87661893Y-32329815D01*
X87602262Y-32270184D01*
X87529321Y-32224352D01*
X87449523Y-32174211D01*
X87279254Y-32114631D01*
X87279249Y-32114630D01*
X87100004Y-32094435D01*
X87099996Y-32094435D01*
X86920750Y-32114630D01*
X86920745Y-32114631D01*
X86750476Y-32174211D01*
X86597737Y-32270184D01*
X86470184Y-32397737D01*
X86374211Y-32550476D01*
X86314631Y-32720745D01*
X86314630Y-32720750D01*
X86294435Y-32899996D01*
X86294435Y-32900003D01*
X86314630Y-33079249D01*
X86314631Y-33079254D01*
X86374211Y-33249523D01*
X86423789Y-33328425D01*
X86470184Y-33402262D01*
X86597738Y-33529816D01*
X86631874Y-33551265D01*
X86750474Y-33625787D01*
X86750478Y-33625789D01*
X86920745Y-33685368D01*
X86920750Y-33685369D01*
X87099996Y-33705565D01*
X87100000Y-33705565D01*
X87100004Y-33705565D01*
X87279249Y-33685369D01*
X87279252Y-33685368D01*
X87279255Y-33685368D01*
X87449522Y-33625789D01*
X87450488Y-33625181D01*
X87459523Y-33619506D01*
X87525494Y-33600500D01*
X101313331Y-33600500D01*
X101313347Y-33600501D01*
X101320943Y-33600501D01*
X101479062Y-33600501D01*
X101487121Y-33599440D01*
X101487184Y-33599925D01*
X101524869Y-33597099D01*
X101600000Y-33605565D01*
X101600003Y-33605565D01*
X101779249Y-33585369D01*
X101779252Y-33585368D01*
X101779255Y-33585368D01*
X101949522Y-33525789D01*
X102102262Y-33429816D01*
X102229816Y-33302262D01*
X102325789Y-33149522D01*
X102385368Y-32979255D01*
X102385369Y-32979249D01*
X102405565Y-32800003D01*
X102405565Y-32799996D01*
X102385369Y-32620750D01*
X102385368Y-32620745D01*
X102325789Y-32450478D01*
X102313913Y-32431578D01*
X102234523Y-32305229D01*
X102229816Y-32297738D01*
X102102262Y-32170184D01*
X102040821Y-32131578D01*
X101948512Y-32073576D01*
X101902221Y-32021241D01*
X101891573Y-31952187D01*
X101919948Y-31888339D01*
X101948505Y-31863593D01*
X102002262Y-31829816D01*
X102129816Y-31702262D01*
X102225789Y-31549522D01*
X102285368Y-31379255D01*
X102288608Y-31350500D01*
X102305565Y-31200003D01*
X102305565Y-31199997D01*
X102291506Y-31075224D01*
X102303560Y-31006402D01*
X102327042Y-30973662D01*
X103463887Y-29836819D01*
X103525210Y-29803334D01*
X103551568Y-29800500D01*
X106999903Y-29800500D01*
X107066942Y-29820185D01*
X107087584Y-29836819D01*
X108969298Y-31718533D01*
X109002783Y-31779856D01*
X109004837Y-31792330D01*
X109014630Y-31879249D01*
X109074210Y-32049521D01*
X109137045Y-32149522D01*
X109170184Y-32202262D01*
X109297738Y-32329816D01*
X109339510Y-32356063D01*
X109413036Y-32402263D01*
X109450478Y-32425789D01*
X109576206Y-32469783D01*
X109620745Y-32485368D01*
X109620750Y-32485369D01*
X109799996Y-32505565D01*
X109800000Y-32505565D01*
X109800004Y-32505565D01*
X109979249Y-32485369D01*
X109979252Y-32485368D01*
X109979255Y-32485368D01*
X110149522Y-32425789D01*
X110302262Y-32329816D01*
X110429816Y-32202262D01*
X110525789Y-32049522D01*
X110585368Y-31879255D01*
X110585369Y-31879249D01*
X110605565Y-31700003D01*
X110605565Y-31699996D01*
X110585369Y-31520750D01*
X110585366Y-31520737D01*
X110582522Y-31512609D01*
X110578959Y-31442830D01*
X110613688Y-31382203D01*
X110675681Y-31349975D01*
X110720004Y-31350033D01*
X110720017Y-31349903D01*
X110721355Y-31350034D01*
X110723759Y-31350037D01*
X110726082Y-31350500D01*
X110726085Y-31350500D01*
X110873920Y-31350500D01*
X110971462Y-31331096D01*
X111018913Y-31321658D01*
X111140283Y-31271385D01*
X111155488Y-31265087D01*
X111155488Y-31265086D01*
X111155495Y-31265084D01*
X111278416Y-31182951D01*
X111382951Y-31078416D01*
X111465084Y-30955495D01*
X111521658Y-30818913D01*
X111550500Y-30673920D01*
X117449499Y-30673920D01*
X117478340Y-30818907D01*
X117478343Y-30818917D01*
X117534912Y-30955488D01*
X117534919Y-30955501D01*
X117617048Y-31078415D01*
X117617051Y-31078419D01*
X117721580Y-31182948D01*
X117721584Y-31182951D01*
X117844498Y-31265080D01*
X117844511Y-31265087D01*
X117928807Y-31300003D01*
X117981087Y-31321658D01*
X117981091Y-31321658D01*
X117981092Y-31321659D01*
X118126079Y-31350500D01*
X118126082Y-31350500D01*
X118273920Y-31350500D01*
X118371462Y-31331096D01*
X118418913Y-31321658D01*
X118540283Y-31271385D01*
X118555488Y-31265087D01*
X118555488Y-31265086D01*
X118555495Y-31265084D01*
X118678416Y-31182951D01*
X118782951Y-31078416D01*
X118865084Y-30955495D01*
X118921658Y-30818913D01*
X118950500Y-30673918D01*
X118950500Y-30526082D01*
X118950500Y-30526079D01*
X118921659Y-30381092D01*
X118921658Y-30381091D01*
X118921658Y-30381087D01*
X118887172Y-30297830D01*
X118865087Y-30244511D01*
X118865080Y-30244498D01*
X118782951Y-30121584D01*
X118782948Y-30121580D01*
X118678419Y-30017051D01*
X118678415Y-30017048D01*
X118555501Y-29934919D01*
X118555488Y-29934912D01*
X118418917Y-29878343D01*
X118418907Y-29878340D01*
X118273920Y-29849500D01*
X118273918Y-29849500D01*
X118126082Y-29849500D01*
X118126080Y-29849500D01*
X117981092Y-29878340D01*
X117981082Y-29878343D01*
X117844511Y-29934912D01*
X117844498Y-29934919D01*
X117721584Y-30017048D01*
X117721580Y-30017051D01*
X117617051Y-30121580D01*
X117617048Y-30121584D01*
X117534919Y-30244498D01*
X117534912Y-30244511D01*
X117478343Y-30381082D01*
X117478340Y-30381092D01*
X117449500Y-30526079D01*
X117449500Y-30526082D01*
X117449500Y-30673918D01*
X117449500Y-30673920D01*
X117449499Y-30673920D01*
X111550500Y-30673920D01*
X111550500Y-30673918D01*
X111550500Y-30526082D01*
X111550500Y-30526079D01*
X111521659Y-30381092D01*
X111521658Y-30381091D01*
X111521658Y-30381087D01*
X111487172Y-30297830D01*
X111465087Y-30244511D01*
X111465080Y-30244498D01*
X111382951Y-30121584D01*
X111382948Y-30121580D01*
X111278419Y-30017051D01*
X111278415Y-30017048D01*
X111155501Y-29934919D01*
X111155488Y-29934912D01*
X111018917Y-29878343D01*
X111018907Y-29878340D01*
X110873920Y-29849500D01*
X110873918Y-29849500D01*
X110726082Y-29849500D01*
X110726080Y-29849500D01*
X110581092Y-29878340D01*
X110581082Y-29878343D01*
X110444511Y-29934912D01*
X110444498Y-29934919D01*
X110321584Y-30017048D01*
X110321580Y-30017051D01*
X110217051Y-30121580D01*
X110217048Y-30121584D01*
X110134919Y-30244498D01*
X110134912Y-30244511D01*
X110078343Y-30381082D01*
X110078340Y-30381092D01*
X110049500Y-30526079D01*
X110049500Y-30526082D01*
X110049500Y-30673918D01*
X110049500Y-30673920D01*
X110049499Y-30673920D01*
X110066988Y-30761837D01*
X110060761Y-30831429D01*
X110017898Y-30886606D01*
X109952008Y-30909851D01*
X109931487Y-30909249D01*
X109892330Y-30904837D01*
X109827916Y-30877770D01*
X109818533Y-30869298D01*
X108211416Y-29262181D01*
X108177931Y-29200858D01*
X108182915Y-29131166D01*
X108224787Y-29075233D01*
X108290251Y-29050816D01*
X108299097Y-29050500D01*
X111251579Y-29050500D01*
X111318618Y-29070185D01*
X111364373Y-29122989D01*
X111368621Y-29133546D01*
X111374211Y-29149523D01*
X111455727Y-29279254D01*
X111470184Y-29302262D01*
X111597738Y-29429816D01*
X111685972Y-29485257D01*
X111742768Y-29520945D01*
X111750478Y-29525789D01*
X111849319Y-29560375D01*
X111920745Y-29585368D01*
X111920750Y-29585369D01*
X112099996Y-29605565D01*
X112100000Y-29605565D01*
X112100004Y-29605565D01*
X112279249Y-29585369D01*
X112279252Y-29585368D01*
X112279255Y-29585368D01*
X112449522Y-29525789D01*
X112602262Y-29429816D01*
X112729816Y-29302262D01*
X112825789Y-29149522D01*
X112885368Y-28979255D01*
X112885369Y-28979249D01*
X112905565Y-28800003D01*
X112905565Y-28799996D01*
X112885369Y-28620750D01*
X112885368Y-28620745D01*
X112825788Y-28450476D01*
X112755984Y-28339384D01*
X112729816Y-28297738D01*
X112602262Y-28170184D01*
X112449521Y-28074210D01*
X112279255Y-28014632D01*
X112279246Y-28014630D01*
X112272012Y-28013815D01*
X112207600Y-27986743D01*
X112198224Y-27978277D01*
X112114673Y-27894726D01*
X112114669Y-27894723D01*
X112008127Y-27823535D01*
X111992147Y-27816916D01*
X111889744Y-27774499D01*
X111889738Y-27774497D01*
X111764071Y-27749500D01*
X111764069Y-27749500D01*
X111627672Y-27749500D01*
X111560633Y-27729815D01*
X111514878Y-27677011D01*
X111504934Y-27607853D01*
X111513111Y-27578048D01*
X111521656Y-27557417D01*
X111521658Y-27557413D01*
X111550500Y-27412420D01*
X117449499Y-27412420D01*
X117478340Y-27557407D01*
X117478343Y-27557417D01*
X117534912Y-27693988D01*
X117534919Y-27694001D01*
X117617048Y-27816915D01*
X117617051Y-27816919D01*
X117721580Y-27921448D01*
X117721584Y-27921451D01*
X117844498Y-28003580D01*
X117844511Y-28003587D01*
X117957717Y-28050478D01*
X117981087Y-28060158D01*
X117981091Y-28060158D01*
X117981092Y-28060159D01*
X118126079Y-28089000D01*
X118126082Y-28089000D01*
X118273920Y-28089000D01*
X118371462Y-28069596D01*
X118418913Y-28060158D01*
X118555495Y-28003584D01*
X118678416Y-27921451D01*
X118782951Y-27816916D01*
X118865084Y-27693995D01*
X118921658Y-27557413D01*
X118950500Y-27412418D01*
X118950500Y-27264582D01*
X118950500Y-27264579D01*
X118921659Y-27119592D01*
X118921658Y-27119591D01*
X118921658Y-27119587D01*
X118915850Y-27105565D01*
X118865087Y-26983011D01*
X118865080Y-26982998D01*
X118782951Y-26860084D01*
X118782948Y-26860080D01*
X118678419Y-26755551D01*
X118678415Y-26755548D01*
X118555501Y-26673419D01*
X118555488Y-26673412D01*
X118418917Y-26616843D01*
X118418907Y-26616840D01*
X118273920Y-26588000D01*
X118273918Y-26588000D01*
X118126082Y-26588000D01*
X118126080Y-26588000D01*
X117981092Y-26616840D01*
X117981082Y-26616843D01*
X117844511Y-26673412D01*
X117844498Y-26673419D01*
X117721584Y-26755548D01*
X117721580Y-26755551D01*
X117617051Y-26860080D01*
X117617048Y-26860084D01*
X117534919Y-26982998D01*
X117534912Y-26983011D01*
X117478343Y-27119582D01*
X117478340Y-27119592D01*
X117449500Y-27264579D01*
X117449500Y-27264582D01*
X117449500Y-27412418D01*
X117449500Y-27412420D01*
X117449499Y-27412420D01*
X111550500Y-27412420D01*
X111550500Y-27412418D01*
X111550500Y-27264582D01*
X111550500Y-27264579D01*
X111521659Y-27119592D01*
X111521658Y-27119591D01*
X111521658Y-27119587D01*
X111515850Y-27105565D01*
X111465087Y-26983011D01*
X111465080Y-26982998D01*
X111382951Y-26860084D01*
X111382948Y-26860080D01*
X111278419Y-26755551D01*
X111278415Y-26755548D01*
X111155501Y-26673419D01*
X111155488Y-26673412D01*
X111018917Y-26616843D01*
X111018907Y-26616840D01*
X110873920Y-26588000D01*
X110873918Y-26588000D01*
X110726082Y-26588000D01*
X110726080Y-26588000D01*
X110581092Y-26616840D01*
X110581082Y-26616843D01*
X110444511Y-26673412D01*
X110444498Y-26673419D01*
X110321584Y-26755548D01*
X110321580Y-26755551D01*
X110217051Y-26860080D01*
X110217048Y-26860084D01*
X110134919Y-26982998D01*
X110134912Y-26983011D01*
X110078343Y-27119582D01*
X110078340Y-27119592D01*
X110049500Y-27264579D01*
X110049500Y-27264582D01*
X110049500Y-27412418D01*
X110049500Y-27412420D01*
X110049499Y-27412420D01*
X110078340Y-27557407D01*
X110078343Y-27557417D01*
X110086889Y-27578048D01*
X110094358Y-27647517D01*
X110063083Y-27709996D01*
X110002994Y-27745648D01*
X109972328Y-27749500D01*
X106824496Y-27749500D01*
X106757457Y-27729815D01*
X106711702Y-27677011D01*
X106701758Y-27607853D01*
X106719503Y-27559527D01*
X106725788Y-27549524D01*
X106738831Y-27512250D01*
X106785368Y-27379255D01*
X106785369Y-27379249D01*
X106805565Y-27200003D01*
X106805565Y-27199996D01*
X106785369Y-27020750D01*
X106785368Y-27020745D01*
X106772160Y-26982998D01*
X106725789Y-26850478D01*
X106629816Y-26697738D01*
X106502262Y-26570184D01*
X106381489Y-26494297D01*
X106349523Y-26474211D01*
X106179254Y-26414631D01*
X106179249Y-26414630D01*
X106000004Y-26394435D01*
X105999996Y-26394435D01*
X105820750Y-26414630D01*
X105820745Y-26414631D01*
X105650476Y-26474211D01*
X105497739Y-26570183D01*
X105404740Y-26663182D01*
X105343416Y-26696666D01*
X105317059Y-26699500D01*
X105249097Y-26699500D01*
X105182058Y-26679815D01*
X105136303Y-26627011D01*
X105126359Y-26557853D01*
X105155384Y-26494297D01*
X105161416Y-26487819D01*
X106635320Y-25013916D01*
X108212417Y-23436819D01*
X108273740Y-23403334D01*
X108300098Y-23400500D01*
X108417588Y-23400500D01*
X108484627Y-23420185D01*
X108494903Y-23427555D01*
X108497736Y-23429814D01*
X108497738Y-23429816D01*
X108650478Y-23525789D01*
X108710164Y-23546674D01*
X108820745Y-23585368D01*
X108820750Y-23585369D01*
X108999996Y-23605565D01*
X109000000Y-23605565D01*
X109000004Y-23605565D01*
X109179249Y-23585369D01*
X109179252Y-23585368D01*
X109179255Y-23585368D01*
X109349522Y-23525789D01*
X109502262Y-23429816D01*
X109629816Y-23302262D01*
X109725789Y-23149522D01*
X109785368Y-22979255D01*
X109785369Y-22979249D01*
X109805565Y-22800003D01*
X109805565Y-22799996D01*
X109785369Y-22620750D01*
X109785368Y-22620745D01*
X109748117Y-22514288D01*
X109725789Y-22450478D01*
X109707106Y-22420745D01*
X109648697Y-22327787D01*
X109629816Y-22297738D01*
X109502262Y-22170184D01*
X109483667Y-22158500D01*
X109349523Y-22074211D01*
X109179254Y-22014631D01*
X109179249Y-22014630D01*
X109000004Y-21994435D01*
X108999996Y-21994435D01*
X108820750Y-22014630D01*
X108820745Y-22014631D01*
X108650476Y-22074211D01*
X108497736Y-22170185D01*
X108494903Y-22172445D01*
X108492724Y-22173334D01*
X108491842Y-22173889D01*
X108491744Y-22173734D01*
X108430217Y-22198855D01*
X108417588Y-22199500D01*
X108086670Y-22199500D01*
X108086654Y-22199499D01*
X108079058Y-22199499D01*
X107920943Y-22199499D01*
X107844579Y-22219961D01*
X107768214Y-22240423D01*
X107768209Y-22240426D01*
X107631290Y-22319475D01*
X107631282Y-22319481D01*
X103687584Y-26263181D01*
X103626261Y-26296666D01*
X103599903Y-26299500D01*
X95721843Y-26299500D01*
X95654804Y-26279815D01*
X95609049Y-26227011D01*
X95598623Y-26161617D01*
X95605565Y-26100003D01*
X95605565Y-26099996D01*
X95585369Y-25920750D01*
X95585368Y-25920745D01*
X95554490Y-25832500D01*
X95525789Y-25750478D01*
X95524995Y-25749215D01*
X95475337Y-25670184D01*
X95429816Y-25597738D01*
X95426193Y-25594115D01*
X95394099Y-25538527D01*
X95389336Y-25520750D01*
X95375787Y-25470184D01*
X95359577Y-25409687D01*
X95289081Y-25287583D01*
X95280524Y-25272761D01*
X95280521Y-25272757D01*
X95280520Y-25272755D01*
X95168716Y-25160951D01*
X95168715Y-25160950D01*
X95164385Y-25156620D01*
X95164374Y-25156610D01*
X93814968Y-23807204D01*
X93781483Y-23745881D01*
X93785134Y-23686340D01*
X93783819Y-23686040D01*
X93785365Y-23679261D01*
X93785368Y-23679255D01*
X93795425Y-23589996D01*
X93805565Y-23500003D01*
X93805565Y-23499996D01*
X93785369Y-23320750D01*
X93785368Y-23320745D01*
X93725789Y-23150478D01*
X93725188Y-23149522D01*
X93680049Y-23077684D01*
X93629816Y-22997738D01*
X93502262Y-22870184D01*
X93397937Y-22804632D01*
X93349523Y-22774211D01*
X93179254Y-22714631D01*
X93179249Y-22714630D01*
X93000004Y-22694435D01*
X92999996Y-22694435D01*
X92820750Y-22714630D01*
X92820745Y-22714631D01*
X92650476Y-22774211D01*
X92497739Y-22870183D01*
X92475547Y-22892375D01*
X92414223Y-22925859D01*
X92344531Y-22920873D01*
X92321895Y-22909686D01*
X92249523Y-22864211D01*
X92079254Y-22804631D01*
X92079249Y-22804630D01*
X91900004Y-22784435D01*
X91899996Y-22784435D01*
X91720750Y-22804630D01*
X91720745Y-22804631D01*
X91550476Y-22864211D01*
X91397737Y-22960184D01*
X91270184Y-23087737D01*
X91174211Y-23240476D01*
X91114631Y-23410745D01*
X91114630Y-23410750D01*
X91094435Y-23589996D01*
X91094435Y-23590003D01*
X91114630Y-23769249D01*
X91114631Y-23769254D01*
X91174211Y-23939523D01*
X91270182Y-24092259D01*
X91272441Y-24095091D01*
X91273330Y-24097268D01*
X91273889Y-24098158D01*
X91273733Y-24098255D01*
X91298854Y-24159776D01*
X91299499Y-24172410D01*
X91299499Y-24279054D01*
X91299498Y-24279054D01*
X91340423Y-24431784D01*
X91340424Y-24431788D01*
X91346301Y-24441967D01*
X91346304Y-24441971D01*
X91419477Y-24568712D01*
X91419481Y-24568717D01*
X91538349Y-24687585D01*
X91538355Y-24687590D01*
X91769298Y-24918533D01*
X91802783Y-24979856D01*
X91804837Y-24992330D01*
X91814630Y-25079249D01*
X91874210Y-25249521D01*
X91888813Y-25272761D01*
X91970184Y-25402262D01*
X92097738Y-25529816D01*
X92159179Y-25568422D01*
X92205833Y-25597737D01*
X92250478Y-25625789D01*
X92377352Y-25670184D01*
X92420745Y-25685368D01*
X92420750Y-25685369D01*
X92599996Y-25705565D01*
X92600000Y-25705565D01*
X92600004Y-25705565D01*
X92779249Y-25685369D01*
X92779252Y-25685368D01*
X92779255Y-25685368D01*
X92949522Y-25625789D01*
X93102262Y-25529816D01*
X93229816Y-25402262D01*
X93311187Y-25272761D01*
X93329494Y-25243626D01*
X93330573Y-25244304D01*
X93372529Y-25197834D01*
X93439956Y-25179521D01*
X93506580Y-25200568D01*
X93525108Y-25215814D01*
X94015373Y-25706079D01*
X94048858Y-25767402D01*
X94044734Y-25834713D01*
X94014633Y-25920739D01*
X94014630Y-25920750D01*
X93994435Y-26099996D01*
X93994435Y-26100003D01*
X94001377Y-26161617D01*
X93989322Y-26230439D01*
X93941973Y-26281818D01*
X93878157Y-26299500D01*
X74255539Y-26299500D01*
X74188500Y-26279815D01*
X74167858Y-26263181D01*
X74088124Y-26183447D01*
X74064080Y-26149557D01*
X74062209Y-26145671D01*
X74001794Y-26049522D01*
X73966237Y-25992933D01*
X73838683Y-25865379D01*
X73825345Y-25856998D01*
X73685944Y-25769406D01*
X73515675Y-25709826D01*
X73515670Y-25709825D01*
X73336425Y-25689630D01*
X73336417Y-25689630D01*
X73157171Y-25709825D01*
X73157166Y-25709826D01*
X72986897Y-25769406D01*
X72834158Y-25865379D01*
X72706605Y-25992932D01*
X72610632Y-26145671D01*
X72585865Y-26216454D01*
X72545143Y-26273230D01*
X72480191Y-26298978D01*
X72468823Y-26299500D01*
X68979057Y-26299500D01*
X68820943Y-26299500D01*
X68668215Y-26340423D01*
X68668214Y-26340423D01*
X68668212Y-26340424D01*
X68668209Y-26340425D01*
X68618098Y-26369358D01*
X68618092Y-26369362D01*
X68590922Y-26385047D01*
X68542811Y-26400877D01*
X68420750Y-26414630D01*
X68250478Y-26474210D01*
X68097737Y-26570184D01*
X67970184Y-26697737D01*
X67874211Y-26850476D01*
X67814631Y-27020745D01*
X67814630Y-27020750D01*
X67794435Y-27199996D01*
X67794435Y-27200003D01*
X67814630Y-27379249D01*
X67814631Y-27379254D01*
X67874211Y-27549524D01*
X67880497Y-27559527D01*
X67899498Y-27626764D01*
X67879131Y-27693599D01*
X67825863Y-27738814D01*
X67775504Y-27749500D01*
X57805068Y-27749500D01*
X57739096Y-27730494D01*
X57649522Y-27674210D01*
X57649518Y-27674209D01*
X57479262Y-27614633D01*
X57479249Y-27614630D01*
X57300004Y-27594435D01*
X57299996Y-27594435D01*
X57120750Y-27614630D01*
X57120737Y-27614633D01*
X56950481Y-27674209D01*
X56950477Y-27674210D01*
X56860904Y-27730494D01*
X56794932Y-27749500D01*
X41705068Y-27749500D01*
X41639096Y-27730494D01*
X41549522Y-27674210D01*
X41549518Y-27674209D01*
X41379262Y-27614633D01*
X41379249Y-27614630D01*
X41200004Y-27594435D01*
X41199996Y-27594435D01*
X41020750Y-27614630D01*
X41020737Y-27614633D01*
X40850481Y-27674209D01*
X40850477Y-27674210D01*
X40760904Y-27730494D01*
X40694932Y-27749500D01*
X24705068Y-27749500D01*
X24639096Y-27730494D01*
X24549522Y-27674210D01*
X24549518Y-27674209D01*
X24379262Y-27614633D01*
X24379249Y-27614630D01*
X24200004Y-27594435D01*
X24199996Y-27594435D01*
X24020750Y-27614630D01*
X24020742Y-27614632D01*
X23891803Y-27659750D01*
X23822024Y-27663311D01*
X23761397Y-27628582D01*
X23729170Y-27566589D01*
X23726849Y-27542708D01*
X23726849Y-24250207D01*
X23745856Y-24184234D01*
X23769341Y-24146859D01*
X23825789Y-24057022D01*
X23885368Y-23886755D01*
X23885369Y-23886749D01*
X23905565Y-23707503D01*
X23905565Y-23707496D01*
X23885369Y-23528250D01*
X23885368Y-23528245D01*
X23870359Y-23485351D01*
X23825789Y-23357978D01*
X23729816Y-23205238D01*
X23602262Y-23077684D01*
X23519672Y-23025789D01*
X23449523Y-22981711D01*
X23279254Y-22922131D01*
X23279249Y-22922130D01*
X23100004Y-22901935D01*
X23099996Y-22901935D01*
X22920750Y-22922130D01*
X22920745Y-22922131D01*
X22750476Y-22981711D01*
X22597737Y-23077684D01*
X22470184Y-23205237D01*
X22374211Y-23357976D01*
X22314631Y-23528245D01*
X22314630Y-23528250D01*
X22294435Y-23707496D01*
X22294435Y-23707503D01*
X22303595Y-23788804D01*
X22291540Y-23857626D01*
X22244191Y-23909005D01*
X22176581Y-23926629D01*
X22110175Y-23904902D01*
X22074713Y-23866553D01*
X22074640Y-23866605D01*
X22074263Y-23866067D01*
X22072989Y-23864689D01*
X22071534Y-23862169D01*
X21935996Y-23668600D01*
X21935995Y-23668599D01*
X21814067Y-23546671D01*
X21780584Y-23485351D01*
X21785568Y-23415659D01*
X21827439Y-23359725D01*
X21858415Y-23342810D01*
X21989831Y-23293796D01*
X22105046Y-23207546D01*
X22191296Y-23092331D01*
X22241591Y-22957483D01*
X22248000Y-22897873D01*
X22248000Y-22124500D01*
X22267685Y-22057461D01*
X22320489Y-22011706D01*
X22372000Y-22000500D01*
X32244313Y-22000500D01*
X32311352Y-22020185D01*
X32357107Y-22072989D01*
X32367533Y-22138382D01*
X32363408Y-22174995D01*
X32363408Y-22175003D01*
X32383603Y-22354249D01*
X32383604Y-22354254D01*
X32443184Y-22524523D01*
X32490610Y-22600000D01*
X32521727Y-22649523D01*
X32539158Y-22677263D01*
X32541418Y-22680097D01*
X32542307Y-22682275D01*
X32542862Y-22683158D01*
X32542707Y-22683255D01*
X32567828Y-22744783D01*
X32568473Y-22757412D01*
X32568473Y-24682303D01*
X32568472Y-24682321D01*
X32568472Y-24848027D01*
X32568471Y-24848027D01*
X32609396Y-25000758D01*
X32616992Y-25013914D01*
X32616993Y-25013916D01*
X32688450Y-25137685D01*
X32688454Y-25137690D01*
X32807322Y-25256558D01*
X32807328Y-25256563D01*
X33269298Y-25718533D01*
X33302783Y-25779856D01*
X33304837Y-25792330D01*
X33314630Y-25879249D01*
X33374210Y-26049521D01*
X33434625Y-26145671D01*
X33470184Y-26202262D01*
X33597738Y-26329816D01*
X33660669Y-26369358D01*
X33732721Y-26414632D01*
X33750478Y-26425789D01*
X33888857Y-26474210D01*
X33920745Y-26485368D01*
X33920750Y-26485369D01*
X34099996Y-26505565D01*
X34100000Y-26505565D01*
X34100004Y-26505565D01*
X34279249Y-26485369D01*
X34279252Y-26485368D01*
X34279255Y-26485368D01*
X34449522Y-26425789D01*
X34602262Y-26329816D01*
X34729816Y-26202262D01*
X34825789Y-26049522D01*
X34885368Y-25879255D01*
X34885369Y-25879249D01*
X34905565Y-25700003D01*
X34905565Y-25699996D01*
X34885369Y-25520750D01*
X34885368Y-25520745D01*
X34846506Y-25409685D01*
X34825789Y-25350478D01*
X34729816Y-25197738D01*
X34602262Y-25070184D01*
X34512709Y-25013914D01*
X34449521Y-24974210D01*
X34279249Y-24914630D01*
X34192330Y-24904837D01*
X34127916Y-24877770D01*
X34118533Y-24869298D01*
X33805792Y-24556557D01*
X33772307Y-24495234D01*
X33769473Y-24468876D01*
X33769473Y-22757412D01*
X33789158Y-22690373D01*
X33796528Y-22680097D01*
X33798783Y-22677267D01*
X33798789Y-22677262D01*
X33894762Y-22524522D01*
X33954341Y-22354255D01*
X33954342Y-22354249D01*
X33974538Y-22175003D01*
X33974538Y-22174995D01*
X33970413Y-22138382D01*
X33982468Y-22069561D01*
X34029818Y-22018182D01*
X34093633Y-22000500D01*
X36806921Y-22000500D01*
X36873960Y-22020185D01*
X36919715Y-22072989D01*
X36929659Y-22142147D01*
X36911915Y-22190472D01*
X36874211Y-22250476D01*
X36814631Y-22420745D01*
X36814630Y-22420750D01*
X36794435Y-22599996D01*
X36794435Y-22600003D01*
X36814630Y-22779249D01*
X36814631Y-22779254D01*
X36874212Y-22949525D01*
X36880492Y-22959519D01*
X36899500Y-23025493D01*
X36899500Y-25199902D01*
X36879815Y-25266941D01*
X36863181Y-25287583D01*
X36681465Y-25469298D01*
X36620142Y-25502783D01*
X36607668Y-25504837D01*
X36520750Y-25514630D01*
X36350478Y-25574210D01*
X36197737Y-25670184D01*
X36070184Y-25797737D01*
X35974211Y-25950476D01*
X35914631Y-26120745D01*
X35914630Y-26120750D01*
X35894435Y-26299996D01*
X35894435Y-26300003D01*
X35914630Y-26479249D01*
X35914631Y-26479254D01*
X35974211Y-26649523D01*
X36070184Y-26802262D01*
X36197738Y-26929816D01*
X36282377Y-26982998D01*
X36342450Y-27020745D01*
X36350478Y-27025789D01*
X36505401Y-27079999D01*
X36520745Y-27085368D01*
X36520750Y-27085369D01*
X36699996Y-27105565D01*
X36700000Y-27105565D01*
X36700004Y-27105565D01*
X36879249Y-27085369D01*
X36879252Y-27085368D01*
X36879255Y-27085368D01*
X37049522Y-27025789D01*
X37202262Y-26929816D01*
X37329816Y-26802262D01*
X37425789Y-26649522D01*
X37485368Y-26479255D01*
X37495161Y-26392329D01*
X37522226Y-26327918D01*
X37530690Y-26318543D01*
X37858506Y-25990728D01*
X37858511Y-25990724D01*
X37868714Y-25980520D01*
X37868716Y-25980520D01*
X37980520Y-25868716D01*
X38048784Y-25750478D01*
X38048786Y-25750476D01*
X38059576Y-25731787D01*
X38061356Y-25725145D01*
X38100501Y-25579057D01*
X38100501Y-25420943D01*
X38100501Y-25413348D01*
X38100500Y-25413330D01*
X38100500Y-23282940D01*
X38120185Y-23215901D01*
X38136819Y-23195259D01*
X38182556Y-23149522D01*
X38229816Y-23102262D01*
X38325789Y-22949522D01*
X38385368Y-22779255D01*
X38385369Y-22779249D01*
X38405565Y-22600003D01*
X38405565Y-22599996D01*
X38385369Y-22420750D01*
X38385368Y-22420745D01*
X38362100Y-22354249D01*
X38325789Y-22250478D01*
X38319471Y-22240423D01*
X38288085Y-22190472D01*
X38269085Y-22123235D01*
X38289453Y-22056400D01*
X38342721Y-22011186D01*
X38393079Y-22000500D01*
X75789424Y-22000500D01*
X75856463Y-22020185D01*
X75902218Y-22072989D01*
X75912644Y-22138383D01*
X75894435Y-22299996D01*
X75894435Y-22300003D01*
X75914630Y-22479249D01*
X75914631Y-22479254D01*
X75974211Y-22649523D01*
X76068760Y-22799996D01*
X76070184Y-22802262D01*
X76197738Y-22929816D01*
X76250426Y-22962922D01*
X76305833Y-22997737D01*
X76350478Y-23025789D01*
X76520745Y-23085368D01*
X76520750Y-23085369D01*
X76699996Y-23105565D01*
X76700000Y-23105565D01*
X76700004Y-23105565D01*
X76879249Y-23085369D01*
X76879252Y-23085368D01*
X76879255Y-23085368D01*
X77049522Y-23025789D01*
X77202262Y-22929816D01*
X77329816Y-22802262D01*
X77425789Y-22649522D01*
X77483867Y-22483545D01*
X77524589Y-22426769D01*
X77589542Y-22401022D01*
X77600909Y-22400500D01*
X82679017Y-22400500D01*
X82679033Y-22400501D01*
X82686629Y-22400501D01*
X82844740Y-22400501D01*
X82844743Y-22400501D01*
X82997471Y-22359577D01*
X83052539Y-22327783D01*
X83134402Y-22280520D01*
X83246206Y-22168716D01*
X83246206Y-22168714D01*
X83256407Y-22158514D01*
X83256410Y-22158509D01*
X83578103Y-21836816D01*
X83639425Y-21803334D01*
X83665783Y-21800500D01*
X104984974Y-21800500D01*
X105052013Y-21820185D01*
X105097768Y-21872989D01*
X105108194Y-21910618D01*
X105114630Y-21967748D01*
X105174210Y-22138021D01*
X105263750Y-22280522D01*
X105270184Y-22290762D01*
X105397738Y-22418316D01*
X105550478Y-22514289D01*
X105720745Y-22573868D01*
X105720750Y-22573869D01*
X105899996Y-22594065D01*
X105900000Y-22594065D01*
X105900004Y-22594065D01*
X106079249Y-22573869D01*
X106079252Y-22573868D01*
X106079255Y-22573868D01*
X106249522Y-22514289D01*
X106402262Y-22418316D01*
X106529816Y-22290762D01*
X106625789Y-22138022D01*
X106685368Y-21967755D01*
X106691806Y-21910618D01*
X106705565Y-21788503D01*
X106705565Y-21788496D01*
X106685369Y-21609250D01*
X106685368Y-21609245D01*
X106625788Y-21438976D01*
X106529815Y-21286237D01*
X106402262Y-21158684D01*
X106249521Y-21062710D01*
X106079249Y-21003130D01*
X105992331Y-20993337D01*
X105927917Y-20966270D01*
X105918534Y-20957798D01*
X105680217Y-20719481D01*
X105680209Y-20719475D01*
X105559009Y-20649501D01*
X105559006Y-20649500D01*
X105543285Y-20640423D01*
X105390557Y-20599499D01*
X105232443Y-20599499D01*
X105224847Y-20599499D01*
X105224831Y-20599500D01*
X84521843Y-20599500D01*
X84454804Y-20579815D01*
X84409049Y-20527011D01*
X84398623Y-20461617D01*
X84405665Y-20399117D01*
X84432731Y-20334703D01*
X84490326Y-20295147D01*
X84528885Y-20289000D01*
X109933331Y-20289000D01*
X110000370Y-20308685D01*
X110046125Y-20361489D01*
X110056069Y-20430647D01*
X110054948Y-20437192D01*
X110049500Y-20464579D01*
X110049500Y-20464582D01*
X110049500Y-20612418D01*
X110049500Y-20612420D01*
X110049499Y-20612420D01*
X110078340Y-20757407D01*
X110078343Y-20757417D01*
X110134912Y-20893988D01*
X110134919Y-20894001D01*
X110217048Y-21016915D01*
X110217051Y-21016919D01*
X110321580Y-21121448D01*
X110321584Y-21121451D01*
X110444498Y-21203580D01*
X110444511Y-21203587D01*
X110581082Y-21260156D01*
X110581087Y-21260158D01*
X110581091Y-21260158D01*
X110581092Y-21260159D01*
X110726079Y-21289000D01*
X110726082Y-21289000D01*
X110873920Y-21289000D01*
X110971462Y-21269596D01*
X111018913Y-21260158D01*
X111155495Y-21203584D01*
X111278416Y-21121451D01*
X111382951Y-21016916D01*
X111465084Y-20893995D01*
X111521658Y-20757413D01*
X111540213Y-20664133D01*
X111550500Y-20612420D01*
X117449499Y-20612420D01*
X117478340Y-20757407D01*
X117478343Y-20757417D01*
X117534912Y-20893988D01*
X117534919Y-20894001D01*
X117617048Y-21016915D01*
X117617051Y-21016919D01*
X117721580Y-21121448D01*
X117721584Y-21121451D01*
X117844498Y-21203580D01*
X117844511Y-21203587D01*
X117981082Y-21260156D01*
X117981087Y-21260158D01*
X117981091Y-21260158D01*
X117981092Y-21260159D01*
X118126079Y-21289000D01*
X118126082Y-21289000D01*
X118273920Y-21289000D01*
X118371462Y-21269596D01*
X118418913Y-21260158D01*
X118555495Y-21203584D01*
X118678416Y-21121451D01*
X118782951Y-21016916D01*
X118865084Y-20893995D01*
X118921658Y-20757413D01*
X118940213Y-20664133D01*
X118950500Y-20612420D01*
X118950500Y-20464579D01*
X118921659Y-20319592D01*
X118921658Y-20319591D01*
X118921658Y-20319587D01*
X118909062Y-20289178D01*
X118865087Y-20183011D01*
X118865080Y-20182998D01*
X118782951Y-20060084D01*
X118782948Y-20060080D01*
X118678419Y-19955551D01*
X118678415Y-19955548D01*
X118555501Y-19873419D01*
X118555488Y-19873412D01*
X118418917Y-19816843D01*
X118418907Y-19816840D01*
X118273920Y-19788000D01*
X118273918Y-19788000D01*
X118126082Y-19788000D01*
X118126080Y-19788000D01*
X117981092Y-19816840D01*
X117981082Y-19816843D01*
X117844511Y-19873412D01*
X117844498Y-19873419D01*
X117721584Y-19955548D01*
X117721580Y-19955551D01*
X117617051Y-20060080D01*
X117617048Y-20060084D01*
X117534919Y-20182998D01*
X117534912Y-20183011D01*
X117478343Y-20319582D01*
X117478340Y-20319592D01*
X117449500Y-20464579D01*
X117449500Y-20464582D01*
X117449500Y-20612418D01*
X117449500Y-20612420D01*
X117449499Y-20612420D01*
X111550500Y-20612420D01*
X111550500Y-20464579D01*
X111545052Y-20437192D01*
X111551279Y-20367601D01*
X111594141Y-20312423D01*
X111660031Y-20289178D01*
X111666669Y-20289000D01*
X112356204Y-20289000D01*
X112422176Y-20308006D01*
X112450476Y-20325788D01*
X112450478Y-20325789D01*
X112475953Y-20334703D01*
X112620745Y-20385368D01*
X112620750Y-20385369D01*
X112799996Y-20405565D01*
X112800000Y-20405565D01*
X112800004Y-20405565D01*
X112979249Y-20385369D01*
X112979252Y-20385368D01*
X112979255Y-20385368D01*
X113149522Y-20325789D01*
X113302262Y-20229816D01*
X113429816Y-20102262D01*
X113525789Y-19949522D01*
X113585368Y-19779255D01*
X113605565Y-19600000D01*
X113603647Y-19582978D01*
X113585369Y-19420750D01*
X113585368Y-19420745D01*
X113550267Y-19320433D01*
X113525789Y-19250478D01*
X113498288Y-19206711D01*
X113495833Y-19202803D01*
X113476833Y-19135566D01*
X113497201Y-19068731D01*
X113550469Y-19023517D01*
X113600577Y-19012832D01*
X119975646Y-19000245D01*
X120042723Y-19019797D01*
G37*
%TD.AperFunction*%
%TD*%
M02*
