M48
; DRILL file {KiCad 8.0.5} date 2025-03-07T14:34:27+0100
; FORMAT={-:-/ absolute / inch / decimal}
; #@! TF.CreationDate,2025-03-07T14:34:27+01:00
; #@! TF.GenerationSoftware,Kicad,Pcbnew,8.0.5
; #@! TF.FileFunction,NonPlated,1,2,NPTH
FMAT,2
INCH
; #@! TA.AperFunction,NonPlated,NPTH,ComponentDrill
T1C0.0236
; #@! TA.AperFunction,NonPlated,NPTH,ComponentDrill
T2C0.0394
%
G90
G05
T1
X4.0865Y-3.6661
X4.3141Y-3.6661
T2
X3.2323Y-2.8189
X3.2323Y-3.0866
X3.2323Y-3.5138
X3.2323Y-3.7815
X4.3622Y-0.8086
X4.3622Y-1.0763
X4.3622Y-1.2047
X4.3622Y-1.4724
X4.3622Y-1.5787
X4.3622Y-1.8465
X4.3622Y-1.9682
X4.3622Y-2.2359
X4.6535Y-0.8086
X4.6535Y-1.0763
X4.6535Y-1.2047
X4.6535Y-1.4724
X4.6535Y-1.5807
X4.6535Y-1.8484
X4.6535Y-1.9682
X4.6535Y-2.2359
M30
